<svg width="584" height="286" viewBox="0 0 584 286" fill="none" xmlns="http://www.w3.org/2000/svg">
<path d="M8.85249 194.598V171.163L98.6875 53.726H134.882L46.3489 171.163L29.4234 165.955H173.941V194.598H8.85249ZM108.843 236V194.598L109.884 165.955V129.239H141.652V236H108.843Z" fill="#EDEDED"/>
<g clip-path="url(#clip0_715_41443)">
<path d="M292 196.141V214.939M281.352 181.975L254.837 227.901C250.107 236.093 256.019 246.332 265.478 246.332H318.508C327.967 246.332 333.879 236.093 329.149 227.901L302.634 181.975C297.905 173.784 286.081 173.784 281.352 181.975Z" stroke="#EDEDED" stroke-width="7.9112" stroke-miterlimit="10" stroke-linecap="round" stroke-linejoin="round"/>
<path d="M367.813 130.604C367.813 121.999 374.353 114.925 382.734 114.079C381.852 109.131 380.564 104.264 378.884 99.5263C371.193 103.012 361.966 100.161 357.655 92.6979C353.336 85.2139 355.497 75.7711 362.402 70.8678C359.149 67.0209 355.588 63.4455 351.754 60.1771C346.854 67.1025 337.395 69.2729 329.907 64.9493C322.397 60.6131 319.554 51.2972 323.142 43.5846C318.392 41.8757 313.509 40.5653 308.542 39.6672C307.789 48.1456 300.673 54.7916 292 54.7916C283.328 54.7916 276.211 48.1456 275.458 39.6672C270.491 40.5655 265.608 41.8758 260.859 43.5846C264.446 51.3014 261.603 60.6127 254.098 64.9493C246.606 69.2729 237.15 67.1025 232.251 60.1771C228.414 63.4447 224.851 67.0217 221.599 70.872C228.503 75.7711 230.669 85.2139 226.35 92.6979C222.039 100.161 212.808 103.012 205.121 99.5263C203.437 104.263 202.148 109.13 201.267 114.079C209.652 114.921 216.192 121.999 216.192 130.6C216.192 139.171 209.698 146.232 201.36 147.116C202.265 152.047 203.575 156.895 205.277 161.61C212.935 158.23 222.068 161.094 226.35 168.506C230.614 175.893 228.558 185.188 221.866 190.142C225.113 193.946 228.661 197.483 232.476 200.718C237.434 194.038 246.72 191.994 254.099 196.255C261.405 200.476 264.295 209.412 261.13 217.001L280.273 183.846L281.352 181.976C286.082 173.785 297.907 173.785 302.636 181.976L303.715 183.842L322.901 217.077C319.69 209.475 322.571 200.489 329.907 196.254C337.281 191.994 346.567 194.037 351.525 200.713C355.342 197.48 358.892 193.945 362.14 190.141C355.443 185.191 353.391 175.893 357.656 168.506C361.937 161.094 371.067 158.23 378.724 161.61C380.429 156.895 381.739 152.047 382.642 147.116C374.302 146.228 367.813 139.171 367.813 130.604Z" stroke="#EDEDED" stroke-width="7.9112" stroke-miterlimit="10" stroke-linecap="round" stroke-linejoin="round"/>
<path d="M328.044 88.8694C320.916 82.6165 312.225 78.1227 302.72 76.2451V105.453C312.358 109.604 319.105 119.19 319.105 130.355C319.105 131.396 319.046 132.424 318.932 133.435L344.248 148.052C346.347 142.048 347.286 135.605 347.138 129.255C347.087 125.045 346.511 120.908 345.477 116.913M280.742 76.3548C249.089 82.3875 229.382 117.929 239.752 148.051L265.068 133.439C264.952 132.415 264.894 131.385 264.894 130.354C264.894 119.19 271.642 109.604 281.279 105.453V76.2451C281.102 76.2787 280.92 76.3169 280.742 76.3548ZM333.532 166.632C325.57 175.77 314.981 181.507 303.714 183.842L302.636 181.976C297.906 173.785 286.081 173.785 281.351 181.976L280.272 183.846C269.015 181.519 258.426 175.782 250.468 166.631L275.733 152.04C280.264 155.442 285.895 157.46 292 157.46C298.105 157.46 303.736 155.442 308.267 152.04L333.532 166.632Z" stroke="#EDEDED" stroke-width="7.9112" stroke-miterlimit="10" stroke-linecap="round" stroke-linejoin="round"/>
<path d="M292 140.271C297.476 140.271 301.916 135.831 301.916 130.355C301.916 124.879 297.476 120.439 292 120.439C286.524 120.439 282.084 124.879 282.084 130.355C282.084 135.831 286.524 140.271 292 140.271Z" stroke="#EDEDED" stroke-width="7.9112" stroke-miterlimit="10" stroke-linecap="round" stroke-linejoin="round"/>
</g>
<path d="M415.854 194.598V171.163L505.689 53.726H541.884L453.351 171.163L436.425 165.955H580.942V194.598H415.854ZM515.844 236V194.598L516.886 165.955V129.239H548.654V236H515.844Z" fill="#EDEDED"/>
<defs>
<clipPath id="clip0_715_41443">
<rect width="215.066" height="215.066" fill="white" transform="translate(184.467 35.4668)"/>
</clipPath>
</defs>
</svg>
