<svg width="1387" height="557" viewBox="0 0 1387 557" fill="none" xmlns="http://www.w3.org/2000/svg">
<path d="M467.924 22.5872C474.46 9.34937 482.124 2.8499 490.958 2.92767C521.989 3.19987 562.55 85.0876 601.786 164.281C638.479 238.331 676.402 314.902 702.721 314.013C724.567 313.275 737.151 260.184 741.191 151.715C745.011 49.5405 756.186 -0.0887625 775.329 0.000119169C799.724 0.111221 832.988 78.3715 868.208 161.237C905.139 248.124 943.335 337.961 972.227 338.695C993.782 339.245 1008.03 290.354 1015.77 189.201C1022.81 97.2644 1038.58 51.8792 1063.95 50.4405C1100.41 48.3573 1151.43 136.195 1205.43 229.17C1265.18 332.04 1326.96 438.398 1375.68 436.67C1412 435.387 1436.74 373.881 1451.29 248.641L1452.35 249.008C1437.75 374.764 1412.75 436.526 1375.94 437.837C1326.5 439.586 1264.52 332.851 1204.56 229.631C1150.77 137.033 1099.96 49.5572 1064.23 51.5959C1039.34 53.0125 1023.84 98.1477 1016.84 189.551C1009.05 291.265 994.512 340.422 972.423 339.861C942.705 339.1 904.331 248.835 867.228 161.531C832.192 79.1048 799.1 1.26118 775.525 1.16118C756.917 1.0723 746.039 50.4349 742.242 152.027C738.167 261.057 725.316 314.419 702.959 315.169C675.855 316.085 639.418 242.519 600.835 164.648C561.796 85.8376 521.425 4.3387 491.16 4.07761C471.061 3.91096 457.183 39.1914 448.728 111.969L447.665 111.608C452.537 69.7556 459.238 40.2024 467.924 22.5872Z" fill="url(#paint0_linear_650_10758)" fill-opacity="0.2"/>
<path d="M457.271 31.9976C464.098 18.1487 472.119 11.3381 481.387 11.377C513.036 11.5048 554.232 92.1149 594.074 170.07C631.337 243.008 669.872 318.408 696.75 317.33C718.929 316.436 731.869 264.473 736.366 158.465C740.59 58.5287 752.099 9.93275 771.556 9.91053C796.432 9.88831 830.166 86.8764 865.873 168.392C903.32 253.852 942.039 342.233 971.555 342.85C993.484 343.311 1008.14 295.454 1016.36 196.545C1023.82 106.83 1039.94 62.4173 1065.64 60.7841C1102.86 58.4121 1154.75 145 1209.7 236.653C1270.48 338.073 1333.33 442.936 1383.13 440.881C1419.97 439.348 1445.27 379.208 1460.47 256.985L1461.53 257.351C1446.27 380.064 1420.7 440.459 1383.38 441.997C1332.89 444.092 1269.81 338.861 1208.82 237.097C1154.09 145.81 1102.42 59.5842 1065.93 61.9118C1040.71 63.5061 1024.85 107.658 1017.43 196.862C1009.16 296.332 994.215 344.444 971.751 343.967C941.439 343.333 902.536 254.529 864.922 168.659C829.4 87.5819 795.85 10.9993 771.782 11.016C752.883 11.0327 741.636 59.3398 737.436 158.704C732.926 265.273 719.707 317.513 697.012 318.424C669.349 319.541 632.347 247.097 593.141 170.397C553.501 92.8259 512.507 12.6047 481.613 12.477C461.193 12.3937 446.969 46.9131 438.117 118.024L437.059 117.657C442.008 77.8327 448.704 49.3795 457.271 31.9976Z" fill="url(#paint1_linear_650_10758)" fill-opacity="0.2"/>
<path d="M446.375 41.2524C453.504 26.7758 461.887 19.6319 471.625 19.6319C503.922 19.6097 545.766 98.9755 586.219 175.73C624.095 247.574 663.241 321.857 690.702 320.568C713.219 319.513 726.539 268.645 731.446 165.064C736.075 67.328 747.927 19.7597 767.706 19.6319C793.081 19.4597 827.29 95.2257 863.52 175.43C901.49 259.496 940.767 346.45 970.895 346.933C993.199 347.311 1008.27 300.476 1016.96 203.756C1024.83 116.218 1041.31 72.7776 1067.34 70.9444C1105.32 68.2669 1158.14 153.632 1214.05 244.014C1275.91 344.017 1339.87 447.425 1390.76 445.014C1428.12 443.253 1453.98 384.424 1469.83 265.178L1470.9 265.562C1454.99 385.291 1428.86 444.369 1391.03 446.153C1339.46 448.586 1275.26 344.833 1213.18 244.48C1157.51 154.465 1104.9 69.4389 1067.62 72.0665C1042.07 73.8608 1025.85 117.057 1018.02 204.083C1009.28 301.348 993.93 348.438 971.097 348.049C940.167 347.527 900.718 260.184 862.563 175.708C826.542 95.9424 792.51 20.5819 767.926 20.7318C748.712 20.8596 737.12 68.1446 732.51 165.314C727.585 269.434 713.991 320.574 690.969 321.663C662.748 322.996 625.134 251.624 585.304 176.069C545.029 99.6865 503.405 20.6985 471.833 20.7263C451.086 20.7429 436.53 54.5068 427.298 123.951L426.228 123.562C431.29 85.7154 437.944 58.3565 446.375 41.2524Z" fill="url(#paint2_linear_650_10758)" fill-opacity="0.2"/>
<path d="M435.254 50.346C442.704 35.2194 451.474 27.7367 461.681 27.6756C494.666 27.4868 537.158 105.653 578.271 181.235C618.541 255.274 656.57 325.207 684.619 323.701C707.457 322.479 721.146 272.694 726.487 171.503C731.519 75.9494 743.728 29.3755 763.809 29.1311C789.701 28.8255 824.416 103.381 861.168 182.307C899.691 265.034 939.545 350.583 970.32 350.944C992.992 351.221 1008.48 305.397 1017.64 210.844C1025.92 125.479 1042.75 82.9822 1069.1 80.938C1107.87 77.9382 1161.64 162.131 1218.54 251.263C1281.53 349.894 1346.66 451.897 1398.67 449.13C1436.54 447.119 1462.96 389.591 1479.45 273.283L1480.52 273.678C1463.95 390.479 1437.28 448.247 1398.94 450.269C1346.24 453.069 1280.9 350.727 1217.69 251.757C1161 162.992 1107.46 79.1325 1069.37 82.0767C1043.5 84.071 1026.92 126.318 1018.69 211.183C1009.48 306.27 993.711 352.355 970.51 352.071C938.939 351.699 898.924 265.74 860.2 182.607C823.643 104.103 789.113 29.9477 764.005 30.2476C744.465 30.4699 732.529 76.7661 727.532 171.775C722.179 273.5 708.223 323.551 684.874 324.812C656.071 326.357 617.834 256.051 577.356 181.607C536.445 106.391 494.131 28.6033 461.888 28.7811C440.809 28.8978 425.897 61.9228 416.284 129.734L415.226 129.34C420.353 93.398 426.978 67.1557 435.254 50.346Z" fill="url(#paint3_linear_650_10758)" fill-opacity="0.2"/>
<path d="M423.9 59.2619C431.671 43.4632 440.856 35.625 451.55 35.5139C485.213 35.1583 528.412 112.152 570.202 186.596C611.155 259.562 649.839 328.495 678.487 326.757C701.658 325.351 715.721 276.628 721.478 177.813C726.914 84.3877 739.468 38.8025 759.846 38.4414C786.261 37.9803 821.498 111.369 858.809 189.046C897.914 270.478 938.344 354.654 969.785 354.888C992.843 355.054 1008.74 310.214 1018.38 217.81C1027.06 134.567 1044.24 93.0203 1070.89 90.7704C1110.48 87.4318 1165.22 170.481 1223.19 258.412C1287.34 355.727 1353.68 456.363 1406.84 453.219C1445.21 450.941 1472.19 394.718 1489.32 281.277L1490.38 281.671C1473.18 395.568 1445.94 452.041 1407.11 454.335C1353.27 457.524 1286.71 356.554 1222.33 258.912C1164.61 171.342 1110.07 88.6151 1071.17 91.8981C1044.98 94.098 1028.06 135.395 1019.42 218.149C1009.73 311.091 993.556 356.188 969.975 356.015C937.768 355.788 897.142 271.195 857.846 189.373C820.738 112.108 785.685 39.108 760.054 39.5636C740.204 39.9191 727.918 85.2153 722.517 178.102C716.742 277.455 702.424 326.457 678.748 327.884C649.351 329.662 610.46 260.368 569.281 187.013C527.699 112.924 484.702 36.3026 451.758 36.6526C430.364 36.8804 415.113 69.1667 405.114 135.367L404.056 134.967C409.231 100.909 415.79 75.755 423.9 59.2619Z" fill="url(#paint4_linear_650_10758)" fill-opacity="0.2"/>
<path d="M412.314 68.0444C420.418 51.5568 430.025 43.3464 441.242 43.1797C475.6 42.6576 519.529 118.501 562.009 191.845C603.675 263.773 643.017 331.717 672.308 329.751C695.811 328.168 710.231 280.494 716.398 184.002C722.226 92.6813 735.13 48.0627 755.823 47.5905C782.773 46.9572 818.575 119.201 856.462 195.695C896.155 275.839 937.209 358.71 969.339 358.787C992.783 358.843 1009.08 314.969 1019.19 224.676C1028.28 143.533 1045.8 102.897 1072.75 100.436C1113.17 96.7476 1168.94 178.696 1227.98 265.456C1293.34 361.498 1360.93 460.807 1415.3 457.274C1454.17 454.757 1481.69 399.767 1499.45 289.193L1500.5 289.604C1482.67 400.628 1454.89 455.841 1415.57 458.413C1360.54 461.984 1292.73 362.343 1227.16 265.995C1168.32 179.535 1112.77 97.9142 1073.04 101.547C1046.55 103.969 1029.27 144.355 1020.24 225.015C1010.08 315.841 993.484 359.965 969.541 359.904C936.662 359.815 895.424 276.55 855.523 196.017C817.826 119.94 782.238 48.0849 756.061 48.7016C735.891 49.1737 723.254 93.5313 717.455 184.285C711.247 281.294 696.584 329.245 672.587 330.873C642.578 332.895 603.009 264.595 561.136 192.279C518.852 119.279 475.131 43.7853 441.485 44.313C419.764 44.6463 404.175 76.2215 393.789 140.833L392.738 140.427C397.877 108.241 404.383 84.182 412.314 68.0444Z" fill="url(#paint5_linear_650_10758)" fill-opacity="0.2"/>
<path d="M399.665 76.2827C408.125 59.0841 418.154 50.4959 429.924 50.2793C465.024 49.5849 509.744 124.329 552.996 196.612C595.434 267.545 635.526 334.539 665.457 332.334C689.288 330.573 704.075 283.938 710.64 189.773C716.861 100.57 730.116 56.9065 751.13 56.301C778.649 55.5122 815.045 126.656 853.574 201.995C893.933 280.905 935.67 362.504 968.507 362.454C992.337 362.404 1009.06 319.507 1019.64 231.303C1029.11 152.26 1046.96 112.541 1074.23 109.88C1115.52 105.853 1172.4 186.751 1232.62 272.394C1299.3 367.176 1368.25 465.229 1423.87 461.312C1463.25 458.546 1491.33 404.828 1509.71 297.109L1510.76 297.526C1492.29 405.7 1463.96 459.646 1424.14 462.451C1367.86 466.406 1298.69 368.026 1231.79 272.9C1171.8 187.585 1115.13 106.997 1074.51 110.974C1047.7 113.591 1030.09 153.06 1020.67 231.637C1010.04 320.363 993.038 363.515 968.709 363.57C935.129 363.626 893.19 281.638 852.635 202.35C814.315 127.434 778.121 56.6621 751.355 57.4398C730.852 58.0231 717.883 101.425 711.692 190.079C705.091 284.777 690.054 331.678 665.731 333.473C635.074 335.739 594.775 268.389 552.111 197.067C509.061 125.123 464.555 50.7237 430.144 51.4125C408.096 51.8514 392.143 82.7044 381.396 145.727L380.344 145.316C385.525 114.957 391.93 92.0148 399.665 76.2827Z" fill="url(#paint6_linear_650_10758)" fill-opacity="0.2"/>
<path d="M386.339 84.1155C395.15 66.2058 405.642 57.2232 417.964 56.9399C453.844 56.09 499.395 129.767 543.461 201.023C586.719 271.006 627.588 337.1 658.221 334.651C682.396 332.706 697.529 287.104 704.498 195.245C711.104 108.119 724.692 65.417 746.044 64.6893C774.158 63.7338 811.19 133.823 850.402 208.028C891.479 285.743 933.947 366.115 967.521 365.926C991.75 365.781 1008.9 323.851 1019.92 237.714C1029.78 160.754 1047.97 121.962 1075.54 119.107C1117.75 114.741 1175.81 194.623 1237.27 279.211C1305.34 372.864 1375.74 469.723 1432.67 465.44C1472.57 462.435 1501.2 409.994 1520.2 305.092L1521.26 305.52C1502.18 410.861 1473.29 463.546 1432.96 466.573C1375.39 470.901 1304.77 373.742 1236.47 279.777C1175.23 195.512 1117.39 115.924 1075.85 120.24C1048.73 123.04 1030.78 161.592 1020.97 238.092C1009.88 324.729 992.451 366.909 967.723 367.065C933.419 367.259 890.737 286.516 849.475 208.422C810.477 134.628 773.647 64.9226 746.282 65.8336C725.44 66.5447 712.126 108.98 705.555 195.573C698.544 287.943 683.163 333.812 658.506 335.795C627.172 338.306 586.089 271.867 542.593 201.511C498.735 130.584 453.392 57.2621 418.196 58.0954C395.81 58.6287 379.525 88.7651 368.391 150.232L367.333 149.805C372.514 121.251 378.812 99.4198 386.339 84.1155Z" fill="url(#paint7_linear_650_10758)" fill-opacity="0.2"/>
<path d="M372.717 91.8149C381.902 73.1553 392.869 63.7894 405.78 63.4228C442.449 62.3951 488.885 135.067 533.777 205.322C577.903 274.378 619.574 339.606 650.902 336.895C675.416 334.762 690.917 290.193 698.272 200.595C705.259 115.524 719.191 73.7608 740.858 72.9108C769.578 71.7887 807.293 140.844 847.194 213.949C888.997 290.521 932.219 369.692 966.547 369.348C991.192 369.103 1008.75 328.118 1020.24 244.041C1030.49 169.131 1049.02 131.234 1076.88 128.179C1120.01 123.451 1179.29 202.384 1242.06 285.938C1311.57 378.486 1383.44 474.161 1441.73 469.506C1482.14 466.279 1511.32 415.061 1530.93 312.947L1531.98 313.386C1512.28 415.927 1482.86 467.379 1442.02 470.645C1383.1 475.356 1311 379.358 1241.26 286.527C1178.74 203.283 1119.67 124.668 1077.18 129.306C1049.76 132.306 1031.47 169.964 1021.29 244.425C1009.73 329.012 991.899 370.248 966.767 370.492C931.702 370.848 888.266 291.299 846.273 214.372C806.58 141.65 769.079 72.972 741.09 74.0664C719.922 74.8885 706.257 116.402 699.306 200.939C691.915 291.038 676.17 335.878 651.176 338.045C619.141 340.806 577.249 275.244 532.886 205.828C488.19 135.884 441.974 63.5672 405.988 64.5616C383.257 65.1949 366.615 94.6258 355.113 154.532L354.061 154.093C359.254 127.351 365.427 106.641 372.717 91.8149Z" fill="url(#paint8_linear_650_10758)" fill-opacity="0.2"/>
<path d="M358.868 99.3809C368.433 79.9436 379.888 70.1555 393.41 69.7333C430.893 68.5389 478.221 140.189 523.992 209.5C568.997 277.661 611.518 342.056 643.565 339.084C668.417 336.784 684.262 293.193 692.01 205.833C699.377 122.79 713.648 81.9378 735.648 80.9657C764.992 79.6602 803.384 147.71 844.022 219.754C886.579 295.193 930.573 373.197 965.686 372.703C990.728 372.347 1008.71 332.284 1020.67 250.219C1031.28 177.325 1050.12 140.311 1078.29 137.078C1122.39 132 1182.92 209.983 1247.02 292.554C1318.02 384.024 1391.44 478.594 1451.13 473.534C1492.04 470.067 1521.76 420.071 1541.97 320.696L1543.02 321.152C1522.72 420.955 1492.75 471.167 1451.42 474.667C1391.12 479.772 1317.47 384.908 1246.25 293.16C1182.39 210.905 1122.08 133.2 1078.62 138.222C1050.89 141.416 1032.28 178.191 1021.73 250.635C1009.71 333.19 991.453 373.503 965.935 373.87C930.104 374.37 885.883 295.998 843.136 220.199C802.712 148.532 764.528 80.8546 735.921 82.1156C714.42 83.0656 700.399 123.651 693.079 206.172C685.284 294.021 669.189 337.873 643.88 340.211C611.138 343.255 568.397 278.533 523.16 210.016C477.603 141.027 430.495 69.6944 393.683 70.8832C370.613 71.6164 353.645 100.353 341.757 158.732L340.711 158.282C345.767 133.311 351.809 113.713 358.868 99.3809Z" fill="url(#paint9_linear_650_10758)" fill-opacity="0.2"/>
<path d="M344.727 106.797C354.69 86.5708 366.656 76.3662 380.819 75.8551C419.14 74.4774 467.389 145.166 514.039 213.538C559.983 280.844 603.36 344.428 636.155 341.172C661.322 338.672 677.524 296.076 685.663 210.927C693.411 129.873 708.026 89.9317 730.347 88.8262C760.339 87.3375 799.432 154.421 840.812 225.426C884.136 299.776 928.95 376.658 964.871 376.014C990.311 375.542 1008.72 336.4 1021.13 256.318C1032.12 185.424 1051.3 149.282 1079.74 145.838C1124.81 140.366 1186.65 217.455 1252.13 299.076C1324.67 389.485 1399.67 482.983 1460.79 477.522C1502.19 473.811 1532.44 425.027 1553.27 328.357L1554.32 328.812C1533.41 425.893 1502.91 474.9 1461.1 478.655C1399.39 484.172 1324.15 390.396 1251.39 299.698C1186.16 218.388 1124.54 141.578 1080.08 146.977C1052.06 150.377 1033.13 186.279 1022.22 256.729C1009.73 337.284 991.066 376.669 965.132 377.142C928.505 377.814 883.488 300.559 839.951 225.865C798.778 155.215 759.893 88.4929 730.633 89.9484C708.805 91.0483 694.444 130.723 686.745 211.255C678.552 296.887 662.107 339.739 636.482 342.283C603.009 345.6 559.401 281.699 513.231 214.049C466.789 145.994 418.754 75.6107 381.087 76.9717C357.696 77.8049 340.372 105.869 328.127 162.748L327.081 162.281C332.06 139.067 337.93 120.596 344.727 106.797Z" fill="url(#paint10_linear_650_10758)" fill-opacity="0.2"/>
<path d="M330.278 114.074C340.651 93.0202 353.127 82.3878 367.969 81.7878C407.151 80.2157 456.35 149.982 503.933 217.46C550.821 283.949 595.101 346.738 628.657 343.205C654.157 340.511 670.697 298.87 679.211 215.905C687.345 136.828 702.293 97.7754 724.941 96.5199C755.586 94.8201 795.404 160.97 837.574 231.003C881.718 304.303 927.352 380.102 964.11 379.275C989.967 378.691 1008.78 340.439 1021.65 262.318C1033.02 193.395 1052.49 158.12 1081.2 154.471C1127.29 148.616 1190.46 224.843 1257.38 305.536C1331.5 394.946 1408.15 487.41 1470.72 481.533C1512.6 477.589 1543.38 429.982 1564.79 335.962L1565.83 336.428C1544.32 430.843 1513.31 478.666 1471.02 482.655C1407.85 488.588 1330.96 395.857 1256.63 306.169C1189.98 225.771 1127.01 149.821 1081.53 155.598C1053.23 159.193 1034 194.24 1022.7 262.74C1009.75 341.328 990.662 379.825 964.348 380.419C926.907 381.258 881.04 305.12 836.701 231.47C794.762 161.809 755.14 96.0089 725.208 97.6699C703.047 98.892 688.349 137.689 680.269 216.266C671.696 299.714 654.912 341.605 628.966 344.35C594.745 347.955 550.239 284.849 503.114 218.032C455.744 150.86 406.771 81.4157 368.218 82.9544C344.495 83.9043 326.82 111.291 314.206 166.675L313.161 166.209C318.08 144.638 323.766 127.301 330.278 114.074Z" fill="url(#paint11_linear_650_10758)" fill-opacity="0.2"/>
<path d="M315.574 121.229C326.363 99.3364 339.38 88.2429 354.899 87.5652C394.955 85.8042 445.146 154.66 493.674 221.26C541.554 286.949 586.761 348.988 621.095 345.139C646.904 342.239 663.771 301.553 672.695 220.738C681.203 143.594 696.501 105.43 719.452 104.031C750.768 102.131 791.353 167.359 834.326 236.425C879.289 308.692 925.797 383.43 963.387 382.43C989.629 381.725 1008.88 344.361 1022.2 268.173C1033.92 201.184 1053.7 166.748 1082.67 162.909C1129.79 156.654 1194.36 232.042 1262.73 311.841C1338.49 400.295 1416.84 491.754 1480.91 485.449C1523.27 481.283 1554.56 434.82 1576.56 343.428L1577.62 343.928C1555.52 435.715 1523.98 482.383 1481.24 486.588C1416.58 492.96 1338 401.223 1262.01 312.519C1193.89 232.987 1129.54 157.876 1083.02 164.048C1054.45 167.842 1034.91 202.039 1023.26 268.606C1009.85 345.25 990.348 382.847 963.642 383.574C925.363 384.597 878.659 309.519 833.476 236.909C790.729 168.203 750.347 103.303 719.743 105.175C697.262 106.547 682.219 144.466 673.77 221.11C664.805 302.403 647.688 343.339 621.446 346.277C586.446 350.205 541.008 287.843 492.89 221.821C444.57 155.51 394.61 86.9653 355.172 88.704C331.128 89.765 313.126 116.496 300.139 170.431L299.105 169.953C303.882 150.06 309.354 133.845 315.574 121.229Z" fill="url(#paint12_linear_650_10758)" fill-opacity="0.2"/>
<path d="M300.56 128.262C311.783 105.492 325.371 93.9369 341.602 93.1537C382.579 91.1927 433.774 159.187 483.288 224.921C532.173 289.843 578.354 351.155 613.496 347C639.596 343.905 656.819 304.147 666.106 225.459C674.988 150.243 690.625 112.924 713.891 111.369C745.908 109.241 787.271 173.603 831.081 241.736C876.918 313.019 924.299 386.735 962.763 385.535C989.409 384.702 1009.06 348.194 1022.86 273.922C1034.94 208.839 1055.02 175.253 1084.22 171.203C1132.4 164.542 1198.4 239.119 1268.29 318.085C1345.76 405.617 1425.86 496.104 1491.48 489.36C1534.28 484.955 1566.09 439.642 1588.68 350.827L1589.73 351.327C1567.04 440.531 1535 486.044 1491.81 490.488C1425.62 497.293 1345.28 406.517 1267.59 318.757C1197.95 240.064 1132.16 165.742 1084.58 172.314C1055.77 176.297 1035.92 209.672 1023.91 274.333C1010.04 349.072 990.122 385.802 963.024 386.641C923.883 387.863 876.282 313.813 830.238 242.208C786.659 174.414 745.498 110.391 714.188 112.474C691.38 113.985 676.01 151.049 667.187 225.787C657.841 304.942 640.392 344.944 613.847 348.094C578.069 352.338 531.656 290.721 482.522 225.482C433.228 160.015 382.246 92.3259 341.887 94.248C317.522 95.4146 299.182 121.496 285.826 173.992L284.78 173.492C289.409 155.31 294.661 140.233 300.56 128.262Z" fill="url(#paint13_linear_650_10758)" fill-opacity="0.2"/>
<path d="M285.22 135.156C296.883 111.496 311.04 99.4586 328.026 98.5809C369.936 96.42 422.177 163.564 472.701 228.498C522.649 292.687 569.834 353.305 605.784 348.805C632.187 345.511 649.714 306.664 659.404 230.065C668.666 156.737 684.624 120.268 708.205 118.551C740.917 116.202 783.094 179.702 827.766 246.946C874.488 317.28 922.796 390.001 962.145 388.602C989.189 387.646 1009.25 351.993 1023.5 279.599C1035.94 216.405 1056.3 183.613 1085.74 179.391C1134.99 172.314 1202.48 246.124 1273.93 324.268C1353.15 410.894 1435.07 500.487 1502.28 493.299C1545.55 488.677 1577.84 444.491 1601.02 358.21L1602.06 358.721C1578.77 445.364 1546.25 489.766 1502.62 494.437C1434.84 501.681 1352.69 411.861 1273.25 324.979C1202.03 247.102 1134.77 173.541 1086.1 180.535C1057.05 184.707 1036.91 217.26 1024.56 280.077C1010.23 352.916 989.896 388.807 962.4 389.779C922.38 391.196 873.858 318.141 826.917 247.497C782.482 180.596 740.519 117.424 708.478 119.724C685.361 121.396 669.646 157.615 660.443 230.465C650.706 307.514 632.936 346.605 606.105 349.96C569.507 354.527 522.096 293.621 471.905 229.115C421.595 164.459 369.562 97.5976 328.282 99.7363C303.596 101.003 284.929 126.468 271.211 177.53L270.171 177.013C274.651 160.376 279.653 146.444 285.22 135.156Z" fill="url(#paint14_linear_650_10758)" fill-opacity="0.2"/>
<path d="M269.6 141.933C281.72 117.357 296.478 104.825 314.236 103.836C357.09 101.475 410.413 167.781 461.988 231.926C513.029 295.409 561.242 355.355 598.048 350.527C624.736 347.022 642.595 309.075 652.642 234.542C662.279 163.081 678.564 127.445 702.447 125.584C735.885 122.99 778.917 185.679 824.468 252.052C872.105 321.452 921.363 393.224 961.627 391.613C989.058 390.535 1009.54 355.699 1024.24 285.16C1037.03 223.81 1057.67 191.84 1087.34 187.418C1137.71 179.913 1206.73 252.985 1279.8 330.34C1360.83 416.116 1444.61 504.798 1513.46 497.16C1557.15 492.321 1589.93 449.225 1613.69 365.459L1614.72 365.981C1590.86 450.13 1557.85 493.41 1513.79 498.298C1444.39 505.992 1360.38 417.061 1279.14 331.062C1206.3 253.968 1137.51 181.141 1087.71 188.551C1058.42 192.912 1038.01 224.665 1025.31 285.621C1010.51 356.604 989.771 391.646 961.906 392.751C920.989 394.374 871.499 322.285 823.648 252.574C778.335 186.546 735.528 124.173 702.762 126.718C679.336 128.534 663.295 163.937 653.723 234.937C643.611 309.914 625.514 348.099 598.417 351.66C560.987 356.577 512.536 296.337 461.258 232.559C409.896 168.692 356.793 102.653 314.533 104.969C289.544 106.347 270.538 131.184 256.452 180.847L255.418 180.324C259.672 165.287 264.395 152.493 269.6 141.933Z" fill="url(#paint15_linear_650_10758)" fill-opacity="0.2"/>
<path d="M253.648 148.599C266.237 123.079 281.607 110.019 300.168 108.936C343.996 106.358 398.435 171.892 451.086 235.253C503.256 298.048 552.539 357.371 590.212 352.188C617.167 348.477 635.353 311.43 645.768 238.919C655.779 169.286 672.391 134.472 696.572 132.45C730.757 129.59 774.645 191.49 821.129 257.024C869.711 325.529 919.956 396.368 961.17 394.557C988.987 393.346 1009.88 359.337 1025.04 290.615C1038.17 231.092 1059.08 199.917 1088.96 195.312C1140.46 187.379 1211.06 259.734 1285.8 336.328C1368.69 421.282 1454.4 509.114 1524.92 501.031C1569.02 495.976 1602.3 453.98 1626.62 372.653L1627.65 373.192C1603.22 454.88 1569.72 497.071 1525.25 502.159C1454.18 510.297 1368.26 422.232 1285.14 337.062C1210.64 260.718 1140.28 188.59 1089.33 196.434C1059.84 200.978 1039.15 231.937 1026.1 291.082C1010.84 360.232 989.7 394.457 961.449 395.695C919.593 397.529 869.134 326.385 820.333 257.574C774.093 192.373 730.413 130.784 696.904 133.589C673.175 135.572 656.801 170.147 646.862 239.325C636.369 312.269 617.963 349.555 590.598 353.316C552.307 358.593 502.787 298.992 450.385 235.903C397.954 172.792 343.734 107.53 300.482 110.069C275.185 111.558 255.858 135.756 241.409 184.074L240.381 183.535C244.391 170.025 248.818 158.398 253.648 148.599Z" fill="url(#paint16_linear_650_10758)" fill-opacity="0.2"/>
<path d="M237.334 155.137C250.411 128.623 266.417 115.063 285.821 113.846C330.653 111.063 386.245 175.83 439.995 238.458C493.341 300.598 543.729 359.304 582.293 353.749C609.51 349.833 627.993 313.647 638.794 243.158C649.185 175.341 666.112 141.316 690.59 139.139C725.542 136.017 770.345 197.151 817.761 261.879C867.323 329.518 918.584 399.462 960.755 397.429C988.964 396.079 1010.27 362.882 1025.88 295.965C1039.35 238.231 1060.52 207.839 1090.59 203.061C1143.25 194.695 1215.48 266.362 1291.95 342.233C1376.75 426.382 1464.45 513.391 1536.7 504.864C1581.22 499.604 1614.97 458.679 1639.86 379.769L1640.88 380.313C1615.89 459.59 1581.92 500.698 1537.04 505.992C1464.26 514.58 1376.34 427.354 1291.31 342.978C1215.1 267.35 1143.1 195.912 1090.97 204.194C1061.26 208.911 1040.33 239.092 1026.93 296.454C1011.21 363.804 989.665 397.201 961.028 398.579C918.21 400.64 866.735 330.395 816.965 262.468C769.774 198.056 725.203 137.233 690.893 140.294C666.854 142.433 650.166 176.219 639.846 243.58C628.985 314.502 610.27 350.916 582.656 354.893C543.485 360.537 492.866 301.559 439.282 239.131C385.74 176.752 330.368 112.246 286.094 114.985C260.493 116.591 240.845 140.189 226.034 187.14L225.012 186.59C228.808 174.608 232.902 164.12 237.334 155.137Z" fill="url(#paint17_linear_650_10758)" fill-opacity="0.2"/>
<path d="M220.74 161.576C234.315 134.061 250.974 119.963 271.246 118.624C317.1 115.619 373.88 179.647 428.777 241.558C483.335 303.075 534.852 361.176 574.337 355.255C601.809 351.127 620.589 315.819 631.753 247.297C642.501 181.28 659.76 148.038 684.511 145.699C720.247 142.311 765.971 202.7 814.38 266.645C864.958 333.462 917.252 402.528 960.427 400.279C989.01 398.784 1010.71 366.387 1026.78 301.231C1040.6 245.252 1062.01 215.638 1092.26 210.694C1146.12 201.895 1220.02 272.894 1298.26 348.055C1385.05 431.437 1474.79 517.652 1548.8 508.67C1593.72 503.22 1627.93 463.351 1653.37 386.802L1654.38 387.363C1628.82 464.268 1594.4 504.315 1549.13 509.797C1474.6 518.841 1384.63 432.398 1297.63 348.805C1219.61 273.867 1145.95 203.078 1092.63 211.794C1062.72 216.671 1041.54 246.086 1027.81 301.703C1011.64 367.265 989.682 399.867 960.689 401.39C916.896 403.678 864.364 334.301 813.578 267.212C765.395 203.584 719.897 143.483 684.796 146.81C660.485 149.116 643.469 182.119 632.787 247.685C621.558 316.624 602.552 352.166 574.67 356.349C534.596 362.371 482.842 304.003 428.041 242.197C373.358 180.524 316.809 116.752 271.495 119.707C245.598 121.396 225.629 144.399 210.467 190.04L209.451 189.479C212.962 179.03 216.723 169.708 220.74 161.576Z" fill="url(#paint18_linear_650_10758)" fill-opacity="0.2"/>
<path d="M203.754 167.886C217.84 139.344 235.183 124.679 256.357 123.218C303.269 120.007 361.267 183.324 417.346 244.53C473.146 305.453 525.851 362.993 566.269 356.676C593.985 352.349 613.056 317.88 624.564 251.307C635.68 187.057 653.254 154.604 678.273 152.077C714.823 148.41 761.509 208.1 810.934 271.283C862.558 337.278 915.933 405.528 960.13 403.034C989.094 401.412 1011.19 369.781 1027.71 306.375C1041.85 252.124 1063.5 223.265 1093.93 218.171C1149.01 208.939 1224.63 279.294 1304.71 353.793C1393.54 436.442 1485.4 521.896 1561.21 512.48C1606.52 506.853 1641.18 468.023 1667.17 393.785L1668.19 394.368C1642.09 468.934 1607.21 507.947 1561.56 513.619C1485.24 523.107 1393.16 437.442 1304.1 354.593C1224.27 280.31 1148.86 210.166 1094.31 219.315C1064.23 224.359 1042.79 253.007 1028.76 306.908C1012.14 370.72 989.777 402.539 960.415 404.195C915.607 406.717 862.005 338.178 810.174 271.911C760.981 209.033 714.514 149.627 678.594 153.232C653.985 155.704 636.667 187.935 625.622 251.752C614.031 318.735 594.733 353.443 566.631 357.826C525.625 364.22 472.683 306.431 416.645 245.247C360.768 184.263 303.002 121.19 256.63 124.368C230.43 126.156 210.164 148.594 194.64 192.907L193.618 192.323C196.808 183.274 200.177 175.136 203.754 167.886Z" fill="url(#paint19_linear_650_10758)" fill-opacity="0.2"/>
<path d="M186.423 174.108C201.039 144.499 219.07 129.256 241.195 127.679C289.2 124.257 348.446 186.868 405.749 247.419C462.844 307.753 516.785 364.754 558.171 358.054C586.119 353.532 605.469 319.891 617.34 255.24C628.824 192.729 646.689 161.037 671.993 158.365C709.369 154.41 757.053 213.405 807.524 275.872C860.223 341.078 914.727 408.517 959.964 405.806C989.296 404.045 1011.8 373.192 1028.76 311.491C1043.21 258.929 1065.11 230.826 1095.69 225.576C1152.01 215.905 1229.42 285.655 1311.38 359.504C1402.31 441.447 1496.33 526.157 1574.01 516.302C1619.69 510.492 1654.8 472.7 1681.32 400.723L1682.34 401.317C1655.69 473.617 1620.38 511.586 1574.34 517.43C1496.17 527.351 1401.92 442.431 1310.77 360.293C1229.05 286.649 1151.87 217.099 1096.05 226.682C1065.81 231.876 1044.14 259.773 1029.78 311.997C1012.7 374.081 989.967 405.134 960.237 406.922C914.401 409.672 859.682 341.967 806.764 276.494C756.531 214.327 709.078 155.604 672.308 159.498C647.42 162.131 629.792 193.595 618.397 255.685C606.461 320.746 586.867 354.604 558.545 359.198C516.594 365.987 462.422 308.747 405.078 248.141C347.995 187.813 288.969 125.429 241.504 128.823C215.03 130.712 194.438 152.56 178.575 195.606L177.559 195.012C180.345 187.379 183.31 180.419 186.423 174.108Z" fill="url(#paint20_linear_650_10758)" fill-opacity="0.2"/>
<path d="M168.725 180.208C183.881 149.499 202.637 133.689 225.743 131.978C274.853 128.345 335.4 190.284 393.939 250.191C452.376 309.986 507.576 366.459 549.937 359.365C578.092 354.643 597.728 321.84 609.955 259.062C621.784 198.262 639.964 167.309 665.529 164.481C703.761 160.22 752.473 218.566 804.037 280.322C857.853 344.777 913.51 411.439 959.828 408.467C989.516 406.567 1012.41 376.48 1029.82 316.48C1044.6 265.59 1066.71 238.214 1097.44 232.82C1155.04 222.715 1234.29 291.871 1318.18 365.104C1411.27 446.347 1507.53 530.373 1587.12 520.08C1633.18 514.13 1668.72 477.339 1695.78 407.583L1696.79 408.189C1669.61 478.233 1633.84 515.208 1587.46 521.196C1507.39 531.54 1410.9 447.341 1317.61 365.909C1233.94 292.887 1154.93 223.915 1097.83 233.942C1067.43 239.269 1045.53 266.456 1030.86 317.008C1013.33 377.391 990.193 407.678 960.113 409.594C913.201 412.594 857.336 345.672 803.306 280.955C751.974 219.471 703.506 161.415 665.874 165.598C640.725 168.392 622.782 199.117 611.019 259.496C598.726 322.663 578.871 355.688 550.335 360.471C507.398 367.67 451.972 310.952 393.285 250.913C334.948 191.229 274.627 129.506 226.046 133.1C199.274 135.078 178.385 156.354 162.16 198.145L161.15 197.534C163.556 191.312 166.093 185.54 168.725 180.208Z" fill="url(#paint21_linear_650_10758)" fill-opacity="0.2"/>
<path d="M150.646 186.224C166.36 154.388 185.859 137.955 209.993 136.117C260.243 132.267 322.109 193.562 381.949 252.846C441.771 312.113 498.272 368.092 541.661 360.576C570.036 355.665 589.922 323.674 602.493 262.751C614.679 203.633 633.15 173.441 658.964 170.425C698.081 165.875 747.839 223.56 800.526 284.649C855.488 348.383 912.34 414.277 959.768 411.078C989.825 409.044 1013.11 379.697 1030.96 321.357C1046.03 272.083 1068.36 245.452 1099.24 239.93C1158.15 229.392 1239.27 297.987 1325.17 370.609C1420.48 451.197 1519.04 534.523 1600.59 523.824C1647 517.73 1682.98 481.911 1710.57 414.355L1711.58 414.977C1683.87 482.839 1647.67 518.819 1600.94 524.952C1518.93 535.712 1420.15 452.202 1324.62 371.431C1238.96 299.009 1158.06 230.598 1099.64 241.047C1069.1 246.508 1046.97 272.956 1031.99 321.896C1014.02 380.608 990.49 410.139 960.054 412.205C912.054 415.45 854.989 349.288 799.801 285.305C747.346 224.487 697.808 167.059 659.297 171.536C633.887 174.508 615.641 204.483 603.539 263.19C590.884 324.49 570.779 356.721 542.03 361.676C498.082 369.281 441.361 313.086 381.296 253.563C321.67 194.495 260.012 133.411 210.272 137.206C183.233 139.272 162.029 160.004 145.465 200.545L144.455 199.923C146.469 195.106 148.525 190.512 150.646 186.224Z" fill="url(#paint22_linear_650_10758)" fill-opacity="0.2"/>
<path d="M132.186 192.123C148.477 159.126 168.755 142.077 193.939 140.094C245.361 136.05 308.593 196.717 369.746 255.396C430.982 314.152 488.838 369.659 533.254 361.732C561.825 356.649 581.984 325.451 594.882 266.339C607.424 208.883 626.187 179.419 652.251 176.252C692.259 171.381 743.128 228.465 796.973 288.915C853.123 351.944 911.181 417.099 959.75 413.661C990.164 411.505 1013.84 382.902 1032.11 326.185C1047.49 278.5 1070.04 252.585 1101.04 246.941C1161.28 235.981 1244.35 304.031 1332.29 376.069C1429.89 456.018 1530.81 538.69 1614.36 527.596C1661.11 521.385 1697.53 486.555 1725.65 421.105L1726.64 421.749C1698.4 487.477 1661.79 522.469 1614.71 528.724C1530.71 539.889 1429.58 457.041 1331.77 376.925C1244.05 305.07 1161.21 237.197 1101.44 248.069C1070.77 253.646 1048.43 279.383 1033.17 326.751C1014.75 383.813 990.841 412.611 960.065 414.805C910.943 418.299 852.642 352.882 796.278 289.604C742.67 229.431 692.045 172.597 652.613 177.397C626.953 180.519 608.422 209.772 595.958 266.828C582.964 326.296 562.598 357.704 533.676 362.87C488.707 370.887 430.637 315.163 369.146 256.185C308.201 197.717 245.188 137.25 194.26 141.244C166.948 143.394 145.447 163.565 128.538 202.917L127.54 202.284C129.049 198.728 130.6 195.345 132.186 192.123Z" fill="url(#paint23_linear_650_10758)" fill-opacity="0.2"/>
<path d="M113.352 197.951C130.237 163.742 151.299 146.055 177.612 143.955C230.228 139.722 294.862 199.789 357.382 257.868C420.103 316.141 479.331 371.175 524.829 362.843C553.578 357.576 573.975 327.162 587.212 269.85C600.11 214.044 619.152 185.291 645.442 181.957C686.377 176.769 738.356 233.27 793.414 293.076C850.782 355.421 910.123 419.894 959.857 416.188C990.62 413.9 1014.67 386.019 1033.39 330.912C1049.06 284.788 1071.81 259.579 1102.93 253.841C1164.53 242.475 1249.59 309.98 1339.64 381.475C1439.58 460.813 1542.92 542.839 1628.52 531.351C1675.64 525.03 1712.46 491.154 1741.1 427.793L1742.08 428.449C1713.31 492.088 1676.29 526.118 1628.88 532.479C1542.83 544.028 1439.28 461.824 1339.13 382.324C1249.3 311.019 1164.46 243.664 1103.34 254.952C1072.54 260.64 1050.01 285.671 1034.44 331.479C1015.6 386.924 991.31 415.016 960.172 417.322C909.885 421.06 850.336 356.349 792.742 293.765C737.929 234.209 686.169 177.963 645.798 183.074C619.888 186.346 601.073 214.894 588.281 270.317C574.955 327.979 554.339 358.61 525.233 363.937C479.212 372.375 419.741 317.113 356.782 258.623C294.482 200.739 230.049 140.866 177.921 145.066C150.33 147.283 128.556 166.903 111.285 205.078L110.292 204.422C111.279 202.211 112.312 200.045 113.352 197.951Z" fill="url(#paint24_linear_650_10758)" fill-opacity="0.2"/>
<path d="M94.0786 203.661C111.581 168.22 133.469 149.888 160.929 147.627C214.78 143.211 280.865 202.684 344.768 260.19C408.999 317.996 469.677 372.586 516.256 363.837C545.172 358.41 565.829 328.762 579.381 273.217C592.612 219.01 611.945 190.968 638.467 187.485C680.352 181.98 733.508 237.908 789.801 297.131C848.441 358.815 909.071 422.599 960.011 418.66C991.108 416.249 1015.53 389.068 1034.7 335.556C1050.67 290.954 1073.6 266.434 1104.83 260.607C1167.84 248.841 1254.95 315.852 1347.17 386.802C1449.51 465.534 1555.35 546.95 1643.04 535.095C1690.49 528.685 1727.73 495.732 1756.87 434.431L1757.85 435.098C1728.57 496.704 1691.13 529.762 1643.39 536.223C1555.26 548.128 1449.22 466.562 1346.67 387.663C1254.67 316.88 1167.78 250.03 1105.24 261.723C1074.33 267.506 1051.59 291.843 1035.73 336.145C1016.45 390.002 991.779 417.372 960.32 419.805C908.846 423.799 847.99 359.771 789.142 297.859C733.093 238.892 680.168 183.202 638.829 188.635C612.682 192.068 593.587 219.899 580.439 273.728C566.798 329.629 545.938 359.476 516.672 364.976C469.57 373.831 408.666 319.018 344.198 260.995C280.496 203.667 214.62 144.383 161.256 148.771C133.398 151.06 111.338 170.136 93.7224 207.155L92.7361 206.489C93.1578 205.528 93.6211 204.594 94.0786 203.661Z" fill="url(#paint25_linear_650_10758)" fill-opacity="0.2"/>
<path d="M74.8414 208.4C92.8969 172.258 115.503 153.526 143.944 151.165C199.049 146.582 266.606 205.472 331.936 262.434C397.735 319.791 459.892 373.975 507.588 364.798C536.67 359.21 557.542 330.334 571.432 276.516C584.996 223.898 604.596 196.562 631.338 192.923C674.203 187.09 728.56 242.469 786.118 301.109C846.047 362.159 908.02 425.287 960.202 421.104C991.631 418.582 1016.45 392.096 1036.03 340.111C1052.28 296.992 1075.4 273.167 1106.74 267.256C1171.17 255.096 1260.38 321.635 1354.83 392.068C1459.64 470.234 1568.03 551.055 1657.87 538.856C1705.66 532.368 1743.3 500.37 1772.96 441.02L1773.93 441.697C1744.15 501.303 1706.31 533.456 1658.23 539.967C1567.96 552.227 1459.37 471.25 1354.35 392.935C1260.11 322.674 1171.13 256.307 1107.15 268.372C1076.13 274.228 1053.2 297.892 1037.06 340.717C1017.36 393.018 992.32 419.677 960.517 422.238C907.824 426.465 845.637 363.109 785.477 301.836C728.15 243.441 674.007 188.29 631.712 194.045C605.345 197.634 585.964 224.765 572.49 277.027C558.528 331.201 537.425 360.271 508.01 365.926C459.797 375.192 397.426 320.813 331.383 263.24C266.244 206.455 198.894 147.743 144.259 152.299C116.133 154.632 93.7462 173.225 75.8275 209.088L74.8414 208.4Z" fill="url(#paint26_linear_650_10758)" fill-opacity="0.2"/>
<path d="M56.6437 210.205C75.0436 175.175 97.9349 156.971 126.631 154.549C183.019 149.799 252.098 208.133 318.919 264.556C386.34 321.496 450.012 375.269 498.872 365.681C528.097 359.948 549.206 331.823 563.4 279.699C577.296 228.631 597.164 201.967 624.107 198.195C667.953 192.04 723.569 246.891 782.453 304.97C843.718 365.409 907.087 427.909 960.505 423.482C992.273 420.849 1017.45 395.051 1037.46 344.594C1053.97 302.931 1077.29 279.772 1108.71 273.794C1174.6 261.262 1265.96 327.318 1362.7 397.256C1441.75 454.413 1523.5 513.508 1598.26 535.245C1682.94 559.882 1745.47 531.19 1789.4 447.541L1790.36 448.247C1767.03 492.665 1737.95 522.096 1703.94 535.717C1673.4 547.944 1638.8 548.15 1598.19 536.34C1523.22 514.536 1441.37 455.357 1362.23 398.134C1265.72 328.368 1174.55 262.451 1109.11 274.905C1077.99 280.822 1054.89 303.809 1038.46 345.194C1018.32 395.962 992.92 421.938 960.79 424.593C906.85 429.059 843.273 366.353 781.793 305.703C723.159 247.863 667.769 193.229 624.446 199.311C597.859 203.039 578.229 229.509 564.422 280.216C550.145 332.69 528.822 361.004 499.264 366.803C449.917 376.486 386.013 322.518 318.354 265.384C251.747 209.127 182.865 150.96 126.934 155.671C98.535 158.059 75.8694 176.125 57.6061 210.888L56.6437 210.205Z" fill="url(#paint27_linear_650_10758)" fill-opacity="0.2"/>
<path d="M38.0944 211.861C56.827 177.93 80.0096 160.237 108.967 157.782C166.674 152.888 237.309 210.683 305.633 266.589C374.712 323.118 439.964 376.508 490.001 366.504C519.363 360.637 540.698 333.256 555.194 282.794C569.418 233.253 589.54 207.278 616.698 203.356C661.578 196.878 718.477 251.23 778.715 308.764C841.365 368.603 906.148 430.493 960.872 425.838C992.991 423.104 1018.53 397.984 1038.96 349.022C1055.75 308.775 1079.25 286.282 1110.75 280.261C1178.11 267.367 1271.69 332.962 1370.76 402.406C1451.28 458.863 1534.55 517.225 1610.82 538.956C1697.2 563.565 1761.12 535.801 1806.24 454.063L1807.2 454.78C1761.87 536.906 1697.6 564.793 1610.75 540.045C1534.28 518.258 1450.93 459.818 1370.31 403.317C1271.45 334.017 1178.08 268.567 1111.13 281.355C1079.92 287.332 1056.63 309.658 1039.94 349.633C1019.39 398.906 993.609 424.188 961.164 426.949C905.934 431.643 840.925 369.564 778.073 309.525C718.073 252.218 661.406 198.078 617.042 204.472C590.236 208.344 570.35 234.131 556.216 283.31C541.625 334.112 520.088 361.682 490.393 367.626C439.875 377.719 374.409 324.146 305.093 267.434C236.971 211.7 166.532 154.06 109.264 158.915C80.5979 161.348 57.641 178.902 39.0509 212.588L38.0944 211.861Z" fill="url(#paint28_linear_650_10758)" fill-opacity="0.2"/>
<path d="M19.2258 213.394C38.2913 180.524 61.7531 163.331 90.9601 160.859C150.01 155.826 222.261 213.116 292.124 268.517C362.92 324.657 429.788 377.68 481.019 367.27C510.511 361.282 532.048 334.628 546.842 285.788C561.392 237.759 581.764 212.433 609.112 208.383C655.043 201.578 713.267 255.435 774.907 312.469C838.972 371.742 905.228 433.031 961.289 428.149C993.728 425.321 1019.63 400.856 1040.47 353.366C1057.54 314.502 1081.19 292.648 1112.78 286.593C1181.67 273.389 1277.52 338.539 1378.99 407.533C1461.03 463.296 1545.84 520.963 1623.63 542.672C1711.74 567.27 1777.09 540.411 1823.41 460.574L1824.36 461.301C1777.82 541.523 1712.15 568.498 1623.58 543.772C1545.59 522.007 1460.68 464.273 1378.56 408.45C1277.29 339.606 1181.64 274.572 1113.17 287.71C1081.85 293.715 1058.39 315.402 1041.44 354.01C1020.46 401.79 994.34 426.426 961.569 429.271C905.02 434.204 838.568 372.714 774.278 313.247C712.875 256.446 654.865 202.789 609.444 209.511C582.436 213.516 562.289 238.631 547.834 286.332C532.933 335.501 511.2 362.332 481.376 368.398C429.663 378.897 362.581 325.696 291.542 269.378C221.869 214.127 149.832 157.004 91.1979 162.004C62.276 164.464 39.0221 181.519 20.1053 214.133L19.2258 213.394Z" fill="url(#paint29_linear_650_10758)" fill-opacity="0.2"/>
<path d="M0 214.81C65.7455 106.914 173.84 189.99 278.394 270.317C350.96 326.084 419.497 378.752 471.953 367.942C501.569 361.843 523.314 335.9 538.405 288.654C553.276 242.102 573.886 217.438 601.43 213.266C648.448 206.144 708.027 259.529 771.105 316.046C836.636 374.764 904.396 435.487 961.824 430.382C994.59 427.465 1020.84 403.673 1042.11 357.604C1056.85 325.696 1076.16 305.742 1101.13 296.604C1123.54 288.415 1150.12 289.165 1182.42 298.887C1242.59 317.002 1312.98 363.42 1387.52 412.566C1471.09 467.673 1557.49 524.652 1636.85 546.361C1726.73 570.953 1793.54 545.011 1841.06 467.006L1842 467.756C1794.25 546.111 1727.12 572.187 1636.79 547.461C1557.25 525.69 1470.75 468.662 1387.11 413.505C1312.67 364.409 1242.35 318.041 1182.36 299.976C1115.08 279.727 1070.85 298.203 1043.12 358.271C1021.73 404.6 995.231 428.582 962.151 431.52C904.253 436.67 836.268 375.758 770.534 316.852C707.682 260.54 648.324 207.344 601.816 214.399C574.611 218.516 554.215 243.002 539.457 289.226C524.259 336.789 502.324 362.904 472.392 369.075C419.45 379.975 350.698 327.14 277.906 271.2C173.828 191.218 66.197 108.513 0.962402 215.56L0 214.81Z" fill="url(#paint30_linear_650_10758)" fill-opacity="0.2"/>
<defs>
<linearGradient id="paint0_linear_650_10758" x1="1476.49" y1="5.47313e-06" x2="365.204" y2="106.298" gradientUnits="userSpaceOnUse">
<stop stop-color="#BE8143"/>
<stop offset="0.556227" stop-color="#8F664E"/>
<stop offset="1" stop-color="#BB7F44"/>
</linearGradient>
<linearGradient id="paint1_linear_650_10758" x1="1486.14" y1="9.91053" x2="353.669" y2="121.834" gradientUnits="userSpaceOnUse">
<stop stop-color="#BE8143"/>
<stop offset="0.556227" stop-color="#8F664E"/>
<stop offset="1" stop-color="#BB7F44"/>
</linearGradient>
<linearGradient id="paint2_linear_650_10758" x1="1495.99" y1="19.6317" x2="341.942" y2="137.452" gradientUnits="userSpaceOnUse">
<stop stop-color="#BE8143"/>
<stop offset="0.556227" stop-color="#8F664E"/>
<stop offset="1" stop-color="#BB7F44"/>
</linearGradient>
<linearGradient id="paint3_linear_650_10758" x1="1506.11" y1="27.6753" x2="329.995" y2="151.252" gradientUnits="userSpaceOnUse">
<stop stop-color="#BE8143"/>
<stop offset="0.556227" stop-color="#8F664E"/>
<stop offset="1" stop-color="#BB7F44"/>
</linearGradient>
<linearGradient id="paint4_linear_650_10758" x1="1516.48" y1="35.5126" x2="317.909" y2="165.085" gradientUnits="userSpaceOnUse">
<stop stop-color="#BE8143"/>
<stop offset="0.556227" stop-color="#8F664E"/>
<stop offset="1" stop-color="#BB7F44"/>
</linearGradient>
<linearGradient id="paint5_linear_650_10758" x1="1527.11" y1="43.1771" x2="305.706" y2="178.982" gradientUnits="userSpaceOnUse">
<stop stop-color="#BE8143"/>
<stop offset="0.556227" stop-color="#8F664E"/>
<stop offset="1" stop-color="#BB7F44"/>
</linearGradient>
<linearGradient id="paint6_linear_650_10758" x1="1537.91" y1="50.2745" x2="292.395" y2="192.632" gradientUnits="userSpaceOnUse">
<stop stop-color="#BE8143"/>
<stop offset="0.556227" stop-color="#8F664E"/>
<stop offset="1" stop-color="#BB7F44"/>
</linearGradient>
<linearGradient id="paint7_linear_650_10758" x1="1548.98" y1="56.9326" x2="278.453" y2="206.078" gradientUnits="userSpaceOnUse">
<stop stop-color="#BE8143"/>
<stop offset="0.556227" stop-color="#8F664E"/>
<stop offset="1" stop-color="#BB7F44"/>
</linearGradient>
<linearGradient id="paint8_linear_650_10758" x1="1560.28" y1="63.412" x2="264.289" y2="219.617" gradientUnits="userSpaceOnUse">
<stop stop-color="#BE8143"/>
<stop offset="0.556227" stop-color="#8F664E"/>
<stop offset="1" stop-color="#BB7F44"/>
</linearGradient>
<linearGradient id="paint9_linear_650_10758" x1="1571.91" y1="69.7186" x2="250.092" y2="233.24" gradientUnits="userSpaceOnUse">
<stop stop-color="#BE8143"/>
<stop offset="0.556227" stop-color="#8F664E"/>
<stop offset="1" stop-color="#BB7F44"/>
</linearGradient>
<linearGradient id="paint10_linear_650_10758" x1="1583.8" y1="75.8353" x2="235.655" y2="246.955" gradientUnits="userSpaceOnUse">
<stop stop-color="#BE8143"/>
<stop offset="0.556227" stop-color="#8F664E"/>
<stop offset="1" stop-color="#BB7F44"/>
</linearGradient>
<linearGradient id="paint11_linear_650_10758" x1="1595.92" y1="81.7617" x2="220.967" y2="260.741" gradientUnits="userSpaceOnUse">
<stop stop-color="#BE8143"/>
<stop offset="0.556227" stop-color="#8F664E"/>
<stop offset="1" stop-color="#BB7F44"/>
</linearGradient>
<linearGradient id="paint12_linear_650_10758" x1="1608.34" y1="87.5321" x2="206.202" y2="274.652" gradientUnits="userSpaceOnUse">
<stop stop-color="#BE8143"/>
<stop offset="0.556227" stop-color="#8F664E"/>
<stop offset="1" stop-color="#BB7F44"/>
</linearGradient>
<linearGradient id="paint13_linear_650_10758" x1="1621.08" y1="93.1122" x2="191.217" y2="288.677" gradientUnits="userSpaceOnUse">
<stop stop-color="#BE8143"/>
<stop offset="0.556227" stop-color="#8F664E"/>
<stop offset="1" stop-color="#BB7F44"/>
</linearGradient>
<linearGradient id="paint14_linear_650_10758" x1="1634.06" y1="98.5301" x2="175.992" y2="302.797" gradientUnits="userSpaceOnUse">
<stop stop-color="#BE8143"/>
<stop offset="0.556227" stop-color="#8F664E"/>
<stop offset="1" stop-color="#BB7F44"/>
</linearGradient>
<linearGradient id="paint15_linear_650_10758" x1="1647.38" y1="103.775" x2="160.692" y2="317.054" gradientUnits="userSpaceOnUse">
<stop stop-color="#BE8143"/>
<stop offset="0.556227" stop-color="#8F664E"/>
<stop offset="1" stop-color="#BB7F44"/>
</linearGradient>
<linearGradient id="paint16_linear_650_10758" x1="1660.98" y1="108.862" x2="145.166" y2="331.452" gradientUnits="userSpaceOnUse">
<stop stop-color="#BE8143"/>
<stop offset="0.556227" stop-color="#8F664E"/>
<stop offset="1" stop-color="#BB7F44"/>
</linearGradient>
<linearGradient id="paint17_linear_650_10758" x1="1674.89" y1="113.76" x2="129.367" y2="345.982" gradientUnits="userSpaceOnUse">
<stop stop-color="#BE8143"/>
<stop offset="0.556227" stop-color="#8F664E"/>
<stop offset="1" stop-color="#BB7F44"/>
</linearGradient>
<linearGradient id="paint18_linear_650_10758" x1="1689.09" y1="118.522" x2="113.45" y2="360.679" gradientUnits="userSpaceOnUse">
<stop stop-color="#BE8143"/>
<stop offset="0.556227" stop-color="#8F664E"/>
<stop offset="1" stop-color="#BB7F44"/>
</linearGradient>
<linearGradient id="paint19_linear_650_10758" x1="1703.62" y1="123.101" x2="97.3197" y2="375.475" gradientUnits="userSpaceOnUse">
<stop stop-color="#BE8143"/>
<stop offset="0.556227" stop-color="#8F664E"/>
<stop offset="1" stop-color="#BB7F44"/>
</linearGradient>
<linearGradient id="paint20_linear_650_10758" x1="1718.49" y1="127.544" x2="81.0388" y2="390.462" gradientUnits="userSpaceOnUse">
<stop stop-color="#BE8143"/>
<stop offset="0.556227" stop-color="#8F664E"/>
<stop offset="1" stop-color="#BB7F44"/>
</linearGradient>
<linearGradient id="paint21_linear_650_10758" x1="1733.68" y1="131.826" x2="64.4877" y2="405.648" gradientUnits="userSpaceOnUse">
<stop stop-color="#BE8143"/>
<stop offset="0.556227" stop-color="#8F664E"/>
<stop offset="1" stop-color="#BB7F44"/>
</linearGradient>
<linearGradient id="paint22_linear_650_10758" x1="1749.23" y1="135.944" x2="47.7272" y2="420.999" gradientUnits="userSpaceOnUse">
<stop stop-color="#BE8143"/>
<stop offset="0.556227" stop-color="#8F664E"/>
<stop offset="1" stop-color="#BB7F44"/>
</linearGradient>
<linearGradient id="paint23_linear_650_10758" x1="1765.06" y1="139.903" x2="30.8184" y2="436.453" gradientUnits="userSpaceOnUse">
<stop stop-color="#BE8143"/>
<stop offset="0.556227" stop-color="#8F664E"/>
<stop offset="1" stop-color="#BB7F44"/>
</linearGradient>
<linearGradient id="paint24_linear_650_10758" x1="1781.29" y1="143.744" x2="13.6704" y2="452.19" gradientUnits="userSpaceOnUse">
<stop stop-color="#BE8143"/>
<stop offset="0.556227" stop-color="#8F664E"/>
<stop offset="1" stop-color="#BB7F44"/>
</linearGradient>
<linearGradient id="paint25_linear_650_10758" x1="1797.85" y1="147.395" x2="-3.70933" y2="468.049" gradientUnits="userSpaceOnUse">
<stop stop-color="#BE8143"/>
<stop offset="0.556227" stop-color="#8F664E"/>
<stop offset="1" stop-color="#BB7F44"/>
</linearGradient>
<linearGradient id="paint26_linear_650_10758" x1="1814.75" y1="150.914" x2="-21.3377" y2="484.126" gradientUnits="userSpaceOnUse">
<stop stop-color="#BE8143"/>
<stop offset="0.556227" stop-color="#8F664E"/>
<stop offset="1" stop-color="#BB7F44"/>
</linearGradient>
<linearGradient id="paint27_linear_650_10758" x1="1832.01" y1="154.277" x2="-39.1906" y2="500.359" gradientUnits="userSpaceOnUse">
<stop stop-color="#BE8143"/>
<stop offset="0.556227" stop-color="#8F664E"/>
<stop offset="1" stop-color="#BB7F44"/>
</linearGradient>
<linearGradient id="paint28_linear_650_10758" x1="1849.7" y1="157.491" x2="-57.26" y2="516.932" gradientUnits="userSpaceOnUse">
<stop stop-color="#BE8143"/>
<stop offset="0.556227" stop-color="#8F664E"/>
<stop offset="1" stop-color="#BB7F44"/>
</linearGradient>
<linearGradient id="paint29_linear_650_10758" x1="1867.73" y1="160.55" x2="-75.6135" y2="533.536" gradientUnits="userSpaceOnUse">
<stop stop-color="#BE8143"/>
<stop offset="0.556227" stop-color="#8F664E"/>
<stop offset="1" stop-color="#BB7F44"/>
</linearGradient>
<linearGradient id="paint30_linear_650_10758" x1="1886.25" y1="163.37" x2="-94.2547" y2="550.241" gradientUnits="userSpaceOnUse">
<stop stop-color="#BE8143"/>
<stop offset="0.556227" stop-color="#8F664E"/>
<stop offset="1" stop-color="#BB7F44"/>
</linearGradient>
</defs>
</svg>
