<svg width="16" height="20" viewBox="0 0 16 20" fill="none" xmlns="http://www.w3.org/2000/svg">
<path d="M8 0C3.86375 0 0.5 3.36375 0.5 7.5C0.5 12.6987 7.27 19.5288 7.5575 19.8175C7.67511 19.9344 7.83419 20 8 20C8.16581 20 8.32489 19.9344 8.4425 19.8175C8.73 19.5288 15.5 12.6987 15.5 7.5C15.5 3.36375 12.1363 0 8 0ZM8 18.4713C6.5075 16.8738 1.75 11.4713 1.75 7.5C1.75 4.05375 4.55375 1.25 8 1.25C11.4462 1.25 14.25 4.05375 14.25 7.5C14.25 11.4675 9.4925 16.8738 8 18.4713Z" fill="#EDEDED"/>
<path d="M8 3.75C5.9325 3.75 4.25 5.4325 4.25 7.5C4.25 9.5675 5.9325 11.25 8 11.25C10.0675 11.25 11.75 9.5675 11.75 7.5C11.75 5.4325 10.0675 3.75 8 3.75ZM8 10C6.62125 10 5.5 8.87875 5.5 7.5C5.5 6.12125 6.62125 5 8 5C9.37875 5 10.5 6.12125 10.5 7.5C10.5 8.87875 9.37875 10 8 10Z" fill="#EDEDED"/>
</svg>
