<svg width="1920" height="299" viewBox="0 0 1920 299" fill="none" xmlns="http://www.w3.org/2000/svg">
<path d="M1672.99 -86.8352C1663.42 -103.237 1651.65 -112.225 1637.94 -113.893C1589.7 -119.731 1523.49 -34.2941 1459.34 48.3631C1399.47 125.646 1337.52 205.523 1296.65 199.314C1262.77 194.125 1245.31 131.02 1243.24 6.38583C1241.3 -111.021 1225.91 -169.956 1196.17 -173.662C1158.27 -178.388 1103.44 -95.6384 1045.5 -7.97723C984.717 83.9465 921.865 178.928 876.86 174.017C843.364 170.403 823.06 111.746 815.042 -5.28996C807.67 -111.669 784.909 -166.62 745.594 -173.292C688.949 -182.929 606.31 -92.6731 518.756 2.77191C421.762 108.41 321.534 217.569 245.879 205.986C189.493 197.276 153.411 122.217 135.693 -23.7303L134.012 -23.545C151.729 122.958 188.199 198.48 245.361 207.191C322.181 219.052 422.796 109.429 519.92 3.51321C607.215 -91.5611 689.596 -181.446 745.076 -171.994C783.745 -165.415 805.989 -110.835 813.361 -5.10461C821.508 112.58 842.2 171.608 876.472 175.314C922.641 180.318 985.881 84.8731 1046.92 -7.42125C1104.6 -94.619 1159.05 -176.906 1195.78 -172.365C1224.75 -168.751 1239.62 -110.279 1241.56 6.47852C1243.63 131.762 1261.47 195.237 1296.26 200.612C1338.29 207.006 1397.91 130.279 1460.9 49.0118C1524.65 -33.2748 1590.61 -118.341 1637.68 -112.596C1668.98 -108.797 1689.16 -65.8002 1699.37 18.9883L1701.05 18.8029C1694.97 -29.9389 1685.79 -65.0589 1672.99 -86.8352Z" fill="url(#paint0_linear_678_25023)" fill-opacity="0.2"/>
<path d="M1687.86 -74.6034C1677.78 -91.7465 1665.62 -101.106 1651.13 -102.959C1601.86 -109.075 1534.61 -25.1203 1469.69 56.0543C1408.91 132.04 1345.92 210.527 1304.15 203.948C1269.75 198.573 1251.65 136.58 1248.8 14.633C1246.21 -100.364 1230.18 -158.187 1199.92 -162.079C1161.25 -166.99 1105.77 -85.7232 1046.92 0.269913C985.364 90.5257 921.607 183.839 875.696 178.65C841.554 174.851 820.732 117.306 811.809 2.6792C803.791 -101.291 780.383 -155.222 740.55 -162.172C682.742 -172.272 598.68 -83.5919 509.574 10.1851C411.028 113.97 309.119 221.369 231.782 209.137C174.491 200.056 137.504 126.387 118.752 -16.2245L117.07 -16.0391C135.952 127.221 173.327 201.26 231.265 210.342C309.766 222.759 411.933 114.989 510.868 10.8337C599.585 -82.6653 683.388 -170.882 740.033 -161.06C779.219 -154.203 802.11 -100.642 810.128 2.6792C819.051 117.954 840.39 175.87 875.308 179.762C922.512 185.044 986.528 91.267 1048.35 0.640564C1106.8 -84.9819 1162.02 -165.786 1199.4 -161.06C1228.76 -157.261 1244.4 -99.901 1246.99 14.4477C1249.84 137.044 1268.33 199.407 1303.51 204.874C1346.44 211.639 1406.84 136.21 1470.85 56.3323C1535.52 -24.4716 1602.51 -107.963 1650.49 -102.032C1682.3 -98.0477 1702.99 -55.7924 1713.99 27.1428L1715.67 26.9575C1709.72 -19.1897 1700.41 -53.0125 1687.86 -74.6034Z" fill="url(#paint1_linear_678_25023)" fill-opacity="0.2"/>
<path d="M1703.12 -62.4643C1692.65 -80.4414 1679.84 -90.2639 1664.71 -92.2098C1614.4 -98.6037 1546.25 -16.2245 1480.16 63.5601C1418.35 138.155 1354.46 215.345 1311.78 208.488C1276.74 202.836 1258.11 142.047 1254.62 22.6948C1251.26 -89.8932 1234.7 -146.604 1203.92 -150.681C1164.48 -155.871 1108.22 -76.0861 1048.6 8.42442C986.14 97.0122 921.606 188.658 874.661 183.191C840.002 179.206 818.404 122.68 808.705 10.463C799.911 -91.0979 775.985 -144.01 735.636 -151.33C676.663 -161.801 591.049 -74.6961 500.521 17.5983C400.294 119.622 296.574 225.168 217.556 212.38C159.489 203.021 121.596 130.65 101.68 -8.81128L99.999 -8.62596C120.045 131.391 158.325 204.04 217.039 213.585C297.221 226.558 401.199 120.642 501.815 18.2469C592.084 -73.6768 677.31 -160.411 735.118 -150.033C774.821 -142.898 798.359 -90.3565 807.024 10.6484C816.723 123.514 838.708 180.411 874.273 184.488C922.382 190.048 987.304 97.9388 1050.03 8.98039C1109.26 -75.0668 1165.26 -154.481 1203.41 -149.477C1233.28 -145.492 1249.45 -89.2445 1252.81 22.7875C1256.3 142.789 1275.44 203.855 1311.27 209.693C1355.11 216.828 1416.54 142.696 1481.46 64.2088C1547.16 -15.1125 1615.05 -97.2137 1664.2 -90.9125C1696.53 -86.7426 1717.74 -45.3213 1729.38 35.8533L1731.06 35.6679C1724.72 -8.62595 1715.54 -41.244 1703.12 -62.4643Z" fill="url(#paint2_linear_678_25023)" fill-opacity="0.2"/>
<path d="M1718.77 -50.4178C1707.78 -69.2288 1694.46 -79.5147 1678.55 -81.5533C1627.21 -88.3178 1557.89 -7.3286 1490.9 71.066C1425.2 147.793 1363.25 220.257 1319.67 212.936C1284.11 207.006 1264.84 147.422 1260.57 30.6641C1256.56 -79.6073 1239.36 -135.299 1208.19 -139.469C1167.84 -144.936 1110.81 -66.5416 1050.41 16.4863C987.174 103.499 921.606 193.477 873.756 187.824C838.45 183.654 816.206 128.24 805.73 18.2469C796.29 -80.9973 771.718 -132.89 730.851 -140.488C670.585 -151.608 583.548 -65.8929 491.339 24.7335C389.301 125.09 283.771 228.875 202.942 215.438C144.099 205.616 105.172 134.634 84.2213 -1.58336L82.54 -1.30534C103.62 135.561 142.935 206.82 202.425 216.736C284.418 230.357 390.206 126.202 492.632 25.4748C584.454 -64.8736 671.231 -150.125 730.333 -139.284C770.554 -131.87 794.608 -80.3487 804.049 18.3396C814.654 128.889 837.286 184.673 873.368 188.936C922.512 194.774 988.338 104.333 1051.84 16.9496C1111.84 -65.6149 1168.62 -143.546 1207.68 -138.264C1238.07 -134.187 1254.88 -78.866 1258.76 30.7567C1263.03 148.163 1282.81 208.118 1319.02 214.141C1363.77 221.554 1426.11 148.719 1492.19 71.622C1558.92 -6.30928 1627.85 -86.9279 1678.03 -80.3487C1710.88 -76.0861 1732.74 -35.3134 1745.02 44.1005L1746.71 43.8225C1740.24 1.75258 1730.93 -29.5682 1718.77 -50.4178Z" fill="url(#paint3_linear_678_25023)" fill-opacity="0.2"/>
<path d="M1734.81 -38.5565C1723.3 -58.2015 1709.33 -68.9506 1692.65 -71.1746C1640.27 -78.2171 1569.79 1.38217 1501.76 78.2942C1435.03 153.724 1371.92 224.89 1327.43 217.292C1291.35 211.083 1271.43 152.612 1266.52 38.4482C1261.86 -69.5066 1244.15 -124.086 1212.33 -128.534C1171.21 -134.279 1113.27 -57.2748 1052.1 24.2704C987.951 109.708 921.477 198.017 872.592 192.087C836.639 187.732 813.749 133.337 802.368 25.6604C792.151 -71.2673 767.062 -122.14 725.678 -130.017C664.119 -141.6 575.53 -57.4602 481.64 31.7763C377.791 130.465 270.321 232.581 187.682 218.496C128.063 208.303 88.2305 138.712 66.1158 5.55209L64.4346 5.83008C86.6786 139.546 126.77 209.508 187.165 219.794C270.968 234.064 378.696 131.669 482.933 32.6103C576.436 -56.1628 664.636 -140.117 725.16 -128.627C765.898 -120.936 790.599 -70.3406 800.687 26.0311C812.067 134.264 835.476 189.029 872.204 193.477C922.383 199.593 989.115 110.82 1053.65 24.9191C1114.56 -56.1628 1172.11 -132.797 1212.07 -127.144C1242.98 -122.789 1260.31 -68.58 1264.97 38.7262C1270.01 153.538 1290.31 212.38 1327.17 218.682C1372.95 226.466 1436.32 154.928 1503.44 79.1281C1571.21 2.58681 1641.31 -76.6418 1692.65 -69.6919C1726.01 -65.244 1748.39 -25.3054 1761.32 52.4406L1763 52.1626C1756.02 12.0386 1746.84 -18.0775 1734.81 -38.5565Z" fill="url(#paint4_linear_678_25023)" fill-opacity="0.2"/>
<path d="M1751.36 -26.6955C1739.46 -47.1745 1724.72 -58.4796 1707.26 -60.7962C1653.72 -68.1168 1582.2 9.99986 1513.01 85.6145C1445.12 159.747 1381.1 229.709 1335.45 221.74C1298.85 215.346 1278.29 157.893 1272.6 46.2319C1267.16 -59.4063 1248.93 -113.059 1216.73 -117.6C1174.7 -123.623 1115.98 -48.0085 1053.91 32.0542C988.726 116.009 921.477 202.743 871.298 196.535C834.699 191.994 811.162 138.619 799.005 33.2588C788.142 -61.3522 762.406 -111.299 720.504 -119.453C657.652 -131.592 567.382 -48.8424 471.811 38.9114C366.151 135.839 256.871 236.195 172.163 221.461C111.638 210.898 71.0297 142.604 47.751 12.5945L46.0698 12.8725C69.3485 143.438 110.474 212.102 171.645 222.759C257.259 237.678 367.057 136.951 473.104 39.6527C568.417 -47.8231 658.428 -130.295 720.116 -118.341C761.242 -110.372 786.59 -60.7036 797.324 33.3515C809.481 139.268 833.535 193.013 870.91 197.647C922.123 204.04 989.761 116.843 1055.33 32.5175C1117.15 -47.1745 1175.6 -122.326 1216.34 -116.488C1247.77 -111.947 1265.61 -58.7576 1271.04 46.2319C1276.73 158.449 1297.69 216.272 1335.06 222.851C1381.75 231.099 1446.15 160.673 1514.44 86.1705C1583.37 10.9265 1654.5 -66.8195 1707 -59.5916C1740.89 -54.9584 1763.91 -15.761 1777.48 60.2243L1779.17 59.9463C1772.31 22.139 1763.13 -6.67986 1751.36 -26.6955Z" fill="url(#paint5_linear_678_25023)" fill-opacity="0.2"/>
<path d="M1768.56 -15.3905C1756.15 -36.7035 1740.76 -48.5646 1722.52 -51.0666C1667.82 -58.7578 1595.14 17.9689 1524.78 92.1936C1455.72 165.028 1390.54 233.786 1343.98 225.353C1306.87 218.681 1285.79 162.341 1279.32 53.367C1273.24 -49.9546 1254.36 -102.496 1221.64 -107.314C1178.84 -113.615 1119.22 -39.3908 1056.11 39.2819C990.02 121.661 921.607 206.82 870.394 200.334C833.277 195.608 808.964 143.252 796.031 40.2085C784.521 -52.0859 758.268 -101.106 715.849 -109.446C651.704 -122.141 559.753 -40.7807 462.37 45.3978C354.513 140.565 243.034 239.16 156.515 223.778C95.2142 212.843 53.7006 145.847 29.3873 18.9882L27.7061 19.2662C52.1486 146.681 94.0502 213.955 155.997 225.075C243.551 240.643 355.418 141.677 463.534 45.9538C560.529 -39.8541 652.091 -120.936 715.203 -108.426C756.845 -100.179 782.711 -51.5299 794.221 40.2085C807.153 143.808 831.984 196.534 869.876 201.446C922.253 208.118 990.925 122.588 1057.4 39.7452C1120.12 -38.4641 1179.48 -112.318 1221.13 -106.202C1253.07 -101.476 1271.56 -49.3059 1277.51 53.367C1283.98 162.99 1305.45 219.701 1343.34 226.465C1391.06 235.083 1456.63 165.955 1525.95 92.7496C1595.91 18.8956 1668.33 -57.4604 1722 -49.9546C1756.41 -45.136 1779.94 -6.68 1794.17 67.5447L1795.85 67.2667C1789 31.6833 1779.94 4.1618 1768.56 -15.3905Z" fill="url(#paint6_linear_678_25023)" fill-opacity="0.2"/>
<path d="M1786.15 -4.36341C1773.09 -26.603 1757.18 -38.9275 1737.91 -41.7074C1682.04 -49.7693 1608.07 25.5674 1536.55 98.4021C1466.33 169.94 1399.98 237.492 1352.39 228.689C1314.76 221.739 1293.03 166.511 1285.92 60.1315C1279.19 -40.8734 1259.66 -92.3952 1226.43 -97.3991C1182.72 -104.071 1122.19 -31.1436 1058.05 46.0464C990.926 126.85 921.478 210.434 869.23 203.67C831.467 198.758 806.507 147.422 792.798 46.695C780.512 -43.2827 753.742 -91.2832 710.935 -99.9937C645.367 -113.337 551.605 -33.3676 452.542 51.3283C342.744 145.105 229.067 242.033 140.608 225.909C78.5314 214.604 36.1126 148.997 10.6354 25.1967L8.9541 25.4747C34.4313 149.739 77.3675 215.716 140.091 227.114C229.584 243.423 343.52 146.125 453.835 52.0696C552.64 -32.2556 646.013 -111.948 710.547 -98.7891C752.707 -90.2639 779.09 -42.6341 791.246 46.8804C805.084 148.163 830.432 199.87 868.971 204.874C922.383 211.824 992.219 127.87 1059.6 46.695C1123.36 -30.0316 1183.49 -102.588 1226.17 -96.1018C1258.63 -91.1906 1277.64 -40.0394 1284.37 60.3168C1291.61 167.345 1313.72 222.851 1352 229.986C1400.76 239.068 1467.49 171.144 1537.97 99.1434C1609.23 26.5867 1682.82 -48.2866 1737.65 -40.4101C1772.57 -35.4062 1796.63 2.30846 1811.5 74.7725L1813.18 74.4945C1806.2 40.8571 1797.27 14.6329 1786.15 -4.36341Z" fill="url(#paint7_linear_678_25023)" fill-opacity="0.2"/>
<path d="M1804.26 6.57108C1790.68 -16.5952 1773.99 -29.4756 1753.95 -32.4409C1696.92 -40.8734 1621.65 33.0733 1548.84 104.611C1477.32 174.943 1409.81 241.292 1361.06 232.025C1322.91 224.797 1300.66 170.681 1292.77 66.8034C1285.27 -31.8849 1265.35 -82.3874 1231.6 -87.6693C1186.85 -94.6191 1125.42 -23.0817 1060.24 52.7183C992.089 132.04 921.607 214.048 868.066 206.913C829.656 201.816 804.05 151.407 789.436 52.9962C776.503 -34.6649 749.215 -81.7387 705.891 -90.7272C638.9 -104.627 543.329 -26.047 442.325 57.1662C330.329 149.275 214.582 244.535 123.925 227.763C61.0724 216.087 17.7482 151.777 -8.76356 31.1273L-10.4448 31.4053C16.067 152.611 59.9085 217.199 123.278 228.967C215.1 246.018 331.234 150.48 443.618 58.0002C544.363 -24.8424 639.547 -103.144 705.503 -89.5226C748.052 -80.7194 775.081 -34.0162 787.884 53.1816C802.498 152.241 828.622 202.928 867.678 208.118C922.253 215.438 993.124 132.966 1061.67 53.2743C1126.46 -22.0624 1187.63 -93.2292 1231.08 -86.4646C1264.06 -81.3681 1283.59 -31.1436 1291.09 66.896C1298.98 171.422 1321.74 225.817 1360.54 233.23C1410.33 242.682 1478.23 175.963 1550.13 105.352C1622.55 34.1852 1697.43 -39.4835 1753.43 -31.2363C1788.87 -26.047 1813.57 10.9263 1829.09 81.7224L1830.77 81.4444C1823.78 49.8456 1814.99 24.9188 1804.26 6.57108Z" fill="url(#paint8_linear_678_25023)" fill-opacity="0.2"/>
<path d="M1822.88 17.413C1808.78 -6.67995 1791.32 -20.1164 1770.24 -23.267C1711.92 -32.0702 1635.36 40.5792 1561.38 110.819C1488.57 179.855 1419.77 245.091 1369.98 235.361C1331.44 227.855 1308.42 174.851 1299.88 73.4753C1291.74 -22.8963 1271.17 -72.4721 1236.9 -77.9394C1191.25 -85.2599 1128.79 -15.0198 1062.57 59.3902C993.253 137.229 921.606 217.755 867.031 210.249C828.104 204.874 801.721 155.577 786.331 59.2976C772.752 -26.1396 744.818 -72.1941 701.106 -81.4606C632.692 -96.009 535.31 -18.7264 432.108 63.0042C317.913 153.631 199.839 247.222 107.112 229.709C43.4836 217.662 -0.745892 154.65 -28.163 37.058L-29.8442 37.3359C-2.1685 155.484 42.4489 218.774 106.595 231.006C200.227 248.705 318.818 154.835 433.272 63.9308C535.957 -17.5218 633.08 -94.5264 700.459 -80.1633C743.525 -71.0821 771.071 -25.3056 784.521 59.5756C799.911 156.318 826.681 206.079 866.513 211.546C922.253 219.145 994.287 138.341 1063.86 60.0389C1129.69 -13.9078 1191.9 -83.7773 1236.39 -76.7347C1269.88 -71.4528 1290.06 -22.2477 1298.07 73.568C1306.74 175.592 1330.02 228.875 1369.33 236.566C1420.16 246.481 1489.35 180.967 1562.55 111.468C1636.26 41.5986 1712.43 -30.6802 1769.73 -22.0624C1805.68 -16.6878 1830.9 19.5443 1847.06 88.6724L1848.74 88.3944C1841.89 58.7416 1833.22 35.112 1822.88 17.413Z" fill="url(#paint9_linear_678_25023)" fill-opacity="0.2"/>
<path d="M1841.89 28.0695C1827.15 2.95728 1808.91 -11.0351 1786.93 -14.4637C1727.31 -23.6376 1649.45 47.7145 1574.06 116.657C1499.82 184.488 1429.73 248.612 1378.9 238.419C1339.85 230.635 1316.31 178.65 1307 79.7766C1298.2 -14.3711 1276.99 -62.9276 1242.33 -68.6728C1195.65 -76.2713 1132.15 -7.32854 1064.9 65.6915C994.546 142.14 921.606 221.183 865.738 213.4C826.164 207.84 799.135 159.469 782.969 65.4135C768.743 -17.7997 740.291 -62.9276 696.191 -72.4721C626.226 -87.5765 526.904 -11.6838 421.762 68.7495C305.239 157.801 184.707 249.91 89.7823 231.562C25.5073 219.145 -19.6274 157.43 -48.2084 42.8032L-49.8896 43.0813C-21.1793 158.171 24.3434 220.257 89.265 232.767C185.095 251.3 306.015 158.913 422.796 69.5835C527.55 -10.4791 626.614 -86.1865 695.545 -71.1748C738.998 -61.7229 767.062 -16.9657 781.288 65.6915C797.453 160.21 825 208.952 865.35 214.604C922.382 222.573 995.451 143.16 1066.32 66.3402C1133.18 -6.30921 1196.42 -74.8814 1241.95 -67.4682C1275.83 -61.9083 1296.65 -13.7224 1305.45 79.8692C1314.76 179.392 1338.68 231.655 1378.39 239.624C1430.37 250.002 1500.73 185.6 1575.35 117.399C1650.36 48.7338 1727.95 -22.2476 1786.54 -13.2591C1822.88 -7.69921 1848.74 27.7915 1865.56 95.2517L1867.24 94.881C1860.38 67.4521 1851.98 45.2125 1841.89 28.0695Z" fill="url(#paint10_linear_678_25023)" fill-opacity="0.2"/>
<path d="M1861.55 38.7259C1846.29 12.5944 1827.28 -2.04671 1804.13 -5.66064C1743.21 -15.2051 1663.94 54.8497 1587.12 122.588C1511.46 189.307 1440.07 252.319 1388.08 241.662C1348.51 233.508 1324.46 182.727 1314.5 86.1704C1304.93 -5.84599 1283.33 -53.3831 1248.15 -59.3137C1200.56 -67.2829 1135.9 0.455254 1067.49 72.178C995.839 147.237 921.865 224.89 864.703 216.643C824.483 210.898 796.678 163.453 779.865 71.622C764.863 -9.36724 736.024 -53.5685 691.536 -63.391C620.018 -79.2367 518.756 -4.54866 411.416 74.4946C292.565 162.063 169.577 252.597 72.4528 233.508C7.40188 220.72 -38.6381 160.21 -68.1244 48.5484L-69.8057 48.9191C-40.0607 161.044 6.23795 221.925 71.9355 234.805C169.965 254.079 293.341 163.268 412.58 75.4213C519.532 -3.34401 620.536 -77.6614 691.018 -62.0937C734.86 -52.3638 763.441 -8.53326 778.313 71.9927C795.384 164.38 823.577 212.195 864.444 218.033C922.641 226.373 997.133 148.441 1069.04 73.012C1137.06 1.6599 1201.34 -65.7076 1247.9 -57.9237C1282.3 -52.1785 1303.63 -4.91931 1313.08 86.5411C1323.16 183.654 1347.61 234.805 1387.83 243.052C1440.98 253.894 1512.76 190.604 1588.67 123.514C1665.1 56.147 1743.99 -13.6298 1804 -4.178C1840.85 1.56724 1867.24 36.4093 1884.7 102.202L1886.38 101.831C1879.26 76.0699 1871.12 55.1276 1861.55 38.7259Z" fill="url(#paint11_linear_678_25023)" fill-opacity="0.2"/>
<path d="M1881.59 49.2899C1865.69 22.1391 1845.9 6.84933 1821.72 3.05006C1759.51 -6.8651 1678.68 61.8924 1600.44 128.426C1523.36 194.033 1450.55 256.026 1397.27 244.813C1357.18 236.381 1332.6 186.527 1321.87 92.4718C1311.65 2.58677 1289.41 -44.0238 1253.72 -50.1397C1205.09 -58.4795 1139.39 7.96131 1069.81 78.4794C997.004 152.148 921.607 228.411 863.281 219.794C822.414 213.77 793.962 167.253 776.245 77.5527C760.726 -1.30519 731.239 -44.5798 686.363 -54.6802C613.294 -71.1746 509.834 2.21607 400.294 79.8694C278.857 165.955 153.411 255.006 53.9597 235.083C-11.7378 221.925 -58.5538 162.619 -89.204 53.8305L-90.8853 54.2012C-59.9764 163.453 -12.7724 223.037 53.5717 236.288C153.929 256.396 279.763 167.067 401.588 80.7034C510.739 3.32808 613.811 -69.7847 685.975 -53.5683C730.205 -43.5605 759.303 -0.656528 774.822 77.7381C792.669 167.994 821.509 214.79 863.022 220.906C922.512 229.616 998.168 153.075 1071.37 79.0354C1140.56 8.98063 1205.99 -57.1822 1253.59 -49.0277C1288.5 -43.0044 1310.36 3.32806 1320.58 92.5645C1331.31 187.268 1356.27 237.4 1397.01 245.925C1451.33 257.323 1524.52 195.052 1601.99 129.167C1679.84 62.9117 1760.29 -5.47511 1821.59 4.25472C1858.96 10.1853 1885.86 44.286 1903.97 108.503L1905.65 108.132C1898.66 84.5026 1890.78 64.9503 1881.59 49.2899Z" fill="url(#paint12_linear_678_25023)" fill-opacity="0.2"/>
<path d="M1902.16 59.7609C1885.6 31.4981 1864.91 15.6523 1839.69 11.5751C1776.06 1.19659 1693.68 68.7494 1614.15 134.078C1535.52 198.573 1461.28 259.454 1406.84 247.778C1366.36 239.068 1341.14 190.233 1329.76 98.4949C1318.9 10.8338 1296.13 -34.9428 1259.92 -41.3367C1210.26 -50.1399 1143.27 15.2817 1072.53 84.4098C998.426 156.781 921.865 231.655 861.987 222.666C820.603 216.457 791.505 170.866 772.882 83.2052C756.716 6.47851 726.713 -35.8694 681.449 -46.3406C606.827 -63.3909 501.298 8.70245 389.431 85.1511C265.407 169.847 137.245 257.415 35.4657 236.658C-30.8785 223.129 -78.5997 165.121 -110.285 59.1122L-111.966 59.4829C-80.1517 165.862 -32.1717 224.241 34.8191 237.863C137.504 258.713 266.054 170.959 390.336 85.9851C501.944 9.90712 607.216 -62.001 680.931 -45.0433C725.549 -34.7575 755.164 7.31247 771.201 83.5758C789.824 171.7 819.31 217.662 861.47 223.963C922.253 233.137 999.202 157.893 1073.69 85.2438C1144.18 16.3936 1210.65 -48.5646 1259.28 -40.0394C1294.71 -33.8308 1317.09 11.5751 1327.95 98.7729C1339.33 191.067 1364.94 240.18 1406.06 249.076C1461.54 261.029 1536.16 199.778 1615.18 135.005C1694.46 69.954 1776.45 2.67922 1839.17 12.8724C1877.07 18.9883 1904.48 52.4403 1923.24 115.082L1924.92 114.711C1918.45 92.8423 1910.95 74.5873 1902.16 59.7609Z" fill="url(#paint13_linear_678_25023)" fill-opacity="0.2"/>
<path d="M1923.36 70.1394C1906.16 40.7646 1884.57 24.2702 1858.18 19.915C1793.13 9.16581 1709.2 75.514 1628.11 139.638C1547.93 203.114 1472.15 262.975 1416.41 250.744C1375.54 241.755 1349.8 193.94 1337.65 104.518C1326.14 18.8957 1302.73 -25.9542 1266.13 -32.5335C1215.31 -41.7073 1147.28 22.5096 1075.12 90.4331C999.719 161.507 921.736 235.083 860.565 225.631C818.534 219.145 788.789 174.48 769.39 88.9504C752.578 14.2624 722.186 -27.1589 676.534 -37.8154C600.232 -55.6071 492.374 15.2817 378.179 90.4331C251.698 173.646 120.821 259.825 16.584 238.234C-50.5361 224.427 -99.0333 167.53 -131.623 64.3942L-133.305 64.7648C-100.456 168.364 -51.7 225.539 15.9374 239.531C121.079 261.215 252.345 174.851 379.343 91.3597C493.15 16.4864 600.62 -54.2171 676.017 -36.6107C721.022 -26.1396 751.026 15.0964 767.838 89.3211C787.237 175.407 817.499 220.442 860.177 226.929C922.383 236.473 1000.75 162.619 1076.54 91.1744C1148.31 23.5289 1216.08 -40.3173 1265.74 -31.3288C1301.7 -24.8423 1324.59 19.6369 1336.1 104.703C1348.25 194.681 1374.25 242.867 1415.89 251.948C1472.66 264.458 1548.71 204.226 1629.41 140.472C1710.24 76.5333 1793.78 10.4631 1857.93 21.1196C1896.21 27.4208 1924.27 60.2243 1943.67 121.291L1945.35 120.92C1938.75 100.997 1931.51 84.1318 1923.36 70.1394Z" fill="url(#paint14_linear_678_25023)" fill-opacity="0.2"/>
<path d="M1944.96 80.4252C1927.11 49.9384 1904.61 32.7027 1877.07 28.0695C1810.59 16.857 1724.98 82.0932 1642.34 145.105C1560.48 207.469 1483.14 266.404 1426.11 253.616C1384.72 244.35 1358.47 197.461 1345.79 110.356C1333.64 26.8648 1309.71 -17.1511 1272.6 -24.0083C1220.74 -33.6454 1151.29 29.4594 1077.83 96.271C1001.01 166.14 921.606 238.326 859.012 228.504C816.464 221.832 785.943 178.001 765.898 94.5103C748.439 21.8609 717.659 -18.7264 671.619 -29.6608C593.636 -48.1939 483.45 21.5829 366.798 95.4369C237.472 177.353 103.749 262.049 -3.07405 239.716C-70.8408 225.539 -120.114 169.847 -153.739 69.3981L-155.42 69.7687C-121.666 170.588 -72.0047 226.558 -3.72069 240.921C103.878 263.439 237.989 178.557 367.703 96.3636C483.967 22.6949 593.765 -46.8039 670.972 -28.4562C716.366 -17.7071 746.757 22.6023 764.216 94.7883C784.391 178.836 815.3 222.944 858.624 229.709C922.123 239.624 1001.92 167.16 1079.12 97.0123C1152.19 30.5714 1221.25 -32.1628 1272.08 -22.8036C1308.42 -16.1318 1331.96 27.5135 1344.11 110.541C1356.92 198.203 1383.56 245.369 1425.46 254.821C1483.4 267.887 1561.12 208.674 1643.37 145.939C1725.75 83.2052 1810.85 18.247 1876.55 29.2741C1915.35 35.7607 1943.93 67.9154 1963.84 127.406L1965.52 127.036C1959.58 109.059 1952.72 93.5837 1944.96 80.4252Z" fill="url(#paint15_linear_678_25023)" fill-opacity="0.2"/>
<path d="M1967.34 90.7111C1948.71 59.1124 1925.43 41.1353 1896.59 36.2241C1828.57 24.5483 1741.4 88.6725 1657.08 150.573C1573.54 211.917 1494.52 269.925 1436.19 256.582C1394.42 247.037 1367.65 201.075 1354.33 116.194C1341.53 34.6488 1317.09 -8.3478 1279.58 -15.483C1226.56 -25.4908 1155.95 36.5021 1081.07 102.109C1002.82 170.681 921.995 241.662 857.978 231.469C814.784 224.519 783.616 181.615 762.794 100.07C744.689 29.4595 713.392 -10.2938 667.223 -21.4136C587.429 -40.6879 474.915 27.9769 355.677 100.626C223.506 181.245 86.8081 264.551 -22.4723 241.292C-90.8857 226.743 -140.935 172.256 -175.594 74.4947L-177.275 74.8654C-142.487 172.998 -92.0496 227.855 -23.1189 242.496C87.0667 265.848 224.023 182.357 356.582 101.553C475.432 29.0889 587.558 -39.2979 666.576 -20.2089C712.228 -9.18179 743.137 30.2935 761.113 100.441C782.064 182.449 813.62 225.724 857.461 232.767C922.512 243.145 1003.73 171.886 1082.23 103.036C1156.72 37.7067 1226.94 -23.9155 1278.93 -14.093C1315.79 -7.14316 1339.85 35.5754 1352.52 116.565C1365.97 201.909 1393.13 248.149 1435.55 257.879C1494.91 271.501 1574.18 213.214 1658.12 151.592C1742.05 89.8771 1828.96 26.1236 1896.08 37.6141C1935.39 44.286 1964.49 75.792 1985.05 133.8L1986.73 133.43C1980.79 117.028 1974.45 102.85 1967.34 90.7111Z" fill="url(#paint16_linear_678_25023)" fill-opacity="0.2"/>
<path d="M1990.1 100.904C1970.83 68.0082 1946.51 49.3826 1916.38 44.1007C1846.8 32.0542 1757.83 94.9737 1671.83 155.855C1586.47 216.272 1505.9 273.261 1446.15 259.269C1403.99 249.446 1376.7 204.411 1362.61 121.754C1349.16 42.2473 1324.2 -0.0079155 1286.18 -7.32845C1231.99 -17.7996 1159.95 43.0813 1083.65 107.576C1003.99 174.944 921.606 244.72 856.038 233.971C812.196 226.836 780.382 184.674 758.785 105.167C740.162 36.5947 708.348 -2.32456 661.79 -13.7224C580.315 -33.738 465.215 33.8148 343.39 105.26C208.245 184.581 68.5725 266.497 -43.4237 242.404C-112.354 227.577 -163.309 174.11 -198.873 79.128L-200.425 79.5914C-164.731 175.036 -113.518 228.782 -43.941 243.701C68.8312 267.979 208.891 185.786 344.425 106.279C465.862 35.0194 580.574 -32.2554 661.273 -12.5177C707.313 -1.21257 738.61 37.3361 757.233 105.538C778.96 185.6 811.162 227.948 855.65 235.269C922.123 246.11 1004.89 176.148 1084.94 108.41C1160.86 44.1933 1232.51 -16.4096 1285.66 -6.12382C1322.9 1.10405 1347.48 42.9887 1360.93 121.939C1375.02 205.06 1402.7 250.373 1445.51 260.381C1506.16 274.559 1587.12 217.292 1672.86 156.596C1758.47 95.993 1847.06 33.2588 1915.86 45.2126C1955.57 52.1625 1985.18 82.9273 2006.39 139.546L2007.94 139.082C2002.64 124.812 1996.69 112.024 1990.1 100.904Z" fill="url(#paint17_linear_678_25023)" fill-opacity="0.2"/>
<path d="M2013.5 111.005C1993.46 76.904 1968.11 57.4444 1936.69 51.9771C1865.56 39.4674 1774.77 101.275 1687.09 161.137C1599.92 220.535 1517.54 276.69 1456.37 262.049C1413.82 251.856 1386.02 207.84 1371.4 127.406C1357.31 49.9385 1331.83 8.51722 1293.42 0.918688C1238.07 -10.0158 1164.61 49.8458 1086.88 113.229C1005.67 179.484 921.736 247.964 854.745 236.844C810.386 229.431 777.925 188.195 755.552 110.541C736.023 43.9153 703.951 5.92259 657.135 -5.75321C573.72 -26.5102 456.162 39.9306 331.621 110.263C193.501 188.195 50.5963 268.813 -63.9864 243.886C-133.564 228.782 -185.165 176.426 -221.764 83.9466L-223.316 84.4099C-186.587 177.26 -134.728 229.894 -64.5037 245.091C50.855 270.296 194.148 189.399 332.527 111.19C456.68 41.1353 573.978 -25.1202 656.488 -4.54854C702.787 6.94192 734.601 44.7493 753.741 111.005C776.244 189.029 809.093 230.635 854.098 238.141C922.124 249.446 1006.44 180.689 1087.92 114.155C1165.26 51.0505 1238.33 -8.53315 1292.77 2.21599C1330.41 9.6292 1355.62 50.6798 1369.72 127.684C1384.46 208.581 1412.66 252.968 1455.72 263.253C1517.8 278.08 1600.44 221.74 1688.12 161.971C1775.55 102.387 1865.94 40.7647 1936.17 53.1818C1976.39 60.2243 2006.52 90.4331 2028.25 145.569L2029.8 145.105C2024.89 132.503 2019.45 121.105 2013.5 111.005Z" fill="url(#paint18_linear_678_25023)" fill-opacity="0.2"/>
<path d="M2037.43 121.105C2016.61 85.7072 1990.23 65.5063 1957.38 59.6684C1884.57 46.6953 1791.97 107.484 1702.48 166.233C1613.37 224.705 1529.31 279.933 1466.71 264.736C1423.78 254.265 1395.59 211.176 1380.2 132.874C1365.45 57.3517 1339.33 16.7645 1300.66 8.88793C1244.02 -2.50987 1169.14 56.3324 1089.86 118.696C1007.09 183.84 921.477 251.114 852.934 239.531C807.929 231.933 774.951 191.438 751.672 115.731C731.885 50.9578 699.295 13.7065 652.22 1.84538C566.995 -19.6529 446.722 45.6759 319.336 114.897C178.112 191.623 31.9735 270.945 -85.4544 245.184C-155.678 229.801 -207.926 178.558 -245.43 88.6725L-246.982 89.1358C-209.349 179.484 -156.713 230.913 -85.9717 246.481C32.2321 272.427 178.629 192.921 320.241 116.009C447.368 46.9732 567.253 -18.1703 651.574 3.14268C698.131 14.9111 730.333 51.7918 749.991 116.194C773.269 192.365 806.765 233.137 852.417 240.829C921.994 252.597 1007.87 184.952 1091.02 119.623C1169.91 57.6297 1244.4 -1.02723 1300.14 10.2779C1338.29 17.9691 1363.9 58.1857 1378.64 133.244C1394.03 212.01 1422.61 255.47 1466.2 266.033C1529.7 281.508 1614.15 226.002 1703.64 167.252C1792.87 108.688 1885.08 48.1779 1956.99 60.9657C1997.6 68.1935 2028.25 97.8463 2050.62 151.499L2052.17 151.036C2047.65 140.102 2042.73 130.094 2037.43 121.105Z" fill="url(#paint19_linear_678_25023)" fill-opacity="0.2"/>
<path d="M2062.13 131.206C2040.53 94.5105 2013.12 73.5682 1978.85 67.3596C1904.35 53.9232 1809.95 113.599 1718.51 171.422C1627.47 228.967 1541.47 283.362 1477.32 267.516C1434.12 256.767 1405.29 214.604 1389.38 138.434C1373.99 64.765 1347.48 25.0117 1308.29 16.9498C1250.35 4.99605 1173.92 62.9117 1093.09 124.163C1008.64 188.102 921.348 254.358 851.124 242.219C805.601 234.435 771.847 194.681 747.922 120.92C727.488 58.0004 694.639 21.5831 647.306 9.53663C560.14 -12.703 437.152 51.6066 306.92 119.623C162.463 195.052 13.0919 273.076 -107.181 246.388C-177.922 230.728 -230.946 180.596 -269.356 93.1205L-270.908 93.5838C-232.369 181.43 -178.957 231.747 -107.698 247.593C13.3506 274.466 163.11 196.164 307.955 120.549C437.798 52.7186 560.399 -11.4057 646.789 10.6486C693.475 22.6024 726.066 58.7418 746.37 121.198C770.424 195.515 804.566 235.454 850.736 243.331C921.865 255.562 1009.55 189.122 1094.26 124.905C1174.7 63.931 1250.74 6.29337 1307.77 18.0618C1346.31 26.031 1372.57 65.4137 1387.83 138.619C1403.86 215.253 1432.96 257.786 1476.8 268.721C1541.72 284.844 1628.11 230.172 1719.55 172.349C1810.59 114.804 1904.74 55.3132 1978.33 68.5643C2019.45 75.9775 2050.49 104.982 2073.51 157.337L2075.06 156.874C2071.05 147.515 2066.66 138.99 2062.13 131.206Z" fill="url(#paint20_linear_678_25023)" fill-opacity="0.2"/>
<path d="M2087.35 141.213C2064.98 103.128 2036.52 81.3519 2000.7 74.8653C1924.53 60.9655 1828.05 119.623 1734.81 176.426C1641.69 233.045 1553.75 286.605 1488.18 270.111C1444.6 259.083 1415.37 217.755 1398.82 143.715C1382.78 71.9927 1355.75 32.9807 1316.18 24.7335C1256.95 12.3164 1178.96 69.2127 1096.45 129.445C1010.32 192.365 921.218 257.415 849.442 244.813C803.402 236.751 769.002 197.832 744.301 125.924C723.35 64.8575 689.984 29.2741 642.521 16.9496C553.416 -6.03129 427.581 57.1663 294.376 124.163C146.556 198.388 -6.30682 275.207 -129.554 247.686C-200.942 231.747 -254.613 182.727 -293.928 97.6609L-295.479 98.1242C-256.035 183.469 -201.848 232.767 -130.072 248.798C-6.04822 276.504 147.074 199.5 295.281 125.09C428.099 58.3709 553.545 -4.73396 641.874 18.0616C688.949 30.2008 721.927 65.5988 742.749 126.202C767.579 198.573 802.368 237.77 849.054 245.925C921.865 258.62 1011.23 193.384 1097.75 130.186C1179.87 70.232 1257.47 13.521 1315.79 25.7528C1354.72 33.9073 1381.49 72.5487 1397.4 143.808C1414.08 218.403 1443.57 260.01 1487.79 271.13C1554.27 287.902 1642.6 234.157 1736.1 177.26C1829.09 120.735 1925.18 62.2629 2000.57 75.9773C2042.09 83.5758 2073.64 112.024 2097.31 162.897L2098.86 162.434C2094.98 154.835 2091.23 147.793 2087.35 141.213Z" fill="url(#paint21_linear_678_25023)" fill-opacity="0.2"/>
<path d="M2113.21 151.129C2090.07 111.653 2060.32 89.0431 2022.95 82.1859C1944.96 67.8228 1846.54 125.46 1751.23 181.337C1656.05 237.122 1566.04 289.756 1498.92 272.613C1455.08 261.4 1425.33 220.905 1408.26 148.905C1391.58 79.0353 1364.16 40.8573 1324.07 32.3321C1263.54 19.359 1183.88 75.3287 1099.69 134.634C1011.88 196.442 920.96 260.381 847.373 247.315C800.816 239.068 765.769 200.89 740.291 130.742C718.823 71.5294 685.199 36.6874 637.348 24.2703C546.303 0.548006 417.494 62.7263 281.314 128.611C130.261 201.446 -26.2231 277.061 -152.445 248.612C-224.35 232.396 -278.797 184.395 -319.017 101.831L-320.569 102.294C-280.219 185.229 -225.385 233.508 -152.962 249.817C-25.9645 278.358 130.778 202.65 282.219 129.445C418.141 63.7456 546.432 1.75266 636.831 25.2896C684.035 37.614 717.401 72.1781 738.739 131.02C764.346 201.631 799.781 239.994 846.985 248.427C921.477 261.678 1012.65 197.461 1100.85 135.376C1184.66 76.348 1263.93 20.6563 1323.55 33.4441C1362.87 41.8766 1390.02 79.6839 1406.58 149.183C1423.78 221.647 1453.78 262.419 1498.27 273.817C1566.17 291.238 1656.57 238.327 1752.14 182.357C1847.06 126.758 1945.22 69.3055 2022.3 83.4832C2064.2 91.1744 2096.4 119.067 2120.46 168.642L2122.01 168.086C2119.42 162.156 2116.32 156.503 2113.21 151.129Z" fill="url(#paint22_linear_678_25023)" fill-opacity="0.2"/>
<path d="M2139.73 161.044C2115.67 120.179 2084.89 96.6415 2045.84 89.4137C1966.17 74.5873 1865.56 131.298 1768.3 186.156C1670.92 241.106 1578.84 292.906 1510.17 275.022C1465.94 263.531 1435.94 223.963 1418.09 153.909C1400.89 85.7998 1372.82 48.4557 1332.47 39.6526C1270.53 26.1235 1189.31 81.1665 1103.31 139.545C1013.69 200.334 920.96 263.161 845.563 249.632C798.359 241.106 762.794 203.762 736.541 135.376C714.556 77.9232 680.543 43.8225 632.563 31.22C539.448 6.75647 407.665 67.9154 268.252 132.688C113.578 204.596 -46.3978 278.914 -175.724 249.632C-248.146 233.23 -303.368 186.249 -344.494 106.001L-346.046 106.557C-304.791 187.175 -249.181 234.434 -176.37 250.929C-46.2685 280.304 113.966 205.801 269.028 133.8C408.183 69.2127 539.448 8.14646 631.917 32.4247C679.379 44.8418 713.004 78.6646 734.989 135.839C761.372 204.596 797.324 242.218 845.175 250.836C921.348 264.551 1014.46 201.446 1104.47 140.472C1190.09 82.4638 1270.92 27.6061 1332.09 40.9499C1371.79 49.5677 1399.47 86.6337 1416.67 154.279C1434.51 224.705 1464.9 264.643 1509.65 276.319C1579.23 294.389 1671.57 242.311 1769.34 187.175C1866.33 132.503 1966.56 76.0699 2045.45 90.711C2087.74 98.5875 2120.46 125.924 2145.16 174.202L2146.71 173.646C2144.38 169.198 2142.05 165.028 2139.73 161.044Z" fill="url(#paint23_linear_678_25023)" fill-opacity="0.2"/>
<path d="M2166.88 170.959C2141.93 128.518 2109.98 104.147 2069.11 96.5489C1987.51 81.2591 1884.83 136.951 1785.37 190.882C1685.66 244.906 1591.51 295.964 1521.16 277.431C1476.67 265.663 1446.15 226.929 1427.92 158.912C1410.07 92.6569 1381.62 56.0542 1340.88 47.0657C1277.51 32.9806 1194.61 87.1897 1106.67 144.549C1015.11 204.318 920.442 266.126 843.364 252.041C795.643 243.33 759.432 206.728 732.402 140.101C709.9 84.3171 675.499 51.0503 627.39 38.3552C532.206 13.1503 397.448 73.2899 254.673 137.043C96.3777 207.747 -67.3489 280.86 -199.908 250.744C-272.848 234.156 -328.716 188.195 -370.747 110.171L-372.299 110.727C-330.01 189.121 -273.882 235.268 -200.555 251.948C-67.0903 282.064 97.0243 208.859 255.578 137.97C397.836 74.4019 532.335 14.355 626.872 39.3745C674.464 51.977 708.477 85.0584 730.98 140.379C758.138 207.376 794.737 244.257 842.976 253.153C920.959 267.423 1016.01 205.338 1107.84 145.383C1195.26 88.3017 1277.9 34.3706 1340.36 48.1777C1380.45 57.0736 1408.65 93.3983 1426.37 159.19C1444.86 227.67 1475.64 266.682 1520.64 278.543C1591.77 297.354 1686.31 246.018 1786.41 191.809C1885.47 138.155 1987.9 82.5564 2068.73 97.7535C2111.53 105.815 2144.51 132.503 2169.86 179.484L2171.41 178.928C2169.99 176.241 2168.44 173.553 2166.88 170.959Z" fill="url(#paint24_linear_678_25023)" fill-opacity="0.2"/>
<path d="M2194.82 180.874C2169.08 136.951 2135.72 111.653 2093.17 103.684C2009.75 87.9312 1904.74 142.696 1803.22 195.608C1701.18 248.798 1604.83 299.115 1532.8 279.84C1488.05 267.887 1457.14 229.987 1438.26 163.824C1419.77 99.329 1390.93 63.4676 1349.8 54.2011C1285.01 39.5601 1200.17 92.8425 1110.42 149.275C1016.92 208.025 920.313 268.813 841.295 254.172C793.056 245.276 756.198 209.322 728.523 144.457C705.503 90.3405 670.844 57.8151 622.476 44.9346C525.093 18.9884 387.102 78.2014 241.094 140.843C79.0482 210.342 -88.5581 282.25 -224.221 251.3C-297.549 234.805 -354.193 189.77 -397 113.97L-398.552 114.526C-355.487 190.697 -298.583 235.917 -224.738 252.69C-88.2994 283.825 79.5655 211.824 241.999 142.14C387.62 79.5914 525.222 20.5637 621.958 46.3246C669.809 59.1124 704.08 91.3598 726.971 145.106C754.776 210.434 792.022 246.574 840.907 255.562C920.701 270.296 1017.7 209.322 1111.59 150.387C1200.95 94.2325 1285.27 41.1354 1349.29 55.5911C1389.77 64.6723 1418.35 100.256 1436.71 164.287C1455.72 230.821 1487.02 268.999 1532.28 281.138C1605.09 300.597 1701.83 250.095 1804.26 196.72C1905.39 143.901 2010.01 89.3212 2092.78 104.982C2135.98 113.136 2169.47 139.268 2195.47 185.044L2197.02 184.488C2196.11 183.191 2195.47 182.079 2194.82 180.874Z" fill="url(#paint25_linear_678_25023)" fill-opacity="0.2"/>
<path d="M2222.75 189.677C2196.11 144.827 2161.71 118.974 2117.61 110.634C2032.26 94.4175 1924.92 148.256 1821.33 200.334C1716.83 252.689 1618.28 302.265 1544.57 282.25C1499.56 270.11 1468.27 232.952 1448.87 168.828C1429.86 106.093 1400.5 70.9733 1359.12 61.5214C1292.77 46.3244 1206.12 98.7728 1114.43 154.279C1018.99 212.102 920.184 271.778 839.355 256.674C790.599 247.593 753.095 212.38 724.773 149.183C701.235 96.7341 666.188 64.9501 617.82 51.9769C518.239 25.2894 377.015 83.483 227.644 145.198C61.4602 213.399 -110.026 284.196 -249.051 252.411C-323.026 235.454 -380.317 191.53 -424.029 117.862L-425.581 118.418C-381.61 192.365 -324.06 236.566 -249.698 253.523C-109.897 285.4 61.8482 214.604 228.032 146.032C377.145 84.5024 517.981 26.494 616.915 52.9962C664.895 65.8767 699.554 97.3828 722.962 149.461C751.543 213.121 789.436 248.52 838.709 257.693C920.443 272.983 1019.51 213.029 1115.34 155.02C1206.64 99.7921 1292.9 47.529 1358.34 62.5408C1399.21 71.8999 1428.18 106.742 1447.06 169.013C1466.59 233.6 1498.27 271.037 1543.79 283.269C1618.28 303.377 1717.35 253.709 1822.1 201.168C1925.43 149.275 2032.39 95.6222 2117.09 111.746C2160.68 119.993 2194.69 145.661 2221.2 190.141L2222.75 189.677Z" fill="url(#paint26_linear_678_25023)" fill-opacity="0.2"/>
<path d="M2249.27 194.867C2222.11 151.221 2187.19 125.924 2142.7 117.399C2055.28 100.812 1945.74 153.631 1839.69 204.782C1732.74 256.396 1631.74 305.138 1556.21 284.474C1511.07 272.149 1479.39 235.825 1459.34 173.554C1439.69 112.487 1409.94 78.1088 1368.17 68.4716C1300.27 52.7185 1211.81 104.333 1118.05 158.913C1020.54 215.716 919.667 274.466 836.898 258.806C787.625 249.446 749.603 215.068 720.376 153.445C696.321 102.572 661.015 71.5295 612.389 58.4638C510.48 31.0349 366.023 88.3019 213.03 148.905C87.972 198.481 -41.2245 249.632 -158.264 259.64C-290.565 270.945 -386.525 225.817 -451.576 121.569L-453.127 122.217C-418.597 177.538 -374.627 216.921 -322.25 239.253C-275.304 259.269 -221.505 266.404 -158.006 260.937C-40.7072 250.929 88.748 199.685 213.935 150.017C366.54 89.5992 510.738 32.4249 611.871 59.6684C659.98 72.6415 695.028 103.406 718.824 153.909C748.181 215.902 786.59 250.558 836.381 260.01C920.055 275.856 1021.19 216.828 1119.09 159.839C1212.46 105.445 1300.53 54.1085 1367.65 69.6762C1408.78 79.2207 1438.26 113.321 1457.79 173.924C1477.97 236.659 1509.91 273.169 1555.69 285.678C1631.99 306.528 1733.39 257.601 1840.6 205.801C1946.26 154.835 2055.54 102.109 2142.18 118.603C2186.16 126.943 2220.69 152.148 2247.71 195.423L2249.27 194.867Z" fill="url(#paint27_linear_678_25023)" fill-opacity="0.2"/>
<path d="M2276.29 199.963C2248.49 157.522 2213.18 132.688 2168.31 124.163C2078.81 107.112 1966.95 159.098 1858.57 209.322C1749.03 260.102 1645.57 308.103 1568.36 286.79C1522.97 274.28 1490.9 238.79 1470.34 178.279C1450.16 118.881 1419.9 85.2436 1377.87 75.4211C1308.42 59.112 1217.89 109.8 1122.06 163.545C1022.35 219.423 919.408 277.153 834.57 261.029C784.779 251.577 746.111 217.755 716.237 157.8C691.665 108.503 656.1 78.201 607.344 65.0426C503.237 36.9651 355.288 93.2127 198.675 152.796C71.418 201.26 -60.2357 251.299 -179.474 260.936C-314.49 271.871 -412.778 227.484 -479.639 125.275L-481.191 125.924C-413.942 228.689 -315.266 273.261 -179.345 262.234C-59.7184 252.597 72.0646 202.372 199.451 153.908C355.676 94.4174 503.237 38.2624 606.827 66.1546C655.066 79.2203 690.372 109.244 714.814 158.264C744.818 218.589 783.874 252.597 834.182 262.141C919.796 278.45 1023.13 220.535 1123.1 164.472C1218.54 111.004 1308.68 60.4093 1377.35 76.5331C1418.86 86.2629 1448.74 119.622 1468.78 178.557C1489.48 239.438 1521.81 275.207 1567.72 287.902C1645.83 309.493 1749.55 261.307 1859.48 210.341C1967.46 160.21 2079.07 108.503 2167.92 125.368C2212.41 133.8 2247.33 158.449 2274.87 200.612L2276.29 199.963Z" fill="url(#paint28_linear_678_25023)" fill-opacity="0.2"/>
<path d="M2303.84 205.06C2275.52 163.731 2239.7 139.453 2194.43 130.835C2102.87 113.321 1988.42 164.38 1877.71 213.77C1765.59 263.809 1659.67 311.068 1580.52 289.014C1535 276.319 1502.54 241.662 1481.46 182.913C1460.77 125.182 1430.12 92.2863 1387.7 82.1858C1316.57 65.3207 1224.1 115.175 1126.07 168.086C1024.29 223.037 918.891 279.84 832.113 263.068C781.805 253.431 742.49 220.349 711.969 161.97C687.009 114.248 651.057 84.5951 602.301 71.4366C495.736 42.7105 344.425 98.0315 184.061 156.596C54.4764 203.948 -79.5053 252.967 -201.201 262.234C-338.933 272.798 -439.419 229.153 -508.221 128.796L-509.772 129.445C-440.583 230.265 -339.709 274.095 -201.072 263.439C-79.1173 254.079 54.9936 205.06 184.837 157.615C344.813 99.1435 495.866 43.9151 601.783 72.5486C650.151 85.6144 685.845 114.989 710.676 162.434C741.455 221.183 781.029 254.45 831.854 264.18C919.537 281.045 1025.07 224.056 1127.23 168.92C1224.88 116.287 1316.96 66.5254 1387.31 83.2978C1429.08 93.2129 1459.47 125.924 1480.04 183.191C1501.25 242.311 1533.96 277.246 1580.13 290.033C1660.06 312.273 1766.36 264.921 1878.88 214.697C1989.19 165.492 2103.39 114.619 2194.3 131.947C2239.18 140.472 2274.61 164.565 2302.68 205.616L2303.84 205.06Z" fill="url(#paint29_linear_678_25023)" fill-opacity="0.2"/>
<path d="M2332.03 210.064C2234.14 73.846 2062.91 147.237 1897.5 218.125C1782.66 267.331 1674.15 313.848 1593.07 291.146C1547.29 278.265 1514.57 244.35 1492.97 187.453C1471.63 131.391 1440.59 99.1436 1398.04 88.8577C1325.23 71.4367 1230.7 120.457 1130.47 172.442C1026.36 226.465 918.761 282.25 829.785 265.107C778.96 255.284 739.128 222.944 707.831 166.048C686.234 126.665 657.006 100.07 618.596 84.6878C584.066 70.8807 542.811 66.4328 492.245 71.1587C398.095 79.8692 286.875 118.881 169.189 160.21C37.2762 206.542 -99.1627 254.358 -223.316 263.439C-363.893 273.632 -466.707 230.728 -537.448 132.225L-539 132.874C-467.871 231.747 -364.669 274.929 -223.316 264.643C-98.904 255.562 37.6641 207.654 169.706 161.322C287.263 120.086 398.225 81.0739 492.115 72.456C597.387 62.7262 665.412 92.5644 706.15 166.604C737.576 223.778 777.796 256.396 829.009 266.311C918.761 283.732 1026.75 227.67 1131.11 173.461C1230.95 121.661 1325.23 72.734 1397.14 90.0624C1439.17 100.163 1469.95 132.132 1491.03 187.824C1512.76 245.091 1545.86 279.284 1592.03 292.258C1673.9 315.238 1782.66 268.535 1897.89 219.145C2062.65 148.534 2233.1 75.514 2330.22 210.62L2332.03 210.064Z" fill="url(#paint30_linear_678_25023)" fill-opacity="0.2"/>
<defs>
<linearGradient id="paint0_linear_678_25023" x1="96.3651" y1="-174" x2="1795.85" y2="116.568" gradientUnits="userSpaceOnUse">
<stop stop-color="#BE8143"/>
<stop offset="0.556227" stop-color="#8F664E"/>
<stop offset="1" stop-color="#BB7F44"/>
</linearGradient>
<linearGradient id="paint1_linear_678_25023" x1="78.6656" y1="-162.959" x2="1808.22" y2="144.986" gradientUnits="userSpaceOnUse">
<stop stop-color="#BE8143"/>
<stop offset="0.556227" stop-color="#8F664E"/>
<stop offset="1" stop-color="#BB7F44"/>
</linearGradient>
<linearGradient id="paint2_linear_678_25023" x1="60.8144" y1="-152.188" x2="1820.97" y2="174.043" gradientUnits="userSpaceOnUse">
<stop stop-color="#BE8143"/>
<stop offset="0.556227" stop-color="#8F664E"/>
<stop offset="1" stop-color="#BB7F44"/>
</linearGradient>
<linearGradient id="paint3_linear_678_25023" x1="42.5601" y1="-141.464" x2="1833.41" y2="204.212" gradientUnits="userSpaceOnUse">
<stop stop-color="#BE8143"/>
<stop offset="0.556227" stop-color="#8F664E"/>
<stop offset="1" stop-color="#BB7F44"/>
</linearGradient>
<linearGradient id="paint4_linear_678_25023" x1="23.6282" y1="-131.089" x2="1845.95" y2="235.257" gradientUnits="userSpaceOnUse">
<stop stop-color="#BE8143"/>
<stop offset="0.556227" stop-color="#8F664E"/>
<stop offset="1" stop-color="#BB7F44"/>
</linearGradient>
<linearGradient id="paint5_linear_678_25023" x1="4.43388" y1="-120.643" x2="1857.63" y2="267.575" gradientUnits="userSpaceOnUse">
<stop stop-color="#BE8143"/>
<stop offset="0.556227" stop-color="#8F664E"/>
<stop offset="1" stop-color="#BB7F44"/>
</linearGradient>
<linearGradient id="paint6_linear_678_25023" x1="-14.7719" y1="-110.76" x2="1869.25" y2="300.147" gradientUnits="userSpaceOnUse">
<stop stop-color="#BE8143"/>
<stop offset="0.556227" stop-color="#8F664E"/>
<stop offset="1" stop-color="#BB7F44"/>
</linearGradient>
<linearGradient id="paint7_linear_678_25023" x1="-34.3907" y1="-101.459" x2="1881.36" y2="332.196" gradientUnits="userSpaceOnUse">
<stop stop-color="#BE8143"/>
<stop offset="0.556227" stop-color="#8F664E"/>
<stop offset="1" stop-color="#BB7F44"/>
</linearGradient>
<linearGradient id="paint8_linear_678_25023" x1="-54.6782" y1="-92.3335" x2="1892.87" y2="365.554" gradientUnits="userSpaceOnUse">
<stop stop-color="#BE8143"/>
<stop offset="0.556227" stop-color="#8F664E"/>
<stop offset="1" stop-color="#BB7F44"/>
</linearGradient>
<linearGradient id="paint9_linear_678_25023" x1="-74.9755" y1="-83.2353" x2="1904.01" y2="399.866" gradientUnits="userSpaceOnUse">
<stop stop-color="#BE8143"/>
<stop offset="0.556227" stop-color="#8F664E"/>
<stop offset="1" stop-color="#BB7F44"/>
</linearGradient>
<linearGradient id="paint10_linear_678_25023" x1="-95.9467" y1="-74.405" x2="1914.68" y2="435.494" gradientUnits="userSpaceOnUse">
<stop stop-color="#BE8143"/>
<stop offset="0.556227" stop-color="#8F664E"/>
<stop offset="1" stop-color="#BB7F44"/>
</linearGradient>
<linearGradient id="paint11_linear_678_25023" x1="-116.801" y1="-65.5327" x2="1925.25" y2="471.978" gradientUnits="userSpaceOnUse">
<stop stop-color="#BE8143"/>
<stop offset="0.556227" stop-color="#8F664E"/>
<stop offset="1" stop-color="#BB7F44"/>
</linearGradient>
<linearGradient id="paint12_linear_678_25023" x1="-138.85" y1="-57.0212" x2="1934.61" y2="510.085" gradientUnits="userSpaceOnUse">
<stop stop-color="#BE8143"/>
<stop offset="0.556227" stop-color="#8F664E"/>
<stop offset="1" stop-color="#BB7F44"/>
</linearGradient>
<linearGradient id="paint13_linear_678_25023" x1="-160.9" y1="-48.8662" x2="1943.5" y2="547.859" gradientUnits="userSpaceOnUse">
<stop stop-color="#BE8143"/>
<stop offset="0.556227" stop-color="#8F664E"/>
<stop offset="1" stop-color="#BB7F44"/>
</linearGradient>
<linearGradient id="paint14_linear_678_25023" x1="-183.242" y1="-40.5845" x2="1951.77" y2="588.268" gradientUnits="userSpaceOnUse">
<stop stop-color="#BE8143"/>
<stop offset="0.556227" stop-color="#8F664E"/>
<stop offset="1" stop-color="#BB7F44"/>
</linearGradient>
<linearGradient id="paint15_linear_678_25023" x1="-206.374" y1="-32.6833" x2="1958.87" y2="628.986" gradientUnits="userSpaceOnUse">
<stop stop-color="#BE8143"/>
<stop offset="0.556227" stop-color="#8F664E"/>
<stop offset="1" stop-color="#BB7F44"/>
</linearGradient>
<linearGradient id="paint16_linear_678_25023" x1="-229.264" y1="-24.7021" x2="1965.69" y2="671.089" gradientUnits="userSpaceOnUse">
<stop stop-color="#BE8143"/>
<stop offset="0.556227" stop-color="#8F664E"/>
<stop offset="1" stop-color="#BB7F44"/>
</linearGradient>
<linearGradient id="paint17_linear_678_25023" x1="-253.479" y1="-17.29" x2="1970.85" y2="714.419" gradientUnits="userSpaceOnUse">
<stop stop-color="#BE8143"/>
<stop offset="0.556227" stop-color="#8F664E"/>
<stop offset="1" stop-color="#BB7F44"/>
</linearGradient>
<linearGradient id="paint18_linear_678_25023" x1="-277.445" y1="-9.61303" x2="1975.25" y2="759.042" gradientUnits="userSpaceOnUse">
<stop stop-color="#BE8143"/>
<stop offset="0.556227" stop-color="#8F664E"/>
<stop offset="1" stop-color="#BB7F44"/>
</linearGradient>
<linearGradient id="paint19_linear_678_25023" x1="-302.217" y1="-2.32006" x2="1978.79" y2="804.464" gradientUnits="userSpaceOnUse">
<stop stop-color="#BE8143"/>
<stop offset="0.556227" stop-color="#8F664E"/>
<stop offset="1" stop-color="#BB7F44"/>
</linearGradient>
<linearGradient id="paint20_linear_678_25023" x1="-327.267" y1="5.0564" x2="1980.63" y2="851.885" gradientUnits="userSpaceOnUse">
<stop stop-color="#BE8143"/>
<stop offset="0.556227" stop-color="#8F664E"/>
<stop offset="1" stop-color="#BB7F44"/>
</linearGradient>
<linearGradient id="paint21_linear_678_25023" x1="-353.001" y1="12.1367" x2="1981.13" y2="900.984" gradientUnits="userSpaceOnUse">
<stop stop-color="#BE8143"/>
<stop offset="0.556227" stop-color="#8F664E"/>
<stop offset="1" stop-color="#BB7F44"/>
</linearGradient>
<linearGradient id="paint22_linear_678_25023" x1="-379.249" y1="19.1157" x2="1979.96" y2="949.926" gradientUnits="userSpaceOnUse">
<stop stop-color="#BE8143"/>
<stop offset="0.556227" stop-color="#8F664E"/>
<stop offset="1" stop-color="#BB7F44"/>
</linearGradient>
<linearGradient id="paint23_linear_678_25023" x1="-405.932" y1="25.7102" x2="1978.29" y2="1000.14" gradientUnits="userSpaceOnUse">
<stop stop-color="#BE8143"/>
<stop offset="0.556227" stop-color="#8F664E"/>
<stop offset="1" stop-color="#BB7F44"/>
</linearGradient>
<linearGradient id="paint24_linear_678_25023" x1="-433.409" y1="32.4766" x2="1973.09" y2="1053.08" gradientUnits="userSpaceOnUse">
<stop stop-color="#BE8143"/>
<stop offset="0.556227" stop-color="#8F664E"/>
<stop offset="1" stop-color="#BB7F44"/>
</linearGradient>
<linearGradient id="paint25_linear_678_25023" x1="-460.908" y1="38.6794" x2="1968.97" y2="1104.33" gradientUnits="userSpaceOnUse">
<stop stop-color="#BE8143"/>
<stop offset="0.556227" stop-color="#8F664E"/>
<stop offset="1" stop-color="#BB7F44"/>
</linearGradient>
<linearGradient id="paint26_linear_678_25023" x1="-489.205" y1="45.3254" x2="1959.46" y2="1160.04" gradientUnits="userSpaceOnUse">
<stop stop-color="#BE8143"/>
<stop offset="0.556227" stop-color="#8F664E"/>
<stop offset="1" stop-color="#BB7F44"/>
</linearGradient>
<linearGradient id="paint27_linear_678_25023" x1="-518.05" y1="51.4082" x2="1950.79" y2="1214.17" gradientUnits="userSpaceOnUse">
<stop stop-color="#BE8143"/>
<stop offset="0.556227" stop-color="#8F664E"/>
<stop offset="1" stop-color="#BB7F44"/>
</linearGradient>
<linearGradient id="paint28_linear_678_25023" x1="-547.437" y1="57.6035" x2="1938.65" y2="1270.63" gradientUnits="userSpaceOnUse">
<stop stop-color="#BE8143"/>
<stop offset="0.556227" stop-color="#8F664E"/>
<stop offset="1" stop-color="#BB7F44"/>
</linearGradient>
<linearGradient id="paint29_linear_678_25023" x1="-577.367" y1="63.6099" x2="1924.21" y2="1327.97" gradientUnits="userSpaceOnUse">
<stop stop-color="#BE8143"/>
<stop offset="0.556227" stop-color="#8F664E"/>
<stop offset="1" stop-color="#BB7F44"/>
</linearGradient>
<linearGradient id="paint30_linear_678_25023" x1="-607.974" y1="69.3359" x2="1908.93" y2="1385.06" gradientUnits="userSpaceOnUse">
<stop stop-color="#BE8143"/>
<stop offset="0.556227" stop-color="#8F664E"/>
<stop offset="1" stop-color="#BB7F44"/>
</linearGradient>
</defs>
</svg>
