<svg width="29" height="35" viewBox="0 0 29 35" fill="none" xmlns="http://www.w3.org/2000/svg">
<path d="M27.5528 24.9613C27.0311 24.7565 26.5497 24.465 26.1299 24.0996C24.9286 23.0774 24.1517 21.6611 23.9459 20.1178C23.8458 19.3604 23.8795 18.5918 24.0455 17.8455C24.2745 16.8579 24.7822 15.9528 25.511 15.2326C25.9876 14.767 26.4785 14.3154 26.9338 13.8428C27.0791 13.7146 27.17 13.5379 27.1884 13.3475C27.2068 13.1571 27.1515 12.9669 27.0334 12.8144C26.5121 12.1559 25.9046 11.5672 25.2264 11.0632C24.3625 10.4264 23.3712 9.9742 22.3167 9.73592C21.5658 9.55469 20.7905 9.48904 20.0189 9.54135C18.7286 9.69347 17.4608 9.99197 16.2413 10.4308C15.2995 10.7721 14.2717 10.8159 13.3031 10.5559C12.144 10.1889 10.9535 9.92375 9.74605 9.76372C8.38111 9.57462 6.98926 9.76584 5.73068 10.3154C4.4721 10.8649 3.39797 11.7504 2.6319 12.8699C1.96412 13.7806 1.45456 14.7925 1.1237 15.865C0.786812 16.9102 0.593047 17.9944 0.547453 19.0894C0.487101 20.5314 0.618625 21.9749 0.938731 23.3839C1.15287 24.3115 1.43824 25.2221 1.79243 26.1079C2.58405 28.2198 3.72304 30.1914 5.16453 31.9451C5.9199 32.8973 6.89495 33.6616 8.01019 34.1758C8.71379 34.4954 9.49853 34.6042 10.2654 34.4885C11.0754 34.3381 11.867 34.1052 12.6273 33.7936C13.1122 33.6046 13.615 33.4626 14.1284 33.3697C14.9336 33.2655 15.7527 33.3489 16.5187 33.6129C17.344 33.8561 18.1407 34.148 18.966 34.3634C19.5485 34.5302 20.1608 34.5737 20.7619 34.491C21.363 34.4083 21.9392 34.2014 22.4519 33.8839C23.7471 33.037 24.8432 31.9308 25.6675 30.6387C26.6681 29.2196 27.4563 27.6682 28.0081 26.0315C28.0575 25.933 28.0849 25.8254 28.0884 25.7158C28.0919 25.6061 28.0714 25.497 28.0283 25.3958C27.9852 25.2945 27.9205 25.2034 27.8385 25.1284C27.7565 25.0535 27.6591 24.9966 27.5528 24.9613Z" fill="#EDEDED"/>
<path d="M14.2276 8.97799L14.6615 8.93629C15.6493 8.90016 16.6083 8.60231 17.436 8.07461C18.0559 7.64232 18.6155 7.13308 19.1008 6.55972C19.7169 5.86233 20.1989 5.0619 20.5236 4.19703C20.7209 3.56192 20.8427 2.9067 20.8864 2.24434C20.9291 1.84825 20.9291 1.46605 20.9575 1.06995C20.9833 0.929435 20.9718 0.784799 20.924 0.649898C20.8761 0.514996 20.7937 0.394345 20.6844 0.2995C20.5752 0.204655 20.4429 0.138791 20.3001 0.108216C20.1573 0.077641 20.0089 0.0833795 19.8691 0.12488C19.1661 0.288119 18.482 0.520959 17.8273 0.819787C16.8222 1.23957 15.9308 1.8819 15.2235 2.69603C14.0239 4.19047 13.3502 6.02325 13.3027 7.92173V8.23444C13.2986 8.34753 13.3212 8.46002 13.3688 8.56319C13.4164 8.66637 13.4877 8.75744 13.5771 8.82936C13.6666 8.90127 13.7718 8.95209 13.8846 8.97786C13.9974 9.00364 14.1147 9.00368 14.2276 8.97799Z" fill="#EDEDED"/>
</svg>
