<svg width="1920" height="723" viewBox="0 0 1920 723" fill="none" xmlns="http://www.w3.org/2000/svg">
<mask id="mask0_1209_25628" style="mask-type:alpha" maskUnits="userSpaceOnUse" x="0" y="0" width="1920" height="723">
<rect width="1920" height="723" transform="matrix(-1 0 0 1 1920 0)" fill="#292A2B"/>
</mask>
<g mask="url(#mask0_1209_25628)">
<path d="M1600.81 178.769C1598.17 156.064 1590.66 142.882 1578.32 138.966C1534.95 125.209 1438.48 228.704 1345.16 328.79C1257.9 422.371 1167.7 519.149 1131.47 505.813C1101.39 494.742 1109.78 409.899 1157.09 246.444C1201.64 92.468 1210.3 13.4238 1183.59 4.81975C1149.55 -6.14821 1065.01 95.2718 975.499 202.661C881.64 315.262 784.579 431.68 743.971 419.587C713.675 410.569 717.692 331.223 756.281 176.98C791.349 36.7877 791.536 -38.029 756.897 -51.7509C707.111 -71.4979 593.165 36.089 472.556 149.971C339.113 275.971 201.129 406.239 134.104 381.431C84.1267 362.941 79.6928 260.013 120.546 66.7724L118.886 66.8335C77.8464 260.866 82.528 364.296 133.162 383.047C201.195 408.222 339.636 277.481 473.547 151.056C593.674 37.6398 707.155 -69.5041 755.935 -50.1595C789.915 -36.6904 789.486 37.6347 754.621 177.013C715.823 332.114 712.082 411.989 743.129 421.235C784.9 433.664 882.419 316.69 976.721 203.547C1065.76 96.7278 1149.86 -4.15018 1182.75 6.46015C1208.72 14.8202 1199.78 93.3315 1155.48 246.428C1107.94 410.735 1099.79 496.105 1130.57 507.426C1167.88 521.162 1254.55 428.183 1346.31 329.77C1439.16 230.166 1535.18 127.163 1577.47 140.587C1605.55 149.512 1607.67 208.411 1583.92 320.702L1585.58 320.65C1599.22 256.07 1604.31 208.979 1600.81 178.769Z" fill="url(#paint0_linear_1209_25628)" fill-opacity="0.2"/>
<path d="M1611.05 197.652C1608.3 173.903 1600.46 160.095 1587.53 155.923C1543.37 141.669 1446.64 242.97 1353.08 340.933C1265.57 432.599 1175.08 527.352 1138.16 513.479C1107.7 502.025 1115.04 418.699 1160.52 258.702C1203.41 107.877 1211.1 30.2205 1184.01 21.3071C1149.36 9.92091 1064.79 109.231 975.259 214.387C881.377 324.625 784.297 438.636 742.878 426.084C712.104 416.762 715.053 338.772 751.877 187.653C785.272 50.5791 784.496 -22.9493 749.489 -37.1126C698.793 -57.6345 584.24 47.6918 462.96 159.173C328.777 282.538 190.033 410.092 121.669 384.304C71.0855 365.203 65.1984 264.054 103.686 75.0146L102.033 75.0783C63.3903 264.873 69.5335 366.528 120.768 385.851C190.089 412.017 329.327 284.02 463.968 160.236C584.763 49.201 698.833 -55.6874 748.541 -35.5626C782.889 -21.6795 783.436 51.3432 750.232 187.637C713.201 339.613 710.532 418.117 742.06 427.658C784.596 440.548 882.139 325.992 976.453 215.218C1065.51 110.632 1149.63 11.8419 1183.15 22.8511C1209.47 31.5013 1201.56 108.608 1158.91 258.57C1113.18 419.408 1106.09 503.275 1137.27 514.99C1175.26 529.279 1262.17 438.23 1354.22 341.847C1447.31 244.363 1543.57 143.549 1586.67 157.459C1615.16 166.654 1618.13 224.577 1595.75 334.566L1597.4 334.503C1609.94 272.909 1614.51 227.46 1611.05 197.652Z" fill="url(#paint1_linear_1209_25628)" fill-opacity="0.2"/>
<path d="M1621.72 216.414C1618.85 191.591 1610.66 177.121 1597.09 172.677C1552.11 157.904 1455.08 257.056 1361.26 352.952C1273.43 442.709 1182.64 535.518 1145.01 521.065C1114.16 509.216 1120.43 427.347 1164.15 270.781C1205.41 123.048 1212.12 46.7658 1184.63 37.5487C1149.36 25.7112 1064.72 122.984 975.101 225.948C881.172 333.869 784.011 445.498 741.804 432.468C710.549 422.852 712.42 346.195 747.514 198.12C779.283 64.106 777.528 -8.13924 742.163 -22.7497C690.557 -44.0738 575.301 59.0058 453.309 168.155C318.311 288.916 178.73 413.794 109.017 386.978C57.8325 367.304 50.5274 267.854 86.6425 82.9496L84.9738 83.0353C48.6974 268.684 56.2529 368.629 108.08 388.55C178.742 415.714 318.815 290.428 454.282 169.243C575.78 60.5373 690.572 -42.135 741.226 -21.2053C775.94 -6.87244 777.459 64.8922 745.88 198.126C710.579 347.031 708.981 424.199 740.978 434.04C784.321 447.378 881.911 335.248 976.298 226.798C1065.41 124.393 1149.61 27.6434 1183.78 39.0871C1210.49 48.0466 1203.56 123.788 1162.55 270.668C1118.59 428.045 1112.56 510.444 1144.1 522.574C1182.77 537.44 1270 448.268 1362.37 353.875C1455.76 258.452 1552.3 159.763 1596.27 174.213C1625.17 183.706 1628.96 240.655 1607.93 348.336L1609.61 348.244C1621.03 289.545 1625.11 245.746 1621.72 216.414Z" fill="url(#paint2_linear_1209_25628)" fill-opacity="0.2"/>
<path d="M1632.77 235.038C1629.78 209.1 1621.21 193.95 1607.02 189.2C1561.16 173.864 1463.81 270.933 1369.65 364.781C1277.41 456.714 1190.29 543.553 1151.95 528.509C1120.73 516.265 1125.97 435.842 1167.92 282.636C1207.55 137.973 1213.27 63.0089 1185.42 53.4797C1149.5 41.2077 1064.74 136.446 975.02 237.267C880.974 342.942 783.697 452.214 740.647 438.706C708.928 428.773 709.718 353.43 743.108 208.371C773.238 77.4035 770.542 6.40797 734.833 -8.66343C682.283 -30.8282 566.284 70.0737 443.503 176.902C307.611 295.107 167.093 417.36 95.9892 389.501C44.2153 369.222 35.4893 271.451 69.2844 90.6345L67.6104 90.7368C33.6733 272.322 42.6385 370.566 95.0526 391.073C167.108 419.299 308.09 296.639 444.445 178.027C566.749 71.6469 682.28 -28.859 733.896 -7.0915C768.959 7.68579 771.438 78.1978 741.478 208.396C707.902 354.274 707.373 430.133 739.832 440.3C783.996 454.154 881.698 344.343 976.223 238.156C1065.47 137.874 1149.77 43.148 1184.6 55.0539C1211.71 64.3031 1205.74 138.728 1166.33 282.565C1124.13 436.57 1119.14 517.513 1151.06 530.048C1190.43 545.494 1278.01 458.196 1370.74 365.754C1464.45 272.359 1561.36 175.772 1606.19 190.752C1635.5 200.547 1640.16 256.557 1620.45 361.978L1622.11 361.873C1632.51 305.983 1636.1 263.86 1632.77 235.038Z" fill="url(#paint3_linear_1209_25628)" fill-opacity="0.2"/>
<path d="M1644.24 253.504C1641.12 226.418 1632.15 210.548 1617.31 205.502C1570.59 189.608 1472.83 284.608 1378.27 376.451C1285.6 466.474 1198.07 551.525 1159.01 535.859C1127.41 523.19 1131.6 444.177 1171.82 294.324C1209.85 152.646 1214.61 78.9984 1186.4 69.1599C1149.82 56.4175 1064.91 149.679 975.019 248.383C880.794 351.864 783.383 458.828 739.469 444.826C707.266 434.551 707.013 360.489 738.684 218.414C767.224 90.4261 763.567 20.6831 727.536 5.16718C674.018 -17.8739 557.22 80.8785 433.543 185.434C296.68 301.148 155.132 420.809 82.6072 391.862C30.2681 370.957 20.127 274.876 51.6372 98.0406L49.9716 98.1456C18.3383 275.692 28.7131 372.263 81.6897 393.403C155.145 422.729 297.153 302.669 434.491 186.569C557.652 82.4405 674.012 -15.9239 726.597 6.71994C762.006 21.9499 765.421 91.2011 737.062 218.441C705.195 361.341 705.72 435.914 738.654 446.42C783.633 460.78 881.52 353.284 976.2 249.311C1065.61 151.126 1150.08 58.3606 1185.56 70.7368C1213.04 80.3257 1208.04 153.421 1170.23 294.28C1129.78 444.944 1125.81 524.488 1158.09 537.42C1198.18 553.485 1286.18 467.992 1379.35 377.492C1473.44 286.083 1570.74 191.546 1616.46 207.103C1646.16 217.207 1651.64 272.271 1633.26 375.468L1634.93 375.355C1644.34 322.249 1647.48 281.778 1644.24 253.504Z" fill="url(#paint4_linear_1209_25628)" fill-opacity="0.2"/>
<path d="M1656.09 271.877C1652.85 243.614 1643.47 226.996 1627.93 221.628C1580.32 205.17 1482.1 298.122 1387.12 388.012C1293.97 476.162 1206 559.439 1166.15 543.141C1134.18 530.055 1137.37 452.444 1175.87 305.864C1212.33 167.143 1216.13 94.7756 1187.53 84.6279C1150.3 71.3849 1065.16 162.684 975.044 259.362C880.628 360.654 782.986 465.389 738.188 450.841C705.501 440.224 704.213 367.417 734.199 228.273C761.143 103.227 756.57 34.6866 720.237 18.7233C665.722 -5.22159 548.029 91.4229 423.435 193.744C285.504 307.01 142.866 424.123 68.851 394.046C15.9332 372.558 4.43701 278.067 33.6626 105.212L31.9969 105.345C2.64278 278.9 14.4029 373.844 67.9143 395.618C142.838 426.057 285.936 308.544 424.314 194.921C548.489 92.9573 665.716 -3.29909 719.289 20.2458C755.004 35.9424 759.36 103.999 732.569 228.298C702.397 368.261 703.976 441.576 737.361 452.412C783.208 467.285 881.299 362.047 976.194 260.27C1065.84 164.126 1150.49 73.309 1186.66 86.1747C1214.53 96.0839 1210.48 167.941 1174.26 305.803C1135.56 453.172 1132.58 531.309 1165.22 544.685C1206.03 561.394 1294.5 477.691 1388.13 389.056C1482.67 299.59 1580.42 207.064 1627.04 223.206C1657.13 233.616 1663.44 287.775 1646.37 388.781L1648.03 388.657C1656.58 338.356 1659.26 299.541 1656.09 271.877Z" fill="url(#paint5_linear_1209_25628)" fill-opacity="0.2"/>
<path d="M1669.69 289.925C1666.3 260.439 1656.52 243.066 1640.23 237.372C1591.67 220.317 1492.89 311.271 1397.35 399.227C1303.61 485.543 1215.06 567.063 1174.44 550.116C1142.1 536.617 1144.26 460.385 1181.08 317.091C1215.95 181.345 1218.8 110.241 1189.82 99.7479C1151.87 86.0128 1066.44 175.402 975.991 270.066C881.25 369.217 783.277 471.744 737.556 456.683C704.383 445.733 702.031 374.19 730.344 237.944C755.733 115.853 750.249 48.5263 713.558 32.1159C658.009 7.273 539.272 101.843 413.576 201.961C274.423 312.746 130.511 427.371 54.9362 396.151C1.42874 374.057 -11.4664 281.207 15.5046 112.324L13.8446 112.468C-13.2329 282.067 -0.10133 375.37 53.9996 397.723C130.474 429.302 274.86 314.292 414.496 203.097C539.709 103.362 657.988 9.15421 712.635 33.619C748.71 49.7544 753.977 116.597 728.741 237.969C700.239 375.015 702.864 447.068 736.73 458.255C783.483 473.663 881.927 370.648 977.125 271.024C1067.08 176.894 1152.04 87.9675 1188.95 101.342C1217.23 111.568 1214.11 182.153 1179.46 317.066C1142.43 461.171 1140.49 537.914 1173.5 551.688C1215.1 569.056 1304.12 487.102 1398.36 400.31C1493.45 312.766 1591.77 222.228 1639.37 238.96C1669.87 249.676 1677.03 302.925 1661.25 401.729L1662.91 401.597C1670.51 354 1672.79 316.895 1669.69 289.925Z" fill="url(#paint6_linear_1209_25628)" fill-opacity="0.2"/>
<path d="M1684.43 307.677C1680.9 276.972 1670.67 258.8 1653.64 252.754C1604.07 235.113 1504.65 324.097 1408.48 410.151C1314.06 494.678 1224.87 574.501 1183.39 556.87C1150.66 542.941 1151.84 468.091 1186.97 328.047C1220.29 195.221 1222.2 125.397 1192.81 114.567C1154.11 100.313 1068.31 187.839 977.467 280.502C882.308 377.546 783.916 477.911 737.237 462.306C703.555 451.034 700.135 380.736 726.818 247.365C750.653 128.202 744.244 62.1028 707.226 45.2645C650.56 19.4963 530.688 112.018 403.778 209.996C263.23 318.464 117.89 430.65 40.6732 398.287C-13.4461 375.599 -27.7346 284.4 -3.0049 119.43L-4.69025 119.584C-29.5316 285.241 -14.9981 376.923 39.7062 399.84C117.803 432.565 263.596 320.032 404.618 211.207C531.057 113.605 650.487 21.4247 706.242 46.8119C742.667 63.3642 748.853 128.996 725.169 247.448C698.341 381.596 702.028 452.394 736.4 463.911C784.094 479.857 882.966 379.035 978.566 281.513C1068.91 189.364 1154.25 102.317 1191.92 116.164C1220.61 126.735 1218.45 196.037 1185.33 328.053C1150.01 468.877 1149.05 544.238 1182.43 558.445C1224.86 576.487 1314.52 496.248 1409.45 411.275C1505.17 325.615 1604.13 237.065 1652.75 254.37C1683.68 265.381 1691.66 317.715 1677.16 414.377L1678.85 414.223C1685.57 369.316 1687.45 333.915 1684.43 307.677Z" fill="url(#paint7_linear_1209_25628)" fill-opacity="0.2"/>
<path d="M1699.65 325.365C1695.97 293.372 1685.26 274.412 1667.45 267.974C1616.87 249.707 1516.71 336.789 1419.88 420.976C1324.7 503.725 1234.81 581.891 1192.49 563.554C1159.38 549.189 1159.54 475.71 1193.03 338.859C1224.82 208.921 1225.79 140.339 1196.02 129.183C1156.56 114.404 1070.32 200.079 979.046 290.789C883.435 385.797 784.578 484.03 736.923 467.849C702.711 456.238 698.259 387.16 723.282 256.645C745.578 140.36 738.261 75.439 700.943 58.1725C643.162 31.4434 522.049 121.991 393.822 217.834C251.82 324.001 104.988 433.746 26.0576 400.208C-28.665 376.955 -44.3116 287.328 -21.7815 126.238L-23.4648 126.411C-46.0754 288.18 -30.1952 378.269 25.0961 401.771C104.885 435.683 252.18 325.558 394.644 219.074C522.38 123.584 643.04 33.4106 699.963 59.7117C736.703 76.6975 743.798 141.151 721.639 256.739C696.448 388.042 701.167 457.62 736.058 469.454C784.734 485.987 884.074 387.289 980.122 291.838C1070.92 201.604 1156.68 116.395 1195.14 130.799C1224.23 141.685 1223 209.773 1191.42 338.9C1157.74 476.513 1157.78 550.508 1191.55 565.143C1234.83 583.877 1325.19 505.315 1420.87 422.136C1517.28 338.323 1616.96 251.67 1666.61 269.576C1697.96 280.893 1706.78 332.338 1693.56 426.843L1695.24 426.67C1701.06 384.456 1702.57 350.783 1699.65 325.365Z" fill="url(#paint8_linear_1209_25628)" fill-opacity="0.2"/>
<path d="M1715.25 342.959C1711.41 309.633 1700.23 289.822 1681.6 283.021C1629.97 264.135 1529.06 349.288 1431.47 431.666C1335.5 512.681 1244.83 589.218 1201.64 570.164C1168.14 555.395 1167.34 483.217 1199.19 349.522C1229.46 222.432 1229.52 155.052 1199.35 143.562C1159.11 128.225 1072.41 212.093 980.631 300.886C884.523 393.861 785.159 490.003 736.485 473.242C701.772 461.283 696.274 393.384 719.679 265.657C740.477 152.207 732.291 88.4588 694.629 70.7864C635.67 43.0939 513.282 131.657 383.681 225.427C240.119 329.305 91.683 436.701 11.0057 401.921C-44.2956 378.085 -61.2943 290.031 -40.9509 132.743L-42.6341 132.943C-63.0638 290.909 -45.8256 379.399 10.047 403.477C91.5551 438.602 240.466 330.876 384.453 226.679C513.569 133.272 635.523 45.0254 693.615 72.3423C730.683 89.7561 738.656 153.04 717.994 265.792C694.442 394.277 700.199 462.674 735.568 474.866C785.241 491.964 885.098 395.378 981.648 301.952C1072.94 213.624 1159.17 130.216 1198.41 145.151C1227.9 156.379 1227.62 223.248 1197.54 349.539C1165.52 483.984 1166.53 556.665 1200.65 571.701C1244.78 591.18 1335.91 514.255 1432.37 432.815C1529.51 350.819 1629.96 266.038 1680.66 284.61C1712.44 296.231 1722.05 346.791 1710.12 439.196L1711.8 439.003C1716.94 399.492 1718.09 367.534 1715.25 342.959Z" fill="url(#paint9_linear_1209_25628)" fill-opacity="0.2"/>
<path d="M1731.33 360.462C1727.32 325.779 1715.63 305.114 1696.15 297.888C1643.44 278.346 1541.72 361.647 1443.36 442.225C1346.5 521.537 1255.04 596.475 1210.94 576.658C1177.1 561.447 1175.32 490.587 1205.55 360.008C1234.32 235.707 1233.45 169.527 1202.9 157.693C1161.84 141.787 1074.64 223.894 982.332 310.801C885.687 401.804 785.729 495.9 736.002 478.546C700.792 466.232 694.256 399.514 716.056 274.533C735.348 163.89 726.272 101.289 688.333 83.1772C628.209 54.4524 504.437 141.086 373.379 232.812C228.199 334.41 78.0688 439.482 -4.40795 403.452C-60.2685 379.03 -78.6 292.537 -60.4263 139.002L-62.1104 139.202C-80.3696 293.387 -61.8098 380.321 -5.3915 405C77.8858 441.383 228.475 336.003 374.11 234.078C504.668 142.702 628.006 56.3842 687.297 84.7167C724.67 102.57 733.524 164.703 714.34 274.649C692.418 400.369 699.19 467.567 735.088 480.107C785.785 497.825 886.207 403.266 983.317 311.848C1075.16 225.376 1161.9 143.712 1201.95 159.234C1231.82 170.835 1232.46 236.501 1203.88 360.002C1173.49 491.326 1175.49 562.678 1209.94 578.164C1254.96 598.382 1346.9 523.078 1444.24 443.355C1542.15 363.154 1643.43 280.211 1695.24 299.43C1727.41 311.347 1737.85 361.067 1727.14 451.4L1728.83 451.182C1733.22 414.322 1734.06 384.123 1731.33 360.462Z" fill="url(#paint10_linear_1209_25628)" fill-opacity="0.2"/>
<path d="M1747.91 377.899C1743.73 341.796 1731.54 320.26 1711.16 312.593C1657.34 292.368 1554.75 373.861 1455.52 452.681C1357.75 530.345 1265.42 603.688 1220.39 583.109C1186.19 567.457 1183.47 497.866 1212.1 370.368C1239.37 248.838 1237.61 183.831 1206.67 171.624C1164.81 155.105 1077.05 235.491 984.12 320.589C886.846 409.653 786.274 501.761 735.47 483.752C699.735 471.082 692.202 405.504 712.399 283.234C730.208 175.358 720.295 113.912 682.083 95.3725C620.739 65.6156 495.517 150.354 362.918 240.044C216.008 339.425 64.0972 442.209 -20.1957 404.897C-76.6211 379.905 -96.2583 294.928 -80.1867 145.075L-81.8686 145.294C-97.9813 295.784 -78.1321 381.188 -21.1655 406.431C63.9445 444.102 216.316 341.029 363.652 241.329C495.743 151.958 620.54 67.539 681.069 96.9007C718.737 115.171 728.43 176.168 710.728 283.383C690.411 406.384 698.213 472.453 734.581 485.348C786.331 503.686 887.391 411.179 985.109 321.683C1077.54 237.034 1164.85 157.08 1205.74 173.215C1236.01 185.15 1237.55 249.662 1210.46 370.424C1181.67 498.669 1184.6 568.743 1219.41 584.673C1265.32 605.663 1358.12 531.952 1456.39 453.908C1555.16 375.445 1657.29 294.33 1710.24 314.217C1742.83 326.46 1754.08 375.33 1744.62 463.606L1746.3 463.387C1749.98 429.004 1750.52 400.577 1747.91 377.899Z" fill="url(#paint11_linear_1209_25628)" fill-opacity="0.2"/>
<path d="M1764.9 395.269C1760.56 357.727 1747.84 335.257 1726.55 327.165C1671.61 306.26 1568.08 385.943 1467.96 463.024C1369.2 539.044 1275.94 610.846 1229.99 589.44C1195.45 573.341 1191.81 505.024 1218.83 380.542C1244.63 261.721 1241.94 197.878 1210.65 185.318C1167.96 168.195 1079.58 246.857 986.001 330.149C888.089 417.299 786.818 507.428 734.94 488.783C698.726 475.755 690.147 411.3 708.779 291.707C725.148 186.548 714.403 126.214 675.912 107.271C613.322 76.4466 486.582 159.303 352.383 246.994C203.663 344.206 49.876 444.716 -36.3104 406.078C-93.2829 380.54 -114.193 297.034 -100.232 150.825L-101.959 151.084C-115.96 297.93 -94.8146 381.853 -37.3215 407.626C49.6518 446.632 203.897 345.813 353.053 248.331C486.775 160.924 613.082 78.384 674.876 108.811C712.818 127.501 723.348 187.37 707.086 291.867C688.356 412.18 697.177 477.099 734.025 490.371C786.853 509.364 888.562 418.82 986.948 331.257C1080.04 248.4 1167.97 170.134 1209.69 186.89C1240.34 199.195 1242.79 262.557 1217.15 380.606C1189.95 505.819 1193.82 574.622 1228.94 590.977C1275.78 612.802 1369.52 540.626 1468.78 464.218C1568.46 387.472 1671.52 308.147 1725.61 328.737C1758.59 341.291 1770.62 389.335 1762.39 475.62L1764.06 475.38C1767.12 443.561 1767.41 416.904 1764.9 395.269Z" fill="url(#paint12_linear_1209_25628)" fill-opacity="0.2"/>
<path d="M1782.38 412.6C1777.86 373.552 1764.57 350.135 1742.34 341.56C1686.22 319.937 1581.71 397.878 1480.65 473.219C1380.86 547.638 1286.59 617.911 1239.67 595.681C1204.82 579.159 1200.23 512.062 1225.7 390.585C1250.04 274.465 1246.47 211.726 1214.82 198.79C1171.26 181.008 1082.22 258.024 987.929 339.542C889.28 424.829 787.292 513.037 734.294 493.694C697.58 480.292 688.021 416.928 705.055 299.972C719.997 197.49 708.416 138.285 669.704 118.921C605.84 87.0095 477.5 168.004 341.589 253.759C190.944 348.819 35.1901 447.081 -52.934 407.085C-110.412 380.986 -132.612 298.954 -120.728 156.318L-122.429 156.586C-134.359 299.849 -111.948 382.28 -53.9479 408.613C34.9409 448.961 191.175 350.379 342.23 255.078C477.66 169.615 605.593 88.9084 668.665 120.414C706.855 139.496 718.216 198.282 703.39 300.105C686.227 417.788 696.05 481.605 733.39 495.222C787.321 514.907 889.778 426.303 988.874 340.631C1082.67 259.511 1171.27 182.908 1213.87 200.302C1244.9 212.962 1248.22 275.199 1224.03 390.58C1198.42 512.78 1203.2 580.344 1238.64 597.152C1286.41 619.804 1381.15 549.181 1481.44 474.404C1582.07 399.361 1686.13 321.777 1741.41 343.06C1774.79 355.919 1787.61 403.148 1780.59 487.458L1782.29 487.19C1784.72 457.989 1784.76 433.129 1782.38 412.6Z" fill="url(#paint13_linear_1209_25628)" fill-opacity="0.2"/>
<path d="M1800.39 429.872C1795.69 389.299 1781.84 364.902 1758.61 355.842C1701.28 333.496 1595.73 409.693 1493.65 483.381C1392.73 556.222 1297.41 625.002 1249.53 601.891C1214.35 584.933 1208.9 519.055 1232.79 400.505C1255.68 287.026 1251.25 225.406 1219.23 212.087C1174.81 193.656 1085.06 269.018 990.003 348.819C890.585 432.286 787.791 518.589 733.658 498.545C696.449 484.779 685.909 422.505 701.39 308.138C714.905 208.305 702.555 150.158 663.596 130.429C598.437 97.4064 468.394 176.578 330.708 260.395C178.063 353.306 20.2213 449.409 -69.9123 408.021C-127.923 381.39 -151.348 300.818 -141.52 161.687L-143.217 161.974C-153.07 301.692 -129.432 382.692 -70.9316 409.565C19.9529 451.291 178.237 354.958 331.313 261.766C468.538 178.239 598.144 99.3358 662.533 131.969C700.97 151.444 713.13 209.135 699.683 308.367C684.093 423.431 694.897 486.186 732.727 500.183C787.787 520.558 891.042 433.857 990.918 350.026C1085.47 270.63 1174.77 195.659 1218.28 213.708C1249.67 226.75 1253.88 287.886 1231.14 400.627C1207.1 519.868 1212.78 586.222 1248.52 603.466C1297.27 626.972 1393.05 557.865 1494.46 484.663C1596.1 411.292 1701.22 335.421 1757.69 357.447C1791.46 370.601 1805.03 417.061 1799.22 499.401L1800.92 499.105C1802.8 472.272 1802.63 449.231 1800.39 429.872Z" fill="url(#paint14_linear_1209_25628)" fill-opacity="0.2"/>
<path d="M1818.84 447.099C1813.95 404.951 1799.51 379.544 1775.25 369.966C1716.71 346.89 1610.06 421.344 1506.9 493.377C1404.81 564.668 1308.38 631.977 1259.46 607.987C1223.99 590.584 1217.64 525.895 1240.02 410.262C1261.48 299.393 1256.19 238.866 1223.82 225.193C1178.51 206.067 1087.96 279.83 992.105 357.93C891.868 439.59 788.213 524.043 732.908 503.267C695.221 489.142 683.695 427.893 697.641 316.084C709.768 218.839 696.619 161.787 657.444 141.657C590.937 107.487 459.12 184.859 319.567 266.763C164.821 357.583 4.81682 451.474 -87.365 408.673C-145.871 381.523 -170.501 302.352 -162.709 166.705L-164.404 167.011C-172.24 303.276 -147.38 382.825 -88.3761 410.22C4.5401 453.354 164.981 359.194 320.142 268.142C459.244 186.522 590.62 109.409 656.378 143.178C695.061 163.045 707.993 219.669 695.935 316.286C681.896 428.797 693.685 490.472 731.963 504.836C788.173 525.928 892.305 441.108 992.992 359.082C1088.35 281.387 1178.43 207.993 1222.83 226.737C1254.58 240.135 1259.65 300.204 1238.32 410.356C1215.81 526.682 1222.38 591.835 1258.4 609.507C1308.14 633.915 1405.04 566.275 1507.61 494.654C1610.33 422.938 1716.54 348.78 1774.29 371.519C1808.42 384.976 1822.78 430.655 1818.16 511.077L1819.86 510.771C1821.27 486.425 1820.94 465.208 1818.84 447.099Z" fill="url(#paint15_linear_1209_25628)" fill-opacity="0.2"/>
<path d="M1837.81 464.311C1832.73 420.542 1817.69 394.069 1792.36 383.984C1732.56 360.141 1624.74 432.935 1520.46 503.31C1417.13 573.059 1319.52 638.954 1269.57 614.038C1233.83 596.207 1226.58 532.71 1247.46 419.921C1267.5 311.604 1261.35 252.153 1228.66 238.104C1182.43 218.24 1091.07 290.437 994.329 366.862C893.212 446.758 788.639 529.371 732.108 507.863C693.948 493.363 681.438 433.157 693.869 323.849C704.631 229.172 690.714 173.178 651.339 152.681C583.469 117.358 449.799 192.941 308.284 272.946C151.349 361.693 -10.9307 453.436 -105.215 409.213C-164.192 381.551 -190.05 303.792 -184.237 171.521L-185.933 171.855C-191.77 304.714 -165.705 382.861 -106.231 410.741C-11.202 455.3 151.489 363.306 308.845 274.34C449.899 194.596 583.126 119.244 650.278 154.185C689.145 174.415 702.853 229.982 692.16 324.059C679.669 434.053 692.412 494.693 731.163 509.432C788.577 531.266 893.598 448.295 995.17 368.044C1091.41 292.005 1182.33 220.176 1227.64 239.649C1259.73 253.434 1265.66 312.421 1245.74 420.026C1224.75 533.496 1232.19 597.45 1268.48 615.542C1319.25 640.881 1417.32 574.681 1521.12 504.598C1624.97 434.496 1732.35 362.007 1791.37 385.529C1825.89 399.293 1841 444.167 1837.54 522.752L1839.24 522.418C1840.24 500.459 1839.75 481.116 1837.81 464.311Z" fill="url(#paint16_linear_1209_25628)" fill-opacity="0.2"/>
<path d="M1857.34 481.498C1852.07 436.025 1836.39 408.517 1809.95 397.849C1748.85 373.241 1639.79 444.367 1534.35 513.147C1429.7 581.383 1330.85 645.855 1279.84 619.978C1243.83 601.721 1235.75 539.371 1255.11 429.419C1273.73 323.635 1266.76 265.215 1233.72 250.799C1186.56 230.196 1094.3 300.833 996.65 375.632C894.59 453.79 789.038 534.606 731.283 512.331C692.644 497.445 679.168 438.26 690.088 331.436C699.497 239.267 684.842 184.324 645.286 163.483C576.013 126.986 440.404 200.797 296.841 278.94C137.626 365.611 -27.0169 455.224 -123.51 409.543C-182.957 381.389 -210.002 305.01 -206.149 176.083L-207.839 176.428C-211.718 305.951 -184.469 382.699 -124.526 411.071C-27.3323 457.082 137.722 367.246 297.363 280.339C440.451 202.444 575.626 128.867 644.195 164.995C683.284 185.582 697.72 240.105 688.376 331.682C677.402 439.203 691.12 498.797 730.341 513.919C788.985 536.532 894.981 455.366 997.471 376.873C1094.65 302.443 1186.43 232.163 1232.74 252.383C1265.18 266.54 1271.94 324.495 1253.44 429.568C1233.95 540.193 1242.24 602.988 1278.77 621.517C1330.59 647.803 1429.89 583.032 1535.01 514.474C1640.05 445.972 1748.67 375.134 1809.01 399.421C1843.89 413.497 1859.75 457.623 1857.46 534.337L1859.15 533.984C1859.71 514.399 1859.13 496.904 1857.34 481.498Z" fill="url(#paint17_linear_1209_25628)" fill-opacity="0.2"/>
<path d="M1877.32 498.665C1871.84 451.474 1855.51 422.865 1827.93 411.619C1765.51 386.214 1655.16 455.696 1548.46 522.886C1442.43 589.642 1342.3 652.696 1290.19 625.852C1253.93 607.165 1245 545.987 1262.9 438.799C1280.15 335.534 1272.33 278.129 1238.99 263.349C1190.86 241.99 1097.69 311.098 999.037 384.277C895.964 460.746 789.4 539.783 730.352 516.726C691.262 501.455 676.841 443.28 686.256 338.868C694.337 249.16 678.963 195.265 639.231 174.092C568.498 136.401 430.889 208.457 285.214 284.735C123.6 369.355 -43.4934 456.855 -142.213 409.693C-202.126 381.074 -230.33 306.057 -228.398 180.396L-230.088 180.768C-232.023 307.015 -203.612 382.393 -143.23 411.221C-43.8171 458.71 123.719 370.98 285.726 286.14C430.985 210.092 568.152 138.24 638.189 175.565C677.465 196.479 692.622 249.973 684.594 339.103C675.121 444.165 689.798 502.762 729.445 518.262C789.336 541.659 896.382 462.267 999.878 385.488C1098.06 312.677 1190.78 243.896 1238.05 264.874C1270.8 279.404 1278.39 336.342 1261.27 438.907C1243.26 546.745 1252.39 608.373 1289.19 627.331C1342.08 654.592 1442.67 591.249 1549.18 524.174C1655.46 457.243 1765.37 388.035 1827.05 413.119C1862.3 427.454 1878.89 470.841 1877.74 545.763L1879.43 545.39C1879.64 528.219 1878.95 512.615 1877.32 498.665Z" fill="url(#paint18_linear_1209_25628)" fill-opacity="0.2"/>
<path d="M1897.9 515.819C1892.21 466.864 1875.21 437.099 1846.42 425.258C1782.64 399.064 1670.94 466.932 1562.94 532.53C1455.46 597.834 1353.96 659.51 1300.73 631.653C1264.23 612.556 1254.49 552.495 1270.95 448.055C1286.83 347.254 1278.19 290.881 1244.57 275.697C1195.44 253.553 1101.27 321.179 1001.57 392.761C897.444 467.527 789.772 544.854 729.42 520.967C689.863 505.332 674.521 448.12 682.453 346.109C689.243 258.829 673.161 205.948 633.254 184.47C561.036 145.578 421.341 215.887 273.424 290.34C109.329 372.937 -60.3482 458.335 -161.369 409.705C-221.744 380.641 -251.063 306.973 -251.034 184.501L-252.745 184.903C-252.78 307.913 -223.231 381.96 -162.409 411.243C-60.7159 460.212 109.379 374.603 273.877 291.808C421.35 217.567 560.644 147.475 632.166 186.001C671.609 207.245 687.496 259.713 680.736 346.427C672.738 449.085 688.36 506.7 728.455 522.567C789.647 546.774 897.774 469.12 1002.33 394.043C1101.55 322.811 1195.28 255.507 1243.56 277.272C1276.63 292.186 1285.03 348.112 1269.26 448.235C1252.72 553.325 1262.66 613.845 1299.67 633.201C1353.67 661.442 1455.63 599.502 1563.56 533.918C1671.17 468.558 1782.43 400.949 1845.48 426.847C1881.11 441.47 1898.39 484.148 1898.39 557.257L1900.09 556.854C1900.07 541.915 1899.35 528.252 1897.9 515.819Z" fill="url(#paint19_linear_1209_25628)" fill-opacity="0.2"/>
<path d="M1919.01 532.999C1913.1 482.214 1895.42 451.273 1865.37 438.825C1800.16 411.817 1687.07 478.064 1577.68 542.127C1468.69 605.963 1365.73 666.272 1311.34 637.402C1274.62 617.909 1264.08 558.955 1279.1 457.213C1293.61 358.834 1284.19 303.462 1250.25 287.933C1200.11 264.981 1104.89 331.117 1004.08 401.154C898.842 474.254 789.994 549.858 728.298 525.173C688.296 509.163 672.004 452.923 678.499 353.255C684.018 268.344 667.236 216.48 627.19 194.7C553.456 154.588 411.565 223.179 261.35 295.806C94.6778 376.396 -77.6486 459.697 -181.06 409.56C-241.867 380.052 -272.326 307.724 -274.139 188.379L-275.847 188.8C-274.019 308.682 -243.353 381.371 -182.076 411.087C-78.0164 461.547 94.7358 378.037 261.801 297.255C411.593 224.828 553.064 156.43 626.146 196.182C665.739 217.722 682.315 269.179 676.82 353.539C670.312 453.835 686.829 510.479 727.373 526.712C789.885 551.729 899.161 475.826 1004.84 402.428C1105.16 332.73 1199.93 266.894 1249.26 289.477C1282.64 304.759 1291.84 359.683 1277.41 457.393C1262.28 559.776 1273.05 619.165 1310.26 638.936C1365.39 668.196 1468.8 607.637 1578.27 543.51C1687.23 479.677 1799.91 413.669 1864.38 440.389C1900.34 455.285 1918.36 497.235 1919.45 568.611L1921.15 568.189C1921 555.545 1920.26 543.822 1919.01 532.999Z" fill="url(#paint20_linear_1209_25628)" fill-opacity="0.2"/>
<path d="M1940.68 550.163C1934.56 497.493 1916.15 465.377 1884.79 452.283C1818.15 424.456 1703.57 489.108 1592.78 551.647C1482.18 614.067 1377.72 673.015 1322.17 643.113C1285.25 623.227 1273.91 565.392 1287.52 466.277C1300.72 370.29 1290.5 315.875 1256.26 299.995C1205.08 276.198 1108.74 340.896 1006.77 409.375C900.335 480.848 790.261 554.767 727.187 529.199C686.756 512.819 669.543 457.543 674.58 360.202C678.836 277.635 661.392 226.756 621.218 204.695C545.9 163.349 401.75 230.219 249.129 301.041C79.7938 379.603 -95.3194 460.864 -201.172 409.203C-262.434 379.318 -293.989 308.28 -297.633 192.001L-299.338 192.442C-295.661 309.208 -263.876 380.623 -202.192 410.711C-95.6985 462.665 79.8216 381.253 249.538 302.504C401.734 231.891 545.48 165.191 620.124 206.188C659.867 227.997 677.113 278.501 672.874 360.513C667.824 458.483 685.27 514.166 726.239 530.749C790.128 556.629 900.619 482.416 1007.48 410.652C1109 342.473 1204.86 278.094 1255.24 301.501C1288.91 317.142 1298.91 371.109 1285.83 466.437C1272.12 566.161 1283.66 624.428 1321.08 644.578C1377.38 674.901 1482.28 615.691 1593.34 553.021C1703.74 490.721 1817.9 426.289 1883.82 453.816C1920.15 468.981 1938.87 510.214 1941.07 579.885L1942.78 579.435C1942.46 569.067 1941.75 559.31 1940.68 550.163Z" fill="url(#paint21_linear_1209_25628)" fill-opacity="0.2"/>
<path d="M1962.94 567.378C1956.58 512.773 1937.44 479.391 1904.72 465.637C1836.59 436.968 1720.49 500.058 1608.19 561.076C1495.92 622.077 1389.89 679.695 1333.11 648.694C1295.98 628.427 1283.89 571.687 1296.12 475.179C1308 381.537 1297 328.123 1262.51 311.847C1210.24 287.216 1112.76 350.452 1009.55 417.425C901.872 487.299 790.508 559.531 725.997 533.117C685.118 516.37 667.006 462.018 670.611 366.948C673.665 286.655 655.56 236.787 615.233 214.465C538.313 171.88 391.822 237.057 236.71 306.055C64.5994 382.626 -113.378 461.794 -221.758 408.636C-283.443 378.374 -316.075 308.587 -321.546 195.339L-323.251 195.807C-317.765 309.564 -284.908 379.69 -222.801 410.155C-113.797 463.618 64.5722 384.276 237.07 307.529C391.753 238.721 537.849 173.716 614.142 215.95C654.018 238.023 671.939 287.529 668.916 367.282C665.287 462.958 683.657 517.697 725.049 534.667C790.333 561.407 902.125 488.876 1010.24 418.732C1113 352.059 1210.04 289.104 1261.51 313.351C1295.45 329.376 1306.24 382.364 1294.44 475.355C1282.15 572.464 1294.43 629.661 1332.06 650.165C1389.57 681.553 1496.02 623.713 1608.75 562.442C1720.65 501.649 1836.36 438.778 1903.8 467.132C1940.46 482.551 1959.88 523.117 1963.16 591.08L1964.87 590.614C1964.42 582.519 1963.8 574.736 1962.94 567.378Z" fill="url(#paint22_linear_1209_25628)" fill-opacity="0.2"/>
<path d="M1985.77 584.593C1979.18 527.995 1959.25 493.339 1925.14 478.89C1855.48 449.397 1737.78 510.927 1623.94 570.444C1509.95 630.039 1402.26 686.335 1344.26 654.253C1306.93 633.64 1294.08 577.958 1304.96 483.999C1315.54 392.669 1303.78 340.207 1269.02 323.594C1215.66 298.076 1116.93 359.911 1012.41 425.403C903.425 493.684 790.742 564.264 724.759 536.974C683.443 519.882 664.422 466.46 666.647 373.615C668.503 295.55 649.734 246.647 609.309 224.092C530.742 180.27 381.793 243.744 224.119 310.94C49.1333 385.516 -131.807 462.631 -242.785 407.972C-304.89 377.379 -338.617 308.865 -345.839 198.517L-347.538 199.023C-340.287 309.839 -306.353 378.687 -243.828 409.49C-132.251 464.466 49.0731 387.182 224.429 312.453C381.708 245.43 530.247 182.115 608.196 225.587C648.198 247.894 666.756 296.435 664.906 373.979C662.711 467.403 681.959 521.22 723.762 538.535C790.488 566.16 903.637 495.302 1013.05 426.747C1117.1 361.56 1215.36 299.986 1267.95 325.133C1302.18 341.496 1313.71 393.538 1303.23 484.237C1292.3 578.768 1305.34 634.86 1343.11 655.757C1401.85 688.224 1509.94 631.703 1624.39 571.893C1737.83 512.596 1855.13 451.263 1924.13 480.457C1961.13 496.125 1981.24 535.991 1985.58 602.34L1987.28 601.852C1986.92 595.866 1986.41 590.117 1985.77 584.593Z" fill="url(#paint23_linear_1209_25628)" fill-opacity="0.2"/>
<path d="M2009.16 601.871C2002.34 543.197 1981.63 507.232 1946 492.094C1874.77 461.774 1755.4 521.771 1639.96 579.77C1524.14 637.967 1414.77 692.933 1355.45 659.753C1317.97 638.786 1304.4 584.163 1313.94 492.731C1323.21 403.697 1310.72 352.166 1275.72 335.201C1221.22 308.789 1121.23 369.248 1015.34 433.227C904.99 499.933 790.853 568.91 723.377 540.691C681.638 523.241 661.743 470.724 662.561 380.075C663.241 304.201 643.855 256.259 603.311 233.509C523.046 188.462 371.598 250.219 211.251 315.642C33.2951 388.236 -150.709 463.285 -264.352 407.101C-326.897 376.181 -361.656 308.905 -370.627 201.43L-372.324 201.956C-363.297 309.908 -328.336 377.506 -265.396 408.62C-151.156 465.1 33.2237 389.881 211.54 317.139C371.497 251.9 522.557 190.263 602.197 234.977C642.319 257.507 661.494 305.086 660.82 380.44C660.001 471.648 680.132 524.59 722.385 542.236C790.614 570.757 905.158 501.519 1015.94 434.559C1121.37 370.842 1220.93 310.663 1274.68 336.702C1309.17 353.402 1321.45 404.523 1312.22 492.938C1302.64 584.932 1316.41 639.978 1354.35 661.199C1414.35 694.775 1524.17 639.581 1640.43 581.17C1755.47 523.36 1874.46 463.56 1945.03 493.608C1982.38 509.503 2003.14 548.674 2008.56 613.434L2010.27 612.91C2009.97 609.166 2009.59 605.466 2009.16 601.871Z" fill="url(#paint24_linear_1209_25628)" fill-opacity="0.2"/>
<path d="M2033.23 619.176C2026.14 558.383 2004.6 521.081 1967.45 505.179C1894.59 474.022 1773.49 532.472 1656.4 588.987C1538.71 645.8 1427.53 699.442 1366.91 665.148C1329.28 643.865 1314.97 590.264 1323.2 501.321C1331.23 414.518 1317.99 363.914 1282.74 346.621C1227.08 319.302 1125.73 378.372 1018.4 440.918C906.597 506.059 791 573.421 721.958 544.304C679.814 526.52 659.057 474.875 658.476 386.399C657.999 312.657 638.02 265.657 597.362 242.723C515.331 196.437 361.269 256.523 198.167 320.144C17.1541 390.738 -170.018 463.741 -286.398 406.056C-349.377 374.847 -385.171 308.753 -395.836 204.124L-397.529 204.669C-386.806 309.822 -350.793 376.161 -287.442 407.574C-170.467 465.537 17.0664 392.405 198.434 321.652C361.156 258.181 514.833 198.236 596.238 244.197C636.478 266.921 656.282 313.561 656.748 386.804C657.318 475.846 678.331 527.886 720.969 545.868C790.728 575.312 906.759 507.689 1018.96 442.303C1125.82 380.027 1226.74 321.207 1281.67 348.168C1316.42 365.217 1329.44 415.398 1321.48 501.6C1313.2 591.113 1327.69 645.104 1365.78 666.655C1427.07 701.345 1538.67 647.475 1656.8 590.447C1773.53 534.105 1894.24 475.842 1966.44 506.735C2004.13 522.86 2025.55 561.349 2032.02 624.545L2033.72 624.002C2033.6 622.377 2033.41 620.776 2033.23 619.176Z" fill="url(#paint25_linear_1209_25628)" fill-opacity="0.2"/>
<path d="M2057.71 635.015C2050.2 572.927 2027.85 534.7 1989.38 518.203C1914.86 486.225 1792 543.133 1673.18 598.187C1553.52 653.613 1440.48 705.976 1378.52 670.535C1340.73 648.936 1325.75 596.388 1332.67 509.864C1339.46 425.277 1325.49 375.602 1290.02 357.976C1233.15 329.722 1130.39 387.425 1021.59 448.524C908.299 512.134 791.151 577.906 720.499 547.858C677.947 529.757 656.303 478.968 654.398 392.577C652.808 320.918 632.233 274.868 591.45 251.756C507.634 204.235 350.872 262.657 184.919 324.492C0.747645 393.116 -189.69 464.068 -308.893 404.89C-372.301 373.412 -409.127 308.557 -421.467 206.596L-423.158 207.16C-410.767 309.56 -373.74 374.737 -309.937 406.381C-190.163 465.847 0.632267 394.755 185.166 326.002C350.738 264.326 507.1 206.058 590.334 253.233C630.689 276.113 651.086 321.838 652.662 393.007C654.587 479.927 676.452 531.073 719.507 549.403C790.85 579.75 908.406 513.736 1022.12 449.901C1130.49 389.06 1232.83 331.599 1288.95 359.477C1323.93 376.858 1337.68 426.126 1330.94 510.143C1323.95 597.229 1339.16 650.172 1377.38 672.023C1440.02 707.832 1553.45 655.277 1673.56 599.639C1792.02 544.764 1914.5 488.025 1988.39 519.747C2026.44 536.06 2048.55 573.979 2056 635.591L2057.71 635.015Z" fill="url(#paint26_linear_1209_25628)" fill-opacity="0.2"/>
<path d="M2082.18 646.01C2073.65 585.42 2050.64 547.85 2011.85 531.145C1935.61 498.333 1810.91 553.72 1690.28 607.289C1568.56 661.355 1453.61 712.414 1390.23 675.829C1352.31 653.949 1336.63 602.41 1342.3 518.273C1347.87 435.843 1333.21 387.047 1297.51 369.131C1239.44 339.949 1135.19 396.291 1024.81 455.949C909.956 518.038 791.169 582.238 718.915 551.262C675.945 532.841 653.469 482.915 650.213 398.603C647.549 328.993 626.376 283.847 585.518 260.6C499.847 211.857 340.325 268.577 171.426 328.632C33.3979 377.711 -109.329 428.45 -224.092 426.715C-354.091 424.773 -427.194 353.486 -447.557 208.809L-449.245 209.42C-438.422 286.249 -412.273 343.371 -371.54 379.188C-334.96 411.345 -286.867 427.439 -224.533 428.376C-109.442 430.108 33.4667 379.292 171.652 330.154C340.152 270.253 499.333 213.65 584.421 262.074C624.878 285.089 645.846 329.883 648.53 399.041C651.799 483.871 674.511 534.167 717.975 552.788C790.939 584.06 910.116 519.649 1025.37 457.343C1135.28 397.926 1239.11 341.804 1296.5 370.64C1331.72 388.327 1346.14 436.725 1340.63 518.576C1334.9 603.273 1350.79 655.191 1389.13 677.322C1453.15 714.27 1568.52 663.027 1690.66 608.78C1810.91 555.361 1935.26 500.133 2010.88 532.678C2049.28 549.198 2072.03 586.458 2080.51 646.589L2082.18 646.01Z" fill="url(#paint27_linear_1209_25628)" fill-opacity="0.2"/>
<path d="M2107.22 656.943C2097.68 597.839 2074.02 560.898 2034.88 544.023C1956.88 510.395 1830.26 564.268 1707.79 616.382C1583.97 669.079 1467.01 718.845 1402.18 681.102C1364.14 658.962 1347.79 608.429 1352.22 526.628C1356.59 446.325 1341.24 398.439 1305.32 380.201C1245.96 350.068 1140.16 405.079 1028.16 463.308C911.676 523.872 791.218 586.516 717.253 554.604C673.844 535.873 650.532 486.792 645.96 404.514C642.215 336.887 620.468 292.653 579.516 269.302C491.976 219.351 329.585 274.37 157.683 332.625C17.9516 379.992 -126.534 428.945 -243.398 426.512C-375.742 423.756 -451.247 353.213 -474.199 210.84L-475.884 211.47C-452.829 354.519 -376.91 425.399 -243.836 428.165C-126.667 430.606 17.9735 381.576 157.867 334.189C329.409 276.054 491.432 221.153 578.452 270.759C619.02 293.911 640.559 337.801 644.304 404.98C648.882 487.773 672.454 537.205 716.306 556.127C790.954 588.327 911.819 525.504 1028.68 464.735C1140.24 406.737 1245.61 351.934 1304.29 381.708C1339.75 399.711 1354.86 447.207 1350.55 526.931C1346.08 609.281 1362.62 660.187 1401.09 682.595C1466.54 720.69 1583.89 670.748 1708.14 617.887C1830.24 565.937 1956.5 512.206 2033.91 545.576C2072.66 562.285 2096.07 598.916 2105.53 657.59L2107.22 656.943Z" fill="url(#paint28_linear_1209_25628)" fill-opacity="0.2"/>
<path d="M2132.75 667.838C2122.24 610.164 2097.94 573.84 2058.46 556.827C1978.66 522.378 1850.04 574.761 1725.67 625.419C1599.65 676.753 1480.61 725.236 1414.32 686.344C1376.16 663.962 1359.17 614.421 1362.4 534.901C1365.57 456.7 1349.55 409.669 1313.43 391.154C1252.77 360.052 1145.37 413.722 1031.66 470.566C913.477 529.64 791.259 590.718 715.544 557.857C671.734 538.839 647.597 490.569 641.743 410.3C636.926 344.603 614.652 301.251 573.6 277.812C484.077 226.698 318.749 280.022 143.706 336.506C2.20376 382.146 -144.1 429.358 -263.061 426.202C-397.819 422.637 -475.747 352.794 -501.295 212.705L-502.977 213.354C-477.305 354.116 -398.987 424.279 -263.523 427.865C-144.256 431.03 2.20652 383.761 143.863 338.07C318.543 281.715 483.533 228.472 572.509 279.297C613.212 302.539 635.303 345.556 640.071 410.815C645.983 491.58 670.341 540.207 714.607 559.401C790.977 592.559 913.565 531.273 1032.15 472.012C1145.42 415.407 1252.42 361.938 1312.42 392.682C1348.09 410.976 1363.9 457.59 1360.75 535.259C1357.51 615.316 1374.69 665.211 1413.27 687.861C1480.19 727.105 1599.61 678.455 1726.06 626.968C1850.09 576.446 1978.33 524.214 2057.57 558.423C2096.66 575.289 2120.73 611.312 2131.17 668.538L2132.75 667.838Z" fill="url(#paint29_linear_1209_25628)" fill-opacity="0.2"/>
<path d="M2158.85 678.724C2119.92 487.96 1928.79 562.405 1743.92 634.368C1615.61 684.339 1494.42 731.53 1426.63 691.484C1388.34 668.879 1370.71 620.303 1372.75 543.023C1374.76 466.877 1358.09 420.722 1321.75 401.936C1259.73 369.866 1150.67 422.214 1035.21 477.633C915.257 535.209 791.222 594.757 713.711 560.941C669.489 541.642 644.536 494.213 637.384 415.865C632.425 361.596 615.273 323.056 584.947 298.045C557.724 275.617 520.32 264.6 470.583 264.345C377.923 263.875 257.203 300.909 129.367 340.112C-13.943 384.079 -162.119 429.54 -283.271 425.667C-420.491 421.285 -500.895 352.144 -529.025 214.233L-530.7 214.922C-502.429 353.456 -421.635 422.945 -283.732 427.33C-162.299 431.195 -13.9622 385.704 129.48 341.697C257.151 302.524 377.747 265.532 470.142 265.997C573.751 266.534 626.344 314.246 635.66 416.4C642.842 495.188 668.05 543.012 712.7 562.488C790.843 596.585 915.285 536.859 1035.61 479.093C1150.66 423.878 1259.31 371.711 1320.66 403.448C1356.55 421.997 1373.01 467.789 1371.01 543.395C1368.96 621.196 1386.78 670.116 1425.46 692.972C1493.89 733.373 1615.46 686.031 1744.17 635.907C1928.2 564.239 2118.51 490.138 2157.14 679.402L2158.85 678.724Z" fill="url(#paint30_linear_1209_25628)" fill-opacity="0.2"/>
</g>
<defs>
<linearGradient id="paint0_linear_1209_25628" x1="206.805" y1="-315.185" x2="1711.29" y2="331.193" gradientUnits="userSpaceOnUse">
<stop stop-color="#BE8143"/>
<stop offset="0.556227" stop-color="#8F664E"/>
<stop offset="1" stop-color="#BB7F44"/>
</linearGradient>
<linearGradient id="paint1_linear_1209_25628" x1="188.526" y1="-304.822" x2="1720.27" y2="358.621" gradientUnits="userSpaceOnUse">
<stop stop-color="#BE8143"/>
<stop offset="0.556227" stop-color="#8F664E"/>
<stop offset="1" stop-color="#BB7F44"/>
</linearGradient>
<linearGradient id="paint2_linear_1209_25628" x1="170.053" y1="-294.836" x2="1729.5" y2="386.214" gradientUnits="userSpaceOnUse">
<stop stop-color="#BE8143"/>
<stop offset="0.556227" stop-color="#8F664E"/>
<stop offset="1" stop-color="#BB7F44"/>
</linearGradient>
<linearGradient id="paint3_linear_1209_25628" x1="152.035" y1="-287.468" x2="1739.92" y2="411.225" gradientUnits="userSpaceOnUse">
<stop stop-color="#BE8143"/>
<stop offset="0.556227" stop-color="#8F664E"/>
<stop offset="1" stop-color="#BB7F44"/>
</linearGradient>
<linearGradient id="paint4_linear_1209_25628" x1="133.768" y1="-280.523" x2="1750.54" y2="436.31" gradientUnits="userSpaceOnUse">
<stop stop-color="#BE8143"/>
<stop offset="0.556227" stop-color="#8F664E"/>
<stop offset="1" stop-color="#BB7F44"/>
</linearGradient>
<linearGradient id="paint5_linear_1209_25628" x1="115.207" y1="-273.958" x2="1761.32" y2="461.505" gradientUnits="userSpaceOnUse">
<stop stop-color="#BE8143"/>
<stop offset="0.556227" stop-color="#8F664E"/>
<stop offset="1" stop-color="#BB7F44"/>
</linearGradient>
<linearGradient id="paint6_linear_1209_25628" x1="96.6989" y1="-268.312" x2="1773.79" y2="486.784" gradientUnits="userSpaceOnUse">
<stop stop-color="#BE8143"/>
<stop offset="0.556227" stop-color="#8F664E"/>
<stop offset="1" stop-color="#BB7F44"/>
</linearGradient>
<linearGradient id="paint7_linear_1209_25628" x1="78.0291" y1="-263.444" x2="1787.27" y2="512.011" gradientUnits="userSpaceOnUse">
<stop stop-color="#BE8143"/>
<stop offset="0.556227" stop-color="#8F664E"/>
<stop offset="1" stop-color="#BB7F44"/>
</linearGradient>
<linearGradient id="paint8_linear_1209_25628" x1="59.1284" y1="-258.946" x2="1801.05" y2="537.434" gradientUnits="userSpaceOnUse">
<stop stop-color="#BE8143"/>
<stop offset="0.556227" stop-color="#8F664E"/>
<stop offset="1" stop-color="#BB7F44"/>
</linearGradient>
<linearGradient id="paint9_linear_1209_25628" x1="39.8552" y1="-254.855" x2="1814.85" y2="562.954" gradientUnits="userSpaceOnUse">
<stop stop-color="#BE8143"/>
<stop offset="0.556227" stop-color="#8F664E"/>
<stop offset="1" stop-color="#BB7F44"/>
</linearGradient>
<linearGradient id="paint10_linear_1209_25628" x1="20.2983" y1="-251.171" x2="1828.97" y2="588.679" gradientUnits="userSpaceOnUse">
<stop stop-color="#BE8143"/>
<stop offset="0.556227" stop-color="#8F664E"/>
<stop offset="1" stop-color="#BB7F44"/>
</linearGradient>
<linearGradient id="paint11_linear_1209_25628" x1="0.513481" y1="-247.874" x2="1843.45" y2="614.582" gradientUnits="userSpaceOnUse">
<stop stop-color="#BE8143"/>
<stop offset="0.556227" stop-color="#8F664E"/>
<stop offset="1" stop-color="#BB7F44"/>
</linearGradient>
<linearGradient id="paint12_linear_1209_25628" x1="-19.5978" y1="-244.944" x2="1857.99" y2="640.664" gradientUnits="userSpaceOnUse">
<stop stop-color="#BE8143"/>
<stop offset="0.556227" stop-color="#8F664E"/>
<stop offset="1" stop-color="#BB7F44"/>
</linearGradient>
<linearGradient id="paint13_linear_1209_25628" x1="-40.0642" y1="-242.443" x2="1872.83" y2="666.967" gradientUnits="userSpaceOnUse">
<stop stop-color="#BE8143"/>
<stop offset="0.556227" stop-color="#8F664E"/>
<stop offset="1" stop-color="#BB7F44"/>
</linearGradient>
<linearGradient id="paint14_linear_1209_25628" x1="-60.7901" y1="-240.294" x2="1887.98" y2="693.483" gradientUnits="userSpaceOnUse">
<stop stop-color="#BE8143"/>
<stop offset="0.556227" stop-color="#8F664E"/>
<stop offset="1" stop-color="#BB7F44"/>
</linearGradient>
<linearGradient id="paint15_linear_1209_25628" x1="-81.9108" y1="-238.56" x2="1903.21" y2="720.191" gradientUnits="userSpaceOnUse">
<stop stop-color="#BE8143"/>
<stop offset="0.556227" stop-color="#8F664E"/>
<stop offset="1" stop-color="#BB7F44"/>
</linearGradient>
<linearGradient id="paint16_linear_1209_25628" x1="-103.339" y1="-237.187" x2="1918.71" y2="747.165" gradientUnits="userSpaceOnUse">
<stop stop-color="#BE8143"/>
<stop offset="0.556227" stop-color="#8F664E"/>
<stop offset="1" stop-color="#BB7F44"/>
</linearGradient>
<linearGradient id="paint17_linear_1209_25628" x1="-125.116" y1="-236.241" x2="1934.57" y2="774.413" gradientUnits="userSpaceOnUse">
<stop stop-color="#BE8143"/>
<stop offset="0.556227" stop-color="#8F664E"/>
<stop offset="1" stop-color="#BB7F44"/>
</linearGradient>
<linearGradient id="paint18_linear_1209_25628" x1="-147.222" y1="-235.627" x2="1950.55" y2="801.917" gradientUnits="userSpaceOnUse">
<stop stop-color="#BE8143"/>
<stop offset="0.556227" stop-color="#8F664E"/>
<stop offset="1" stop-color="#BB7F44"/>
</linearGradient>
<linearGradient id="paint19_linear_1209_25628" x1="-169.687" y1="-235.432" x2="1966.81" y2="829.626" gradientUnits="userSpaceOnUse">
<stop stop-color="#BE8143"/>
<stop offset="0.556227" stop-color="#8F664E"/>
<stop offset="1" stop-color="#BB7F44"/>
</linearGradient>
<linearGradient id="paint20_linear_1209_25628" x1="-192.576" y1="-235.6" x2="1983.23" y2="857.639" gradientUnits="userSpaceOnUse">
<stop stop-color="#BE8143"/>
<stop offset="0.556227" stop-color="#8F664E"/>
<stop offset="1" stop-color="#BB7F44"/>
</linearGradient>
<linearGradient id="paint21_linear_1209_25628" x1="-215.836" y1="-236.156" x2="1999.97" y2="886.018" gradientUnits="userSpaceOnUse">
<stop stop-color="#BE8143"/>
<stop offset="0.556227" stop-color="#8F664E"/>
<stop offset="1" stop-color="#BB7F44"/>
</linearGradient>
<linearGradient id="paint22_linear_1209_25628" x1="-239.499" y1="-237.113" x2="2016.96" y2="914.691" gradientUnits="userSpaceOnUse">
<stop stop-color="#BE8143"/>
<stop offset="0.556227" stop-color="#8F664E"/>
<stop offset="1" stop-color="#BB7F44"/>
</linearGradient>
<linearGradient id="paint23_linear_1209_25628" x1="-263.483" y1="-238.439" x2="2034.14" y2="943.549" gradientUnits="userSpaceOnUse">
<stop stop-color="#BE8143"/>
<stop offset="0.556227" stop-color="#8F664E"/>
<stop offset="1" stop-color="#BB7F44"/>
</linearGradient>
<linearGradient id="paint24_linear_1209_25628" x1="-287.968" y1="-240.124" x2="2051.56" y2="972.878" gradientUnits="userSpaceOnUse">
<stop stop-color="#BE8143"/>
<stop offset="0.556227" stop-color="#8F664E"/>
<stop offset="1" stop-color="#BB7F44"/>
</linearGradient>
<linearGradient id="paint25_linear_1209_25628" x1="-312.825" y1="-242.243" x2="2069.29" y2="1002.45" gradientUnits="userSpaceOnUse">
<stop stop-color="#BE8143"/>
<stop offset="0.556227" stop-color="#8F664E"/>
<stop offset="1" stop-color="#BB7F44"/>
</linearGradient>
<linearGradient id="paint26_linear_1209_25628" x1="-338.087" y1="-244.714" x2="2087.29" y2="1032.41" gradientUnits="userSpaceOnUse">
<stop stop-color="#BE8143"/>
<stop offset="0.556227" stop-color="#8F664E"/>
<stop offset="1" stop-color="#BB7F44"/>
</linearGradient>
<linearGradient id="paint27_linear_1209_25628" x1="-363.778" y1="-247.582" x2="2105.58" y2="1062.66" gradientUnits="userSpaceOnUse">
<stop stop-color="#BE8143"/>
<stop offset="0.556227" stop-color="#8F664E"/>
<stop offset="1" stop-color="#BB7F44"/>
</linearGradient>
<linearGradient id="paint28_linear_1209_25628" x1="-389.981" y1="-250.864" x2="2124.05" y2="1093.45" gradientUnits="userSpaceOnUse">
<stop stop-color="#BE8143"/>
<stop offset="0.556227" stop-color="#8F664E"/>
<stop offset="1" stop-color="#BB7F44"/>
</linearGradient>
<linearGradient id="paint29_linear_1209_25628" x1="-416.59" y1="-254.534" x2="2142.94" y2="1124.39" gradientUnits="userSpaceOnUse">
<stop stop-color="#BE8143"/>
<stop offset="0.556227" stop-color="#8F664E"/>
<stop offset="1" stop-color="#BB7F44"/>
</linearGradient>
<linearGradient id="paint30_linear_1209_25628" x1="-443.773" y1="-258.787" x2="2162.22" y2="1155.56" gradientUnits="userSpaceOnUse">
<stop stop-color="#BE8143"/>
<stop offset="0.556227" stop-color="#8F664E"/>
<stop offset="1" stop-color="#BB7F44"/>
</linearGradient>
</defs>
</svg>
