<svg width="1920" height="950" viewBox="0 0 1920 950" fill="none" xmlns="http://www.w3.org/2000/svg">
<path d="M1641.81 325.769C1639.17 303.063 1631.66 289.882 1619.32 285.965C1575.96 272.209 1479.48 375.704 1386.17 475.789C1298.9 569.371 1208.7 666.149 1172.47 652.813C1142.39 641.742 1150.78 556.898 1198.09 393.444C1242.65 239.468 1251.3 160.423 1224.59 151.819C1190.55 140.851 1106.01 242.271 1016.5 349.661C922.641 462.262 825.58 578.68 784.972 566.586C754.676 557.568 758.693 478.223 797.282 323.98C832.35 183.787 832.537 108.971 797.898 95.2488C748.112 75.5017 634.166 183.089 513.557 296.97C380.114 422.971 242.13 553.239 175.105 528.431C125.128 509.94 120.694 407.013 161.547 213.772L159.887 213.833C118.847 407.865 123.529 511.296 174.163 530.047C242.196 555.222 380.637 424.48 514.548 298.056C634.675 184.639 748.156 77.4955 796.936 96.8401C830.916 110.309 830.487 184.634 795.622 324.013C756.824 479.114 753.083 558.989 784.13 568.235C825.901 580.664 923.42 463.69 1017.72 350.547C1106.76 243.727 1190.86 142.849 1223.75 153.46C1249.72 161.82 1240.78 240.331 1196.48 393.428C1148.94 557.734 1140.79 643.105 1171.57 654.426C1208.88 668.161 1295.55 575.183 1387.31 476.769C1480.16 377.165 1576.19 274.163 1618.47 287.587C1646.56 296.511 1648.67 355.411 1624.92 467.702L1626.58 467.649C1640.22 403.069 1645.31 355.979 1641.81 325.769Z" fill="url(#paint0_linear_603_1626)" fill-opacity="0.2"/>
<path d="M1652.06 344.652C1649.31 320.903 1641.46 307.095 1628.53 302.923C1584.37 288.669 1487.64 389.97 1394.08 487.933C1306.57 579.599 1216.08 674.352 1179.17 660.479C1148.71 649.025 1156.04 565.699 1201.52 405.702C1244.42 254.877 1252.11 177.22 1225.01 168.307C1190.37 156.921 1105.79 256.231 1016.26 361.387C922.379 471.625 825.299 585.636 783.88 573.084C753.106 563.762 756.055 485.772 792.879 334.653C826.274 197.579 825.498 124.051 790.491 109.887C739.795 89.3655 625.242 194.692 503.962 306.173C369.779 429.538 231.035 557.092 162.671 531.304C112.087 512.203 106.2 411.054 144.687 222.015L143.035 222.078C104.392 411.873 110.535 513.528 161.77 532.851C231.091 559.017 370.329 431.02 504.97 307.236C625.765 196.201 739.835 91.3126 789.543 111.437C823.891 125.321 824.438 198.343 791.234 334.637C754.203 486.613 751.534 565.117 783.062 574.658C825.598 587.548 923.14 472.992 1017.45 362.218C1106.52 257.632 1190.64 158.842 1224.16 169.851C1250.48 178.501 1242.56 255.608 1199.91 405.57C1154.18 566.408 1147.1 650.275 1178.27 661.99C1216.26 676.279 1303.17 585.23 1395.22 488.847C1488.31 391.363 1584.57 290.549 1627.68 304.459C1656.16 313.654 1659.13 371.577 1636.75 481.566L1638.4 481.503C1650.95 419.909 1655.51 374.46 1652.06 344.652Z" fill="url(#paint1_linear_603_1626)" fill-opacity="0.2"/>
<path d="M1662.72 363.414C1659.85 338.591 1651.66 324.121 1638.1 319.677C1593.12 304.904 1496.08 404.056 1402.26 499.952C1314.43 589.708 1223.64 682.518 1186.01 668.065C1155.16 656.216 1161.43 574.347 1205.15 417.78C1246.41 270.048 1253.12 193.766 1225.63 184.549C1190.36 172.711 1105.72 269.984 1016.1 372.948C922.174 480.869 825.013 592.498 782.806 579.468C751.551 569.852 753.422 493.195 788.516 345.12C820.285 211.106 818.53 138.861 783.165 124.25C731.559 102.926 616.303 206.006 494.311 315.155C359.313 435.916 219.732 560.794 150.019 533.978C98.8344 514.304 91.5294 414.854 127.644 229.949L125.976 230.035C89.6993 415.684 97.2549 515.629 149.082 535.55C219.744 562.714 359.817 437.428 495.283 316.243C616.782 207.537 731.574 104.865 782.228 125.794C816.942 140.127 818.461 211.892 786.882 345.126C751.581 494.031 749.983 571.198 781.98 581.039C825.323 594.378 922.913 482.248 1017.3 373.798C1106.42 271.393 1190.61 174.643 1224.79 186.087C1251.49 195.046 1244.56 270.788 1203.55 417.668C1159.59 575.045 1153.56 657.444 1185.1 669.573C1223.77 684.44 1311.01 595.268 1403.37 500.874C1496.76 405.452 1593.3 306.762 1637.27 321.213C1666.17 330.706 1669.96 387.655 1648.93 495.335L1650.61 495.244C1662.03 436.545 1666.12 392.745 1662.72 363.414Z" fill="url(#paint2_linear_603_1626)" fill-opacity="0.2"/>
<path d="M1673.77 382.038C1670.78 356.101 1662.21 340.95 1648.02 336.2C1602.16 320.865 1504.82 417.933 1410.65 511.782C1318.41 603.714 1231.3 690.553 1192.96 675.509C1161.74 663.265 1166.97 582.842 1208.92 429.637C1248.55 284.973 1254.28 210.009 1226.42 200.48C1190.5 188.208 1105.75 283.446 1016.02 384.267C921.977 489.942 824.7 599.214 781.65 585.706C749.931 575.773 750.721 500.43 784.111 355.371C814.241 224.404 811.545 153.408 775.836 138.337C723.286 116.172 607.287 217.074 484.506 323.902C348.614 442.107 208.096 564.36 136.992 536.502C85.2182 516.222 76.4922 418.451 110.287 237.635L108.613 237.737C74.6763 419.322 83.6414 517.566 136.056 538.073C208.111 566.299 349.093 443.639 485.448 325.027C607.752 218.647 723.283 118.141 774.899 139.909C809.962 154.686 812.441 225.198 782.481 355.396C748.905 501.274 748.376 577.133 780.835 587.3C824.999 601.154 922.7 491.343 1017.23 385.156C1106.47 284.874 1190.77 190.148 1225.6 202.054C1252.72 211.303 1246.75 285.729 1207.33 429.565C1165.14 583.571 1160.15 664.513 1192.06 677.048C1231.43 692.494 1319.02 605.196 1411.74 512.754C1505.45 419.359 1602.36 322.772 1647.2 337.752C1676.5 347.547 1681.16 403.558 1661.45 508.978L1663.12 508.873C1673.52 452.983 1677.1 410.861 1673.77 382.038Z" fill="url(#paint3_linear_603_1626)" fill-opacity="0.2"/>
<path d="M1685.24 400.504C1682.12 373.419 1673.15 357.548 1658.31 352.502C1611.59 336.609 1513.83 431.608 1419.27 523.451C1326.61 613.475 1239.07 698.525 1200.01 682.86C1168.41 670.191 1172.61 591.178 1212.82 441.325C1250.85 299.647 1255.61 225.999 1227.4 216.16C1190.82 203.418 1105.91 296.679 1016.02 395.383C921.795 498.864 824.384 605.829 780.47 591.827C748.267 581.552 748.014 507.489 779.685 365.414C808.225 237.426 804.568 167.684 768.537 152.168C715.019 129.126 598.221 227.879 474.544 332.434C337.681 448.149 196.133 567.809 123.608 538.862C71.2691 517.958 61.1279 421.876 92.6382 245.041L90.9725 245.146C59.3392 422.693 69.7141 519.263 122.691 540.404C196.146 569.729 338.154 449.669 475.492 333.569C598.653 229.441 715.013 131.077 767.598 153.72C803.007 168.95 806.422 238.202 778.063 365.442C746.196 508.341 746.721 582.915 779.655 593.42C824.634 607.78 922.521 500.284 1017.2 396.311C1106.61 298.127 1191.08 205.361 1226.56 217.737C1254.04 227.326 1249.04 300.422 1211.23 441.281C1170.78 591.945 1166.81 671.488 1199.09 684.421C1239.18 700.486 1327.18 614.992 1420.35 524.492C1514.44 433.084 1611.74 338.547 1657.47 354.104C1687.16 364.207 1692.65 419.272 1674.26 522.469L1675.93 522.355C1685.35 469.249 1688.49 428.779 1685.24 400.504Z" fill="url(#paint4_linear_603_1626)" fill-opacity="0.2"/>
<path d="M1697.09 418.877C1693.85 390.613 1684.47 373.996 1668.93 368.628C1621.32 352.17 1523.1 445.122 1428.12 535.012C1334.97 623.162 1247 706.439 1207.15 690.141C1175.18 677.055 1178.37 599.444 1216.87 452.864C1253.33 314.143 1257.13 241.776 1228.54 231.628C1191.3 218.385 1106.16 309.683 1016.04 406.362C921.629 507.654 823.987 612.389 779.189 597.841C746.502 587.224 745.214 514.417 775.2 375.273C802.144 250.227 797.571 181.686 761.238 165.723C706.723 141.778 589.03 238.423 464.436 340.744C326.505 454.01 183.867 571.123 109.852 541.046C56.9342 519.558 45.438 425.067 74.6635 252.212L72.9979 252.345C43.6438 425.9 55.4039 520.844 108.915 542.618C183.839 573.057 326.937 455.544 465.315 341.921C589.49 239.957 706.717 143.701 760.29 167.246C796.005 182.942 800.361 250.999 773.57 375.298C743.398 515.261 744.977 588.576 778.362 599.412C824.209 614.285 922.3 509.047 1017.2 407.27C1106.84 311.126 1191.5 220.309 1227.66 233.175C1255.53 243.084 1251.48 314.94 1215.26 452.803C1176.56 600.172 1173.58 678.308 1206.22 691.685C1247.04 708.394 1335.5 624.691 1429.13 536.056C1523.67 446.59 1621.42 354.064 1668.04 370.206C1698.13 380.616 1704.44 434.775 1687.37 535.781L1689.03 535.657C1697.58 485.356 1700.26 446.541 1697.09 418.877Z" fill="url(#paint5_linear_603_1626)" fill-opacity="0.2"/>
<path d="M1710.69 436.925C1707.3 407.439 1697.52 390.066 1681.23 384.372C1632.67 367.317 1533.89 458.27 1438.35 546.227C1344.61 632.543 1256.06 714.063 1215.44 697.116C1183.1 683.617 1185.26 607.385 1222.08 464.091C1256.95 328.345 1259.8 257.241 1230.82 246.748C1192.87 233.013 1107.44 322.401 1016.99 417.066C922.252 516.216 824.279 618.744 778.558 603.683C745.385 592.733 743.032 521.19 771.345 384.944C796.734 262.853 791.25 195.526 754.559 179.116C699.01 154.273 580.273 248.843 454.577 348.961C315.424 459.746 171.512 574.371 95.9377 543.15C42.4302 521.057 29.5351 428.206 56.5061 259.324L54.846 259.467C27.7685 429.067 40.9001 522.37 95.0011 544.722C171.475 576.302 315.862 461.292 455.498 350.096C580.711 250.361 698.99 156.154 753.636 180.619C789.712 196.754 794.978 263.597 769.742 384.968C741.241 522.014 743.866 594.068 777.731 605.255C824.484 620.663 922.929 517.648 1018.13 418.024C1108.08 323.894 1193.05 234.967 1229.95 248.342C1258.23 258.568 1255.11 329.153 1220.46 464.066C1183.44 608.171 1181.49 684.914 1214.5 698.688C1256.1 716.056 1345.12 634.102 1439.36 547.309C1534.45 459.766 1632.77 369.228 1680.37 385.96C1710.87 396.676 1718.04 449.925 1702.25 548.729L1703.91 548.597C1711.51 501 1713.79 463.894 1710.69 436.925Z" fill="url(#paint6_linear_603_1626)" fill-opacity="0.2"/>
<path d="M1725.43 454.676C1721.9 423.971 1711.67 405.799 1694.64 399.753C1645.07 382.112 1545.65 471.097 1449.48 557.15C1355.06 641.677 1265.87 721.501 1224.39 703.87C1191.66 689.94 1192.84 615.091 1227.96 475.047C1261.29 342.22 1263.2 272.396 1233.81 261.567C1195.11 247.312 1109.31 334.838 1018.47 427.502C923.308 524.545 824.916 624.91 778.236 609.306C744.555 598.033 741.135 527.735 767.818 394.365C791.652 275.201 785.244 209.102 748.225 192.264C691.559 166.496 571.688 259.018 444.777 356.996C304.229 465.464 158.889 577.65 81.6727 545.287C27.5534 522.598 13.2649 431.4 37.9946 266.43L36.3093 266.583C11.4679 432.241 26.0014 523.923 80.7057 546.84C158.803 579.565 304.596 467.032 445.618 358.206C572.057 260.605 691.486 168.424 747.242 193.812C783.667 210.364 789.852 275.995 766.169 394.447C739.341 528.596 743.027 599.394 777.399 610.911C825.094 626.857 923.965 526.035 1019.57 428.513C1109.91 336.364 1195.24 249.317 1232.92 263.163C1261.61 273.735 1259.44 343.037 1226.33 475.052C1191.01 615.877 1190.05 691.237 1223.43 705.445C1265.86 723.487 1355.52 643.248 1450.45 558.275C1546.17 472.614 1645.13 384.065 1693.75 401.369C1724.68 412.381 1732.66 464.714 1718.16 561.377L1719.85 561.222C1726.57 516.316 1728.45 480.914 1725.43 454.676Z" fill="url(#paint7_linear_603_1626)" fill-opacity="0.2"/>
<path d="M1740.65 472.365C1736.96 440.372 1726.26 421.412 1708.45 414.974C1657.87 396.707 1557.71 483.789 1460.88 567.976C1365.7 650.725 1275.81 728.891 1233.49 710.554C1200.38 696.188 1200.54 622.71 1234.03 485.859C1265.82 355.921 1266.79 287.338 1237.02 276.183C1197.56 261.404 1111.31 347.078 1020.05 437.789C924.435 532.796 825.577 631.029 777.923 614.849C743.71 603.237 739.258 534.159 764.282 403.645C786.578 287.359 779.261 222.439 741.943 205.172C684.162 178.443 563.049 268.991 434.822 364.833C292.819 471.001 145.987 580.746 67.0571 547.207C12.3345 523.955 -3.31207 434.328 19.2181 273.238L17.5348 273.41C-5.07586 435.179 10.8043 525.268 66.0956 548.771C145.884 582.683 293.18 472.558 435.644 366.074C563.379 270.584 684.04 180.41 740.962 206.711C777.703 223.697 784.797 288.151 762.638 403.739C737.448 535.042 742.167 604.62 777.058 616.454C825.733 632.987 925.073 534.289 1021.12 438.838C1111.91 348.604 1197.68 263.394 1236.14 277.799C1265.23 288.685 1264 356.773 1232.42 485.9C1198.74 623.513 1198.78 697.508 1232.54 712.143C1275.83 730.877 1366.19 652.314 1461.87 569.136C1558.28 485.323 1657.96 398.67 1707.61 416.575C1738.96 427.893 1747.78 479.338 1734.56 573.843L1736.24 573.669C1742.06 531.455 1743.57 497.783 1740.65 472.365Z" fill="url(#paint8_linear_603_1626)" fill-opacity="0.2"/>
<path d="M1756.25 489.959C1752.41 456.633 1741.23 436.822 1722.6 430.021C1670.97 411.135 1570.06 496.287 1472.47 578.666C1376.5 659.681 1285.83 736.218 1242.64 717.164C1209.14 702.395 1208.34 630.216 1240.19 496.522C1270.46 369.431 1270.52 302.051 1240.35 290.562C1200.11 275.225 1113.41 359.092 1021.63 447.886C925.523 540.861 826.159 637.003 777.485 620.241C742.772 608.282 737.274 540.383 760.679 412.656C781.477 299.207 773.291 235.458 735.629 217.786C676.67 190.094 554.282 278.657 424.681 372.427C281.119 476.305 132.683 583.701 52.0057 548.921C-3.29557 525.085 -20.2943 437.031 0.0490792 279.743L-1.63414 279.943C-22.0638 437.908 -4.82564 526.398 51.047 550.477C132.555 585.602 281.466 477.876 425.453 373.679C554.569 280.272 676.523 192.025 734.615 219.342C771.683 236.756 779.656 300.04 758.994 412.792C735.442 541.277 741.199 609.673 776.568 621.865C826.241 638.964 926.098 542.378 1022.65 448.952C1113.94 360.624 1200.17 277.216 1239.41 292.151C1268.9 303.379 1268.62 370.248 1238.54 496.538C1206.52 630.983 1207.53 703.665 1241.65 718.7C1285.78 738.179 1376.91 661.254 1473.37 579.815C1570.51 497.819 1670.96 413.038 1721.66 431.61C1753.44 443.231 1763.05 493.79 1751.12 586.196L1752.8 586.003C1757.94 546.491 1759.09 514.534 1756.25 489.959Z" fill="url(#paint9_linear_603_1626)" fill-opacity="0.2"/>
<path d="M1772.33 507.462C1768.32 472.779 1756.64 452.114 1737.15 444.888C1684.44 425.346 1582.72 508.647 1484.36 589.225C1387.5 668.537 1296.04 743.475 1251.94 723.658C1218.1 708.447 1216.32 637.587 1246.55 507.008C1275.32 382.707 1274.45 316.527 1243.9 304.693C1202.84 288.787 1115.64 370.894 1023.33 457.801C926.688 548.804 826.73 642.9 777.004 625.546C741.793 613.232 735.258 546.514 757.057 421.533C776.35 310.89 767.274 248.289 729.334 230.177C669.21 201.452 545.438 288.086 414.381 379.812C269.201 481.41 119.07 586.482 36.5935 550.452C-19.2671 526.03 -37.5985 439.537 -19.4249 286.002L-21.1089 286.202C-39.3681 440.387 -20.8083 527.321 35.61 552C118.887 588.383 269.476 483.003 415.112 381.078C545.67 289.702 669.008 203.384 728.298 231.717C765.672 249.57 774.525 311.703 755.342 421.649C733.42 547.369 740.192 614.567 776.089 627.107C826.787 644.825 927.208 550.266 1024.32 458.848C1116.16 372.376 1202.9 290.712 1242.95 306.234C1272.82 317.835 1273.46 383.501 1244.88 507.002C1214.5 638.326 1216.49 709.678 1250.94 725.164C1295.96 745.382 1387.9 670.078 1485.24 590.355C1583.16 510.154 1684.43 427.211 1736.24 446.43C1768.42 458.347 1778.85 508.067 1768.15 598.4L1769.83 598.182C1774.23 561.322 1775.07 531.123 1772.33 507.462Z" fill="url(#paint10_linear_603_1626)" fill-opacity="0.2"/>
<path d="M1788.91 524.898C1784.73 488.796 1772.54 467.26 1752.16 459.593C1698.34 439.368 1595.75 520.861 1496.53 599.681C1398.75 677.345 1306.42 750.687 1261.4 730.109C1227.19 714.457 1224.47 644.866 1253.11 517.368C1280.37 395.837 1278.61 330.83 1247.67 318.623C1205.81 302.105 1118.05 382.491 1025.12 467.588C927.847 556.653 827.276 648.761 776.472 630.751C740.736 618.082 733.204 552.504 753.4 430.233C771.209 322.357 761.296 260.912 723.085 242.372C661.741 212.615 536.519 297.354 403.919 387.043C257.009 486.425 105.099 589.209 20.8058 551.897C-35.6196 526.904 -55.2568 441.927 -39.1852 292.075L-40.8672 292.294C-56.9798 442.783 -37.1306 528.187 19.8359 553.431C104.946 591.102 257.318 488.029 404.653 388.329C536.745 298.958 661.541 214.539 722.071 243.9C759.738 262.17 769.431 323.168 751.729 430.382C731.413 553.383 739.215 619.453 775.582 632.348C827.332 650.686 928.392 558.178 1026.11 468.682C1118.54 384.033 1205.85 304.079 1246.74 320.215C1277.02 332.149 1278.56 396.662 1251.46 517.423C1222.67 645.668 1225.6 715.743 1260.41 731.673C1306.32 752.663 1399.12 678.952 1497.39 600.907C1596.17 522.445 1698.29 441.329 1751.24 461.217C1783.83 473.459 1795.08 522.33 1785.62 610.605L1787.31 610.387C1790.98 576.004 1791.52 547.577 1788.91 524.898Z" fill="url(#paint11_linear_603_1626)" fill-opacity="0.2"/>
<path d="M1805.9 542.269C1801.56 504.727 1788.84 482.257 1767.55 474.165C1712.61 453.26 1609.08 532.943 1508.96 610.024C1410.2 686.044 1316.94 757.846 1270.99 736.44C1236.45 720.341 1232.81 652.025 1259.83 527.543C1285.63 408.722 1282.94 344.879 1251.65 332.318C1208.96 315.195 1120.58 393.858 1027 477.149C929.089 564.3 827.819 654.428 775.94 635.783C739.726 622.755 731.148 558.301 749.78 438.707C766.148 333.549 755.404 273.215 716.912 254.271C654.323 223.447 527.582 306.304 393.383 393.994C244.663 491.206 90.8765 591.717 4.69006 553.079C-52.2824 527.54 -73.1924 444.034 -59.2318 297.825L-60.9582 298.084C-74.9598 444.93 -53.8141 528.853 3.67902 554.626C90.6523 593.632 244.898 492.813 394.054 395.332C527.775 307.925 654.082 225.384 715.876 255.811C753.818 274.501 764.348 334.37 748.087 438.867C729.356 559.18 738.177 624.099 775.026 637.371C827.853 656.365 929.563 565.821 1027.95 478.257C1121.04 395.401 1208.97 317.134 1250.69 333.891C1281.34 346.195 1283.79 409.558 1258.15 527.607C1230.95 652.819 1234.82 721.622 1269.94 737.977C1316.78 759.802 1410.52 687.626 1509.78 611.218C1609.46 534.472 1712.52 455.148 1766.61 475.737C1799.59 488.292 1811.62 536.335 1803.39 622.621L1805.06 622.381C1808.12 590.562 1808.41 563.905 1805.9 542.269Z" fill="url(#paint12_linear_603_1626)" fill-opacity="0.2"/>
<path d="M1823.38 559.6C1818.86 520.552 1805.57 497.135 1783.34 488.56C1727.22 466.937 1622.71 544.879 1521.65 620.219C1421.86 694.638 1327.59 764.911 1280.67 742.681C1245.82 726.16 1241.23 659.063 1266.7 537.585C1291.04 421.465 1287.47 358.726 1255.82 345.79C1212.26 328.008 1123.22 405.024 1028.93 486.543C930.28 571.83 828.292 660.037 775.294 640.695C738.58 627.292 729.021 563.928 746.055 446.972C760.997 344.49 749.416 285.285 710.704 265.921C646.84 234.01 518.5 315.005 382.589 400.759C231.944 495.819 76.1901 594.081 -11.934 554.085C-69.4123 527.987 -91.6118 445.955 -79.728 303.318L-81.4287 303.586C-93.3592 446.849 -70.9477 529.28 -12.9479 555.613C75.9409 595.961 232.175 497.38 383.23 402.078C518.66 316.615 646.593 235.909 709.665 267.414C747.855 286.496 759.216 345.282 744.39 447.105C727.227 564.788 737.05 628.605 774.39 642.222C828.321 661.907 930.778 573.303 1029.87 487.631C1123.67 406.512 1212.27 329.908 1254.87 347.302C1285.9 359.963 1289.22 422.199 1265.03 537.58C1239.42 659.78 1244.2 727.344 1279.64 744.152C1327.41 766.804 1422.15 696.182 1522.44 621.404C1623.07 546.361 1727.13 468.778 1782.41 490.061C1815.79 502.919 1828.61 550.148 1821.59 634.458L1823.29 634.191C1825.72 604.989 1825.76 580.129 1823.38 559.6Z" fill="url(#paint13_linear_603_1626)" fill-opacity="0.2"/>
<path d="M1841.39 576.872C1836.69 536.299 1822.84 511.902 1799.61 502.842C1742.28 480.496 1636.73 556.693 1534.65 630.381C1433.73 703.222 1338.41 772.002 1290.53 748.891C1255.35 731.933 1249.9 666.055 1273.79 547.505C1296.68 434.026 1292.25 372.406 1260.23 359.087C1215.81 340.656 1126.06 416.018 1031 495.819C931.585 579.287 828.791 665.589 774.658 645.545C737.449 631.779 726.91 569.505 742.39 455.138C755.905 355.305 743.555 297.158 704.597 277.429C639.438 244.406 509.395 323.579 371.708 407.395C219.064 500.306 61.2218 596.409 -28.9118 555.021C-86.9225 528.391 -110.348 447.818 -100.519 308.687L-102.217 308.974C-112.07 448.693 -88.4314 529.692 -29.9311 556.565C60.9534 598.291 219.238 501.958 372.313 408.766C509.538 325.239 639.145 246.336 703.534 278.969C741.97 298.444 754.13 356.135 740.684 455.367C725.094 570.431 735.897 633.186 773.727 647.183C828.788 667.559 932.042 580.857 1031.92 497.026C1126.47 417.63 1215.77 342.659 1259.28 360.708C1290.67 373.75 1294.88 434.886 1272.14 547.627C1248.1 666.868 1253.78 733.222 1289.52 750.466C1338.27 773.972 1434.05 704.865 1535.46 631.663C1637.1 558.292 1742.23 482.421 1798.69 504.447C1832.46 517.601 1846.03 564.061 1840.22 646.401L1841.92 646.105C1843.8 619.272 1843.63 596.231 1841.39 576.872Z" fill="url(#paint14_linear_603_1626)" fill-opacity="0.2"/>
<path d="M1859.84 594.099C1854.95 551.951 1840.51 526.544 1816.25 516.966C1757.71 493.89 1651.06 568.345 1547.9 640.377C1445.81 711.668 1349.38 778.978 1300.46 754.987C1265 737.585 1258.64 672.896 1281.02 557.262C1302.48 446.393 1297.19 385.866 1264.82 372.193C1219.51 353.067 1128.96 426.83 1033.11 504.931C932.869 586.59 829.214 671.044 773.909 650.267C736.222 636.143 724.696 574.893 738.642 463.085C750.769 365.839 737.62 308.787 698.445 288.657C631.938 254.487 500.121 331.859 360.568 413.763C205.822 504.583 45.8178 598.474 -46.364 555.673C-104.87 528.523 -129.5 449.352 -121.708 313.705L-123.404 314.012C-131.239 450.276 -106.379 529.825 -47.3751 557.22C45.5411 600.354 205.982 506.194 361.143 415.143C500.245 333.522 631.621 256.409 697.379 290.178C736.062 310.045 748.994 366.669 736.936 463.286C722.897 575.797 734.686 637.473 772.964 651.837C829.174 672.928 933.306 588.108 1033.99 506.083C1129.35 428.387 1219.43 354.993 1263.83 373.738C1295.58 387.136 1300.65 447.204 1279.32 557.356C1256.81 673.682 1263.39 738.835 1299.4 756.507C1349.14 780.915 1446.04 713.275 1548.61 641.654C1651.33 569.938 1757.55 495.78 1815.29 518.519C1849.43 531.976 1863.78 577.655 1859.16 658.078L1860.86 657.771C1862.27 633.425 1861.94 612.208 1859.84 594.099Z" fill="url(#paint15_linear_603_1626)" fill-opacity="0.2"/>
<path d="M1878.81 611.311C1873.73 567.542 1858.69 541.069 1833.36 530.985C1773.56 507.141 1665.74 579.936 1561.46 650.31C1458.13 720.06 1360.52 785.954 1310.57 761.038C1274.83 743.207 1267.58 679.71 1288.46 566.921C1308.5 458.604 1302.36 399.153 1269.66 385.104C1223.43 365.24 1132.08 437.437 1035.33 513.862C934.214 593.758 829.641 676.371 773.109 654.863C734.949 640.363 722.44 580.157 734.87 470.849C745.633 376.172 731.716 320.178 692.34 299.681C624.47 264.358 490.801 339.941 349.285 419.946C192.35 508.693 30.0708 600.437 -64.2132 556.213C-123.191 528.551 -149.049 450.793 -143.236 318.521L-144.932 318.855C-150.768 451.714 -124.703 529.861 -65.2296 557.741C29.7995 602.3 192.491 510.307 349.846 421.34C490.9 341.596 624.127 266.244 691.279 301.185C730.147 321.415 743.855 376.983 733.161 471.059C720.671 581.053 733.413 641.693 772.164 656.432C829.579 678.266 934.599 595.295 1036.17 515.045C1132.41 439.005 1223.33 367.177 1268.64 386.649C1300.73 400.434 1306.66 459.421 1286.74 567.027C1265.75 680.496 1273.19 744.45 1309.48 762.542C1360.25 787.881 1458.33 721.681 1562.12 651.598C1665.97 581.496 1773.36 509.007 1832.37 532.529C1866.89 546.293 1882 591.167 1878.54 669.752L1880.24 669.418C1881.25 647.459 1880.76 628.116 1878.81 611.311Z" fill="url(#paint16_linear_603_1626)" fill-opacity="0.2"/>
<path d="M1898.34 628.498C1893.07 583.026 1877.39 555.517 1850.95 544.849C1789.86 520.241 1680.8 591.367 1575.35 660.148C1470.7 728.384 1371.85 792.855 1320.84 766.978C1284.84 748.721 1276.75 686.372 1296.11 576.419C1314.74 470.635 1307.76 412.216 1274.73 397.8C1227.56 377.196 1135.3 447.833 1037.65 522.633C935.593 600.79 830.041 681.607 772.286 659.331C733.647 644.445 720.171 585.261 731.091 478.437C740.5 386.267 725.845 331.324 686.289 310.483C617.016 273.987 481.407 347.797 337.844 425.94C178.629 512.611 13.986 602.224 -82.5069 556.544C-141.954 528.389 -168.999 452.01 -165.146 323.084L-166.836 323.428C-170.715 452.951 -143.466 529.699 -83.5233 558.071C13.6707 604.082 178.725 514.247 338.366 427.339C481.454 349.444 616.629 275.867 685.198 311.996C724.287 332.583 738.723 387.106 729.379 478.682C718.405 586.203 732.123 645.798 771.344 660.92C829.988 683.532 935.984 602.366 1038.47 523.873C1135.66 449.443 1227.44 379.163 1273.74 399.383C1306.18 413.54 1312.94 471.496 1294.44 576.569C1274.95 687.194 1283.25 749.988 1319.78 768.518C1371.59 794.804 1470.89 730.033 1576.01 661.474C1681.05 592.972 1789.68 522.134 1850.02 546.421C1884.9 560.497 1900.75 604.623 1898.47 681.338L1900.16 680.985C1900.72 661.399 1900.13 643.904 1898.34 628.498Z" fill="url(#paint17_linear_603_1626)" fill-opacity="0.2"/>
<path d="M1918.32 645.665C1912.84 598.475 1896.51 569.865 1868.93 558.619C1806.51 533.214 1696.16 602.697 1589.46 669.886C1483.43 736.642 1383.3 799.696 1331.19 772.852C1294.93 754.165 1286 692.987 1303.9 585.799C1321.15 482.534 1313.33 425.13 1279.99 410.349C1231.86 388.99 1138.69 458.098 1040.04 531.278C936.963 607.746 830.4 686.783 771.351 663.727C732.262 648.455 717.84 590.28 727.255 485.869C735.336 396.16 719.962 342.265 680.231 321.092C609.497 283.402 471.888 355.457 326.214 431.735C164.6 516.355 -2.49388 603.855 -101.214 556.694C-161.126 528.075 -189.331 453.057 -187.399 327.397L-189.089 327.769C-191.023 454.015 -162.612 529.393 -102.23 558.221C-2.81762 605.71 164.718 517.98 326.725 433.14C471.984 357.093 609.152 285.24 679.189 322.565C718.465 343.479 733.622 396.973 725.593 486.103C716.121 591.165 730.798 649.763 770.445 665.263C830.335 688.659 937.382 609.267 1040.88 532.488C1139.06 459.677 1231.78 390.897 1279.05 411.874C1311.8 426.404 1319.39 483.342 1302.27 585.907C1284.26 693.745 1293.39 755.374 1330.19 774.331C1383.08 801.592 1483.67 738.249 1590.18 671.174C1696.46 604.243 1806.37 535.035 1868.05 560.119C1903.3 574.455 1919.89 617.842 1918.74 692.763L1920.43 692.39C1920.63 675.22 1919.95 659.615 1918.32 645.665Z" fill="url(#paint18_linear_603_1626)" fill-opacity="0.2"/>
<path d="M1938.9 662.819C1933.21 613.865 1916.21 584.099 1887.42 572.259C1823.64 546.065 1711.94 613.932 1603.94 679.531C1496.47 744.834 1394.96 806.51 1341.73 778.653C1305.24 759.556 1295.49 699.496 1311.95 595.056C1327.83 494.254 1319.19 437.881 1285.57 422.697C1236.44 400.553 1142.27 468.179 1042.57 539.761C938.444 614.528 830.773 691.855 770.42 667.967C730.863 652.332 715.521 595.12 723.453 493.11C730.244 405.829 714.162 352.948 674.255 331.47C602.037 292.578 462.341 362.887 314.424 437.34C150.329 519.938 -19.3477 605.335 -120.369 556.705C-180.743 527.642 -210.063 453.973 -210.034 331.501L-211.745 331.903C-211.779 454.914 -182.23 528.96 -121.409 558.243C-19.7154 607.213 150.379 521.604 314.878 438.808C462.35 364.567 601.644 294.475 673.167 333.001C712.609 354.245 728.497 406.714 721.736 493.427C713.739 596.085 729.361 653.7 769.456 669.567C830.648 693.775 938.775 616.121 1043.33 541.043C1142.55 469.811 1236.28 402.507 1284.56 424.273C1317.63 439.187 1326.03 495.112 1310.26 595.235C1293.72 700.326 1303.66 760.845 1340.67 780.201C1394.67 808.442 1496.63 746.503 1604.56 680.918C1712.17 615.559 1823.43 547.949 1886.48 573.847C1922.11 588.47 1939.39 631.149 1939.39 704.257L1941.09 703.854C1941.07 688.915 1940.35 675.253 1938.9 662.819Z" fill="url(#paint19_linear_603_1626)" fill-opacity="0.2"/>
<path d="M1960.01 679.998C1954.1 629.213 1936.42 598.273 1906.37 585.825C1841.16 558.817 1728.07 625.064 1618.68 689.127C1509.69 752.963 1406.73 813.272 1352.34 784.401C1315.62 764.909 1305.08 705.954 1320.1 604.213C1334.61 505.834 1325.19 450.462 1291.25 434.933C1241.11 411.981 1145.88 478.117 1045.08 548.154C939.841 621.254 830.993 696.858 769.298 672.173C729.295 656.163 713.003 599.923 719.499 500.255C725.018 415.344 708.236 363.48 668.19 341.7C594.456 301.588 452.565 370.179 302.349 442.806C135.677 523.396 -36.6491 606.697 -140.061 556.56C-200.867 527.052 -231.327 454.724 -233.14 335.379L-234.848 335.8C-233.02 455.681 -202.353 528.371 -141.077 558.087C-37.0169 608.547 135.735 525.037 302.8 444.255C452.593 371.828 594.063 303.43 667.145 343.182C706.738 364.722 723.315 416.179 717.82 500.539C711.311 600.835 727.829 657.479 768.372 673.712C830.885 698.729 940.161 622.825 1045.84 549.428C1146.16 479.73 1240.93 413.894 1290.26 436.477C1323.64 451.759 1332.84 506.683 1318.41 604.392C1303.28 706.776 1314.05 766.165 1351.26 785.936C1406.39 815.196 1509.8 754.637 1619.26 690.51C1728.23 626.677 1840.91 560.669 1905.38 587.388C1941.34 602.285 1959.36 644.235 1960.45 715.611L1962.15 715.189C1962 702.545 1961.26 690.822 1960.01 679.998Z" fill="url(#paint20_linear_603_1626)" fill-opacity="0.2"/>
<path d="M1981.69 697.164C1975.56 644.493 1957.15 612.377 1925.8 599.283C1859.16 571.457 1744.57 636.109 1633.78 698.648C1523.19 761.067 1418.72 820.015 1363.17 790.113C1326.25 770.228 1314.91 712.392 1328.52 613.277C1341.72 517.29 1331.5 462.876 1297.27 446.995C1246.09 423.198 1149.75 487.896 1047.77 556.375C941.338 627.848 831.264 701.767 768.19 676.2C727.758 659.82 710.546 604.543 715.582 507.202C719.838 424.636 702.395 373.756 662.221 351.695C586.902 310.349 442.752 377.219 290.131 448.042C120.796 526.604 -54.317 607.865 -160.169 556.204C-221.431 526.318 -252.986 455.281 -256.631 339.002L-258.336 339.442C-254.658 456.208 -222.873 527.624 -161.189 557.712C-54.696 609.665 120.824 528.253 290.541 449.505C442.736 378.891 586.482 312.191 661.127 353.188C700.87 374.998 718.116 425.501 713.876 507.514C708.826 605.483 726.272 661.166 767.242 677.75C831.13 703.629 941.621 629.417 1048.48 557.652C1150 489.473 1245.86 425.094 1296.24 448.501C1329.91 464.142 1339.91 518.11 1326.83 613.438C1313.12 713.162 1324.66 771.429 1362.08 791.578C1418.38 821.901 1523.28 762.692 1634.34 700.022C1744.74 637.722 1858.9 573.29 1924.83 600.817C1961.16 615.981 1979.87 657.215 1982.08 726.885L1983.78 726.436C1983.47 716.068 1982.75 706.311 1981.69 697.164Z" fill="url(#paint21_linear_603_1626)" fill-opacity="0.2"/>
<path d="M2003.94 714.378C1997.58 659.773 1978.44 626.391 1945.72 612.637C1877.59 583.968 1761.49 647.057 1649.19 708.076C1536.92 769.077 1430.89 826.695 1374.11 795.694C1336.98 775.427 1324.89 718.687 1337.12 622.179C1349 528.537 1338 475.123 1303.51 458.847C1251.24 434.216 1153.77 497.452 1050.55 564.425C942.872 634.299 831.508 706.531 766.998 680.117C726.118 663.37 708.007 609.018 711.612 513.948C714.665 433.655 696.56 383.787 656.234 361.465C579.314 318.88 432.822 384.057 277.71 453.055C105.6 529.626 -72.3772 608.794 -180.757 555.636C-242.443 525.374 -275.075 455.587 -280.545 342.339L-282.25 342.807C-276.765 456.564 -243.908 526.69 -181.801 557.155C-72.7969 610.618 105.573 531.276 278.071 454.529C432.754 385.721 578.85 320.716 655.142 362.95C695.019 385.023 712.94 434.529 709.917 514.282C706.288 609.958 724.657 664.697 766.05 681.667C831.334 708.407 943.125 635.876 1051.24 565.732C1154 499.059 1251.04 436.104 1302.51 460.351C1336.45 476.376 1347.24 529.364 1335.45 622.355C1323.15 719.464 1335.43 776.661 1373.06 797.165C1430.57 828.553 1537.02 770.713 1649.75 709.442C1761.65 648.649 1877.36 585.778 1944.8 614.132C1981.46 629.551 2000.88 670.117 2004.16 738.08L2005.87 737.614C2005.42 729.519 2004.8 721.736 2003.94 714.378Z" fill="url(#paint22_linear_603_1626)" fill-opacity="0.2"/>
<path d="M2026.77 731.593C2020.18 674.995 2000.26 640.339 1966.14 625.89C1896.48 596.397 1778.78 657.927 1664.94 717.444C1550.96 777.039 1443.27 833.335 1385.26 801.253C1347.94 780.64 1335.08 724.958 1345.97 630.999C1356.54 539.669 1344.78 487.207 1310.02 470.594C1256.66 445.076 1157.93 506.911 1053.42 572.403C944.428 640.684 831.745 711.264 765.762 683.974C724.446 666.882 705.425 613.46 707.65 520.615C709.506 442.55 690.737 393.647 650.312 371.092C571.745 327.27 422.796 390.744 265.121 457.94C90.1362 532.516 -90.8043 609.631 -201.782 554.972C-263.887 524.379 -297.614 455.865 -304.836 345.517L-306.535 346.023C-299.284 456.839 -265.35 525.687 -202.826 556.49C-91.2476 611.466 90.076 534.182 265.432 459.453C422.711 392.43 571.25 329.115 649.199 372.587C689.201 394.894 707.759 443.435 705.909 520.979C703.714 614.403 722.962 668.22 764.765 685.535C831.491 713.16 944.64 642.302 1054.05 573.747C1158.1 508.56 1256.37 446.986 1308.96 472.133C1343.18 488.496 1354.72 540.538 1344.23 631.237C1333.3 725.768 1346.35 781.86 1384.12 802.757C1442.85 835.224 1550.94 778.703 1665.4 718.893C1778.84 659.596 1896.13 598.263 1965.13 627.457C2002.13 643.125 2022.24 682.991 2026.59 749.34L2028.29 748.852C2027.92 742.866 2027.41 737.117 2026.77 731.593Z" fill="url(#paint23_linear_603_1626)" fill-opacity="0.2"/>
<path d="M2050.17 748.871C2043.34 690.197 2022.63 654.232 1987 639.094C1915.77 608.774 1796.41 668.771 1680.96 726.77C1565.14 784.967 1455.77 839.933 1396.45 806.753C1358.97 785.786 1345.4 731.163 1354.94 639.731C1364.21 550.697 1351.72 499.166 1316.72 482.201C1262.23 455.789 1162.24 516.248 1056.34 580.227C945.992 646.933 831.855 715.91 764.38 687.691C722.64 670.241 702.745 617.724 703.564 527.076C704.244 451.201 684.857 403.259 644.313 380.509C564.048 335.462 412.601 397.219 252.254 462.642C74.2976 535.236 -109.706 610.285 -223.35 554.101C-285.894 523.181 -320.654 455.905 -329.625 348.43L-331.321 348.956C-322.295 456.908 -287.333 524.506 -224.394 555.62C-110.153 612.1 74.2261 536.881 252.542 464.139C412.499 398.9 563.559 337.263 643.2 381.978C683.321 404.507 702.496 452.086 701.822 527.44C701.004 618.648 721.135 671.59 763.388 689.236C831.617 717.757 946.16 648.519 1056.94 581.559C1162.37 517.842 1261.93 457.663 1315.68 483.702C1350.18 500.402 1362.45 551.523 1353.22 639.938C1343.64 731.932 1357.41 786.978 1395.36 808.199C1455.35 841.775 1565.17 786.581 1681.43 728.17C1796.47 670.36 1915.46 610.56 1986.03 640.608C2023.38 656.503 2044.14 695.674 2049.57 760.434L2051.27 759.91C2050.97 756.166 2050.59 752.466 2050.17 748.871Z" fill="url(#paint24_linear_603_1626)" fill-opacity="0.2"/>
<path d="M2074.23 766.176C2067.14 705.382 2045.6 668.08 2008.45 652.179C1935.59 621.022 1814.49 679.472 1697.4 735.987C1579.71 792.8 1468.53 846.442 1407.91 812.148C1370.28 790.864 1355.97 737.264 1364.2 648.32C1372.23 561.518 1358.99 510.914 1323.74 493.62C1268.08 466.302 1166.73 525.371 1059.4 587.917C947.597 653.059 832 720.421 762.958 691.304C720.814 673.52 700.057 621.875 699.476 533.398C698.999 459.656 679.02 412.657 638.362 389.723C556.331 343.437 402.269 403.522 239.167 467.144C58.1541 537.738 -129.018 610.74 -245.398 553.055C-308.377 521.846 -344.171 455.753 -354.836 351.123L-356.529 351.668C-345.806 456.821 -309.793 523.161 -246.442 554.574C-129.467 612.536 58.0664 539.404 239.434 468.652C402.156 405.181 555.833 345.235 637.238 391.196C677.478 413.92 697.282 460.56 697.748 533.804C698.318 622.845 719.331 674.885 761.969 692.868C831.728 722.312 947.759 654.689 1059.96 589.303C1166.82 527.026 1267.74 468.207 1322.67 495.168C1357.42 512.216 1370.44 562.397 1362.48 648.599C1354.2 738.113 1368.69 792.104 1406.78 813.655C1468.07 848.345 1579.67 794.474 1697.8 737.447C1814.53 681.105 1935.24 622.841 2007.44 653.735C2045.13 669.859 2066.55 708.349 2073.02 771.544L2074.72 771.001C2074.6 769.377 2074.41 767.775 2074.23 766.176Z" fill="url(#paint25_linear_603_1626)" fill-opacity="0.2"/>
<path d="M2098.71 782.015C2091.2 719.927 2068.85 681.701 2030.38 665.203C1955.86 633.225 1833 690.134 1714.18 745.187C1594.52 800.614 1481.48 852.976 1419.52 817.535C1381.73 795.936 1366.75 743.388 1373.67 656.864C1380.46 572.277 1366.49 522.602 1331.02 504.976C1274.15 476.722 1171.39 534.425 1062.59 595.524C949.3 659.134 832.152 724.906 761.5 694.859C718.947 676.757 697.304 625.968 695.398 539.578C693.808 467.918 673.234 421.869 632.451 398.756C548.634 351.235 391.873 409.657 225.919 471.492C41.7481 540.116 -148.69 611.069 -267.893 551.89C-331.3 520.413 -368.126 455.558 -380.467 353.596L-382.157 354.16C-369.767 456.56 -332.739 521.737 -268.937 553.381C-149.163 612.847 41.6328 541.756 226.167 473.003C391.738 411.327 548.101 353.058 631.335 400.233C671.689 423.113 692.086 468.838 693.663 540.008C695.587 626.927 717.453 678.073 760.508 696.403C831.85 726.75 949.407 660.736 1063.12 596.901C1171.49 536.06 1273.84 478.6 1329.95 506.478C1364.93 523.858 1378.68 573.126 1371.94 657.143C1364.95 744.229 1380.16 797.172 1418.38 819.023C1481.02 854.832 1594.45 802.277 1714.56 746.639C1833.02 691.764 1955.5 635.026 2029.39 666.748C2067.44 683.06 2089.55 720.979 2097 782.592L2098.71 782.015Z" fill="url(#paint26_linear_603_1626)" fill-opacity="0.2"/>
<path d="M2123.18 793.011C2114.65 732.42 2091.65 694.85 2052.85 678.145C1976.62 645.333 1851.91 700.72 1731.28 754.29C1609.56 808.355 1494.62 859.414 1431.23 822.829C1393.31 800.95 1377.63 749.411 1383.3 665.273C1388.87 582.843 1374.21 534.048 1338.52 516.131C1280.44 486.95 1176.19 543.291 1065.81 602.95C950.958 665.039 832.171 729.239 759.917 698.263C716.947 679.841 694.471 629.915 691.215 545.603C688.551 475.993 667.377 430.847 626.52 407.601C540.849 358.858 381.327 415.578 212.428 475.632C74.3999 524.711 -68.3275 575.45 -183.091 573.715C-313.089 571.773 -386.192 500.486 -406.555 355.809L-408.243 356.42C-397.42 433.249 -371.271 490.372 -330.538 526.189C-293.958 558.345 -245.865 574.44 -183.531 575.376C-68.44 577.109 74.4686 526.292 212.654 477.154C381.154 417.253 540.335 360.651 625.423 409.074C665.88 432.089 686.848 476.883 689.532 546.042C692.801 630.872 715.513 681.168 758.977 699.788C831.941 731.06 951.118 666.649 1066.37 604.343C1176.28 544.926 1280.12 488.805 1337.5 517.64C1372.72 535.328 1387.14 583.725 1381.63 665.576C1375.9 750.273 1391.79 802.191 1430.13 824.322C1494.15 861.27 1609.52 810.027 1731.66 755.78C1851.91 702.361 1976.26 647.134 2051.88 679.678C2090.28 696.199 2113.04 733.459 2121.51 793.589L2123.18 793.011Z" fill="url(#paint27_linear_603_1626)" fill-opacity="0.2"/>
<path d="M2148.22 803.943C2138.68 744.839 2115.02 707.898 2075.88 691.024C1997.88 657.395 1871.27 711.268 1748.8 763.382C1624.97 816.079 1508.01 865.845 1443.18 828.103C1405.14 805.962 1388.79 755.429 1393.22 673.628C1397.59 593.325 1382.24 545.439 1346.32 527.202C1286.96 497.068 1181.16 552.079 1069.16 610.309C952.677 670.872 832.219 733.516 758.255 701.604C714.845 682.874 691.534 633.792 686.961 551.514C683.216 483.887 661.469 439.653 620.517 416.302C532.978 366.352 370.586 421.371 198.684 479.626C58.9531 526.992 -85.5327 575.945 -202.396 573.513C-334.74 570.756 -410.246 500.213 -433.198 357.84L-434.882 358.471C-411.828 501.519 -335.908 572.399 -202.834 575.166C-85.6654 577.606 58.975 528.576 198.868 481.189C370.41 423.055 532.434 368.153 619.453 417.759C660.021 440.911 681.56 484.802 685.305 551.98C689.883 634.773 713.456 684.206 757.307 703.127C831.956 735.327 952.82 672.505 1069.69 611.735C1181.24 553.737 1286.61 498.935 1345.29 528.708C1380.75 546.711 1395.86 594.207 1391.55 673.931C1387.08 756.281 1403.63 807.188 1442.09 829.596C1507.54 867.69 1624.89 817.748 1749.14 764.887C1871.24 712.937 1997.51 659.206 2074.91 692.577C2113.66 709.285 2137.07 745.916 2146.53 804.591L2148.22 803.943Z" fill="url(#paint28_linear_603_1626)" fill-opacity="0.2"/>
<path d="M2173.75 814.839C2163.24 757.164 2138.95 720.84 2099.46 703.827C2019.66 669.379 1891.04 721.761 1766.67 772.42C1640.65 823.753 1521.61 872.236 1455.32 833.344C1417.16 810.962 1400.17 761.421 1403.4 681.901C1406.57 603.7 1390.55 556.669 1354.43 538.154C1293.77 507.053 1186.37 560.722 1072.66 617.567C954.479 676.641 832.261 737.718 756.546 704.857C712.736 685.839 688.599 637.569 682.745 557.3C677.928 491.603 655.654 448.251 614.602 424.813C525.079 373.699 359.751 427.023 184.708 483.506C43.2057 529.147 -103.098 576.358 -222.06 573.202C-356.817 569.637 -434.745 499.794 -460.293 359.705L-461.975 360.355C-436.303 501.117 -357.985 571.28 -222.521 574.866C-103.254 578.03 43.2085 530.761 184.865 485.07C359.545 428.715 524.535 375.473 613.511 426.297C654.214 449.539 676.305 492.557 681.073 557.816C686.985 638.58 711.343 687.207 755.609 706.402C831.979 739.56 954.567 678.273 1073.16 619.013C1186.42 562.407 1293.42 508.938 1353.42 539.683C1389.09 557.977 1404.9 604.59 1401.75 682.259C1398.51 762.317 1415.69 812.212 1454.28 834.862C1521.19 874.106 1640.61 825.456 1767.07 773.968C1891.09 723.447 2019.33 671.215 2098.57 705.424C2137.66 722.29 2161.73 758.312 2172.17 815.538L2173.75 814.839Z" fill="url(#paint29_linear_603_1626)" fill-opacity="0.2"/>
<path d="M2199.85 825.724C2160.92 634.96 1969.79 709.404 1784.92 781.368C1656.61 831.339 1535.42 878.53 1467.63 838.483C1429.34 815.879 1411.71 767.302 1413.75 690.022C1415.76 613.877 1399.09 567.722 1362.75 548.935C1300.73 516.866 1191.67 569.214 1076.21 624.632C956.257 682.209 832.222 741.756 754.711 707.94C710.489 688.641 685.536 641.213 678.384 562.864C673.425 508.596 656.273 470.056 625.947 445.044C598.724 422.617 561.32 411.6 511.583 411.344C418.923 410.875 298.203 447.909 170.367 487.111C27.057 531.078 -121.119 576.54 -242.271 572.666C-379.491 568.285 -459.895 499.143 -488.025 361.233L-489.7 361.921C-461.429 500.455 -380.635 569.945 -242.732 574.33C-121.299 578.195 27.0378 532.703 170.48 488.697C298.151 449.523 418.747 412.531 511.142 412.996C614.751 413.533 667.344 461.246 676.66 563.399C683.842 642.188 709.05 690.012 753.7 709.488C831.843 743.584 956.285 683.858 1076.61 626.093C1191.66 570.877 1300.31 518.711 1361.66 550.448C1397.55 568.997 1414.01 614.789 1412.01 690.395C1409.96 768.196 1427.78 817.115 1466.46 839.971C1534.89 880.372 1656.46 833.031 1785.17 782.906C1969.2 711.239 2159.51 637.138 2198.14 826.402L2199.85 825.724Z" fill="url(#paint30_linear_603_1626)" fill-opacity="0.2"/>
<defs>
<linearGradient id="paint0_linear_603_1626" x1="247.806" y1="-168.185" x2="1752.29" y2="478.193" gradientUnits="userSpaceOnUse">
<stop stop-color="#BE8143"/>
<stop offset="0.556227" stop-color="#8F664E"/>
<stop offset="1" stop-color="#BB7F44"/>
</linearGradient>
<linearGradient id="paint1_linear_603_1626" x1="229.528" y1="-157.822" x2="1761.27" y2="505.621" gradientUnits="userSpaceOnUse">
<stop stop-color="#BE8143"/>
<stop offset="0.556227" stop-color="#8F664E"/>
<stop offset="1" stop-color="#BB7F44"/>
</linearGradient>
<linearGradient id="paint2_linear_603_1626" x1="211.055" y1="-147.836" x2="1770.5" y2="533.214" gradientUnits="userSpaceOnUse">
<stop stop-color="#BE8143"/>
<stop offset="0.556227" stop-color="#8F664E"/>
<stop offset="1" stop-color="#BB7F44"/>
</linearGradient>
<linearGradient id="paint3_linear_603_1626" x1="193.038" y1="-140.468" x2="1780.92" y2="558.225" gradientUnits="userSpaceOnUse">
<stop stop-color="#BE8143"/>
<stop offset="0.556227" stop-color="#8F664E"/>
<stop offset="1" stop-color="#BB7F44"/>
</linearGradient>
<linearGradient id="paint4_linear_603_1626" x1="174.769" y1="-133.523" x2="1791.54" y2="583.31" gradientUnits="userSpaceOnUse">
<stop stop-color="#BE8143"/>
<stop offset="0.556227" stop-color="#8F664E"/>
<stop offset="1" stop-color="#BB7F44"/>
</linearGradient>
<linearGradient id="paint5_linear_603_1626" x1="156.208" y1="-126.959" x2="1802.32" y2="608.505" gradientUnits="userSpaceOnUse">
<stop stop-color="#BE8143"/>
<stop offset="0.556227" stop-color="#8F664E"/>
<stop offset="1" stop-color="#BB7F44"/>
</linearGradient>
<linearGradient id="paint6_linear_603_1626" x1="137.7" y1="-121.312" x2="1814.8" y2="633.784" gradientUnits="userSpaceOnUse">
<stop stop-color="#BE8143"/>
<stop offset="0.556227" stop-color="#8F664E"/>
<stop offset="1" stop-color="#BB7F44"/>
</linearGradient>
<linearGradient id="paint7_linear_603_1626" x1="119.029" y1="-116.444" x2="1828.27" y2="659.011" gradientUnits="userSpaceOnUse">
<stop stop-color="#BE8143"/>
<stop offset="0.556227" stop-color="#8F664E"/>
<stop offset="1" stop-color="#BB7F44"/>
</linearGradient>
<linearGradient id="paint8_linear_603_1626" x1="100.128" y1="-111.947" x2="1842.05" y2="684.433" gradientUnits="userSpaceOnUse">
<stop stop-color="#BE8143"/>
<stop offset="0.556227" stop-color="#8F664E"/>
<stop offset="1" stop-color="#BB7F44"/>
</linearGradient>
<linearGradient id="paint9_linear_603_1626" x1="80.8552" y1="-107.856" x2="1855.85" y2="709.954" gradientUnits="userSpaceOnUse">
<stop stop-color="#BE8143"/>
<stop offset="0.556227" stop-color="#8F664E"/>
<stop offset="1" stop-color="#BB7F44"/>
</linearGradient>
<linearGradient id="paint10_linear_603_1626" x1="61.2998" y1="-104.171" x2="1869.98" y2="735.679" gradientUnits="userSpaceOnUse">
<stop stop-color="#BE8143"/>
<stop offset="0.556227" stop-color="#8F664E"/>
<stop offset="1" stop-color="#BB7F44"/>
</linearGradient>
<linearGradient id="paint11_linear_603_1626" x1="41.5149" y1="-100.875" x2="1884.45" y2="761.582" gradientUnits="userSpaceOnUse">
<stop stop-color="#BE8143"/>
<stop offset="0.556227" stop-color="#8F664E"/>
<stop offset="1" stop-color="#BB7F44"/>
</linearGradient>
<linearGradient id="paint12_linear_603_1626" x1="21.4027" y1="-97.9436" x2="1899" y2="787.664" gradientUnits="userSpaceOnUse">
<stop stop-color="#BE8143"/>
<stop offset="0.556227" stop-color="#8F664E"/>
<stop offset="1" stop-color="#BB7F44"/>
</linearGradient>
<linearGradient id="paint13_linear_603_1626" x1="0.935772" y1="-95.4424" x2="1913.83" y2="813.967" gradientUnits="userSpaceOnUse">
<stop stop-color="#BE8143"/>
<stop offset="0.556227" stop-color="#8F664E"/>
<stop offset="1" stop-color="#BB7F44"/>
</linearGradient>
<linearGradient id="paint14_linear_603_1626" x1="-19.7896" y1="-93.2936" x2="1928.98" y2="840.483" gradientUnits="userSpaceOnUse">
<stop stop-color="#BE8143"/>
<stop offset="0.556227" stop-color="#8F664E"/>
<stop offset="1" stop-color="#BB7F44"/>
</linearGradient>
<linearGradient id="paint15_linear_603_1626" x1="-40.9098" y1="-91.5599" x2="1944.21" y2="867.191" gradientUnits="userSpaceOnUse">
<stop stop-color="#BE8143"/>
<stop offset="0.556227" stop-color="#8F664E"/>
<stop offset="1" stop-color="#BB7F44"/>
</linearGradient>
<linearGradient id="paint16_linear_603_1626" x1="-62.3374" y1="-90.1869" x2="1959.71" y2="894.165" gradientUnits="userSpaceOnUse">
<stop stop-color="#BE8143"/>
<stop offset="0.556227" stop-color="#8F664E"/>
<stop offset="1" stop-color="#BB7F44"/>
</linearGradient>
<linearGradient id="paint17_linear_603_1626" x1="-84.1134" y1="-89.2405" x2="1975.57" y2="921.413" gradientUnits="userSpaceOnUse">
<stop stop-color="#BE8143"/>
<stop offset="0.556227" stop-color="#8F664E"/>
<stop offset="1" stop-color="#BB7F44"/>
</linearGradient>
<linearGradient id="paint18_linear_603_1626" x1="-106.222" y1="-88.6267" x2="1991.55" y2="948.917" gradientUnits="userSpaceOnUse">
<stop stop-color="#BE8143"/>
<stop offset="0.556227" stop-color="#8F664E"/>
<stop offset="1" stop-color="#BB7F44"/>
</linearGradient>
<linearGradient id="paint19_linear_603_1626" x1="-128.686" y1="-88.432" x2="2007.81" y2="976.626" gradientUnits="userSpaceOnUse">
<stop stop-color="#BE8143"/>
<stop offset="0.556227" stop-color="#8F664E"/>
<stop offset="1" stop-color="#BB7F44"/>
</linearGradient>
<linearGradient id="paint20_linear_603_1626" x1="-151.577" y1="-88.5996" x2="2024.23" y2="1004.64" gradientUnits="userSpaceOnUse">
<stop stop-color="#BE8143"/>
<stop offset="0.556227" stop-color="#8F664E"/>
<stop offset="1" stop-color="#BB7F44"/>
</linearGradient>
<linearGradient id="paint21_linear_603_1626" x1="-174.833" y1="-89.1553" x2="2040.97" y2="1033.02" gradientUnits="userSpaceOnUse">
<stop stop-color="#BE8143"/>
<stop offset="0.556227" stop-color="#8F664E"/>
<stop offset="1" stop-color="#BB7F44"/>
</linearGradient>
<linearGradient id="paint22_linear_603_1626" x1="-198.498" y1="-90.1132" x2="2057.96" y2="1061.69" gradientUnits="userSpaceOnUse">
<stop stop-color="#BE8143"/>
<stop offset="0.556227" stop-color="#8F664E"/>
<stop offset="1" stop-color="#BB7F44"/>
</linearGradient>
<linearGradient id="paint23_linear_603_1626" x1="-222.48" y1="-91.4393" x2="2075.14" y2="1090.55" gradientUnits="userSpaceOnUse">
<stop stop-color="#BE8143"/>
<stop offset="0.556227" stop-color="#8F664E"/>
<stop offset="1" stop-color="#BB7F44"/>
</linearGradient>
<linearGradient id="paint24_linear_603_1626" x1="-246.965" y1="-93.1239" x2="2092.56" y2="1119.88" gradientUnits="userSpaceOnUse">
<stop stop-color="#BE8143"/>
<stop offset="0.556227" stop-color="#8F664E"/>
<stop offset="1" stop-color="#BB7F44"/>
</linearGradient>
<linearGradient id="paint25_linear_603_1626" x1="-271.825" y1="-95.2437" x2="2110.29" y2="1149.45" gradientUnits="userSpaceOnUse">
<stop stop-color="#BE8143"/>
<stop offset="0.556227" stop-color="#8F664E"/>
<stop offset="1" stop-color="#BB7F44"/>
</linearGradient>
<linearGradient id="paint26_linear_603_1626" x1="-297.087" y1="-97.7141" x2="2128.29" y2="1179.41" gradientUnits="userSpaceOnUse">
<stop stop-color="#BE8143"/>
<stop offset="0.556227" stop-color="#8F664E"/>
<stop offset="1" stop-color="#BB7F44"/>
</linearGradient>
<linearGradient id="paint27_linear_603_1626" x1="-322.776" y1="-100.582" x2="2146.58" y2="1209.66" gradientUnits="userSpaceOnUse">
<stop stop-color="#BE8143"/>
<stop offset="0.556227" stop-color="#8F664E"/>
<stop offset="1" stop-color="#BB7F44"/>
</linearGradient>
<linearGradient id="paint28_linear_603_1626" x1="-348.98" y1="-103.864" x2="2165.06" y2="1240.45" gradientUnits="userSpaceOnUse">
<stop stop-color="#BE8143"/>
<stop offset="0.556227" stop-color="#8F664E"/>
<stop offset="1" stop-color="#BB7F44"/>
</linearGradient>
<linearGradient id="paint29_linear_603_1626" x1="-375.588" y1="-107.534" x2="2183.94" y2="1271.39" gradientUnits="userSpaceOnUse">
<stop stop-color="#BE8143"/>
<stop offset="0.556227" stop-color="#8F664E"/>
<stop offset="1" stop-color="#BB7F44"/>
</linearGradient>
<linearGradient id="paint30_linear_603_1626" x1="-402.773" y1="-111.788" x2="2203.22" y2="1302.56" gradientUnits="userSpaceOnUse">
<stop stop-color="#BE8143"/>
<stop offset="0.556227" stop-color="#8F664E"/>
<stop offset="1" stop-color="#BB7F44"/>
</linearGradient>
</defs>
</svg>
