<svg width="50" height="50" viewBox="0 0 50 50" fill="none" xmlns="http://www.w3.org/2000/svg">
<rect width="49.9999" height="49.9999" rx="7.49999" fill="#D5A429"/>
<path d="M39.8018 7.70654L27.4736 11.1729C26.8358 10.5938 25.9895 10.2404 25.0622 10.2404C23.4336 10.2404 22.0557 11.3307 21.6176 12.8194L10.1336 16.0485L5 26.9489V28.7954C5 32.0263 7.62841 34.6547 10.8593 34.6547C14.0901 34.6547 16.7186 32.0263 16.7186 28.7954V26.9616L12.6414 17.8299L21.4716 15.3471V35.1122H17.1811V39.8997H14.8497V42.2934H35.4084V39.8997H32.9432V35.1122H28.6527V13.8311C28.6527 13.6637 28.6403 13.4992 28.618 13.3377L36.9737 10.9884L33.2814 19.035V20.8752C33.2814 24.1061 35.9098 26.7345 39.1407 26.7345C42.3715 26.7345 45 24.1061 45 20.8752V19.035L39.8018 7.70654ZM10.8593 32.2609C8.94832 32.2609 7.39374 30.7063 7.39374 28.7954V28.4135H14.3247V28.7954C14.3247 30.7063 12.7702 32.2609 10.8593 32.2609ZM13.6765 26.0198H8.08354L10.9546 19.9235L13.6765 26.0198ZM30.5495 37.5059V39.8997H19.5748V37.5059H30.5495ZM23.8653 35.1122V13.8311C23.8653 13.1711 24.4022 12.6342 25.0622 12.6342C25.7222 12.6342 26.2591 13.1711 26.2591 13.8311V35.1122H23.8653ZM39.1407 12.0055L41.937 18.0996H36.3444L39.1407 12.0055ZM39.1407 24.3407C37.2298 24.3407 35.6752 22.7862 35.6752 20.8752V20.4934H42.6062V20.8752C42.6063 22.7862 41.0516 24.3407 39.1407 24.3407Z" fill="#EDEDED"/>
</svg>
