<svg width="50" height="50" viewBox="0 0 50 50" fill="none" xmlns="http://www.w3.org/2000/svg">
<rect width="49.9999" height="49.9999" rx="7.49999" fill="#D5A429"/>
<path d="M11.1927 26.2552H12.699M11.1927 31.276H12.699M11.1927 36.2969H12.699M37.301 21.2344H38.8073M37.301 26.2552H38.8073M37.301 31.276H38.8073M30.774 21.2344H32.2802M30.774 26.2552H32.2802M30.774 31.276H32.2802M24.2469 21.2344H25.7531M24.2469 26.2552H25.7531M24.2469 31.276H25.7531M24.2469 36.2969H25.7531M17.7198 26.2552H19.226M17.7198 31.276H19.226M17.7198 36.2969H19.226M6.17188 11.1927H43.8281V16.2136H6.17188V11.1927Z" stroke="#EDEDED" stroke-width="2.34375" stroke-miterlimit="10" stroke-linecap="round" stroke-linejoin="round"/>
<path d="M11.1927 11.1927V8.68225M38.8073 11.1927V8.68225M6.17188 16.2135H43.8281V41.3176H6.17188V16.2135Z" stroke="#EDEDED" stroke-width="2.34375" stroke-miterlimit="10" stroke-linecap="round" stroke-linejoin="round"/>
</svg>
