<svg width="50" height="50" viewBox="0 0 50 50" fill="none" xmlns="http://www.w3.org/2000/svg">
<rect width="49.9999" height="49.9999" rx="7.49999" fill="#D5A429"/>
<path d="M24.635 20.3675C24.1475 19.88 23.355 19.8775 22.865 20.365L18.75 24.4825L17.135 22.865C16.6475 22.3775 15.855 22.3775 15.3675 22.865C14.88 23.3525 14.88 24.145 15.3675 24.6325L17.8675 27.1325C18.11 27.3775 18.43 27.5 18.75 27.5C19.07 27.5 19.39 27.3775 19.635 27.135L24.635 22.135C25.1225 21.6475 25.1225 20.855 24.635 20.3675ZM24.635 30.3675C24.1475 29.88 23.355 29.8775 22.865 30.365L18.75 34.4825L17.135 32.8675C16.6475 32.38 15.855 32.38 15.3675 32.8675C14.88 33.355 14.88 34.1475 15.3675 34.635L17.8675 37.135C18.11 37.3775 18.43 37.5 18.75 37.5C19.07 37.5 19.39 37.3775 19.635 37.135L24.635 32.135C25.1225 31.6475 25.1225 30.855 24.635 30.3675ZM33.75 22.5H28.75C28.06 22.5 27.5 23.06 27.5 23.75C27.5 24.44 28.06 25 28.75 25H33.75C34.44 25 35 24.44 35 23.75C35 23.06 34.44 22.5 33.75 22.5ZM33.75 32.5H28.75C28.06 32.5 27.5 33.06 27.5 33.75C27.5 34.44 28.06 35 28.75 35H33.75C34.44 35 35 34.44 35 33.75C35 33.06 34.44 32.5 33.75 32.5Z" fill="#EDEDED"/>
<path d="M37.5 10H32.5V8.75C32.5 8.06 31.94 7.5 31.25 7.5H28.5375C28.02 6.045 26.63 5 25 5C23.37 5 21.98 6.045 21.4625 7.5H18.75C18.06 7.5 17.5 8.06 17.5 8.75V10H12.5C11.1225 10 10 11.1225 10 12.5V42.5C10 43.8775 11.1225 45 12.5 45H37.5C38.8775 45 40 43.8775 40 42.5V12.5C40 11.1225 38.8775 10 37.5 10ZM20 10H22.5C23.19 10 23.75 9.44 23.75 8.75C23.75 8.06 24.31 7.5 25 7.5C25.69 7.5 26.25 8.06 26.25 8.75C26.25 9.44 26.81 10 27.5 10H30V12.5H20V10ZM37.5 42.5H12.5V12.5H17.5V13.75C17.5 14.44 18.06 15 18.75 15H31.25C31.94 15 32.5 14.44 32.5 13.75V12.5H37.5V42.5Z" fill="#EDEDED"/>
</svg>
