<svg width="50" height="50" viewBox="0 0 50 50" fill="none" xmlns="http://www.w3.org/2000/svg">
<rect width="49.9999" height="49.9999" rx="7.49999" fill="#D5A429"/>
<path d="M14.5652 8.47827C12.1687 8.47827 10.2174 10.4296 10.2174 12.8261C10.2174 15.2226 12.1687 17.1739 14.5652 17.1739C16.9617 17.1739 18.9131 15.2226 18.9131 12.8261C18.9131 10.4296 16.9618 8.47827 14.5652 8.47827ZM14.5652 15.4348C13.1269 15.4348 11.9565 14.2644 11.9565 12.8261C11.9565 11.3878 13.1269 10.2174 14.5652 10.2174C16.0035 10.2174 17.1739 11.3878 17.1739 12.8261C17.1739 14.2644 16.0035 15.4348 14.5652 15.4348ZM9.3478 20.6522C6.9513 20.6522 5 22.6035 5 24.9999C5 27.3964 6.9513 29.3477 9.3478 29.3477C11.7443 29.3477 13.6956 27.3964 13.6956 24.9999C13.6956 22.6035 11.7444 20.6522 9.3478 20.6522ZM9.3478 27.6086C7.90951 27.6086 6.7391 26.4382 6.7391 24.9999C6.7391 23.5617 7.90951 22.3913 9.3478 22.3913C10.7861 22.3913 11.9565 23.5617 11.9565 24.9999C11.9565 26.4382 10.7861 27.6086 9.3478 27.6086ZM14.5652 32.826C12.1687 32.826 10.2174 34.7773 10.2174 37.1739C10.2174 39.5705 12.1687 41.5217 14.5652 41.5217C16.9617 41.5217 18.913 39.5704 18.913 37.1739C18.913 34.7774 16.9618 32.826 14.5652 32.826ZM14.5652 39.7826C13.1269 39.7826 11.9565 38.6122 11.9565 37.1739C11.9565 35.7356 13.1269 34.5652 14.5652 34.5652C16.0035 34.5652 17.1739 35.7356 17.1739 37.1739C17.1739 38.6121 16.0035 39.7826 14.5652 39.7826ZM35.4347 32.826C33.0382 32.826 31.0869 34.7773 31.0869 37.1738C31.0869 39.5703 33.0382 41.5217 35.4347 41.5217C37.8312 41.5217 39.7825 39.5704 39.7825 37.1739C39.7825 34.7774 37.8313 32.826 35.4347 32.826ZM35.4347 39.7826C33.9964 39.7826 32.826 38.6122 32.826 37.1739C32.826 35.7356 33.9964 34.5652 35.4347 34.5652C36.873 34.5652 38.0434 35.7356 38.0434 37.1739C38.0434 38.6121 36.873 39.7826 35.4347 39.7826ZM40.6521 20.6522C38.2556 20.6522 36.3043 22.6035 36.3043 24.9999C36.3043 27.3964 38.2556 29.3477 40.6521 29.3477C43.0486 29.3477 44.9999 27.3964 44.9999 24.9999C44.9999 22.6035 43.0487 20.6522 40.6521 20.6522ZM40.6521 27.6086C39.2138 27.6086 38.0434 26.4382 38.0434 24.9999C38.0434 23.5617 39.2138 22.3913 40.6521 22.3913C42.0904 22.3913 43.2608 23.5617 43.2608 24.9999C43.2608 26.4382 42.0904 27.6086 40.6521 27.6086ZM35.4347 8.47827C33.0382 8.47827 31.0869 10.4296 31.0869 12.8261C31.0869 15.2226 33.0382 17.1739 35.4347 17.1739C37.8312 17.1739 39.7826 15.2226 39.7826 12.8261C39.7826 10.4296 37.8313 8.47827 35.4347 8.47827ZM35.4347 15.4348C33.9964 15.4348 32.826 14.2644 32.826 12.8261C32.826 11.3878 33.9964 10.2174 35.4347 10.2174C36.873 10.2174 38.0434 11.3878 38.0434 12.8261C38.0434 14.2644 36.873 15.4348 35.4347 15.4348Z" fill="#EDEDED"/>
<path d="M19.5269 16.5601L17.7878 14.821C17.4487 14.4818 16.8973 14.4818 16.5582 14.821C16.2191 15.1601 16.2191 15.7114 16.5582 16.0505L18.2973 17.7897C18.461 17.9523 18.6823 18.0436 18.913 18.0436C19.1356 18.0436 19.3582 17.9584 19.5269 17.7897C19.866 17.4504 19.866 16.8992 19.5269 16.5601ZM16.3044 24.1305H12.8261C12.3461 24.1305 11.9565 24.5201 11.9565 25.0001C11.9565 25.4801 12.3461 25.8696 12.8261 25.8696H16.3044C16.7844 25.8696 17.174 25.48 17.174 25C17.174 24.52 16.7844 24.1305 16.3044 24.1305ZM19.5269 32.2122C19.1878 31.8731 18.6364 31.8731 18.2973 32.2122L16.5582 33.9513C16.2191 34.2905 16.2191 34.8418 16.5582 35.1809C16.7287 35.3496 16.9512 35.4349 17.1739 35.4349C17.3965 35.4349 17.6191 35.3497 17.7878 35.1809L19.5269 33.4418C19.866 33.1026 19.866 32.5514 19.5269 32.2122ZM33.44 33.9513L31.7009 32.2122C31.3617 31.8731 30.8104 31.8731 30.4713 32.2122C30.1321 32.5514 30.1321 33.1027 30.4713 33.4418L32.2104 35.1809C32.374 35.3435 32.5953 35.4348 32.826 35.4349C33.0487 35.4349 33.2712 35.3497 33.44 35.1809C33.7791 34.8418 33.7791 34.2905 33.44 33.9513ZM37.1739 24.1305H33.6956C33.2156 24.1305 32.826 24.5201 32.826 25.0001C32.826 25.4801 33.2156 25.8696 33.6956 25.8696H37.1739C37.6539 25.8696 38.0435 25.48 38.0435 25C38.0435 24.52 37.6539 24.1305 37.1739 24.1305ZM33.44 14.8209C33.1008 14.4817 32.5495 14.4817 32.2104 14.8209L30.4713 16.56C30.1321 16.8991 30.1321 17.4504 30.4713 17.7896C30.6349 17.9522 30.8562 18.0435 31.0869 18.0435C31.3096 18.0435 31.5321 17.9583 31.7009 17.7896L33.44 16.0505C33.7791 15.7113 33.7791 15.16 33.44 14.8209ZM25.1808 24.1496L24.9895 24.113C23.2191 23.7861 22.393 23.24 22.393 22.3913C22.393 21.4487 23.5877 20.6522 25.0034 20.6522C26.3651 20.6522 27.5355 21.3914 27.6121 22.2974C27.6521 22.7757 28.0833 23.1374 28.5512 23.0904C29.0295 23.0504 29.3843 22.6296 29.3442 22.1513C29.1877 20.3044 27.3216 18.913 25.0017 18.913C22.6034 18.913 20.6521 20.473 20.6521 22.3913C20.6521 24.1774 22.0034 25.3322 24.826 25.8521L25.0138 25.887C26.7825 26.2139 27.6068 26.76 27.6068 27.6087C27.6068 28.5513 26.4121 29.3478 24.9964 29.3478C23.6347 29.3478 22.4643 28.6104 22.3878 27.7026C22.3477 27.2243 21.9286 26.8661 21.4486 26.9096C20.9703 26.9496 20.6156 27.3704 20.6556 27.8487C20.8104 29.6939 22.6782 31.087 24.9982 31.087C27.3965 31.087 29.3478 29.527 29.3495 27.6105C29.3495 25.8226 27.9982 24.6696 25.1808 24.1496Z" fill="#EDEDED"/>
<path d="M25 17.1738C24.52 17.1738 24.1304 17.5634 24.1304 18.0434V31.9565C24.1304 32.4365 24.52 32.8261 25 32.8261C25.48 32.8261 25.8696 32.4365 25.8696 31.9565V18.0434C25.8696 17.5634 25.48 17.1738 25 17.1738Z" fill="#EDEDED"/>
</svg>
