<svg width="50" height="50" viewBox="0 0 50 50" fill="none" xmlns="http://www.w3.org/2000/svg">
<rect width="49.9999" height="49.9999" rx="7.49999" fill="#D5A429"/>
<g clip-path="url(#clip0_738_47144)">
<path d="M39.1666 5.83337H10.8334C7.61664 5.83337 5 8.45001 5 11.6667V38.3333C5 41.5499 7.61664 44.1667 10.8334 44.1667H39.1667C42.3834 44.1667 45.0001 41.55 45.0001 38.3333V11.6667C45 8.45001 42.3834 5.83337 39.1666 5.83337ZM43.3334 38.3334C43.3334 40.63 41.465 42.5 39.1667 42.5H10.8334C8.535 42.5 6.66672 40.63 6.66672 38.3334V11.6667C6.66664 9.37001 8.535 7.50001 10.8334 7.50001H39.1667C41.4651 7.50001 43.3334 9.37001 43.3334 11.6667V38.3334Z" fill="#EDEDED"/>
<path d="M13.3334 11.6666C11.495 11.6666 10 13.1616 10 15C10 16.8383 11.495 18.3333 13.3334 18.3333C15.1717 18.3333 16.6667 16.8383 16.6667 15C16.6666 13.1616 15.1716 11.6666 13.3334 11.6666ZM13.3334 16.6666C12.4134 16.6666 11.6667 15.9183 11.6667 15C11.6667 14.0816 12.4134 13.3333 13.3334 13.3333C14.2534 13.3333 15 14.0816 15 15C15 15.9183 14.2534 16.6666 13.3334 16.6666ZM21.6666 11.6666C19.8283 11.6666 18.3333 13.1616 18.3333 15C18.3333 16.8383 19.8283 18.3333 21.6666 18.3333C23.505 18.3333 25 16.8383 25 15C25 13.1616 23.505 11.6666 21.6666 11.6666ZM21.6666 16.6666C20.7466 16.6666 20 15.9183 20 15C20 14.0816 20.7466 13.3333 21.6666 13.3333C22.5866 13.3333 23.3333 14.0817 23.3333 15C23.3334 15.9183 22.5866 16.6666 21.6666 16.6666ZM36.6666 11.6666C34.8283 11.6666 33.3333 13.1616 33.3333 15C33.3333 16.8383 34.8283 18.3333 36.6666 18.3333C38.505 18.3333 40 16.8383 40 15C40 13.1616 38.505 11.6666 36.6666 11.6666ZM36.6666 16.6666C35.7466 16.6666 35 15.9183 35 15C35 14.0816 35.7466 13.3333 36.6666 13.3333C37.5866 13.3333 38.3333 14.0817 38.3333 15C38.3334 15.9183 37.5866 16.6666 36.6666 16.6666ZM13.3334 21.6666C11.495 21.6666 10 23.1616 10 25C10 26.8383 11.495 28.3333 13.3334 28.3333C15.1717 28.3333 16.6667 26.8383 16.6667 25C16.6667 23.1616 15.1716 21.6666 13.3334 21.6666ZM13.3334 26.6666C12.4134 26.6666 11.6667 25.9183 11.6667 25C11.6667 24.0816 12.4134 23.3333 13.3334 23.3333C14.2534 23.3333 15 24.0816 15 25C15 25.9183 14.2534 26.6666 13.3334 26.6666ZM28.3334 21.6666C26.495 21.6666 25 23.1616 25 25C25 26.8383 26.495 28.3333 28.3334 28.3333C30.1717 28.3333 31.6667 26.8383 31.6667 25C31.6667 23.1616 30.1716 21.6666 28.3334 21.6666ZM28.3334 26.6666C27.4134 26.6666 26.6667 25.9183 26.6667 25C26.6667 24.0816 27.4134 23.3333 28.3334 23.3333C29.2534 23.3333 30 24.0816 30 25C30 25.9183 29.2534 26.6666 28.3334 26.6666ZM36.6666 21.6666C34.8283 21.6666 33.3333 23.1616 33.3333 25C33.3333 26.8383 34.8283 28.3333 36.6666 28.3333C38.505 28.3333 40 26.8383 40 25C40 23.1616 38.505 21.6666 36.6666 21.6666ZM36.6666 26.6666C35.7466 26.6666 35 25.9183 35 25C35 24.0816 35.7466 23.3333 36.6666 23.3333C37.5866 23.3333 38.3333 24.0817 38.3333 25C38.3334 25.9183 37.5866 26.6666 36.6666 26.6666ZM13.3334 31.6666C11.495 31.6666 10 33.1616 10 35C10 36.8383 11.495 38.3333 13.3334 38.3333C15.1717 38.3333 16.6667 36.8383 16.6667 35C16.6666 33.1616 15.1716 31.6666 13.3334 31.6666ZM13.3334 36.6666C12.4134 36.6666 11.6667 35.9183 11.6667 35C11.6667 34.0816 12.4134 33.3333 13.3334 33.3333C14.2534 33.3333 15 34.0816 15 35C15 35.9183 14.2534 36.6666 13.3334 36.6666ZM21.6666 31.6666C19.8283 31.6666 18.3333 33.1616 18.3333 35C18.3333 36.8383 19.8283 38.3333 21.6666 38.3333C23.505 38.3333 25 36.8383 25 35C25 33.1616 23.505 31.6666 21.6666 31.6666ZM21.6666 36.6666C20.7466 36.6666 20 35.9183 20 35C20 34.0816 20.7466 33.3333 21.6666 33.3333C22.5866 33.3333 23.3333 34.0817 23.3333 35C23.3334 35.9183 22.5866 36.6666 21.6666 36.6666ZM30 31.6666C28.1616 31.6666 26.6666 33.1616 26.6666 35C26.6666 36.8383 28.1616 38.3333 30 38.3333C31.8384 38.3333 33.3334 36.8383 33.3334 35C33.3334 33.1616 31.8384 31.6666 30 31.6666ZM30 36.6666C29.08 36.6666 28.3334 35.9183 28.3334 35C28.3334 34.0816 29.08 33.3333 30 33.3333C30.92 33.3333 31.6666 34.0817 31.6666 35C31.6666 35.9183 30.92 36.6666 30 36.6666Z" fill="#EDEDED"/>
<path d="M10 14.1666H5.83336C5.37336 14.1666 5 14.54 5 15C5 15.46 5.37336 15.8333 5.83336 15.8333H10C10.46 15.8333 10.8334 15.46 10.8334 15C10.8334 14.54 10.46 14.1666 10 14.1666ZM19.1666 14.1666H15.8333C15.3733 14.1666 14.9999 14.54 14.9999 15C14.9999 15.46 15.3733 15.8333 15.8333 15.8333H19.1666C19.6266 15.8333 20 15.46 20 15C20 14.54 19.6266 14.1666 19.1666 14.1666ZM34.1666 14.1666H24.1666C23.7066 14.1666 23.3333 14.54 23.3333 15C23.3333 15.46 23.7066 15.8333 24.1666 15.8333H34.1666C34.6266 15.8333 35 15.46 35 15C35 14.54 34.6266 14.1666 34.1666 14.1666ZM44.1666 14.1666H39.1666C38.7066 14.1666 38.3333 14.54 38.3333 15C38.3333 15.46 38.7066 15.8333 39.1666 15.8333H44.1666C44.6266 15.8333 45 15.46 45 15C45 14.54 44.6266 14.1666 44.1666 14.1666ZM10.8334 24.1666H5.83336C5.37336 24.1666 5 24.54 5 25C5 25.46 5.37336 25.8333 5.83336 25.8333H10.8334C11.2934 25.8333 11.6667 25.46 11.6667 25C11.6666 24.54 11.2934 24.1666 10.8334 24.1666ZM44.1666 24.1666H39.1666C38.7066 24.1666 38.3333 24.54 38.3333 25C38.3333 25.46 38.7066 25.8333 39.1666 25.8333H44.1666C44.6266 25.8333 45 25.46 45 25C45 24.54 44.6266 24.1666 44.1666 24.1666ZM44.1666 34.1666H32.5C32.04 34.1666 31.6666 34.54 31.6666 35C31.6666 35.46 32.04 35.8333 32.5 35.8333H44.1666C44.6266 35.8333 45 35.46 45 35C45 34.54 44.6266 34.1666 44.1666 34.1666ZM10.8334 34.1666H5.83336C5.37336 34.1666 5 34.54 5 35C5 35.46 5.37336 35.8333 5.83336 35.8333H10.8334C11.2934 35.8333 11.6667 35.46 11.6667 35C11.6666 34.54 11.2934 34.1666 10.8334 34.1666ZM34.1666 24.1666H30.8333C30.3733 24.1666 29.9999 24.54 29.9999 25C29.9999 25.46 30.3733 25.8333 30.8333 25.8333H34.1666C34.6266 25.8333 35 25.46 35 25C35 24.54 34.6266 24.1666 34.1666 24.1666ZM25.8334 24.1666H15.8334C15.3734 24.1666 15 24.54 15 25C15 25.46 15.3734 25.8333 15.8334 25.8333H25.8334C26.2934 25.8333 26.6667 25.46 26.6667 25C26.6666 24.54 26.2934 24.1666 25.8334 24.1666ZM19.1666 34.1666H15.8333C15.3733 34.1666 14.9999 34.54 14.9999 35C14.9999 35.46 15.3733 35.8333 15.8333 35.8333H19.1666C19.6266 35.8333 20 35.46 20 35C20 34.54 19.6266 34.1666 19.1666 34.1666ZM27.5 34.1666H24.1666C23.7066 34.1666 23.3333 34.54 23.3333 35C23.3333 35.46 23.7066 35.8333 24.1666 35.8333H27.5C27.96 35.8333 28.3334 35.46 28.3334 35C28.3334 34.54 27.96 34.1666 27.5 34.1666Z" fill="#EDEDED"/>
</g>
<defs>
<clipPath id="clip0_738_47144">
<rect width="40" height="40" fill="white" transform="translate(5 5)"/>
</clipPath>
</defs>
</svg>
