<svg width="50" height="50" viewBox="0 0 50 50" fill="none" xmlns="http://www.w3.org/2000/svg">
<rect width="49.9999" height="49.9999" rx="7.49999" fill="#D5A429"/>
<g clip-path="url(#clip0_614_3900)">
<path d="M25.0001 30.1941C25.6982 30.1941 26.2662 30.762 26.2662 31.4602H28.6086C28.6086 29.8803 27.5877 28.5354 26.1713 28.0479V26.6644H23.8289V28.0479C22.4125 28.5354 21.3916 29.8803 21.3916 31.4602C21.3916 33.4499 23.0103 35.0687 25.0001 35.0687C25.6982 35.0687 26.2662 35.6366 26.2662 36.3348C26.2662 37.0329 25.6982 37.6008 25.0001 37.6008C24.302 37.6008 23.734 37.0329 23.734 36.3348H21.3916C21.3916 37.9146 22.4125 39.2595 23.8289 39.747V41.1417H26.1713V39.747C27.5877 39.2595 28.6086 37.9146 28.6086 36.3348C28.6086 34.345 26.9899 32.7262 25.0001 32.7262C24.3021 32.7262 23.734 32.1583 23.734 31.4602C23.734 30.762 24.302 30.1941 25.0001 30.1941Z" fill="#EDEDED"/>
<path d="M44.9887 28.0219H40.2843V4.5H30.8853V9.20438H23.8287V13.9088H16.7722V18.6131H9.71561V28.0219H5.01123V30.3643H15.0035C14.6115 31.47 14.3974 32.6591 14.3974 33.8975C14.3974 39.7437 19.1537 44.5 24.9999 44.5C30.8462 44.5 35.6025 39.7437 35.6025 33.8975C35.6025 32.6591 35.3884 31.47 34.9964 30.3643H44.9887V28.0219ZM26.1712 11.5468H30.8853V25.0828C29.5069 24.1595 27.9011 23.5509 26.1712 23.3599V11.5468ZM19.1146 16.2512H23.8287V23.36C22.0988 23.551 20.493 24.1595 19.1146 25.0828V16.2512ZM12.058 28.0219V20.9556H16.7722V27.2184C16.562 27.4769 16.364 27.745 16.1788 28.0219H12.058ZM24.9999 42.1576C20.4453 42.1576 16.7398 38.4521 16.7398 33.8975C16.7398 29.3429 20.4453 25.6374 24.9999 25.6374C29.5546 25.6374 33.26 29.3429 33.26 33.8975C33.26 38.4521 29.5546 42.1576 24.9999 42.1576ZM37.9419 28.0219H33.8211C33.636 27.7449 33.438 27.4768 33.2277 27.2184V6.84243H37.9419V28.0219Z" fill="#EDEDED"/>
</g>
<defs>
<clipPath id="clip0_614_3900">
<rect width="40" height="40" fill="white" transform="translate(5 4.5)"/>
</clipPath>
</defs>
</svg>
