<svg width="25" height="25" viewBox="0 0 25 25" fill="none" xmlns="http://www.w3.org/2000/svg">
<rect width="25" height="25" rx="5" fill="#D5A429"/>
<path d="M14.1249 16.0436C14.1249 15.5293 13.9996 15.1231 13.7446 14.8292C13.4896 14.5354 13.0445 14.2588 12.4049 13.9995C11.7653 13.7402 11.1733 13.4766 10.6331 13.2087C10.0929 12.9407 9.62619 12.6296 9.23293 12.2795C8.83967 11.9295 8.54149 11.519 8.33405 11.0566C8.12662 10.5941 8.0229 10.0324 8.0229 9.37548C8.0229 8.27349 8.39456 7.36597 9.13786 6.65292C9.88116 5.93987 10.8708 5.525 12.1111 5.404V3.33398H13.6668V5.43857C14.8596 5.61575 15.7973 6.10408 16.4801 6.91221C17.1629 7.72033 17.5 8.74021 17.5 9.98049H14.194C14.194 9.30201 14.0644 8.77911 13.8008 8.4161C13.5415 8.05309 13.1698 7.86727 12.6858 7.86727C12.2537 7.86727 11.9209 8.00123 11.6832 8.27349C11.4456 8.54575 11.3246 8.9174 11.3246 9.39277C11.3246 9.86813 11.4628 10.2571 11.7351 10.5423C12.0074 10.8275 12.4481 11.0954 13.0575 11.3547C13.6625 11.614 14.2373 11.8776 14.7731 12.1585C15.309 12.4351 15.7757 12.7506 16.169 13.1006C16.5622 13.4507 16.8647 13.8655 17.0895 14.3323C17.3099 14.8033 17.4222 15.3651 17.4222 16.0263C17.4222 17.1413 17.0679 18.0531 16.3591 18.7532C15.6504 19.4576 14.6867 19.8681 13.468 19.9848V21.9511H11.9123V19.9762C10.4905 19.8249 9.40147 19.3366 8.64088 18.5155C7.88029 17.6901 7.5 16.6054 7.5 15.2528H10.7973C10.7973 15.9961 10.9615 16.5622 11.29 16.9511C11.6184 17.3401 12.0851 17.5345 12.6945 17.5345C13.1396 17.5345 13.4853 17.4006 13.7403 17.1369C13.9953 16.869 14.1249 16.506 14.1249 16.0436Z" fill="#EDEDED"/>
</svg>
