<svg width="40" height="40" viewBox="0 0 40 40" fill="none" xmlns="http://www.w3.org/2000/svg">
<rect width="40" height="40" rx="6" fill="#D5A429"/>
<mask id="mask0_106_991" style="mask-type:alpha" maskUnits="userSpaceOnUse" x="2" y="2" width="36" height="36">
<g clip-path="url(#clip0_106_991)">
<path d="M6.5 12.5C6.5 13.2956 6.81607 14.0587 7.37868 14.6213C7.94129 15.1839 8.70435 15.5 9.5 15.5C10.2956 15.5 11.0587 15.1839 11.6213 14.6213C12.1839 14.0587 12.5 13.2956 12.5 12.5C12.5 11.7044 12.1839 10.9413 11.6213 10.3787C11.0587 9.81607 10.2956 9.5 9.5 9.5C8.70435 9.5 7.94129 9.81607 7.37868 10.3787C6.81607 10.9413 6.5 11.7044 6.5 12.5Z" stroke="url(#paint0_linear_106_991)" stroke-width="2.5" stroke-linecap="round" stroke-linejoin="round"/>
<path d="M23 24.5C23 25.2956 23.3161 26.0587 23.8787 26.6213C24.4413 27.1839 25.2044 27.5 26 27.5C26.7956 27.5 27.5587 27.1839 28.1213 26.6213C28.6839 26.0587 29 25.2956 29 24.5C29 23.7044 28.6839 22.9413 28.1213 22.3787C27.5587 21.8161 26.7956 21.5 26 21.5C25.2044 21.5 24.4413 21.8161 23.8787 22.3787C23.3161 22.9413 23 23.7044 23 24.5Z" stroke="url(#paint1_linear_106_991)" stroke-width="2.5" stroke-linecap="round" stroke-linejoin="round"/>
<path d="M24.5 11C24.5 12.1935 24.9741 13.3381 25.818 14.182C26.6619 15.0259 27.8065 15.5 29 15.5C30.1935 15.5 31.3381 15.0259 32.182 14.182C33.0259 13.3381 33.5 12.1935 33.5 11C33.5 9.80653 33.0259 8.66193 32.182 7.81802C31.3381 6.97411 30.1935 6.5 29 6.5C27.8065 6.5 26.6619 6.97411 25.818 7.81802C24.9741 8.66193 24.5 9.80653 24.5 11Z" stroke="url(#paint2_linear_106_991)" stroke-width="2.5" stroke-linecap="round" stroke-linejoin="round"/>
<path d="M6.5 29C6.5 30.1935 6.97411 31.3381 7.81802 32.182C8.66193 33.0259 9.80653 33.5 11 33.5C12.1935 33.5 13.3381 33.0259 14.182 32.182C15.0259 31.3381 15.5 30.1935 15.5 29C15.5 27.8065 15.0259 26.6619 14.182 25.818C13.3381 24.9741 12.1935 24.5 11 24.5C9.80653 24.5 8.66193 24.9741 7.81802 25.818C6.97411 26.6619 6.5 27.8065 6.5 29Z" stroke="url(#paint3_linear_106_991)" stroke-width="2.5" stroke-linecap="round" stroke-linejoin="round"/>
<path d="M15.5 27.5L23 25.25" stroke="url(#paint4_linear_106_991)" stroke-width="2.5" stroke-linecap="round" stroke-linejoin="round"/>
<path d="M11.75 14.75L23.465 22.805" stroke="url(#paint5_linear_106_991)" stroke-width="2.5" stroke-linecap="round" stroke-linejoin="round"/>
<path d="M12.5 12.5L24.5 11" stroke="url(#paint6_linear_106_991)" stroke-width="2.5" stroke-linecap="round" stroke-linejoin="round"/>
</g>
</mask>
<g mask="url(#mask0_106_991)">
<rect x="3" y="3" width="34" height="34" fill="#EDEDED"/>
</g>
<defs>
<linearGradient id="paint0_linear_106_991" x1="6.35586" y1="9.5" x2="13.0416" y2="9.77871" gradientUnits="userSpaceOnUse">
<stop stop-color="#BE8143"/>
<stop offset="0.556227" stop-color="#8F664E"/>
<stop offset="1" stop-color="#BB7F44"/>
</linearGradient>
<linearGradient id="paint1_linear_106_991" x1="22.8559" y1="21.5" x2="29.5416" y2="21.7787" gradientUnits="userSpaceOnUse">
<stop stop-color="#BE8143"/>
<stop offset="0.556227" stop-color="#8F664E"/>
<stop offset="1" stop-color="#BB7F44"/>
</linearGradient>
<linearGradient id="paint2_linear_106_991" x1="24.2838" y1="6.5" x2="34.3123" y2="6.91806" gradientUnits="userSpaceOnUse">
<stop stop-color="#BE8143"/>
<stop offset="0.556227" stop-color="#8F664E"/>
<stop offset="1" stop-color="#BB7F44"/>
</linearGradient>
<linearGradient id="paint3_linear_106_991" x1="6.28378" y1="24.5" x2="16.3123" y2="24.9181" gradientUnits="userSpaceOnUse">
<stop stop-color="#BE8143"/>
<stop offset="0.556227" stop-color="#8F664E"/>
<stop offset="1" stop-color="#BB7F44"/>
</linearGradient>
<linearGradient id="paint4_linear_106_991" x1="15.3198" y1="25.25" x2="23.5329" y2="26.3913" gradientUnits="userSpaceOnUse">
<stop stop-color="#BE8143"/>
<stop offset="0.556227" stop-color="#8F664E"/>
<stop offset="1" stop-color="#BB7F44"/>
</linearGradient>
<linearGradient id="paint5_linear_106_991" x1="11.4686" y1="14.75" x2="24.4972" y2="15.5399" gradientUnits="userSpaceOnUse">
<stop stop-color="#BE8143"/>
<stop offset="0.556227" stop-color="#8F664E"/>
<stop offset="1" stop-color="#BB7F44"/>
</linearGradient>
<linearGradient id="paint6_linear_106_991" x1="12.2117" y1="11" x2="24.2657" y2="15.0199" gradientUnits="userSpaceOnUse">
<stop stop-color="#BE8143"/>
<stop offset="0.556227" stop-color="#8F664E"/>
<stop offset="1" stop-color="#BB7F44"/>
</linearGradient>
<clipPath id="clip0_106_991">
<rect width="36" height="36" fill="white" transform="translate(2 2)"/>
</clipPath>
</defs>
</svg>
