<svg width="40" height="40" viewBox="0 0 40 40" fill="none" xmlns="http://www.w3.org/2000/svg">
<rect width="40" height="40" rx="6" fill="#D5A429"/>
<g clip-path="url(#clip0_106_1015)">
<path d="M8.81264 11.4997C9.23202 11.5002 9.64615 11.4064 10.0243 11.2251L11.9967 13.1972C11.7493 14.1746 11.6244 15.179 11.6249 16.1872C11.6249 18.5305 12.2904 20.721 13.4413 22.581L4.82384 31.1983C3.72747 32.2947 3.72722 34.0791 4.82384 35.1756C5.92302 36.2747 7.70202 36.2749 8.80114 35.1756L17.4186 26.5584C19.2784 27.7093 21.4689 28.3745 23.8121 28.3745C30.5324 28.3745 35.9996 22.9073 35.9996 16.1873C35.9996 9.46724 30.5324 4 23.8121 4C18.8568 4 14.5831 6.97312 12.6801 11.2292L11.3503 9.89918C11.5316 9.52093 11.6255 9.10675 11.6249 8.6873C11.6249 7.13643 10.3635 5.875 8.81264 5.875C7.59046 5.875 6.54846 6.65874 6.16127 7.74974C6.00921 8.36532 6.00908 9.00916 6.16112 9.62474C6.54831 10.716 7.59046 11.4997 8.81264 11.4997ZM7.47546 33.8498C7.10902 34.2162 6.51602 34.2162 6.14984 33.8498C5.78409 33.4843 5.78409 32.8896 6.14984 32.5241L14.5614 24.1123C14.9689 24.5874 15.4122 25.0307 15.8873 25.4382L7.47546 33.8498ZM23.8121 26.4995C18.1261 26.4995 13.4999 21.8735 13.4999 16.1872C13.4999 15.715 13.5326 15.2505 13.5944 14.7949L15.6498 16.8503C15.4684 17.2285 15.3745 17.6427 15.3749 18.0622C15.3749 19.613 16.6366 20.8747 18.1874 20.8747C19.7381 20.8747 20.9996 19.613 20.9996 18.0622C21.0001 17.6428 20.9063 17.2286 20.725 16.8503L22.6004 14.9749C22.9786 15.1562 23.3927 15.2502 23.8121 15.2497C24.2316 15.2502 24.6458 15.1562 25.024 14.9749L26.8995 16.8503C26.7182 17.2285 26.6242 17.6427 26.6246 18.0622C26.6246 19.613 27.8864 20.8745 29.4371 20.8745C30.6593 20.8745 31.7013 20.0901 32.0882 18.999H33.7347C32.5074 23.3227 28.5238 26.4995 23.8121 26.4995ZM19.1249 18.0622C19.1249 18.5791 18.7042 18.9997 18.1874 18.9997C17.6705 18.9997 17.2499 18.5791 17.2499 18.0622C17.2499 17.5453 17.6705 17.1247 18.1874 17.1247C18.7042 17.1247 19.1249 17.5453 19.1249 18.0622ZM23.8121 13.3747C23.2952 13.3747 22.8749 12.9544 22.8749 12.4372C22.8749 11.9204 23.2953 11.4997 23.8121 11.4997C24.3292 11.4997 24.7496 11.9204 24.7496 12.4372C24.7496 12.9544 24.3292 13.3747 23.8121 13.3747ZM29.4371 17.1247C29.954 17.1247 30.3746 17.5453 30.3746 18.0622C30.3746 18.5791 29.954 18.9997 29.4371 18.9997C28.9202 18.9997 28.4996 18.5791 28.4996 18.0622C28.4996 17.5453 28.9202 17.1247 29.4371 17.1247ZM23.8121 5.875C29.4984 5.875 34.1246 10.501 34.1246 16.1872C34.1246 16.5034 34.1095 16.8159 34.0814 17.1247H32.0883C31.7013 16.0337 30.6593 15.2497 29.4371 15.2497C29.0177 15.2493 28.6036 15.3433 28.2254 15.5247L26.3497 13.6492C26.5312 13.271 26.6252 12.8569 26.6246 12.4375C26.6246 10.8867 25.3629 9.62499 23.8121 9.62499C22.2613 9.62499 20.9999 10.8867 20.9999 12.4375C20.9993 12.8569 21.0933 13.271 21.2748 13.6492L19.3993 15.5247C19.0321 15.3486 18.621 15.2497 18.1874 15.2497C17.7539 15.2497 17.3429 15.3486 16.9757 15.5247L14.1188 12.668C15.5604 8.70924 19.3614 5.875 23.8121 5.875ZM8.81264 7.74999C9.32952 7.74999 9.75014 8.17043 9.75014 8.68749C9.75014 9.20436 9.32952 9.62499 8.81264 9.62499C8.29558 9.62499 7.87514 9.20436 7.87514 8.68749C7.87514 8.17043 8.29558 7.74999 8.81264 7.74999Z" fill="#EDEDED"/>
</g>
<defs>
<clipPath id="clip0_106_1015">
<rect width="32" height="32" fill="white" transform="translate(4 4)"/>
</clipPath>
</defs>
</svg>
