<svg width="40" height="40" viewBox="0 0 40 40" fill="none" xmlns="http://www.w3.org/2000/svg">
<rect width="40" height="40" rx="6" fill="#D5A429"/>
<g clip-path="url(#clip0_106_1003)">
<path d="M32.775 6C32.0749 6 31.375 6.52501 31.375 7.4V11.95C28.75 8.275 24.55 6 20 6C12.825 6 6.875 11.425 6 18.6C6 19.3 6.52501 20 7.22498 20H7.4C8.09998 20 8.62499 19.475 8.62499 18.775C9.32496 13 14.225 8.62499 20 8.62499C23.85 8.62499 27.525 10.725 29.625 13.875H24.9C24.2 13.875 23.5 14.4 23.5 15.275C23.5 16.15 24.025 16.5 24.9 16.5H32.775C33.475 16.5 34 15.975 34 15.275V7.4C34 6.52501 33.475 6 32.775 6ZM32.775 20C32.0749 20 31.375 20.525 31.375 21.225C30.85 26.9999 25.95 31.375 20 31.375C16.15 31.375 12.475 29.275 10.375 26.1249H15.1C15.8 26.1249 16.5 25.5999 16.5 24.7249C16.5 23.8499 15.975 23.5 15.275 23.5H7.4C6.52501 23.5 6 24.025 6 24.9V32.775C6 33.475 6.52501 34 7.4 34C8.275 34 8.8 33.475 8.8 32.6V28.05C11.25 31.725 15.45 34 20 34C27.175 34 33.125 28.575 34 21.4C34 20.7 33.475 20 32.775 20Z" fill="#EDEDED"/>
</g>
<defs>
<clipPath id="clip0_106_1003">
<rect width="28" height="28" fill="white" transform="translate(6 6)"/>
</clipPath>
</defs>
</svg>
