<svg width="25" height="25" viewBox="0 0 25 25" fill="none" xmlns="http://www.w3.org/2000/svg">
<rect width="25" height="25" rx="5" fill="#D5A429"/>
<path fill-rule="evenodd" clip-rule="evenodd" d="M13.527 16.6982C13.055 16.218 12.7898 15.5722 12.7882 14.899C12.7866 14.2257 13.0486 13.5786 13.5182 13.0962C13.5306 12.4183 13.8053 11.7717 14.2847 11.2923C14.7641 10.8129 15.4107 10.5382 16.0886 10.5258C16.5682 10.0552 17.2133 9.79155 17.8852 9.79155C18.5571 9.79155 19.2022 10.0552 19.6818 10.5258C19.7008 10.5473 19.7259 10.5625 19.7537 10.5693C19.7815 10.576 19.8108 10.5741 19.8375 10.5637C19.8642 10.5533 19.8871 10.535 19.903 10.5111C19.9189 10.4873 19.9272 10.4592 19.9266 10.4305V8.48004C19.9774 8.12377 19.9446 7.76056 19.8308 7.41916C19.717 7.07776 19.5252 6.76755 19.2708 6.51308C19.0163 6.25861 18.7061 6.06686 18.3647 5.95303C18.0233 5.8392 17.6601 5.8064 17.3038 5.85723H6.81256C6.45629 5.8064 6.09308 5.8392 5.75168 5.95303C5.41028 6.06686 5.10007 6.25861 4.8456 6.51308C4.59112 6.76755 4.39938 7.07776 4.28555 7.41916C4.17172 7.76056 4.13892 8.12377 4.18975 8.48004V15.4742C4.13892 15.8305 4.17172 16.1937 4.28555 16.5351C4.39938 16.8765 4.59112 17.1867 4.8456 17.4412C5.10007 17.6956 5.41028 17.8874 5.75168 18.0012C6.09308 18.115 6.45629 18.1478 6.81256 18.097H13.52C13.563 18.0978 13.6055 18.0878 13.6436 18.0678C13.6818 18.0479 13.7143 18.0187 13.7382 17.983C13.7622 17.9472 13.7767 17.906 13.7806 17.8632C13.7845 17.8203 13.7775 17.7772 13.7604 17.7377C13.6076 17.4124 13.5279 17.0576 13.527 16.6982ZM7.68683 9.57288H12.9325C13.1064 9.57288 13.2731 9.64196 13.3961 9.76493C13.5191 9.8879 13.5882 10.0547 13.5882 10.2286C13.5882 10.4025 13.5191 10.5693 13.3961 10.6922C13.2731 10.8152 13.1064 10.8843 12.9325 10.8843H7.68683C7.51293 10.8843 7.34615 10.8152 7.22318 10.6922C7.10021 10.5693 7.03113 10.4025 7.03113 10.2286C7.03113 10.0547 7.10021 9.8879 7.22318 9.76493C7.34615 9.64196 7.51293 9.57288 7.68683 9.57288ZM10.3096 14.3814H7.68683C7.51293 14.3814 7.34615 14.3123 7.22318 14.1893C7.10021 14.0663 7.03113 13.8996 7.03113 13.7257C7.03113 13.5518 7.10021 13.385 7.22318 13.262C7.34615 13.139 7.51293 13.07 7.68683 13.07H10.3096C10.4835 13.07 10.6503 13.139 10.7733 13.262C10.8963 13.385 10.9653 13.5518 10.9653 13.7257C10.9653 13.8996 10.8963 14.0663 10.7733 14.1893C10.6503 14.3123 10.4835 14.3814 10.3096 14.3814ZM21.3045 13.9993C21.1631 13.9018 21.0529 13.7655 20.9872 13.6068C20.9214 13.4481 20.9029 13.2739 20.9338 13.1049C20.9291 12.9176 20.8844 12.7334 20.8025 12.5648C20.7207 12.3962 20.6037 12.2471 20.4593 12.1276C20.315 12.0081 20.1468 11.9208 19.9659 11.8718C19.785 11.8228 19.5957 11.8131 19.4108 11.8434C19.2849 11.831 19.1632 11.7914 19.054 11.7274C18.9449 11.6634 18.851 11.5765 18.7787 11.4727C18.5419 11.2359 18.2209 11.103 17.8861 11.103C17.5513 11.103 17.2302 11.2359 16.9934 11.4727C16.9215 11.5768 16.8276 11.6639 16.7184 11.728C16.6092 11.792 16.4874 11.8314 16.3613 11.8434C16.1538 11.8104 15.9414 11.8271 15.7416 11.892C15.5417 11.9568 15.36 12.0681 15.2114 12.2166C15.0628 12.3652 14.9514 12.5468 14.8864 12.7466C14.8214 12.9464 14.8047 13.1588 14.8375 13.3663C14.8252 13.4924 14.7857 13.6143 14.7217 13.7236C14.6577 13.8329 14.5707 13.927 14.4668 13.9993C14.2303 14.236 14.0975 14.5569 14.0975 14.8915C14.0975 15.2261 14.2303 15.547 14.4668 15.7837C14.6084 15.8808 14.7188 16.0169 14.7846 16.1755C14.8504 16.3341 14.8688 16.5084 14.8375 16.6772C14.8382 16.9967 14.9603 17.304 15.1791 17.5368C15.398 17.7696 15.6971 17.9105 16.016 17.9309L14.9721 21.5941L16.5869 20.9471C17.4215 20.6149 18.3516 20.6149 19.1861 20.9471L20.8009 21.5941L19.757 17.9309C20.0756 17.9103 20.3745 17.7693 20.593 17.5365C20.8115 17.3037 20.9333 16.9965 20.9338 16.6772C20.9113 16.5529 20.9163 16.4252 20.9483 16.3031C20.9803 16.1809 21.0386 16.0672 21.1191 15.9699C21.2716 15.8606 21.3989 15.7199 21.4923 15.5572C21.5858 15.3945 21.6432 15.2136 21.6608 15.0268C21.6783 14.84 21.6556 14.6517 21.5942 14.4744C21.5327 14.2971 21.4339 14.1351 21.3045 13.9993ZM17.8869 16.3485C17.5987 16.3486 17.3168 16.2633 17.077 16.1033C16.8372 15.9432 16.6503 15.7157 16.5398 15.4494C16.4294 15.1831 16.4004 14.89 16.4566 14.6073C16.5127 14.3245 16.6514 14.0647 16.8552 13.8608C17.059 13.6569 17.3187 13.518 17.6014 13.4617C17.8842 13.4054 18.1772 13.4342 18.4436 13.5445C18.7099 13.6548 18.9376 13.8416 19.0978 14.0813C19.258 14.321 19.3435 14.6028 19.3435 14.8911C19.3435 15.2774 19.19 15.648 18.9169 15.9213C18.6438 16.1946 18.2733 16.3482 17.8869 16.3485Z" fill="#EDEDED"/>
</svg>
