<svg width="40" height="40" viewBox="0 0 40 40" fill="none" xmlns="http://www.w3.org/2000/svg">
<rect width="40" height="40" rx="6" fill="#D5A429"/>
<path d="M20 4L6 9.09133V20.408C6 33.1947 19.5858 36.6737 19.7223 36.7087L20 36.7752L20.2777 36.7087C20.4142 36.6737 34 33.1947 34 20.408V9.09133L20 4ZM31.6667 20.408C31.6667 30.5335 21.855 33.8328 20.0047 34.3648C18.2197 33.8363 8.33333 30.446 8.33333 20.408V10.7247L20 6.48267L31.6667 10.7247V20.408Z" fill="#EDEDED"/>
<path d="M13.825 19.5832L12.1753 21.2328L17.6668 26.7243L27.825 16.5662L26.1753 14.9165L17.6668 23.425L13.825 19.5832Z" fill="#EDEDED"/>
</svg>
