<svg width="50" height="50" viewBox="0 0 50 50" fill="none" xmlns="http://www.w3.org/2000/svg">
<rect width="49.9999" height="49.9999" rx="7.49999" fill="#D5A429"/>
<path d="M31.5169 37.8124L27.465 28.3602C27.1443 27.6101 26.6103 26.9708 25.9294 26.5216C25.2484 26.0724 24.4506 25.8331 23.6348 25.8334H13.0308C12.2152 25.8328 11.4174 26.0719 10.7365 26.5208C10.0555 26.9697 9.52145 27.6087 9.20054 28.3585L5.067 38.0058C5.01296 38.1325 4.99108 38.2707 5.00329 38.4079C5.0155 38.5451 5.06144 38.6773 5.137 38.7925C5.21251 38.9079 5.31561 39.0026 5.43698 39.0681C5.55835 39.1336 5.69414 39.1677 5.83204 39.1675H30.867C31.327 39.1675 31.7004 38.7941 31.7004 38.3341C31.7005 38.1444 31.6358 37.9603 31.5169 37.8124ZM7.0954 37.5007L10.7323 29.0152C10.9249 28.5653 11.2455 28.1819 11.6541 27.9126C12.0627 27.6433 12.5414 27.4998 13.0308 27.5001H23.6331C24.1225 27.4998 24.6012 27.6433 25.0098 27.9126C25.4184 28.182 25.7389 28.5653 25.9316 29.0152L29.5685 37.5007H7.0954Z" fill="#EDEDED"/>
<path d="M22.4995 29.167H13.0306C12.8674 29.1669 12.7078 29.2148 12.5715 29.3045C12.4353 29.3943 12.3283 29.5221 12.2639 29.672L10.1204 34.6723C9.93877 35.094 10.1354 35.584 10.5588 35.7657C10.6655 35.8124 10.7772 35.8341 10.8872 35.8341C11.2106 35.8341 11.5189 35.6457 11.6522 35.3291L13.579 30.8338H22.4995C22.9596 30.8338 23.333 30.4604 23.333 30.0004C23.333 29.5403 22.9596 29.167 22.4995 29.167ZM29.1666 14.166H19.6427C19.4797 14.1656 19.3201 14.2133 19.184 14.3031C19.0479 14.3929 18.9414 14.5209 18.8777 14.6711L16.7342 19.6714C16.5525 20.0947 16.7476 20.5848 17.1709 20.7648C17.2775 20.8114 17.3892 20.8332 17.4992 20.8332C17.8226 20.8332 18.1293 20.6448 18.2643 20.3281L20.191 15.8328H29.1666C29.6266 15.8328 30 15.4595 30 14.9994C30 14.5394 29.6266 14.166 29.1666 14.166Z" fill="#EDEDED"/>
<path d="M38.1841 22.8115L34.1322 13.3593C33.8114 12.6092 33.2774 11.9699 32.5965 11.5206C31.9156 11.0714 31.1177 10.8321 30.3019 10.8324H19.6979C18.8823 10.8319 18.0845 11.0709 17.4035 11.5198C16.7226 11.9687 16.1885 12.6078 15.8676 13.3576L11.7341 23.0049C11.6241 23.2615 11.6507 23.5566 11.8041 23.7916C11.9574 24.0266 12.2191 24.1666 12.4991 24.1666H37.5007C37.5107 24.1666 37.5223 24.1649 37.534 24.1666C37.9941 24.1666 38.3675 23.7932 38.3675 23.3332C38.3676 23.1435 38.3029 22.9594 38.1841 22.8115ZM13.7625 22.4998L17.3993 14.0143C17.592 13.5644 17.9125 13.181 18.3211 12.9117C18.7298 12.6424 19.2085 12.4989 19.6979 12.4992H30.3019C30.7913 12.4989 31.27 12.6424 31.6786 12.9117C32.0872 13.1811 32.4077 13.5644 32.6004 14.0143L36.2356 22.4998H13.7625ZM44.9328 38.0075L40.7992 28.3602C40.4784 27.6101 39.9444 26.9708 39.2635 26.5216C38.5826 26.0724 37.7847 25.8331 36.9689 25.8334H29.1668C28.7068 25.8334 28.3334 26.2068 28.3334 26.6668C28.3334 27.1269 28.7068 27.5002 29.1668 27.5002H36.9689C37.4583 27.5 37.937 27.6434 38.3456 27.9127C38.7542 28.1821 39.0748 28.5655 39.2674 29.0153L42.9043 37.5009H34.1671C33.7071 37.5009 33.3337 37.8742 33.3337 38.3343C33.3337 38.7943 33.7071 39.1677 34.1671 39.1677H44.1677C44.3055 39.1679 44.4411 39.1339 44.5624 39.0687C44.6837 39.0035 44.7869 38.9092 44.8628 38.7943C44.9384 38.6791 44.9843 38.5469 44.9965 38.4097C45.0088 38.2724 44.9869 38.1342 44.9328 38.0075Z" fill="#EDEDED"/>
<path d="M35.8337 29.1669H30.8334C30.3734 29.1669 30 29.5403 30 30.0003C30 30.4603 30.3734 30.8337 30.8334 30.8337H35.8337C36.2938 30.8337 36.6671 30.4603 36.6671 30.0003C36.6671 29.5403 36.2938 29.1669 35.8337 29.1669Z" fill="#EDEDED"/>
</svg>
