<svg width="27" height="28" viewBox="0 0 27 28" fill="none" xmlns="http://www.w3.org/2000/svg">
<path d="M7.98262 7.42919C7.39565 9.22123 7.16085 11.2522 7.04347 13.4027H12.9131V7.42919H7.98262ZM5.86958 14.5973H0C0.117373 16.7478 0.704347 18.7788 1.6435 20.5708H6.6913C6.22175 18.7788 5.98695 16.7478 5.86958 14.5973ZM8.33479 6.23452H12.9131V0.977858C11.0348 1.33627 9.39132 3.36726 8.33479 6.23452ZM14.0869 0.977858V6.23452H18.6652C17.6087 3.36726 15.9652 1.33627 14.0869 0.977858ZM19.0174 7.42919H14.0869V13.4027H19.9565C19.8391 11.2522 19.6044 9.22123 19.0174 7.42919ZM21.1304 14.5973C21.1304 16.7478 20.7782 18.7788 20.3087 20.5708H25.3565C26.2957 18.7788 26.8826 16.7478 27 14.5973H21.1304ZM7.04347 14.5973C7.16085 16.7478 7.39565 18.7788 7.98262 20.5708H12.9131V14.5973H7.04347ZM1.6435 7.42919C0.704347 9.22123 0.117373 11.2522 0 13.4027H5.86958C5.98695 11.2522 6.22175 9.22123 6.6913 7.42919H1.6435ZM8.33479 21.7655C9.39132 24.6327 11.0348 26.6637 12.9131 27.0221V21.7655H8.33479ZM7.04347 21.7655H2.34784C4.34351 24.6327 7.27827 26.7832 10.8 27.5C9.27389 26.4248 7.98262 24.3938 7.04347 21.7655ZM19.8391 21.7655C19.0174 24.3938 17.7261 26.4248 16.0826 27.5C19.6043 26.7832 22.6565 24.7522 24.5347 21.7655H19.8391ZM16.2 0.5C17.7261 1.57522 19.0174 3.60622 19.9565 6.23452H24.6522C22.6565 3.36726 19.7217 1.21681 16.2 0.5ZM2.46522 6.23452H7.16085C7.98257 3.60622 9.27389 1.57522 10.9174 0.5C7.39565 1.21681 4.34346 3.24775 2.46522 6.23452ZM14.0869 21.7655V27.0221C15.9652 26.6637 17.6087 24.6327 18.6652 21.7655H14.0869ZM14.0869 14.5973V20.5708H19.0174C19.6044 18.7788 19.8391 16.7478 19.9565 14.5973H14.0869ZM25.3565 7.42919H20.3087C20.7782 9.22123 21.013 11.2522 21.1304 13.4027H27C26.8826 11.2522 26.2957 9.22123 25.3565 7.42919Z" fill="#EDEDED"/>
</svg>
