<svg width="25" height="26" viewBox="0 0 25 26" fill="none" xmlns="http://www.w3.org/2000/svg">
<rect y="0.5" width="25" height="25" rx="4.99999" fill="#D5A429"/>
<path d="M17.9025 12.8419C17.9025 9.99017 16.3684 7.48866 14.0434 6.13304C17.8615 5.94721 21.0825 9.0074 21.0825 12.8419C21.0825 16.68 17.858 19.7365 14.0434 19.5508C16.3234 18.2214 17.9025 15.7441 17.9025 12.8419Z" fill="#EDEDED"/>
<path d="M10.154 6.12598C6.44892 6.12598 3.4375 9.14093 3.4375 12.8425C3.4375 16.5446 6.44951 19.559 10.154 19.559C13.8573 19.559 16.8705 16.5458 16.8705 12.8425C16.8705 9.13917 13.8573 6.12598 10.154 6.12598ZM10.6732 16.3357V17.1003C10.6732 17.3868 10.4406 17.6194 10.154 17.6194C9.86744 17.6194 9.63486 17.3868 9.63486 17.1003V16.3357C9.21157 16.3357 8.61347 16.3922 7.90745 15.9024C7.67209 15.739 7.6136 15.4154 7.77696 15.1797C7.94033 14.9444 8.26393 14.8859 8.49929 15.0493C8.71224 15.1983 8.97155 15.2947 9.2396 15.2974H10.9822C11.5155 15.2974 11.9496 14.8659 11.9496 14.3294C11.9496 13.7957 11.5156 13.3616 10.9819 13.3616H9.32613C8.21998 13.3616 7.32011 12.4618 7.32011 11.3556C7.32011 10.362 7.99352 9.34925 9.63486 9.34925V8.58471C9.63486 8.29813 9.86744 8.06555 10.154 8.06555C10.4406 8.06555 10.6732 8.29813 10.6732 8.58471V9.34925C10.9499 9.34925 11.2976 9.32766 11.7693 9.51607V9.51642C12.124 9.65815 12.4499 9.89738 12.6394 10.1141V10.1145C12.8278 10.3238 12.8155 10.6453 12.6082 10.8399C12.403 11.0332 12.0743 11.0286 11.8745 10.8164C11.6222 10.5468 11.2757 10.3907 10.9238 10.3876H9.32578C8.79867 10.3876 8.35842 10.8134 8.35842 11.3556C8.35842 11.8893 8.79244 12.3233 9.32613 12.3233H10.9819C12.0894 12.3233 12.9879 13.2246 12.9879 14.3294C12.9879 15.3928 12.244 16.3357 10.6732 16.3357Z" fill="#EDEDED"/>
</svg>
