<svg width="50" height="50" viewBox="0 0 50 50" fill="none" xmlns="http://www.w3.org/2000/svg">
<rect width="49.9999" height="49.9999" rx="7.49999" fill="#D5A429"/>
<g clip-path="url(#clip0_738_47099)">
<path d="M14.7397 26.9214C13.3114 25.5681 7.59993 25.1298 5.88334 25.0281C5.64998 25.0197 5.42835 25.0964 5.26171 25.2531C5.17903 25.331 5.11316 25.425 5.06815 25.5294C5.02314 25.6337 4.99995 25.7461 5 25.8598V40.8594C5 41.3194 5.37335 41.6927 5.83334 41.6927H10.8332C11.1932 41.6927 11.5132 41.4611 11.6248 41.1177C11.7465 40.7444 14.6181 31.9313 14.9964 27.5981C15.0181 27.3447 14.9247 27.0947 14.7397 26.9214ZM10.2249 40.026H6.6666V26.7531C9.34488 26.9647 12.2348 27.4247 13.2848 27.9347C12.8431 31.5846 10.8448 38.0694 10.2249 40.026Z" fill="#EDEDED"/>
<path d="M44.9123 37.1545C43.7539 34.8395 41.194 33.6612 38.6824 34.2896L32.2976 35.8862C31.851 35.9978 31.5793 36.4495 31.691 36.8961C31.8026 37.3428 32.2543 37.6145 32.701 37.5027L39.0858 35.9061C40.5441 35.5445 42.0257 36.0528 42.944 37.1661L34.6826 40.9227C27.6745 43.7942 27.4328 43.7026 24.4296 42.5692L11.9299 38.4027C11.8262 38.3677 11.7166 38.3536 11.6074 38.3612C11.4982 38.3688 11.3915 38.3979 11.2936 38.4468C11.1957 38.4958 11.1085 38.5636 11.0369 38.6464C10.9653 38.7292 10.9108 38.8254 10.8766 38.9293C10.7316 39.366 10.9666 39.8377 11.4032 39.9827L23.8712 44.1392C25.2728 44.6676 26.2395 44.9742 27.3261 44.9742C29.0161 44.9725 30.996 44.2342 35.3459 42.4526L44.5123 38.2861C44.6141 38.2398 44.7056 38.1734 44.7812 38.0909C44.8568 38.0084 44.915 37.9116 44.9523 37.8061C45.0273 37.5911 45.0139 37.3577 44.9123 37.1545Z" fill="#EDEDED"/>
<path d="M29.3459 31.713L14.3463 28.3798C13.9047 28.2848 13.4514 28.5631 13.3514 29.0131C13.253 29.4631 13.5347 29.9081 13.9847 30.0081L28.9627 33.3364C30.8092 33.798 31.5509 34.5247 31.6526 36.0463L30.0526 36.4463C29.461 36.5963 28.8293 36.6113 28.226 36.4896L20.9962 35.043C20.5362 34.9464 20.1063 35.2447 20.0163 35.6964C19.9263 36.148 20.2179 36.5863 20.6696 36.6763L27.901 38.1229C28.276 38.1979 28.661 38.2346 29.0444 38.2346C29.521 38.2346 29.9993 38.1762 30.4577 38.0612L32.701 37.5012C32.8813 37.4562 33.0414 37.3521 33.1558 37.2057C33.2702 37.0592 33.3325 36.8788 33.3326 36.6929V36.4296C33.3325 33.8563 32.1108 32.403 29.3459 31.713Z" fill="#EDEDED"/>
<path d="M36.4941 18.69C36.4162 18.588 36.3158 18.5054 36.2008 18.4484C36.0857 18.3915 35.9591 18.3618 35.8308 18.3616H22.4979C22.3689 18.3617 22.2417 18.3916 22.1263 18.4492C22.0109 18.5067 21.9105 18.5903 21.8329 18.6933C21.6629 18.9183 17.6614 24.2631 15.888 28.868C15.7231 29.2963 15.9364 29.778 16.3664 29.9446C16.7914 30.108 17.2764 29.8962 17.443 29.4663C18.888 25.7114 22.0229 21.2631 22.9195 20.0265H35.4158C37.3691 22.6564 41.6656 29.1513 41.6656 32.5262C41.6656 33.3345 41.579 34.1345 41.409 34.8995C41.3106 35.3495 41.5923 35.7944 42.0423 35.8944C42.1023 35.9078 42.164 35.9144 42.224 35.9144C42.6056 35.9144 42.9489 35.6494 43.0356 35.2611C43.2322 34.3778 43.3322 33.4578 43.3322 32.5262C43.3323 27.7214 36.7741 19.055 36.4941 18.69ZM35.8325 15.0267H22.4995C22.0395 15.0267 21.6662 15.4001 21.6662 15.8601C21.6662 16.3201 22.0395 16.6934 22.4995 16.6934H35.8325C36.2925 16.6934 36.6658 16.3201 36.6658 15.8601C36.6658 15.4001 36.2925 15.0267 35.8325 15.0267ZM39.7557 5.27035C39.5007 5.01536 39.1157 4.95536 38.7941 5.11372L32.6642 8.17863L29.7559 5.27035C29.431 4.94536 28.9026 4.94536 28.5776 5.27035L25.6693 8.17863L19.5396 5.11364C19.2196 4.95364 18.8312 5.01528 18.578 5.27027C18.454 5.39406 18.3722 5.55373 18.3441 5.72664C18.316 5.89955 18.343 6.07692 18.4213 6.23361L21.7546 12.9001C21.824 13.0382 21.9304 13.1544 22.0619 13.2356C22.1935 13.3168 22.345 13.3599 22.4996 13.3601H35.8326C36.1476 13.3601 36.4359 13.1817 36.5792 12.8984L39.9125 6.23197C39.9904 6.07546 40.0171 5.89844 39.989 5.7259C39.9609 5.55335 39.8793 5.394 39.7557 5.27035ZM35.3175 11.6935H23.0145L21.0295 7.72357L25.4611 9.93851C25.7811 10.0969 26.1677 10.0369 26.4227 9.78187L29.166 7.03858L31.9109 9.78187C32.0342 9.90602 32.1936 9.98802 32.3663 10.0162C32.539 10.0443 32.7162 10.0171 32.8725 9.93851L37.3024 7.72357L35.3175 11.6935Z" fill="#EDEDED"/>
<path d="M29.3392 28.378L29.1559 28.343C27.4593 28.0296 26.6676 27.5063 26.6676 26.693C26.6676 25.7897 27.8126 25.0264 29.1692 25.0264C30.4741 25.0264 31.5957 25.7348 31.6691 26.603C31.7074 27.0614 32.1274 27.4196 32.5691 27.363C33.0274 27.3246 33.3674 26.9214 33.329 26.463C33.179 24.6931 31.3907 23.3597 29.1675 23.3597C26.8692 23.3597 24.9993 24.8547 24.9993 26.693C24.9993 28.4046 26.2942 29.5113 28.9992 30.0096L29.1808 30.0429C30.8757 30.3563 31.6657 30.8795 31.6657 31.6929C31.6657 32.1612 31.3657 32.5095 31.1141 32.7212C30.7608 33.0162 30.7141 33.5428 31.0091 33.8945C31.0874 33.9881 31.1854 34.0633 31.2959 34.1148C31.4065 34.1664 31.5271 34.193 31.6491 34.1929C31.8374 34.1929 32.0274 34.1295 32.1857 33.9995C32.9257 33.3795 33.334 32.5612 33.334 31.6946C33.3341 29.9813 32.0392 28.8763 29.3392 28.378Z" fill="#EDEDED"/>
<path d="M29.1659 21.6932C28.7059 21.6932 28.3325 22.0666 28.3325 22.5266V31.693C28.3325 32.153 28.7059 32.5264 29.1659 32.5264C29.6258 32.5264 29.9992 32.153 29.9992 31.693V22.5266C29.9992 22.0666 29.6258 21.6932 29.1659 21.6932Z" fill="#EDEDED"/>
</g>
<defs>
<clipPath id="clip0_738_47099">
<rect width="40" height="40" fill="white" transform="translate(5 5)"/>
</clipPath>
</defs>
</svg>
