<svg width="50" height="50" viewBox="0 0 50 50" fill="none" xmlns="http://www.w3.org/2000/svg">
<rect width="49.9999" height="49.9999" rx="7.49999" fill="#D5A429"/>
<g clip-path="url(#clip0_612_7172)">
<path d="M39.1666 5.33337H10.8334C7.61664 5.33337 5 7.95001 5 11.1667V37.8333C5 41.0499 7.61664 43.6667 10.8334 43.6667H39.1667C42.3834 43.6667 45.0001 41.05 45.0001 37.8333V11.1667C45 7.95001 42.3834 5.33337 39.1666 5.33337ZM43.3334 37.8334C43.3334 40.13 41.465 42 39.1667 42H10.8334C8.535 42 6.66672 40.13 6.66672 37.8334V11.1667C6.66664 8.87001 8.535 7.00001 10.8334 7.00001H39.1667C41.4651 7.00001 43.3334 8.87001 43.3334 11.1667V37.8334Z" fill="#EDEDED"/>
<path d="M13.3334 11.1666C11.495 11.1666 10 12.6616 10 14.5C10 16.3383 11.495 17.8333 13.3334 17.8333C15.1717 17.8333 16.6667 16.3383 16.6667 14.5C16.6666 12.6616 15.1716 11.1666 13.3334 11.1666ZM13.3334 16.1666C12.4134 16.1666 11.6667 15.4183 11.6667 14.5C11.6667 13.5816 12.4134 12.8333 13.3334 12.8333C14.2534 12.8333 15 13.5816 15 14.5C15 15.4183 14.2534 16.1666 13.3334 16.1666ZM21.6666 11.1666C19.8283 11.1666 18.3333 12.6616 18.3333 14.5C18.3333 16.3383 19.8283 17.8333 21.6666 17.8333C23.505 17.8333 25 16.3383 25 14.5C25 12.6616 23.505 11.1666 21.6666 11.1666ZM21.6666 16.1666C20.7466 16.1666 20 15.4183 20 14.5C20 13.5816 20.7466 12.8333 21.6666 12.8333C22.5866 12.8333 23.3333 13.5817 23.3333 14.5C23.3334 15.4183 22.5866 16.1666 21.6666 16.1666ZM36.6666 11.1666C34.8283 11.1666 33.3333 12.6616 33.3333 14.5C33.3333 16.3383 34.8283 17.8333 36.6666 17.8333C38.505 17.8333 40 16.3383 40 14.5C40 12.6616 38.505 11.1666 36.6666 11.1666ZM36.6666 16.1666C35.7466 16.1666 35 15.4183 35 14.5C35 13.5816 35.7466 12.8333 36.6666 12.8333C37.5866 12.8333 38.3333 13.5817 38.3333 14.5C38.3334 15.4183 37.5866 16.1666 36.6666 16.1666ZM13.3334 21.1666C11.495 21.1666 10 22.6616 10 24.5C10 26.3383 11.495 27.8333 13.3334 27.8333C15.1717 27.8333 16.6667 26.3383 16.6667 24.5C16.6667 22.6616 15.1716 21.1666 13.3334 21.1666ZM13.3334 26.1666C12.4134 26.1666 11.6667 25.4183 11.6667 24.5C11.6667 23.5816 12.4134 22.8333 13.3334 22.8333C14.2534 22.8333 15 23.5816 15 24.5C15 25.4183 14.2534 26.1666 13.3334 26.1666ZM28.3334 21.1666C26.495 21.1666 25 22.6616 25 24.5C25 26.3383 26.495 27.8333 28.3334 27.8333C30.1717 27.8333 31.6667 26.3383 31.6667 24.5C31.6667 22.6616 30.1716 21.1666 28.3334 21.1666ZM28.3334 26.1666C27.4134 26.1666 26.6667 25.4183 26.6667 24.5C26.6667 23.5816 27.4134 22.8333 28.3334 22.8333C29.2534 22.8333 30 23.5816 30 24.5C30 25.4183 29.2534 26.1666 28.3334 26.1666ZM36.6666 21.1666C34.8283 21.1666 33.3333 22.6616 33.3333 24.5C33.3333 26.3383 34.8283 27.8333 36.6666 27.8333C38.505 27.8333 40 26.3383 40 24.5C40 22.6616 38.505 21.1666 36.6666 21.1666ZM36.6666 26.1666C35.7466 26.1666 35 25.4183 35 24.5C35 23.5816 35.7466 22.8333 36.6666 22.8333C37.5866 22.8333 38.3333 23.5817 38.3333 24.5C38.3334 25.4183 37.5866 26.1666 36.6666 26.1666ZM13.3334 31.1666C11.495 31.1666 10 32.6616 10 34.5C10 36.3383 11.495 37.8333 13.3334 37.8333C15.1717 37.8333 16.6667 36.3383 16.6667 34.5C16.6666 32.6616 15.1716 31.1666 13.3334 31.1666ZM13.3334 36.1666C12.4134 36.1666 11.6667 35.4183 11.6667 34.5C11.6667 33.5816 12.4134 32.8333 13.3334 32.8333C14.2534 32.8333 15 33.5816 15 34.5C15 35.4183 14.2534 36.1666 13.3334 36.1666ZM21.6666 31.1666C19.8283 31.1666 18.3333 32.6616 18.3333 34.5C18.3333 36.3383 19.8283 37.8333 21.6666 37.8333C23.505 37.8333 25 36.3383 25 34.5C25 32.6616 23.505 31.1666 21.6666 31.1666ZM21.6666 36.1666C20.7466 36.1666 20 35.4183 20 34.5C20 33.5816 20.7466 32.8333 21.6666 32.8333C22.5866 32.8333 23.3333 33.5817 23.3333 34.5C23.3334 35.4183 22.5866 36.1666 21.6666 36.1666ZM30 31.1666C28.1616 31.1666 26.6666 32.6616 26.6666 34.5C26.6666 36.3383 28.1616 37.8333 30 37.8333C31.8384 37.8333 33.3334 36.3383 33.3334 34.5C33.3334 32.6616 31.8384 31.1666 30 31.1666ZM30 36.1666C29.08 36.1666 28.3334 35.4183 28.3334 34.5C28.3334 33.5816 29.08 32.8333 30 32.8333C30.92 32.8333 31.6666 33.5817 31.6666 34.5C31.6666 35.4183 30.92 36.1666 30 36.1666Z" fill="#EDEDED"/>
<path d="M10 13.6666H5.83336C5.37336 13.6666 5 14.04 5 14.5C5 14.96 5.37336 15.3333 5.83336 15.3333H10C10.46 15.3333 10.8334 14.96 10.8334 14.5C10.8334 14.04 10.46 13.6666 10 13.6666ZM19.1666 13.6666H15.8333C15.3733 13.6666 14.9999 14.04 14.9999 14.5C14.9999 14.96 15.3733 15.3333 15.8333 15.3333H19.1666C19.6266 15.3333 20 14.96 20 14.5C20 14.04 19.6266 13.6666 19.1666 13.6666ZM34.1666 13.6666H24.1666C23.7066 13.6666 23.3333 14.04 23.3333 14.5C23.3333 14.96 23.7066 15.3333 24.1666 15.3333H34.1666C34.6266 15.3333 35 14.96 35 14.5C35 14.04 34.6266 13.6666 34.1666 13.6666ZM44.1666 13.6666H39.1666C38.7066 13.6666 38.3333 14.04 38.3333 14.5C38.3333 14.96 38.7066 15.3333 39.1666 15.3333H44.1666C44.6266 15.3333 45 14.96 45 14.5C45 14.04 44.6266 13.6666 44.1666 13.6666ZM10.8334 23.6666H5.83336C5.37336 23.6666 5 24.04 5 24.5C5 24.96 5.37336 25.3333 5.83336 25.3333H10.8334C11.2934 25.3333 11.6667 24.96 11.6667 24.5C11.6666 24.04 11.2934 23.6666 10.8334 23.6666ZM44.1666 23.6666H39.1666C38.7066 23.6666 38.3333 24.04 38.3333 24.5C38.3333 24.96 38.7066 25.3333 39.1666 25.3333H44.1666C44.6266 25.3333 45 24.96 45 24.5C45 24.04 44.6266 23.6666 44.1666 23.6666ZM44.1666 33.6666H32.5C32.04 33.6666 31.6666 34.04 31.6666 34.5C31.6666 34.96 32.04 35.3333 32.5 35.3333H44.1666C44.6266 35.3333 45 34.96 45 34.5C45 34.04 44.6266 33.6666 44.1666 33.6666ZM10.8334 33.6666H5.83336C5.37336 33.6666 5 34.04 5 34.5C5 34.96 5.37336 35.3333 5.83336 35.3333H10.8334C11.2934 35.3333 11.6667 34.96 11.6667 34.5C11.6666 34.04 11.2934 33.6666 10.8334 33.6666ZM34.1666 23.6666H30.8333C30.3733 23.6666 29.9999 24.04 29.9999 24.5C29.9999 24.96 30.3733 25.3333 30.8333 25.3333H34.1666C34.6266 25.3333 35 24.96 35 24.5C35 24.04 34.6266 23.6666 34.1666 23.6666ZM25.8334 23.6666H15.8334C15.3734 23.6666 15 24.04 15 24.5C15 24.96 15.3734 25.3333 15.8334 25.3333H25.8334C26.2934 25.3333 26.6667 24.96 26.6667 24.5C26.6666 24.04 26.2934 23.6666 25.8334 23.6666ZM19.1666 33.6666H15.8333C15.3733 33.6666 14.9999 34.04 14.9999 34.5C14.9999 34.96 15.3733 35.3333 15.8333 35.3333H19.1666C19.6266 35.3333 20 34.96 20 34.5C20 34.04 19.6266 33.6666 19.1666 33.6666ZM27.5 33.6666H24.1666C23.7066 33.6666 23.3333 34.04 23.3333 34.5C23.3333 34.96 23.7066 35.3333 24.1666 35.3333H27.5C27.96 35.3333 28.3334 34.96 28.3334 34.5C28.3334 34.04 27.96 33.6666 27.5 33.6666Z" fill="#EDEDED"/>
</g>
<defs>
<clipPath id="clip0_612_7172">
<rect width="40" height="40" fill="white" transform="translate(5 4.5)"/>
</clipPath>
</defs>
</svg>
