<svg width="170" height="58" viewBox="0 0 170 58" fill="none" xmlns="http://www.w3.org/2000/svg">
<path d="M90.9677 25V2.6H96.1517V20.776H107.384V25H90.9677ZM120.785 25.384C119.014 25.384 117.372 25.096 115.857 24.52C114.364 23.944 113.062 23.1333 111.953 22.088C110.865 21.0427 110.012 19.816 109.393 18.408C108.796 17 108.497 15.464 108.497 13.8C108.497 12.136 108.796 10.6 109.393 9.192C110.012 7.784 110.876 6.55733 111.985 5.512C113.094 4.46667 114.396 3.656 115.889 3.08C117.382 2.504 119.004 2.216 120.753 2.216C122.524 2.216 124.145 2.504 125.617 3.08C127.11 3.656 128.401 4.46667 129.489 5.512C130.598 6.55733 131.462 7.784 132.081 9.192C132.7 10.5787 133.009 12.1147 133.009 13.8C133.009 15.464 132.7 17.0107 132.081 18.44C131.462 19.848 130.598 21.0747 129.489 22.12C128.401 23.144 127.11 23.944 125.617 24.52C124.145 25.096 122.534 25.384 120.785 25.384ZM120.753 20.968C121.756 20.968 122.673 20.7973 123.505 20.456C124.358 20.1147 125.105 19.624 125.745 18.984C126.385 18.344 126.876 17.5867 127.217 16.712C127.58 15.8373 127.761 14.8667 127.761 13.8C127.761 12.7333 127.58 11.7627 127.217 10.888C126.876 10.0133 126.385 9.256 125.745 8.616C125.126 7.976 124.39 7.48533 123.537 7.144C122.684 6.80267 121.756 6.632 120.753 6.632C119.75 6.632 118.822 6.80267 117.969 7.144C117.137 7.48533 116.401 7.976 115.761 8.616C115.121 9.256 114.62 10.0133 114.257 10.888C113.916 11.7627 113.745 12.7333 113.745 13.8C113.745 14.8453 113.916 15.816 114.257 16.712C114.62 17.5867 115.11 18.344 115.729 18.984C116.369 19.624 117.116 20.1147 117.969 20.456C118.822 20.7973 119.75 20.968 120.753 20.968Z" fill="#EDEDED"/>
<path d="M97.3621 54.4852C95.3701 54.4852 93.5341 54.1732 91.8541 53.5492C90.1981 52.9012 88.7461 51.9892 87.4981 50.8132C86.2741 49.6372 85.3141 48.2572 84.6181 46.6732C83.9461 45.0892 83.6101 43.3492 83.6101 41.4532C83.6101 39.5572 83.9461 37.8172 84.6181 36.2332C85.3141 34.6492 86.2861 33.2692 87.5341 32.0932C88.7821 30.9172 90.2461 30.0172 91.9261 29.3932C93.6061 28.7452 95.4541 28.4212 97.4701 28.4212C99.7021 28.4212 101.706 28.7932 103.482 29.5372C105.282 30.2812 106.794 31.3612 108.018 32.7772L104.274 36.2332C103.362 35.2732 102.366 34.5652 101.286 34.1092C100.206 33.6292 99.0301 33.3892 97.7581 33.3892C96.5341 33.3892 95.4181 33.5812 94.4101 33.9652C93.4021 34.3492 92.5261 34.9012 91.7821 35.6212C91.0621 36.3412 90.4981 37.1932 90.0901 38.1772C89.7061 39.1612 89.5141 40.2532 89.5141 41.4532C89.5141 42.6292 89.7061 43.7092 90.0901 44.6932C90.4981 45.6772 91.0621 46.5412 91.7821 47.2852C92.5261 48.0052 93.3901 48.5572 94.3741 48.9412C95.3821 49.3252 96.4861 49.5172 97.6861 49.5172C98.8381 49.5172 99.9541 49.3372 101.034 48.9772C102.138 48.5932 103.206 47.9572 104.238 47.0692L107.55 51.2812C106.182 52.3132 104.586 53.1052 102.762 53.6572C100.962 54.2092 99.1621 54.4852 97.3621 54.4852ZM102.222 50.5252V41.0572H107.55V51.2812L102.222 50.5252ZM125.208 54.4852C123.216 54.4852 121.368 54.1612 119.664 53.5132C117.984 52.8652 116.52 51.9532 115.272 50.7772C114.048 49.6012 113.088 48.2212 112.392 46.6372C111.72 45.0532 111.384 43.3252 111.384 41.4532C111.384 39.5812 111.72 37.8532 112.392 36.2692C113.088 34.6852 114.06 33.3052 115.308 32.1292C116.556 30.9532 118.02 30.0412 119.7 29.3932C121.38 28.7452 123.204 28.4212 125.172 28.4212C127.164 28.4212 128.988 28.7452 130.644 29.3932C132.324 30.0412 133.776 30.9532 135 32.1292C136.248 33.3052 137.22 34.6852 137.916 36.2692C138.612 37.8292 138.96 39.5572 138.96 41.4532C138.96 43.3252 138.612 45.0652 137.916 46.6732C137.22 48.2572 136.248 49.6372 135 50.8132C133.776 51.9652 132.324 52.8652 130.644 53.5132C128.988 54.1612 127.176 54.4852 125.208 54.4852ZM125.172 49.5172C126.3 49.5172 127.332 49.3252 128.268 48.9412C129.228 48.5572 130.068 48.0052 130.788 47.2852C131.508 46.5652 132.06 45.7132 132.444 44.7292C132.852 43.7452 133.056 42.6532 133.056 41.4532C133.056 40.2532 132.852 39.1612 132.444 38.1772C132.06 37.1932 131.508 36.3412 130.788 35.6212C130.092 34.9012 129.264 34.3492 128.304 33.9652C127.344 33.5812 126.3 33.3892 125.172 33.3892C124.044 33.3892 123 33.5812 122.04 33.9652C121.104 34.3492 120.276 34.9012 119.556 35.6212C118.836 36.3412 118.272 37.1932 117.864 38.1772C117.48 39.1612 117.288 40.2532 117.288 41.4532C117.288 42.6292 117.48 43.7212 117.864 44.7292C118.272 45.7132 118.824 46.5652 119.52 47.2852C120.24 48.0052 121.08 48.5572 122.04 48.9412C123 49.3252 124.044 49.5172 125.172 49.5172Z" fill="#EDEDED"/>
<circle cx="52.5327" cy="29.1542" r="24.5327" fill="url(#paint0_linear_205_31)"/>
<defs>
<linearGradient id="paint0_linear_205_31" x1="44.6472" y1="53.6869" x2="77.9789" y2="20.4145" gradientUnits="userSpaceOnUse">
<stop stop-color="#986621"/>
<stop offset="0.159075" stop-color="#F0E193"/>
<stop offset="0.782152" stop-color="#916026"/>
<stop offset="1" stop-color="#EBDA8D"/>
</linearGradient>
</defs>
</svg>
