<svg width="320" height="935" viewBox="0 0 320 935" fill="none" xmlns="http://www.w3.org/2000/svg">
<mask id="mask0_1132_14625" style="mask-type:alpha" maskUnits="userSpaceOnUse" x="0" y="0" width="320" height="935">
<rect width="320" height="935" fill="#D9D9D9"/>
</mask>
<g mask="url(#mask0_1132_14625)">
<path d="M479.192 713.935C489.998 706.961 494.789 699.898 493.699 692.693C489.873 667.385 413.661 644.388 339.955 622.141C271.036 601.333 199.772 579.834 197.505 558.23C195.624 540.298 240.538 523.456 334.81 506.741C423.609 490.985 465.664 475.721 463.372 460.099C460.455 440.191 388.254 422.704 311.805 404.19C231.646 384.776 148.764 364.694 144.783 341.19C141.81 323.655 182.864 305.974 270.317 287.142C349.802 270.022 387.619 251.532 385.942 230.636C383.544 200.598 300.927 169.798 213.476 137.197C116.719 101.129 16.6804 63.8278 12.5557 23.8285C9.47598 -5.99476 60.3362 -33.8 168.039 -61.1763L167.596 -61.9994C59.4472 -34.5204 8.39473 -6.46522 11.5058 23.7545C15.6956 64.3533 116.087 101.768 213.174 137.968C300.27 170.44 382.549 201.115 384.9 230.546C386.541 251.046 348.912 269.292 269.888 286.312C181.95 305.252 140.697 323.204 143.741 341.174C147.842 365.349 231.119 385.524 311.662 405.027C387.706 423.445 459.522 440.842 462.336 460.082C464.565 475.268 422.709 490.256 334.416 505.921C239.659 522.734 194.538 539.828 196.468 558.179C198.802 580.426 267.269 601.085 339.745 622.962C413.093 645.097 488.944 667.987 492.672 692.67C495.141 709.063 465.932 724.761 403.345 740.666L403.783 741.49C439.774 732.335 464.811 723.207 479.192 713.935Z" fill="url(#paint0_linear_1132_14625)" fill-opacity="0.2"/>
<path d="M472.205 723.799C483.511 716.511 488.532 709.119 487.426 701.555C483.655 675.724 408.485 652.051 335.791 629.155C267.776 607.744 197.465 585.6 195.299 563.516C193.515 545.294 237.403 528.3 329.472 511.516C416.27 495.707 457.383 480.299 455.153 464.406C452.296 444.088 381.152 426.061 305.826 406.982C226.854 386.97 145.183 366.28 141.231 342.252C138.293 324.401 178.398 306.518 263.835 287.57C341.33 270.38 378.257 251.724 376.712 230.533C374.479 199.843 292.852 168.175 206.447 134.639C110.837 97.5427 11.9791 59.1833 8.0163 18.2653C5.09448 -12.0159 54.6959 -40.113 159.69 -67.6402L159.248 -68.4585C53.8332 -40.8223 4.0403 -12.4704 7.01154 18.1948C11.0214 59.6902 110.225 98.1885 206.161 135.413C292.22 168.814 373.506 200.347 375.694 230.44C377.217 251.228 340.489 269.643 263.435 286.736C177.513 305.792 137.218 323.944 140.233 342.23C144.292 366.907 226.353 387.694 305.703 407.791C380.625 426.774 451.393 444.701 454.161 464.358C456.332 479.794 415.44 494.953 329.14 510.673C236.583 527.535 192.484 544.791 194.313 563.438C196.536 586.167 264.089 607.425 335.613 629.957C407.949 652.735 482.755 676.292 486.44 701.506C488.874 718.172 460.369 734.057 399.283 750.081L399.726 750.899C433.937 741.932 458.014 732.945 472.205 723.799Z" fill="url(#paint1_linear_1132_14625)" fill-opacity="0.2"/>
<path d="M465.382 733.842C477.201 726.229 482.472 718.5 481.346 710.547C477.63 684.17 403.472 659.813 331.756 636.269C264.626 614.224 195.219 591.441 193.17 568.856C191.488 550.337 234.376 533.168 324.277 516.35C409.107 500.483 449.283 484.92 447.107 468.753C444.324 448.009 374.193 429.442 299.951 409.774C222.136 389.162 141.648 367.841 137.741 343.296C134.832 325.129 173.997 307.032 257.467 287.967C333.014 270.717 369.05 251.885 367.642 230.402C365.588 199.053 284.92 166.472 199.516 131.998C105.017 93.8434 7.30267 54.3968 3.52401 12.542C0.742036 -18.1846 49.1338 -46.5757 151.451 -74.2732L150.993 -75.0943C48.2601 -47.2934 -0.319096 -18.653 2.49775 12.4597C6.33668 54.88 104.379 94.4732 199.208 132.76C284.266 167.094 364.613 199.542 366.629 230.313C368.016 251.398 332.164 269.991 257.059 287.144C173.117 306.31 133.763 324.672 136.743 343.269C140.776 368.464 221.624 389.878 299.819 410.59C373.653 430.142 443.409 448.613 446.121 468.709C448.232 484.416 408.273 499.73 323.936 515.513C233.566 532.412 190.472 549.838 192.183 568.774C194.282 591.985 260.969 613.876 331.565 637.058C402.936 660.503 476.739 684.727 480.366 710.513C482.75 727.458 454.944 743.521 395.357 759.649L395.821 760.475C428.291 751.66 451.418 742.842 465.382 733.842Z" fill="url(#paint2_linear_1132_14625)" fill-opacity="0.2"/>
<path d="M458.725 744.049C471.075 736.094 476.597 728.007 475.47 719.664C471.82 692.702 398.635 667.669 327.866 643.441C258.543 619.712 193.065 597.304 191.136 574.212C189.563 555.41 231.463 538.074 319.227 521.197C402.103 505.27 441.37 489.539 439.261 473.11C436.534 451.927 367.402 432.798 294.216 412.545C217.507 391.317 138.179 369.35 134.305 344.262C131.44 325.782 169.673 307.465 251.198 288.29C324.799 270.969 359.971 251.972 358.709 230.201C356.846 198.167 277.093 164.67 192.663 129.221C99.2339 89.9797 2.61186 49.4083 -0.986145 6.59254C-3.60886 -24.5822 43.5823 -53.2736 143.26 -81.1268L142.792 -81.9465C42.6913 -53.9739 -4.67889 -25.0445 -2.01229 6.51013C1.63697 49.8977 98.5796 90.6019 192.33 129.976C276.414 165.295 355.851 198.654 357.683 230.119C358.932 251.491 323.951 270.257 250.78 287.473C168.796 306.758 130.367 325.335 133.298 344.246C137.274 369.983 216.979 392.03 294.066 413.373C366.861 433.518 435.622 452.546 438.263 473.087C440.329 489.073 401.273 504.546 318.869 520.377C230.64 537.329 188.538 554.916 190.136 574.14C192.118 597.853 257.946 620.385 327.647 644.234C398.073 668.342 470.907 693.277 474.48 719.631C476.816 736.86 449.696 753.122 391.58 769.359L392.047 770.174C422.846 761.542 445 752.886 458.725 744.049Z" fill="url(#paint3_linear_1132_14625)" fill-opacity="0.2"/>
<path d="M452.251 754.424C465.151 746.123 470.935 737.653 469.795 728.906C466.213 701.371 393.97 675.615 324.117 650.693C255.652 626.273 190.971 603.208 189.177 579.597C187.725 560.501 228.655 542.99 314.295 526.068C395.266 510.074 433.629 494.184 431.588 477.497C428.936 455.869 360.763 436.168 288.604 415.305C212.958 393.441 134.762 370.834 130.922 345.187C128.11 326.377 165.437 307.853 245.029 288.55C316.731 271.166 351.031 251.996 349.914 229.952C348.253 197.211 269.386 162.777 185.882 126.312C93.4685 85.9609 -2.10071 44.2258 -5.50204 0.422108C-7.94959 -31.1932 38.0368 -60.1792 135.137 -88.197L134.67 -89.0118C37.1804 -60.8794 -8.99479 -31.654 -6.50822 0.341832C-3.06668 44.709 92.8184 86.5776 185.544 127.072C268.705 163.383 347.267 197.692 348.897 229.864C350.004 251.523 315.892 270.449 244.612 287.738C164.555 307.146 127.038 325.935 129.915 345.171C133.838 371.445 212.421 394.16 288.429 416.132C360.205 436.881 428.018 456.479 430.584 477.466C432.569 493.721 394.427 509.356 313.923 525.255C227.814 542.258 186.671 560.011 188.162 579.523C190.009 603.75 255.029 626.941 323.86 651.497C393.378 676.293 465.273 701.93 468.777 728.877C471.052 746.377 444.616 762.825 387.952 779.178L388.424 779.992C417.572 771.554 438.783 763.086 452.251 754.424Z" fill="url(#paint4_linear_1132_14625)" fill-opacity="0.2"/>
<path d="M445.92 764.971C459.383 756.314 465.443 747.453 464.292 738.272C460.775 710.149 389.452 683.654 320.48 658.034C252.839 632.903 188.946 609.177 187.276 585.014C185.941 565.624 225.913 547.952 309.477 530.982C388.564 514.928 426.042 498.872 424.062 481.914C421.498 459.827 354.259 439.525 283.067 418.044C208.479 395.541 131.351 372.263 127.567 346.033C124.808 326.895 161.244 308.16 238.937 288.735C308.758 271.276 342.224 251.942 341.257 229.634C339.804 196.166 261.78 160.756 179.176 123.273C87.7333 81.7747 -6.82066 38.8566 -10.0218 -5.9802C-12.3185 -38.0326 32.5283 -67.3076 127.051 -95.4901L126.571 -96.298C31.6622 -68.0065 -13.3477 -38.4858 -11.0481 -6.06258C-7.80394 39.3224 87.0658 82.374 178.8 124.009C261.12 161.369 338.832 196.64 340.253 229.534C341.201 251.463 307.925 270.567 238.52 287.918C160.367 307.452 123.747 326.461 126.569 346.007C130.448 372.846 207.942 396.225 282.895 418.851C353.701 440.227 420.575 460.404 423.064 481.857C424.984 498.388 387.703 514.194 309.108 530.153C225.097 547.221 184.911 565.126 186.264 584.924C187.968 609.681 252.198 633.548 320.202 658.801C388.851 684.303 459.844 710.672 463.274 738.213C465.494 755.993 439.719 772.63 384.487 789.102L384.963 789.91C412.481 781.733 432.742 773.444 445.92 764.971Z" fill="url(#paint5_linear_1132_14625)" fill-opacity="0.2"/>
<path d="M440.187 776.32C454.23 767.284 460.571 758.032 459.4 748.394C455.947 719.643 385.493 692.366 317.359 665.984C250.497 640.099 187.347 615.644 185.812 590.928C184.595 571.249 223.616 553.405 305.102 536.398C382.295 520.285 418.898 504.061 416.997 486.825C414.503 464.253 348.156 443.329 277.899 421.182C204.311 397.982 128.215 373.989 124.461 347.166C121.749 327.699 157.282 308.741 233.097 289.191C301.04 271.681 333.667 252.189 332.837 229.59C331.581 195.376 254.344 158.924 172.579 120.337C82.0848 77.6059 -11.5292 33.4262 -14.5406 -12.4818C-16.678 -44.9823 26.9931 -74.556 118.951 -102.89L118.466 -103.692C26.1201 -75.2342 -17.7211 -45.4285 -15.5669 -12.5641C-12.5132 33.8872 81.4131 78.2107 172.234 121.083C253.686 159.522 330.626 195.833 331.849 229.497C332.665 251.717 300.228 270.98 232.687 288.388C156.421 308.041 120.698 327.264 123.463 347.14C127.297 374.569 203.756 398.679 277.697 421.992C347.561 444.022 413.56 464.827 415.976 486.781C417.837 503.597 381.429 519.557 304.713 535.577C222.766 552.679 183.541 570.76 184.786 590.845C186.352 616.161 249.836 640.742 317.063 666.763C384.879 693.022 455.007 720.167 458.384 748.354C460.551 766.414 435.448 783.257 381.646 799.828L382.126 800.636C408.043 792.651 427.341 784.583 440.187 776.32Z" fill="url(#paint6_linear_1132_14625)" fill-opacity="0.2"/>
<path d="M434.887 788.171C449.511 778.761 456.143 769.082 454.965 758.984C451.559 729.578 381.94 701.49 314.609 674.316C248.483 647.645 186.029 622.443 184.626 597.123C183.529 577.14 221.608 559.143 301.033 542.091C376.367 525.92 412.092 509.543 410.259 492.015C407.842 468.938 342.343 447.364 272.997 424.519C200.369 400.584 125.26 375.842 121.543 348.401C118.867 328.597 153.507 309.409 227.466 289.75C293.544 272.183 325.321 252.529 324.627 229.658C323.56 194.65 247.076 157.117 166.088 117.385C76.4179 73.3746 -16.3199 27.8682 -19.1621 -19.1525C-21.1513 -52.1096 21.3399 -81.9765 110.766 -110.47L110.27 -111.283C20.4689 -82.6747 -22.2056 -52.5642 -20.1863 -19.255C-17.3079 28.3001 75.7173 73.949 165.686 118.11C246.366 157.697 322.568 195.092 323.601 229.546C324.293 252.046 292.696 271.472 227.014 288.938C152.627 308.717 117.801 328.164 120.525 348.377C124.322 376.416 199.78 401.286 272.76 425.324C341.722 448.046 406.863 469.502 409.232 491.962C411.021 509.071 375.497 525.192 300.625 541.268C220.758 558.417 182.474 576.651 183.593 597.032C185.024 622.931 247.803 648.266 314.283 675.085C381.303 702.13 450.587 730.092 453.929 758.937C456.052 777.285 431.614 794.312 379.215 811.006L379.711 811.817C404.051 804.055 422.39 796.211 434.887 788.171Z" fill="url(#paint7_linear_1132_14625)" fill-opacity="0.2"/>
<path d="M429.737 800.249C444.973 790.44 451.885 780.325 450.712 769.736C447.369 739.663 378.527 710.728 311.974 682.756C246.557 655.262 184.767 629.297 183.512 603.378C182.541 583.095 219.675 564.924 297.081 547.837C370.575 531.61 405.441 515.067 403.677 497.267C401.336 473.674 336.661 451.415 268.196 427.87C196.483 403.202 122.336 377.696 118.667 349.619C116.031 329.463 149.798 310.057 221.902 290.271C286.146 272.641 317.102 252.821 316.55 229.693C315.691 193.883 239.895 155.233 159.659 114.306C70.7883 68.9895 -21.0877 22.1238 -23.7622 -26.054C-25.6165 -59.4559 15.7442 -89.618 102.665 -118.258L102.159 -119.065C14.876 -90.2968 -26.6596 -59.9021 -24.7906 -26.151C-22.0911 22.5529 70.0919 69.5583 159.237 115.029C239.173 155.795 314.667 194.31 315.529 229.58C316.08 252.347 285.304 271.939 221.446 289.464C148.903 309.362 114.949 329.028 117.642 349.581C121.386 378.261 195.888 403.895 267.934 428.675C336.04 452.096 400.361 474.228 402.641 497.221C404.371 514.61 369.693 530.903 296.66 547.035C218.822 564.214 181.478 582.617 182.476 603.297C183.769 629.8 245.876 655.902 311.635 683.547C377.894 711.397 446.401 740.196 449.693 769.707C451.769 788.349 427.988 805.579 376.995 822.381L377.5 823.186C400.256 815.638 417.631 808.035 429.737 800.249Z" fill="url(#paint8_linear_1132_14625)" fill-opacity="0.2"/>
<path d="M424.731 812.494C440.601 802.279 447.826 791.714 446.631 780.619C443.34 749.86 375.287 720.071 309.457 691.264C244.72 662.941 183.559 636.18 182.449 609.641C181.584 589.061 217.824 570.73 293.23 553.599C364.909 537.312 398.94 520.605 397.245 502.518C394.992 478.393 331.116 455.456 263.493 431.179C192.683 405.755 119.465 379.474 115.836 350.738C113.251 330.243 146.163 310.602 216.458 290.69C278.898 273.009 309.047 253.041 308.613 229.639C307.948 192.995 232.838 153.208 153.307 111.073C65.2043 64.4005 -25.8842 16.1414 -28.366 -33.2268C-30.0692 -67.0657 10.1612 -97.5197 94.6193 -126.32L94.1002 -127.12C9.27867 -98.195 -31.1124 -67.5119 -29.3895 -33.3244C-26.8757 16.549 64.4974 64.9657 152.866 111.774C232.093 153.754 306.937 193.401 307.576 229.513C307.993 252.552 278.025 272.297 215.971 289.873C145.257 309.898 112.158 329.794 114.788 350.678C118.495 380.002 192.059 406.422 263.207 431.957C330.476 456.106 394.002 478.92 396.209 502.437C397.865 520.114 364.039 536.584 292.81 552.767C216.983 569.998 180.544 588.565 181.428 609.523C182.555 636.638 244.027 663.539 309.102 692.007C374.626 720.679 442.376 750.328 445.595 780.538C447.622 799.468 424.485 816.879 374.872 833.808L375.385 834.606C396.61 827.389 413.029 820.031 424.731 812.494Z" fill="url(#paint9_linear_1132_14625)" fill-opacity="0.2"/>
<path d="M419.888 824.96C436.402 814.321 443.931 803.288 442.74 791.657C439.512 760.192 372.192 729.532 307.08 699.891C242.981 670.695 182.43 643.135 181.481 615.95C180.754 595.088 216.085 576.589 289.514 559.411C359.412 543.06 392.607 526.184 390.992 507.819C388.824 483.142 325.712 459.513 258.91 434.501C188.962 408.317 116.629 381.227 113.038 351.813C110.509 330.978 142.567 311.106 211.077 291.067C271.726 273.323 301.075 253.191 300.794 229.539C300.361 192.051 225.88 151.086 147.019 107.708C59.6665 59.652 -30.6697 9.96004 -32.9677 -40.6269C-34.5138 -74.8939 4.59735 -105.633 86.622 -134.596L86.1028 -135.396C3.72863 -106.315 -35.5486 -75.3512 -33.9932 -40.7391C-31.675 10.3399 58.9305 60.1868 146.562 108.391C225.122 151.604 299.335 192.429 299.759 229.398C300.03 252.7 270.862 272.604 210.592 290.23C141.679 310.391 109.436 330.502 112.023 351.739C115.671 381.734 188.353 408.942 258.626 435.259C325.094 460.145 387.866 483.649 389.979 507.725C391.542 525.687 358.551 542.321 289.103 558.569C215.258 575.85 179.732 594.58 180.473 615.821C181.447 643.566 242.301 671.277 306.727 700.614C371.538 730.125 438.566 760.648 441.733 791.577C443.71 810.782 421.202 828.401 372.939 845.435L373.468 846.232C393.168 839.295 408.622 832.217 419.888 824.96Z" fill="url(#paint10_linear_1132_14625)" fill-opacity="0.2"/>
<path d="M415.203 837.659C432.392 826.584 440.236 815.08 439.044 802.886C435.886 770.693 369.262 739.143 304.823 708.629C241.328 678.561 181.367 650.165 180.572 622.325C179.977 601.167 214.434 582.509 285.913 565.296C354.039 548.874 386.42 531.836 384.897 513.186C382.838 487.949 320.457 463.613 254.413 437.835C185.287 410.851 113.806 382.958 110.278 352.837C107.797 331.649 139.033 311.557 205.776 291.382C264.66 273.576 293.217 253.309 293.085 229.413C292.87 191.052 218.986 148.885 140.77 104.222C54.1063 54.7427 -35.517 3.5838 -37.6188 -48.2385C-39.0175 -82.9323 -0.995638 -113.954 78.6476 -143.063L78.1194 -143.858C-1.85576 -114.611 -40.0405 -83.3764 -38.6339 -48.3472C-36.5106 3.97691 53.3732 55.2969 140.303 104.912C218.232 149.397 291.849 191.43 292.062 229.281C292.195 252.835 263.809 272.88 205.286 290.575C138.144 310.871 106.727 331.222 109.251 352.784C112.848 383.465 184.652 411.505 254.106 438.606C319.799 464.241 381.851 488.46 383.862 513.11C385.357 531.358 353.171 548.16 285.475 564.477C213.581 581.799 178.934 600.686 179.537 622.214C180.346 650.607 240.61 679.148 304.418 709.369C368.565 739.746 434.882 771.152 437.996 802.826C439.91 822.317 418.034 840.139 371.119 857.289L371.647 858.085C389.918 851.4 404.404 844.613 415.203 837.659Z" fill="url(#paint11_linear_1132_14625)" fill-opacity="0.2"/>
<path d="M410.654 850.552C428.528 839.033 436.712 827.031 435.509 814.274C432.415 781.344 366.472 748.871 302.691 717.477C239.78 686.5 180.366 657.254 179.758 628.739C179.307 607.304 212.892 588.498 282.445 571.215C348.84 554.726 380.403 537.513 378.972 518.597C377.01 492.787 315.346 467.711 250.053 441.159C181.735 413.377 111.079 384.64 107.606 353.818C105.187 332.3 135.595 311.959 200.599 291.658C257.753 273.801 285.543 253.39 285.545 229.252C285.559 189.998 212.248 146.596 134.644 100.63C48.6259 49.6976 -40.3158 -2.97326 -42.2185 -56.0809C-43.4775 -91.1864 -6.5144 -122.485 70.7651 -151.755L70.2054 -152.562C-7.406 -123.155 -44.5208 -91.6335 -43.2509 -56.2068C-41.3385 -2.61065 47.8726 50.2151 134.135 101.301C211.477 147.096 284.521 190.358 284.51 229.112C284.499 252.909 256.891 273.096 200.097 290.844C134.706 311.273 104.124 331.852 106.577 353.751C110.11 385.138 181.085 413.994 249.729 441.913C314.68 468.325 376.035 493.277 377.939 518.501C379.34 537.03 347.961 554.005 281.996 570.383C212.03 587.758 178.255 606.799 178.723 628.594C179.34 657.662 239.062 687.057 302.291 718.187C365.796 749.447 431.441 781.769 434.483 814.191C436.337 833.958 415.071 851.965 369.466 869.242L370.002 870.027C386.825 863.666 400.355 857.192 410.654 850.552Z" fill="url(#paint12_linear_1132_14625)" fill-opacity="0.2"/>
<path d="M406.248 863.683C424.838 851.702 433.359 839.176 432.166 825.824C429.14 792.118 363.833 758.718 300.694 726.412C238.337 694.52 179.447 664.389 179.012 635.176C178.696 613.479 211.43 594.496 279.083 577.181C343.751 560.625 374.538 543.239 373.206 524.046C371.362 497.636 310.365 471.817 245.79 444.466C178.23 415.849 108.366 386.272 104.966 354.712C102.612 332.849 132.227 312.283 195.501 291.832C250.95 273.918 277.962 253.365 278.122 229.012C278.368 188.845 205.6 144.173 128.547 96.8611C43.1378 44.4225 -45.1575 -9.79993 -46.8555 -64.2233C-47.9576 -99.7232 -12.0592 -131.307 62.9011 -160.738L62.3434 -161.53C-12.9446 -131.967 -48.9919 -100.177 -47.8789 -64.3555C-46.1683 -9.45879 42.4074 44.9269 128.041 97.5119C204.826 144.654 277.348 189.192 277.11 228.859C276.963 252.878 250.108 273.216 195.021 291.024C131.347 311.591 101.569 332.402 103.97 354.636C107.429 386.751 177.609 416.467 245.475 445.213C309.727 472.417 370.405 498.113 372.206 523.941C373.524 542.754 342.929 559.89 278.672 576.338C210.618 593.76 177.697 612.957 178.016 635.025C178.446 664.768 237.631 695.05 300.293 727.107C363.173 759.267 428.189 792.53 431.177 825.726C432.976 845.768 412.317 863.972 368.011 881.371L368.568 882.163C383.914 876.135 396.474 869.982 406.248 863.683Z" fill="url(#paint13_linear_1132_14625)" fill-opacity="0.2"/>
<path d="M402 877.063C421.316 864.613 430.193 851.562 428.995 837.582C426.037 803.089 361.351 768.73 298.794 735.5C236.954 702.649 178.554 671.612 178.327 641.697C178.151 619.727 210.054 600.61 275.836 583.223C338.81 566.59 368.817 549.047 367.59 529.578C365.859 502.573 305.52 475.982 241.622 447.817C174.789 418.36 105.687 387.903 102.359 355.596C100.066 333.392 128.886 312.603 190.468 292.01C244.225 274.034 270.512 253.356 270.795 228.788C271.28 187.69 199.009 141.706 122.495 93.0163C37.673 39.0345 -50.0506 -16.7784 -51.5453 -72.5619C-52.5111 -108.463 -17.6537 -140.303 55.0261 -169.9L54.4594 -170.686C-18.5231 -140.955 -53.5431 -108.901 -52.5783 -72.6928C-51.0676 -16.4463 36.8823 39.5325 121.952 93.6622C198.207 142.191 270.234 188.021 269.753 228.633C269.469 252.875 243.365 273.344 189.929 291.205C127.968 311.916 98.9705 332.958 101.301 355.533C104.692 388.391 174.11 418.981 241.24 448.579C304.81 476.593 364.838 503.049 366.535 529.5C367.747 548.585 337.93 565.898 275.366 582.423C209.196 599.905 177.108 619.251 177.28 641.577C177.524 672.03 236.203 703.216 298.347 736.227C360.637 769.316 425.051 803.54 427.957 837.516C429.705 857.832 409.623 876.226 366.61 893.744L367.182 894.53C381.195 888.814 392.785 883.005 402 877.063Z" fill="url(#paint14_linear_1132_14625)" fill-opacity="0.2"/>
<path d="M397.887 890.657C417.951 877.72 427.19 864.118 426 849.493C423.107 814.204 359.028 778.859 297.039 744.673C235.689 710.841 177.757 678.882 177.717 648.227C177.693 625.999 208.771 606.721 272.707 589.298C334.008 572.591 363.249 554.884 362.113 535.15C360.512 507.522 300.782 480.133 237.544 451.142C171.421 420.822 103.038 389.472 99.789 356.391C97.5583 333.856 125.616 312.824 185.526 292.091C237.631 274.057 263.167 253.248 263.598 228.471C264.328 186.408 192.525 139.081 116.513 88.9739C32.2245 33.4119 -54.9198 -24.0419 -56.2098 -81.2105C-57.0362 -117.49 -23.1858 -149.591 47.229 -179.351L46.6534 -180.131C-24.0842 -150.239 -58.0684 -117.929 -57.2422 -81.3365C-55.9376 -23.7147 31.4512 33.8926 115.959 89.6066C191.716 139.556 263.279 186.725 262.566 228.31C262.145 252.774 236.771 273.368 185 291.28C124.713 312.14 96.5055 333.412 98.7621 356.304C102.077 389.919 170.763 421.42 237.183 451.876C300.093 480.715 359.52 507.96 361.087 535.033C362.209 554.388 333.143 571.867 272.238 588.464C207.921 605.995 176.661 625.496 176.685 648.066C176.719 679.241 234.936 711.359 296.57 745.348C358.292 779.394 422.112 814.593 424.976 849.391C426.662 869.968 407.167 888.561 365.42 906.207L365.996 906.987C378.638 901.653 389.266 896.214 397.887 890.657Z" fill="url(#paint15_linear_1132_14625)" fill-opacity="0.2"/>
<path d="M393.91 904.509C414.744 891.072 424.373 876.905 423.173 861.613C420.356 825.502 356.823 789.149 295.393 753.987C234.515 719.149 177.002 686.239 177.173 654.832C177.297 632.36 207.551 612.927 269.679 595.454C329.34 578.666 357.826 560.795 356.796 540.797C355.341 512.526 296.201 484.34 233.588 454.484C168.136 423.282 100.455 391.01 97.2705 357.129C95.1115 334.262 122.399 312.992 180.669 292.116C231.139 274.032 255.949 253.097 256.517 228.127C257.49 185.09 186.13 136.383 110.588 84.8142C26.8033 27.632 -59.8219 -31.504 -60.9162 -90.087C-61.6014 -126.732 -28.7689 -159.101 39.4504 -189.023L38.8609 -189.796C-29.6612 -159.741 -62.6384 -127.17 -61.9398 -90.2207C-60.83 -31.1781 26.0238 28.1036 110.024 85.4435C185.319 136.845 256.453 185.385 255.494 227.965C254.936 252.612 230.288 273.335 180.138 291.305C121.507 312.322 94.0588 333.818 96.2436 357.042C99.4826 391.45 167.456 423.858 233.2 455.202C295.494 484.901 354.338 512.955 355.762 540.666C356.774 560.29 328.47 577.938 269.198 594.611C206.701 612.201 176.263 631.843 176.143 654.656C175.962 686.58 233.744 719.649 294.907 754.64C356.092 789.653 419.362 825.861 422.147 861.496C423.772 882.34 404.872 901.116 364.341 918.891L364.93 919.664C376.266 914.718 385.91 909.666 393.91 904.509Z" fill="url(#paint16_linear_1132_14625)" fill-opacity="0.2"/>
<path d="M390.086 918.64C411.732 904.682 421.725 889.934 420.543 873.937C417.79 836.98 354.793 799.591 293.877 763.441C233.435 727.561 176.333 693.673 176.725 661.492C176.999 638.781 206.467 619.212 266.783 601.673C324.814 584.8 352.575 566.769 351.646 546.51C350.331 517.58 291.755 488.552 229.737 457.834C164.929 425.725 97.9111 392.513 94.8104 357.823C92.7274 334.619 119.259 313.114 175.9 292.092C224.768 273.948 248.865 252.902 249.56 227.755C250.778 183.718 179.831 133.592 104.721 80.5267C21.4173 21.6777 -64.7194 -39.1805 -65.6269 -99.2406C-66.1798 -136.245 -34.3389 -168.871 31.7051 -198.951L31.1114 -199.718C-35.2401 -169.503 -67.2169 -136.683 -66.6505 -99.3743C-65.7357 -38.8782 20.6156 22.1327 104.144 81.1379C179.011 134.025 249.733 183.99 248.526 227.58C247.842 252.428 223.903 273.259 175.351 291.289C118.344 312.457 91.6662 334.185 93.7744 357.742C96.9257 392.964 164.231 426.314 229.315 458.557C291.03 489.13 349.308 518.007 350.602 546.405C351.513 566.3 323.934 584.108 266.293 600.866C205.605 618.507 175.965 638.294 175.684 661.338C175.284 694.024 232.65 728.068 293.372 764.107C354.046 800.118 416.789 837.36 419.517 873.855C421.075 894.96 402.736 913.924 363.441 931.826L364.039 932.593C374.066 928.011 382.753 923.371 390.086 918.64Z" fill="url(#paint17_linear_1132_14625)" fill-opacity="0.2"/>
<path d="M386.381 932.989C408.843 918.499 419.23 903.151 418.056 886.431C415.378 848.612 352.889 810.161 292.466 772.986C232.427 736.039 175.724 701.154 176.33 668.176C176.758 645.23 205.425 625.527 263.983 607.935C320.4 590.994 347.438 572.788 346.618 552.285C345.446 522.682 287.413 492.81 225.965 461.185C161.757 428.145 95.3866 393.98 92.359 358.443C90.3588 334.916 116.145 313.185 171.195 292.002C218.49 273.798 241.88 252.65 242.7 227.332C244.157 182.261 173.599 130.689 98.906 76.095C16.042 15.5257 -69.6365 -47.0948 -70.3494 -108.647C-70.7837 -146.002 -39.9181 -178.875 24 -209.113L23.3924 -209.874C-40.822 -179.491 -71.8186 -146.424 -71.3731 -108.781C-70.6536 -46.7974 15.2514 15.9891 98.3237 76.702C172.797 131.144 243.143 182.544 241.697 227.172C240.895 252.195 217.654 273.135 170.664 291.221C115.272 312.537 89.3351 334.501 91.3584 358.367C94.4234 394.413 161.094 428.734 225.563 461.911C286.708 493.39 344.462 523.113 345.615 552.19C346.413 572.329 319.555 590.306 263.524 607.139C204.61 624.835 175.765 644.752 175.336 668.04C174.71 701.51 231.674 736.557 291.994 773.667C352.183 810.697 414.422 848.99 417.081 886.361C418.6 907.719 400.818 926.872 362.708 944.898L363.315 945.658C372.036 941.499 379.742 937.275 386.381 932.989Z" fill="url(#paint18_linear_1132_14625)" fill-opacity="0.2"/>
<path d="M382.834 947.641C406.134 932.607 416.938 916.63 415.765 899.158C413.145 860.45 351.136 820.916 291.193 782.689C231.529 744.654 175.179 708.729 176.021 674.94C176.596 651.771 204.497 631.933 261.311 614.302C316.143 597.278 342.456 578.912 341.77 558.168C340.746 527.866 283.213 497.122 222.312 464.573C158.702 430.577 92.9192 395.428 89.9869 359.026C88.0544 335.173 113.126 313.216 166.595 291.881C212.344 273.629 235.046 252.375 235.976 226.893C237.671 180.774 167.477 127.716 93.148 71.5353C10.6889 9.21115 -74.5701 -55.2356 -75.1132 -118.314C-75.4377 -156.013 -45.5299 -189.114 16.3054 -219.521L15.6776 -220.284C-46.4313 -189.747 -76.4726 -156.436 -76.148 -118.457C-75.6093 -54.9549 9.86021 9.6502 92.5195 72.1291C166.631 128.137 236.616 181.047 234.933 226.724C234.006 251.913 211.464 272.967 166.008 291.093C112.196 312.556 86.9905 334.754 88.9399 358.937C91.9187 395.842 157.98 431.139 221.852 465.272C282.459 497.669 339.719 528.269 340.724 558.049C341.41 578.452 315.262 596.581 260.801 613.493C203.637 631.244 175.554 651.295 174.975 674.787C174.132 709.065 230.729 745.154 290.648 783.35C350.374 821.44 412.142 860.815 414.729 899.077C416.197 920.695 398.943 940.02 362.035 958.178L362.662 958.94C370.197 955.216 376.916 951.458 382.834 947.641Z" fill="url(#paint19_linear_1132_14625)" fill-opacity="0.2"/>
<path d="M379.403 962.563C403.574 946.965 414.803 930.355 413.622 912.091C411.06 872.464 349.523 831.825 290.01 792.517C230.712 753.352 174.689 716.351 175.754 681.724C176.472 658.341 203.617 638.378 258.711 620.688C311.982 603.578 337.596 585.069 337.004 564.074C336.136 533.062 279.095 501.417 218.699 467.925C155.653 432.953 90.4481 396.782 87.5848 359.505C85.731 335.333 110.076 313.138 162.005 291.66C206.243 273.355 228.257 252 229.305 226.373C231.24 179.185 161.367 124.591 87.3892 66.7976C5.30368 2.67345 -79.5553 -63.6315 -79.9313 -128.291C-80.139 -166.318 -51.191 -199.662 8.60836 -230.222L7.9715 -230.979C-52.095 -200.278 -81.1738 -166.741 -80.9549 -128.425C-80.5806 -63.3576 4.4896 3.11043 86.7696 67.3852C160.541 125.015 230.213 179.445 228.298 226.214C227.258 251.552 205.398 272.702 161.445 290.883C109.195 312.511 84.7024 334.919 86.5779 359.42C89.4767 397.192 154.939 433.505 218.243 468.623C278.35 501.958 335.127 533.447 335.977 563.957C336.556 584.608 311.113 602.895 258.201 619.88C202.755 637.673 175.449 657.862 174.711 681.56C173.633 716.659 229.892 753.819 289.457 793.154C348.75 832.31 410.063 872.799 412.587 911.98C413.999 933.834 397.297 953.353 361.534 971.631L362.171 972.387C368.515 969.168 374.252 965.886 379.403 962.563Z" fill="url(#paint20_linear_1132_14625)" fill-opacity="0.2"/>
<path d="M376.123 977.771C401.192 961.596 412.831 944.323 411.654 925.242C409.148 884.687 348.048 842.902 288.955 802.505C229.972 762.177 174.264 724.082 175.561 688.611C176.43 665.033 202.81 644.941 256.227 627.192C307.963 610.012 332.896 591.337 332.409 570.109C331.71 538.36 275.117 505.795 215.216 471.323C152.696 435.346 88.037 398.138 85.2767 359.945C83.5029 335.465 107.133 313.045 157.525 291.408C200.265 273.048 221.618 251.603 222.776 225.842C224.94 177.548 155.375 121.386 81.7111 61.9296C-0.0124138 -4.04229 -84.5336 -72.2609 -84.7467 -138.532C-84.8765 -176.882 -56.8523 -210.458 0.944302 -241.181L0.298523 -241.933C-57.736 -211.072 -85.8938 -177.286 -85.7613 -138.672C-85.5367 -72.0051 -0.838293 -3.61851 81.0742 62.4999C154.527 121.793 223.906 177.794 221.751 225.661C220.613 251.142 199.4 272.393 156.944 290.624C106.231 312.41 82.4542 335.049 84.2587 359.852C87.0635 398.533 151.974 435.879 214.747 471.999C274.384 506.315 330.696 538.717 331.394 569.966C331.862 590.85 307.101 609.303 255.726 626.377C201.976 644.227 175.428 664.527 174.55 688.422C173.227 724.377 229.174 762.626 288.4 803.128C347.275 843.387 408.16 885.015 410.639 925.134C412.007 947.241 395.84 966.932 361.215 985.351L361.866 986.1C367.022 983.366 371.769 980.58 376.123 977.771Z" fill="url(#paint21_linear_1132_14625)" fill-opacity="0.2"/>
<path d="M372.959 993.279C398.948 976.509 411.045 958.552 409.86 938.617C407.412 897.103 346.722 854.161 288.023 812.624C229.34 771.1 173.914 731.882 175.461 695.519C176.469 671.739 202.111 651.543 253.868 633.742C304.093 616.479 328.328 597.66 327.977 576.206C327.427 543.698 271.291 510.197 211.842 474.726C149.821 437.723 85.693 399.445 83.0032 360.316C81.3033 335.519 104.243 312.875 153.134 291.08C194.427 272.676 215.105 251.149 216.357 225.246C218.749 175.836 149.457 118.072 76.0951 56.9043C-5.31289 -10.9633 -89.4889 -81.1476 -89.574 -149.066C-89.6187 -187.724 -62.4936 -221.533 -6.68074 -252.425L-7.34052 -253.17C-63.4066 -222.144 -90.6472 -188.137 -90.5999 -149.216C-90.5139 -80.9065 -6.15258 -10.5672 75.4402 57.4524C148.6 118.45 217.707 176.058 215.336 225.064C214.098 250.678 193.558 272.023 152.544 290.307C103.342 312.24 80.2705 335.111 81.9852 360.223C84.7022 399.823 149.087 438.243 211.354 475.399C270.538 510.715 326.425 544.068 326.968 576.071C327.311 597.191 303.24 615.798 253.364 632.942C201.287 650.858 175.461 671.263 174.458 695.354C172.897 732.184 228.538 771.555 287.472 813.247C345.958 854.635 406.439 897.434 408.877 938.523C410.199 960.86 394.544 980.74 361.05 999.281L361.71 1000.03C365.684 997.789 369.458 995.542 372.959 993.279Z" fill="url(#paint22_linear_1132_14625)" fill-opacity="0.2"/>
<path d="M369.941 1009.08C396.877 991.699 409.423 973.031 408.243 952.219C405.829 909.725 345.529 865.589 287.207 822.906C228.807 780.164 173.636 739.781 175.424 702.527C176.559 678.566 201.476 658.245 251.614 640.401C300.347 623.053 323.912 604.086 323.664 582.409C323.292 549.134 267.552 514.652 208.527 478.155C146.984 440.095 83.3621 400.74 80.749 360.651C79.1147 335.547 101.359 312.675 148.784 290.736C188.655 272.282 208.681 250.659 210.026 224.648C212.633 174.099 143.591 114.671 70.5018 51.7625C-10.6127 -18.0521 -94.4887 -90.2423 -94.4609 -159.845C-94.4433 -198.797 -68.2326 -232.843 -14.3187 -263.899L-14.9966 -264.631C-69.1394 -233.444 -95.467 -199.211 -95.4868 -159.995C-95.5249 -90.0104 -11.4691 -17.6685 69.815 52.2953C142.718 115.047 211.579 174.308 208.995 224.458C207.67 250.193 187.774 271.619 148.168 289.947C100.458 312.045 78.0708 335.131 79.7131 360.535C82.3416 401.083 146.22 440.604 208.005 478.808C266.76 515.145 322.254 549.459 322.622 582.255C322.863 603.596 299.455 622.347 251.063 639.583C200.626 657.549 175.548 678.066 174.38 702.324C172.579 740.039 227.964 780.57 286.587 823.493C344.701 866.033 404.801 910.014 407.201 952.099C408.482 974.669 393.351 994.723 360.935 1013.4L361.604 1014.13C364.535 1012.46 367.31 1010.78 369.941 1009.08Z" fill="url(#paint23_linear_1132_14625)" fill-opacity="0.2"/>
<path d="M367.029 1025.19C394.955 1007.17 407.968 987.778 406.759 966.029C404.372 922.537 344.434 877.182 286.477 833.309C228.328 789.294 173.411 747.732 175.428 709.545C176.703 685.415 200.908 664.997 249.435 647.099C296.686 629.664 319.597 610.557 319.468 588.676C319.266 554.604 263.907 519.143 205.304 481.577C144.217 442.437 81.0442 401.95 78.5292 360.876C76.9708 335.47 98.5415 312.381 144.508 290.278C182.981 271.774 202.368 250.078 203.782 223.959C206.586 172.249 137.789 111.133 64.932 46.4345C-15.9202 -25.3722 -99.5138 -99.6221 -99.3788 -170.95C-99.3051 -210.205 -73.9759 -244.464 -21.9469 -275.689L-22.6338 -276.415C-74.8895 -245.043 -100.331 -210.602 -100.405 -171.099C-100.541 -99.397 -16.7682 -24.9997 64.248 46.952C136.916 111.499 205.555 172.449 202.764 223.762C201.357 249.613 182.1 271.112 143.891 289.489C97.6427 311.732 75.9159 335.045 77.503 360.759C80.0527 402.288 143.459 442.916 204.78 482.21C263.136 519.608 318.247 554.922 318.452 588.523C318.59 610.086 295.832 628.983 248.904 646.284C200.082 664.298 175.712 684.922 174.425 709.35C172.377 747.977 227.521 789.71 285.887 833.892C343.648 877.61 403.393 922.824 405.753 965.914C407.007 988.721 392.388 1008.93 361.043 1027.76L361.73 1028.48C363.547 1027.41 365.32 1026.29 367.029 1025.19Z" fill="url(#paint24_linear_1132_14625)" fill-opacity="0.2"/>
<path d="M364.27 1041.63C393.201 1022.95 406.681 1002.81 405.481 980.108C403.111 935.584 343.524 888.971 285.908 843.896C227.991 798.592 173.295 755.79 175.55 716.669C176.947 692.384 200.453 671.847 247.4 653.91C293.215 636.401 315.472 617.145 315.447 595.055C315.411 560.169 260.416 523.675 202.18 485.028C141.523 444.768 78.8026 403.143 76.352 361.056C74.8618 335.363 95.7779 312.055 140.3 289.784C177.409 271.226 196.174 249.465 197.652 223.243C200.643 170.334 132.041 107.482 59.4082 40.9459C-21.1933 -32.9007 -104.541 -109.259 -104.328 -182.34C-104.216 -221.886 -79.7408 -256.374 -29.569 -287.748L-30.2649 -288.467C-80.6863 -256.934 -105.231 -222.275 -105.354 -182.49C-105.559 -109.039 -22.0566 -32.531 58.7132 41.4551C131.176 107.838 199.611 170.529 196.629 223.042C195.153 249.001 176.526 270.584 139.666 289.013C94.8563 311.418 73.8041 334.953 75.3168 360.945C77.7806 403.476 140.741 445.255 201.621 485.657C259.605 524.137 314.365 560.47 314.401 594.902C314.426 616.679 292.326 635.715 246.831 653.11C199.584 671.164 175.927 691.89 174.508 716.471C172.22 756.032 227.137 798.99 285.27 844.462C342.708 889.394 402.105 935.86 404.443 979.982C405.666 1003.02 391.555 1023.39 361.259 1042.35L361.955 1043.08C362.746 1042.61 363.508 1042.12 364.27 1041.63Z" fill="url(#paint25_linear_1132_14625)" fill-opacity="0.2"/>
<path d="M362.356 1057.93C391.835 1038.71 405.581 1017.93 404.354 994.417C401.985 948.849 342.738 900.961 285.432 854.654C227.727 808.013 173.214 763.953 175.714 723.867C177.232 699.426 200.038 678.81 245.437 660.81C289.826 643.226 311.436 623.839 311.522 601.55C311.659 565.822 257.005 528.281 199.132 488.528C138.88 447.137 76.5763 404.334 74.1956 361.203C72.764 335.224 93.0281 311.682 136.168 289.261C171.949 270.658 190.086 248.833 191.624 222.503C194.794 168.385 126.362 103.758 53.9226 35.3381C-26.4691 -40.5921 -109.593 -119.108 -109.327 -193.986C-109.186 -233.815 -85.5923 -268.516 -37.1836 -300.073L-37.8884 -300.786C-86.5058 -269.095 -110.212 -234.213 -110.339 -194.142C-110.608 -118.905 -27.3253 -40.2432 53.2215 35.8383C125.485 104.105 193.741 168.569 190.601 222.306C189.074 248.362 171.057 270.018 135.519 288.492C92.1176 311.054 71.7285 334.797 73.1694 361.086C75.5703 404.64 138.097 447.59 198.571 489.142C256.203 528.736 310.634 566.131 310.498 601.383C310.413 623.36 288.957 642.542 244.869 660.01C199.167 678.112 176.218 698.941 174.68 723.662C172.162 764.181 226.87 808.391 284.792 855.205C341.921 901.378 400.989 949.118 403.328 994.3C404.543 1017.56 390.892 1038.14 361.64 1057.21L362.356 1057.93Z" fill="url(#paint26_linear_1132_14625)" fill-opacity="0.2"/>
<path d="M362.884 1073.01C391.352 1053.65 404.605 1032.71 403.402 1008.97C401.029 962.337 342.091 913.138 285.084 865.547C227.555 817.529 173.226 772.182 175.95 731.094C177.578 706.518 199.702 685.801 243.586 667.763C286.583 650.099 307.574 630.577 307.753 608.107C308.059 571.538 253.72 532.903 196.184 491.999C136.311 449.441 74.394 405.42 72.0839 361.249C70.7102 334.98 90.3315 311.232 132.087 288.646C166.567 270.01 184.099 248.107 185.686 221.706C189.012 166.348 120.753 99.9048 48.4814 29.5557C-10.5815 -27.9349 -71.6492 -87.3857 -99.2803 -145.753C-130.591 -211.863 -112.762 -266.476 -44.781 -312.694L-45.5087 -313.394C-81.6065 -288.846 -103.949 -261.456 -111.913 -231.996C-119.06 -205.541 -115.239 -177.264 -100.228 -145.563C-72.5145 -87.0305 -11.3623 -27.5076 47.7691 30.0476C119.864 100.234 187.98 166.534 184.669 221.518C183.1 247.659 165.694 269.371 131.447 287.905C89.4341 310.627 69.6843 334.586 71.0806 361.154C73.4172 405.756 135.537 449.922 195.62 492.628C252.918 533.358 307.042 571.836 306.739 607.968C306.558 630.141 285.708 649.446 243.017 666.993C198.837 685.142 176.572 706.057 174.925 730.912C172.174 772.41 226.7 817.922 284.426 866.11C341.263 913.547 400.033 962.606 402.387 1008.86C403.584 1032.35 390.427 1053.1 362.175 1072.31L362.884 1073.01Z" fill="url(#paint27_linear_1132_14625)" fill-opacity="0.2"/>
<path d="M363.582 1088.36C391.052 1068.87 403.824 1047.75 402.62 1023.8C400.221 976.066 341.574 925.53 284.844 876.647C227.483 827.225 173.305 780.54 176.257 738.44C177.986 713.736 199.434 692.927 241.832 674.847C283.457 657.104 303.817 637.459 304.102 614.795C304.57 577.343 250.519 537.598 193.302 495.52C133.793 451.758 72.2462 406.507 69.9839 361.24C68.6569 334.672 87.6444 310.712 128.046 287.966C161.256 269.277 178.185 247.311 179.801 220.837C183.274 164.236 115.16 95.921 43.0511 23.6088C-15.5701 -35.1668 -76.1731 -95.9489 -103.974 -155.55C-135.456 -223.047 -118.599 -278.688 -52.4248 -325.64L-53.1616 -326.334C-119.651 -279.162 -136.576 -223.228 -104.917 -155.361C-77.0447 -95.6033 -16.3642 -34.7624 42.3075 24.0903C114.267 96.2505 182.229 164.408 178.801 220.661C177.19 246.893 160.383 268.668 127.399 287.246C86.7393 310.123 67.6393 334.302 68.9798 361.14C71.2666 406.823 133.004 452.236 192.712 496.138C249.702 538.051 303.542 577.632 303.087 614.652C302.805 637.023 282.582 656.451 241.263 674.076C198.579 692.275 176.99 713.273 175.232 738.258C172.258 780.762 226.62 827.6 284.169 877.193C340.725 925.932 399.214 976.328 401.596 1023.7C402.786 1047.41 390.108 1068.33 362.836 1087.67L363.582 1088.36Z" fill="url(#paint28_linear_1132_14625)" fill-opacity="0.2"/>
<path d="M364.425 1103.96C390.929 1084.33 403.233 1063.04 402.014 1038.88C399.582 990.039 341.189 938.12 284.722 887.918C227.502 837.046 173.458 788.995 176.627 745.87C178.447 721.045 199.235 700.16 240.183 682.038C280.45 664.216 300.214 644.447 300.589 621.612C301.221 583.261 247.449 542.373 190.506 499.088C131.328 454.1 70.1352 407.572 67.9172 361.185C66.6357 334.344 85.0088 310.169 124.078 287.275C156.047 268.524 172.4 246.511 174.036 219.965C177.603 162.074 109.616 91.8552 37.6205 17.5175C-20.5694 -42.5813 -80.7449 -104.714 -108.701 -165.554C-140.375 -234.47 -124.473 -291.16 -60.0965 -338.855L-60.8423 -339.543C-125.527 -291.618 -141.494 -234.651 -109.656 -165.374C-81.6277 -104.377 -21.3836 -42.1789 36.87 17.9851C108.71 92.1715 176.572 162.239 173.015 219.782C171.392 246.104 155.163 267.942 123.402 286.559C84.0974 309.605 65.5994 333.981 66.9048 361.096C69.1355 407.887 130.526 454.551 189.9 499.698C246.611 542.818 300.184 583.556 299.565 621.48C299.19 644.032 279.584 663.591 239.593 681.295C198.371 699.545 177.45 720.612 175.6 745.718C172.41 789.248 226.634 837.451 284.038 888.5C340.351 938.565 398.574 990.33 400.987 1038.83C402.182 1062.76 389.976 1083.85 363.678 1103.34L364.425 1103.96Z" fill="url(#paint29_linear_1132_14625)" fill-opacity="0.2"/>
<path d="M365.411 1119.84C452.047 1052.8 366.987 974.803 284.738 899.354C227.638 846.989 173.712 797.532 177.088 753.357C178.991 728.416 199.134 707.45 238.655 689.283C277.594 671.381 296.753 651.499 297.212 628.49C297.995 589.211 244.479 547.159 187.821 502.636C128.959 456.381 68.0868 408.555 65.9049 361.025C64.6632 333.906 82.4086 309.528 120.185 286.455C146.35 270.472 161.546 252.24 166.64 230.717C171.2 211.403 167.471 189.784 155.245 164.611C132.466 117.716 83.783 65.9715 32.2381 11.1727C-25.5559 -50.2541 -85.3131 -113.766 -113.451 -175.891C-145.325 -246.253 -130.391 -304.018 -67.7564 -352.476L-68.5202 -353.15C-131.435 -304.467 -146.447 -246.418 -114.406 -175.71C-86.1933 -113.446 -26.381 -49.8601 31.4655 11.6236C82.9552 66.346 131.586 118.039 154.302 164.799C179.767 217.238 168.744 255.64 119.487 285.718C81.4953 308.915 63.6138 333.52 64.8726 360.899C67.0699 408.818 128.133 456.805 187.184 503.201C243.636 547.565 296.961 589.461 296.178 628.315C295.728 651.041 276.7 670.726 238.033 688.495C198.249 706.788 177.977 727.931 176.047 753.138C172.65 797.722 226.747 847.334 284.023 899.861C365.916 974.965 450.598 1052.63 364.645 1119.15L365.411 1119.84Z" fill="url(#paint30_linear_1132_14625)" fill-opacity="0.2"/>
</g>
<defs>
<linearGradient id="paint0_linear_1132_14625" x1="382.292" y1="-112.507" x2="429.686" y2="807.571" gradientUnits="userSpaceOnUse">
<stop stop-color="#BE8143"/>
<stop offset="0.556227" stop-color="#8F664E"/>
<stop offset="1" stop-color="#BB7F44"/>
</linearGradient>
<linearGradient id="paint1_linear_1132_14625" x1="372.52" y1="-119.16" x2="418.069" y2="818.917" gradientUnits="userSpaceOnUse">
<stop stop-color="#BE8143"/>
<stop offset="0.556227" stop-color="#8F664E"/>
<stop offset="1" stop-color="#BB7F44"/>
</linearGradient>
<linearGradient id="paint2_linear_1132_14625" x1="362.89" y1="-126.005" x2="406.434" y2="830.433" gradientUnits="userSpaceOnUse">
<stop stop-color="#BE8143"/>
<stop offset="0.556227" stop-color="#8F664E"/>
<stop offset="1" stop-color="#BB7F44"/>
</linearGradient>
<linearGradient id="paint3_linear_1132_14625" x1="354.695" y1="-133.271" x2="396.395" y2="841.906" gradientUnits="userSpaceOnUse">
<stop stop-color="#BE8143"/>
<stop offset="0.556227" stop-color="#8F664E"/>
<stop offset="1" stop-color="#BB7F44"/>
</linearGradient>
<linearGradient id="paint4_linear_1132_14625" x1="346.651" y1="-140.768" x2="386.369" y2="853.498" gradientUnits="userSpaceOnUse">
<stop stop-color="#BE8143"/>
<stop offset="0.556227" stop-color="#8F664E"/>
<stop offset="1" stop-color="#BB7F44"/>
</linearGradient>
<linearGradient id="paint5_linear_1132_14625" x1="338.726" y1="-148.508" x2="376.327" y2="865.198" gradientUnits="userSpaceOnUse">
<stop stop-color="#BE8143"/>
<stop offset="0.556227" stop-color="#8F664E"/>
<stop offset="1" stop-color="#BB7F44"/>
</linearGradient>
<linearGradient id="paint6_linear_1132_14625" x1="331.279" y1="-156.449" x2="366.664" y2="877.775" gradientUnits="userSpaceOnUse">
<stop stop-color="#BE8143"/>
<stop offset="0.556227" stop-color="#8F664E"/>
<stop offset="1" stop-color="#BB7F44"/>
</linearGradient>
<linearGradient id="paint7_linear_1132_14625" x1="324.183" y1="-164.666" x2="357.277" y2="890.845" gradientUnits="userSpaceOnUse">
<stop stop-color="#BE8143"/>
<stop offset="0.556227" stop-color="#8F664E"/>
<stop offset="1" stop-color="#BB7F44"/>
</linearGradient>
<linearGradient id="paint8_linear_1132_14625" x1="317.218" y1="-173.091" x2="347.863" y2="904.113" gradientUnits="userSpaceOnUse">
<stop stop-color="#BE8143"/>
<stop offset="0.556227" stop-color="#8F664E"/>
<stop offset="1" stop-color="#BB7F44"/>
</linearGradient>
<linearGradient id="paint9_linear_1132_14625" x1="310.365" y1="-181.804" x2="338.409" y2="917.422" gradientUnits="userSpaceOnUse">
<stop stop-color="#BE8143"/>
<stop offset="0.556227" stop-color="#8F664E"/>
<stop offset="1" stop-color="#BB7F44"/>
</linearGradient>
<linearGradient id="paint10_linear_1132_14625" x1="303.647" y1="-190.761" x2="328.93" y2="930.943" gradientUnits="userSpaceOnUse">
<stop stop-color="#BE8143"/>
<stop offset="0.556227" stop-color="#8F664E"/>
<stop offset="1" stop-color="#BB7F44"/>
</linearGradient>
<linearGradient id="paint11_linear_1132_14625" x1="297.069" y1="-199.93" x2="319.448" y2="944.682" gradientUnits="userSpaceOnUse">
<stop stop-color="#BE8143"/>
<stop offset="0.556227" stop-color="#8F664E"/>
<stop offset="1" stop-color="#BB7F44"/>
</linearGradient>
<linearGradient id="paint12_linear_1132_14625" x1="290.593" y1="-209.356" x2="309.894" y2="958.505" gradientUnits="userSpaceOnUse">
<stop stop-color="#BE8143"/>
<stop offset="0.556227" stop-color="#8F664E"/>
<stop offset="1" stop-color="#BB7F44"/>
</linearGradient>
<linearGradient id="paint13_linear_1132_14625" x1="284.247" y1="-219.067" x2="300.301" y2="972.528" gradientUnits="userSpaceOnUse">
<stop stop-color="#BE8143"/>
<stop offset="0.556227" stop-color="#8F664E"/>
<stop offset="1" stop-color="#BB7F44"/>
</linearGradient>
<linearGradient id="paint14_linear_1132_14625" x1="278.014" y1="-228.996" x2="290.677" y2="986.763" gradientUnits="userSpaceOnUse">
<stop stop-color="#BE8143"/>
<stop offset="0.556227" stop-color="#8F664E"/>
<stop offset="1" stop-color="#BB7F44"/>
</linearGradient>
<linearGradient id="paint15_linear_1132_14625" x1="271.892" y1="-239.228" x2="280.977" y2="1001.08" gradientUnits="userSpaceOnUse">
<stop stop-color="#BE8143"/>
<stop offset="0.556227" stop-color="#8F664E"/>
<stop offset="1" stop-color="#BB7F44"/>
</linearGradient>
<linearGradient id="paint16_linear_1132_14625" x1="265.877" y1="-249.704" x2="271.211" y2="1015.61" gradientUnits="userSpaceOnUse">
<stop stop-color="#BE8143"/>
<stop offset="0.556227" stop-color="#8F664E"/>
<stop offset="1" stop-color="#BB7F44"/>
</linearGradient>
<linearGradient id="paint17_linear_1132_14625" x1="259.99" y1="-260.463" x2="261.395" y2="1030.39" gradientUnits="userSpaceOnUse">
<stop stop-color="#BE8143"/>
<stop offset="0.556227" stop-color="#8F664E"/>
<stop offset="1" stop-color="#BB7F44"/>
</linearGradient>
<linearGradient id="paint18_linear_1132_14625" x1="254.188" y1="-271.471" x2="251.478" y2="1045.29" gradientUnits="userSpaceOnUse">
<stop stop-color="#BE8143"/>
<stop offset="0.556227" stop-color="#8F664E"/>
<stop offset="1" stop-color="#BB7F44"/>
</linearGradient>
<linearGradient id="paint19_linear_1132_14625" x1="248.51" y1="-282.764" x2="241.529" y2="1060.38" gradientUnits="userSpaceOnUse">
<stop stop-color="#BE8143"/>
<stop offset="0.556227" stop-color="#8F664E"/>
<stop offset="1" stop-color="#BB7F44"/>
</linearGradient>
<linearGradient id="paint20_linear_1132_14625" x1="242.908" y1="-294.361" x2="231.465" y2="1075.62" gradientUnits="userSpaceOnUse">
<stop stop-color="#BE8143"/>
<stop offset="0.556227" stop-color="#8F664E"/>
<stop offset="1" stop-color="#BB7F44"/>
</linearGradient>
<linearGradient id="paint21_linear_1132_14625" x1="237.412" y1="-306.24" x2="221.296" y2="1091.12" gradientUnits="userSpaceOnUse">
<stop stop-color="#BE8143"/>
<stop offset="0.556227" stop-color="#8F664E"/>
<stop offset="1" stop-color="#BB7F44"/>
</linearGradient>
<linearGradient id="paint22_linear_1132_14625" x1="232.017" y1="-318.425" x2="211.041" y2="1106.82" gradientUnits="userSpaceOnUse">
<stop stop-color="#BE8143"/>
<stop offset="0.556227" stop-color="#8F664E"/>
<stop offset="1" stop-color="#BB7F44"/>
</linearGradient>
<linearGradient id="paint23_linear_1132_14625" x1="226.73" y1="-330.861" x2="200.74" y2="1122.66" gradientUnits="userSpaceOnUse">
<stop stop-color="#BE8143"/>
<stop offset="0.556227" stop-color="#8F664E"/>
<stop offset="1" stop-color="#BB7F44"/>
</linearGradient>
<linearGradient id="paint24_linear_1132_14625" x1="221.498" y1="-343.641" x2="190.262" y2="1138.75" gradientUnits="userSpaceOnUse">
<stop stop-color="#BE8143"/>
<stop offset="0.556227" stop-color="#8F664E"/>
<stop offset="1" stop-color="#BB7F44"/>
</linearGradient>
<linearGradient id="paint25_linear_1132_14625" x1="216.393" y1="-356.717" x2="179.736" y2="1155.04" gradientUnits="userSpaceOnUse">
<stop stop-color="#BE8143"/>
<stop offset="0.556227" stop-color="#8F664E"/>
<stop offset="1" stop-color="#BB7F44"/>
</linearGradient>
<linearGradient id="paint26_linear_1132_14625" x1="211.366" y1="-370.084" x2="169.084" y2="1171.57" gradientUnits="userSpaceOnUse">
<stop stop-color="#BE8143"/>
<stop offset="0.556227" stop-color="#8F664E"/>
<stop offset="1" stop-color="#BB7F44"/>
</linearGradient>
<linearGradient id="paint27_linear_1132_14625" x1="206.433" y1="-383.765" x2="158.353" y2="1188.32" gradientUnits="userSpaceOnUse">
<stop stop-color="#BE8143"/>
<stop offset="0.556227" stop-color="#8F664E"/>
<stop offset="1" stop-color="#BB7F44"/>
</linearGradient>
<linearGradient id="paint28_linear_1132_14625" x1="201.58" y1="-397.809" x2="147.401" y2="1205.29" gradientUnits="userSpaceOnUse">
<stop stop-color="#BE8143"/>
<stop offset="0.556227" stop-color="#8F664E"/>
<stop offset="1" stop-color="#BB7F44"/>
</linearGradient>
<linearGradient id="paint29_linear_1132_14625" x1="196.824" y1="-412.153" x2="136.473" y2="1222.51" gradientUnits="userSpaceOnUse">
<stop stop-color="#BE8143"/>
<stop offset="0.556227" stop-color="#8F664E"/>
<stop offset="1" stop-color="#BB7F44"/>
</linearGradient>
<linearGradient id="paint30_linear_1132_14625" x1="192.218" y1="-426.934" x2="125.525" y2="1239.99" gradientUnits="userSpaceOnUse">
<stop stop-color="#BE8143"/>
<stop offset="0.556227" stop-color="#8F664E"/>
<stop offset="1" stop-color="#BB7F44"/>
</linearGradient>
</defs>
</svg>
