<svg width="20" height="20" viewBox="0 0 20 20" fill="none" xmlns="http://www.w3.org/2000/svg">
<g clip-path="url(#clip0_215_82)">
<path d="M17.5585 2.38965H2.44569C1.09663 2.38965 0 3.48628 0 4.83533V15.1643C0 16.5134 1.09663 17.61 2.44569 17.61H17.5543C18.9034 17.61 20 16.5134 20 15.1643V4.83947C20.0041 3.49041 18.9075 2.38965 17.5585 2.38965ZM18.8868 15.1643C18.8868 15.8968 18.2909 16.4927 17.5585 16.4927H2.44569C1.71322 16.4927 1.11732 15.8968 1.11732 15.1643V4.83947C1.11732 4.10701 1.71322 3.51111 2.44569 3.51111H17.5543C18.2868 3.51111 18.8827 4.10701 18.8827 4.83947V15.1643H18.8868Z" fill="#EDEDED"/>
<path d="M12.6133 9.87145L17.5046 5.48494C17.7322 5.27803 17.7529 4.92628 17.546 4.69454C17.3391 4.46694 16.9874 4.44624 16.7556 4.65316L10.0103 10.7074L8.69437 9.53211C8.69023 9.52797 8.68609 9.52384 8.68609 9.5197C8.65712 9.49073 8.62816 9.4659 8.59505 9.44107L3.2402 4.64902C3.00846 4.44211 2.65671 4.4628 2.4498 4.69454C2.24289 4.92628 2.26358 5.27803 2.49532 5.48494L7.44463 9.90869L2.51601 14.5228C2.29255 14.7339 2.28013 15.0856 2.49118 15.3132C2.60291 15.4291 2.75189 15.4911 2.90086 15.4911C3.03743 15.4911 3.17399 15.4415 3.28158 15.3422L8.28468 10.6618L9.64202 11.8743C9.74961 11.9695 9.88204 12.015 10.0145 12.015C10.1469 12.015 10.2834 11.9654 10.3869 11.8702L11.7815 10.6205L16.7556 15.3463C16.8632 15.4498 17.0039 15.4994 17.1405 15.4994C17.2894 15.4994 17.4343 15.4415 17.546 15.3256C17.7571 15.1022 17.7488 14.7463 17.5253 14.5352L12.6133 9.87145Z" fill="#EDEDED"/>
</g>
<defs>
<clipPath id="clip0_215_82">
<rect width="20" height="20" fill="white"/>
</clipPath>
</defs>
</svg>
