<svg width="38" height="61" viewBox="0 0 38 61" fill="none" xmlns="http://www.w3.org/2000/svg">
<circle cx="18.7498" cy="30.4998" r="16.25" fill="#D5A429"/>
<path d="M3.925 7.8C5.725 6.65 7.65 5.8 9.7 5.25C11.75 4.7 14.1 4.425 16.75 4.425C19.05 4.425 21.125 4.75 22.975 5.4C24.825 6.05 26.4 6.95 27.7 8.1C29.05 9.2 30.075 10.5 30.775 12C31.525 13.5 31.9 15.125 31.9 16.875C31.9 19.825 31.125 22.225 29.575 24.075C28.025 25.925 26.175 27.275 24.025 28.125C26.875 28.725 29.175 30.05 30.925 32.1C32.675 34.1 33.55 36.525 33.55 39.375C33.55 41.775 33.1 43.85 32.2 45.6C31.3 47.35 30.05 48.8 28.45 49.95C26.9 51.1 25.05 51.95 22.9 52.5C20.75 53.05 18.45 53.325 16 53.325C13.45 53.325 11.025 53.075 8.725 52.575C6.475 52.075 4.5 51.375 2.8 50.475L4.975 43.425C6.525 44.125 8.025 44.7 9.475 45.15C10.925 45.55 12.6 45.75 14.5 45.75C17.1 45.75 19.2 45.2 20.8 44.1C22.45 42.95 23.275 41.3 23.275 39.15C23.275 37.05 22.525 35.425 21.025 34.275C19.525 33.075 17.325 32.475 14.425 32.475H9.025V25.125H12.925C15.725 25.125 17.9 24.525 19.45 23.325C21 22.075 21.775 20.325 21.775 18.075C21.775 16.125 21.1 14.625 19.75 13.575C18.45 12.475 16.85 11.925 14.95 11.925C13.6 11.925 12.275 12.125 10.975 12.525C9.725 12.925 8.425 13.575 7.075 14.475L3.925 7.8Z" fill="#292A2B"/>
</svg>
