<svg width="75" height="120" viewBox="0 0 75 120" fill="none" xmlns="http://www.w3.org/2000/svg">
<circle cx="37.5" cy="60" r="32.5" fill="#D5A429"/>
<path d="M7.35049 15.6005C10.9505 13.3005 14.8005 11.6005 18.9005 10.5005C23.0005 9.40048 27.7005 8.85048 33.0005 8.85048C37.6005 8.85048 41.7505 9.50048 45.4505 10.8005C49.1505 12.1005 52.3005 13.9005 54.9005 16.2005C57.6005 18.4005 59.6505 21.0005 61.0505 24.0005C62.5505 27.0005 63.3005 30.2505 63.3005 33.7505C63.3005 39.6505 61.7505 44.4505 58.6505 48.1505C55.5505 51.8505 51.8505 54.5505 47.5505 56.2505C53.2505 57.4505 57.8505 60.1005 61.3505 64.2005C64.8505 68.2005 66.6005 73.0505 66.6005 78.7505C66.6005 83.5505 65.7005 87.7005 63.9005 91.2005C62.1005 94.7005 59.6005 97.6005 56.4005 99.9005C53.3005 102.2 49.6005 103.9 45.3005 105C41.0005 106.1 36.4005 106.65 31.5005 106.65C26.4005 106.65 21.5505 106.15 16.9505 105.15C12.4505 104.15 8.50049 102.75 5.10049 100.95L9.45049 86.8505C12.5505 88.2505 15.5505 89.4005 18.4505 90.3005C21.3505 91.1005 24.7005 91.5005 28.5005 91.5005C33.7005 91.5005 37.9005 90.4005 41.1005 88.2005C44.4005 85.9005 46.0505 82.6005 46.0505 78.3005C46.0505 74.1005 44.5505 70.8505 41.5505 68.5505C38.5505 66.1505 34.1505 64.9505 28.3505 64.9505H17.5505V50.2505H25.3505C30.9505 50.2505 35.3005 49.0505 38.4005 46.6505C41.5005 44.1505 43.0505 40.6505 43.0505 36.1505C43.0505 32.2505 41.7005 29.2505 39.0005 27.1505C36.4005 24.9505 33.2005 23.8505 29.4005 23.8505C26.7005 23.8505 24.0505 24.2505 21.4505 25.0505C18.9505 25.8505 16.3505 27.1505 13.6505 28.9505L7.35049 15.6005Z" fill="#EDEDED"/>
</svg>
