<svg width="40" height="61" viewBox="0 0 40 61" fill="none" xmlns="http://www.w3.org/2000/svg">
<circle cx="19.7498" cy="30.4998" r="16.25" fill="#D5A429"/>
<path d="M33.3397 5.1V12.825L16.8397 12.975L15.7897 22.425C16.4897 22.325 17.0397 22.275 17.4397 22.275C17.8897 22.275 18.4647 22.275 19.1647 22.275C21.2647 22.275 23.2897 22.575 25.2397 23.175C27.1897 23.725 28.9147 24.6 30.4147 25.8C31.9147 26.95 33.1147 28.45 34.0147 30.3C34.9147 32.15 35.3647 34.35 35.3647 36.9C35.3647 39.15 34.9647 41.275 34.1647 43.275C33.4147 45.225 32.2397 46.95 30.6397 48.45C29.0897 49.95 27.0897 51.15 24.6397 52.05C22.1897 52.9 19.3147 53.325 16.0147 53.325C13.6147 53.325 11.4147 53.075 9.41475 52.575C7.41475 52.075 5.68975 51.475 4.23975 50.775L6.33975 43.5C7.63975 44.1 8.98975 44.6 10.3897 45C11.7897 45.4 13.3647 45.6 15.1147 45.6C18.3647 45.6 20.8397 44.85 22.5397 43.35C24.2397 41.85 25.0897 39.9 25.0897 37.5C25.0897 34.75 24.1147 32.7 22.1647 31.35C20.2647 30 17.8147 29.325 14.8147 29.325C13.5147 29.325 12.1897 29.425 10.8397 29.625C9.48975 29.775 8.21475 29.975 7.01475 30.225L9.33975 5.25L33.3397 5.1Z" fill="#292A2B"/>
</svg>
