<svg width="41" height="61" viewBox="0 0 41 61" fill="none" xmlns="http://www.w3.org/2000/svg">
<circle cx="19.7498" cy="30.4998" r="16.25" fill="#D5A429"/>
<path d="M24.6288 4.425C26.3788 4.425 28.0288 4.575 29.5788 4.875C31.1788 5.125 32.7038 5.6 34.1538 6.3L31.9038 13.8C30.9038 13.25 29.8288 12.825 28.6788 12.525C27.5288 12.175 26.2538 12 24.8538 12C23.0038 12 21.3788 12.325 19.9788 12.975C18.5788 13.575 17.3788 14.45 16.3788 15.6C15.4288 16.7 14.6788 18.025 14.1288 19.575C13.5788 21.075 13.2288 22.725 13.0788 24.525C14.3788 23.325 15.9038 22.425 17.6538 21.825C19.4538 21.225 21.3038 20.925 23.2038 20.925C25.4038 20.925 27.4288 21.275 29.2788 21.975C31.1288 22.675 32.7288 23.7 34.0788 25.05C35.4288 26.4 36.4788 28.05 37.2288 30C37.9788 31.9 38.3538 34.05 38.3538 36.45C38.3538 38.95 37.9538 41.225 37.1538 43.275C36.3538 45.325 35.2038 47.1 33.7038 48.6C32.2038 50.1 30.4038 51.275 28.3038 52.125C26.2038 52.925 23.8788 53.325 21.3288 53.325C19.1288 53.325 16.9288 52.95 14.7288 52.2C12.5288 51.4 10.5538 50.1 8.80381 48.3C7.05381 46.5 5.60381 44.15 4.45381 41.25C3.35381 38.35 2.80381 34.775 2.80381 30.525C2.80381 25.875 3.42881 21.9 4.67881 18.6C5.92881 15.3 7.57881 12.6 9.62881 10.5C11.6788 8.4 14.0038 6.875 16.6038 5.925C19.2538 4.925 21.9288 4.425 24.6288 4.425ZM13.0788 35.55C13.0788 37 13.2538 38.375 13.6038 39.675C14.0038 40.925 14.5538 42.025 15.2538 42.975C15.9538 43.925 16.8038 44.675 17.8038 45.225C18.8038 45.725 19.9538 45.975 21.2538 45.975C22.3538 45.975 23.3288 45.725 24.1788 45.225C25.0788 44.725 25.8288 44.05 26.4288 43.2C27.0788 42.35 27.5538 41.375 27.8538 40.275C28.2038 39.175 28.3788 38 28.3788 36.75C28.3788 33.9 27.7038 31.8 26.3538 30.45C25.0538 29.1 23.2538 28.425 20.9538 28.425C19.3538 28.425 17.9788 28.75 16.8288 29.4C15.7288 30 14.8788 30.725 14.2788 31.575C13.8788 32.075 13.5788 32.625 13.3788 33.225C13.1788 33.825 13.0788 34.6 13.0788 35.55Z" fill="#292A2B"/>
</svg>
