<svg width="39" height="61" viewBox="0 0 39 61" fill="none" xmlns="http://www.w3.org/2000/svg">
<circle cx="19.75" cy="30.5" r="16.25" fill="#D5A429"/>
<path d="M19.8926 4.425C22.5426 4.425 24.8426 4.775 26.7926 5.475C28.7426 6.175 30.3676 7.1 31.6676 8.25C32.9676 9.4 33.9176 10.7 34.5176 12.15C35.1676 13.6 35.4926 15.1 35.4926 16.65C35.4926 19.15 34.7176 21.325 33.1676 23.175C31.6676 24.975 29.6426 26.4 27.0926 27.45C28.4426 27.9 29.6926 28.475 30.8426 29.175C31.9926 29.875 32.9926 30.7 33.8426 31.65C34.7426 32.6 35.4426 33.7 35.9426 34.95C36.4426 36.15 36.6926 37.5 36.6926 39C36.6926 41.2 36.2676 43.175 35.4176 44.925C34.5676 46.675 33.3676 48.175 31.8176 49.425C30.3176 50.675 28.4926 51.65 26.3426 52.35C24.2426 53 21.8926 53.325 19.2926 53.325C16.7426 53.325 14.4176 53 12.3176 52.35C10.2176 51.7 8.41758 50.775 6.91758 49.575C5.41758 48.375 4.26758 46.95 3.46758 45.3C2.66758 43.65 2.26758 41.825 2.26758 39.825C2.26758 38.275 2.49258 36.9 2.94258 35.7C3.39258 34.5 4.01758 33.45 4.81758 32.55C5.66758 31.6 6.64258 30.775 7.74258 30.075C8.89258 29.375 10.1426 28.75 11.4926 28.2C9.29258 27.2 7.46758 25.8 6.01758 24C4.56758 22.15 3.84258 20.025 3.84258 17.625C3.84258 15.975 4.16758 14.375 4.81758 12.825C5.51758 11.225 6.54258 9.8 7.89258 8.55C9.24258 7.3 10.9176 6.3 12.9176 5.55C14.9176 4.8 17.2426 4.425 19.8926 4.425ZM13.4426 17.025C13.4426 18.875 14.0926 20.4 15.3926 21.6C16.6926 22.75 18.2426 23.6 20.0426 24.15C21.6426 23.55 22.9926 22.65 24.0926 21.45C25.2426 20.25 25.8176 18.875 25.8176 17.325C25.8176 15.475 25.2426 14.075 24.0926 13.125C22.9926 12.125 21.4926 11.625 19.5926 11.625C17.6926 11.625 16.1926 12.175 15.0926 13.275C13.9926 14.325 13.4426 15.575 13.4426 17.025ZM18.9926 32.1C17.0426 32.75 15.4426 33.7 14.1926 34.95C12.9426 36.15 12.3176 37.7 12.3176 39.6C12.3176 41.5 12.9426 43.05 14.1926 44.25C15.4926 45.4 17.3176 45.975 19.6676 45.975C21.7176 45.975 23.3926 45.35 24.6926 44.1C26.0426 42.8 26.7176 41.275 26.7176 39.525C26.7176 37.625 25.9926 36.05 24.5426 34.8C23.0926 33.55 21.2426 32.65 18.9926 32.1Z" fill="#292A2B"/>
</svg>
