<svg width="74" height="120" viewBox="0 0 74 120" fill="none" xmlns="http://www.w3.org/2000/svg">
<circle cx="36.5" cy="60" r="32.5" fill="#D5A429"/>
<path d="M33.5329 24.1505C30.3329 24.1505 27.2829 24.7505 24.3829 25.9505C21.5829 27.0505 18.5829 28.9005 15.3829 31.5005L7.13291 18.9005C11.0329 15.7005 15.2329 13.2505 19.7329 11.5505C24.3329 9.75048 29.7329 8.85048 35.9329 8.85048C40.7329 8.85048 44.9829 9.55048 48.6829 10.9505C52.4829 12.3505 55.6829 14.3005 58.2829 16.8005C60.8829 19.3005 62.8329 22.2505 64.1329 25.6505C65.5329 28.9505 66.2329 32.6005 66.2329 36.6005C66.2329 43.2005 63.8829 50.1505 59.1829 57.4505C54.4829 64.6505 47.7329 72.4005 38.9329 80.7005L29.4829 89.5505H67.2829V105H9.38291L5.78291 91.8005L19.2829 78.3005C24.2829 73.3005 28.4829 68.9005 31.8829 65.1005C35.2829 61.2005 38.0329 57.7005 40.1329 54.6005C42.2329 51.5005 43.7329 48.6505 44.6329 46.0505C45.5329 43.4505 45.9829 40.8505 45.9829 38.2505C45.9829 33.6505 44.7829 30.1505 42.3829 27.7505C40.0829 25.3505 37.1329 24.1505 33.5329 24.1505Z" fill="#EDEDED"/>
</svg>
