<svg width="37" height="60" viewBox="0 0 37 60" fill="none" xmlns="http://www.w3.org/2000/svg">
<circle cx="18.2498" cy="29.9998" r="16.25" fill="#D5A429"/>
<path d="M16.7662 11.575C15.1662 11.575 13.6412 11.875 12.1912 12.475C10.7912 13.025 9.29121 13.95 7.69121 15.25L3.56621 8.95C5.51621 7.35 7.61621 6.125 9.86621 5.275C12.1662 4.375 14.8662 3.925 17.9662 3.925C20.3662 3.925 22.4912 4.275 24.3412 4.975C26.2412 5.675 27.8412 6.65 29.1412 7.9C30.4412 9.15 31.4162 10.625 32.0662 12.325C32.7662 13.975 33.1162 15.8 33.1162 17.8C33.1162 21.1 31.9412 24.575 29.5912 28.225C27.2412 31.825 23.8662 35.7 19.4662 39.85L14.7412 44.275H33.6412V52H4.69121L2.89121 45.4L9.64121 38.65C12.1412 36.15 14.2412 33.95 15.9412 32.05C17.6412 30.1 19.0162 28.35 20.0662 26.8C21.1162 25.25 21.8662 23.825 22.3162 22.525C22.7662 21.225 22.9912 19.925 22.9912 18.625C22.9912 16.325 22.3912 14.575 21.1912 13.375C20.0412 12.175 18.5662 11.575 16.7662 11.575Z" fill="#292A2B"/>
</svg>
