<svg width="29" height="32" viewBox="0 0 29 32" fill="none" xmlns="http://www.w3.org/2000/svg">
<path d="M5.06684 1.23146C4.67957 1.00114 4.23892 0.869082 3.78538 0.847415C3.33184 0.825749 2.87998 0.915172 2.47131 1.10746L16.4772 14.7467L21.0584 10.2761L5.06684 1.23146ZM1.18064 2.37495C1.0013 2.74554 0.909237 3.15029 0.911162 3.55978V28.5031C0.910416 28.9088 1.00501 29.3094 1.18773 29.6742L15.1866 16.0005L1.18064 2.37495ZM16.4772 17.2679L2.49259 30.9141C2.85746 31.0761 3.25446 31.1584 3.65561 31.1552C4.15459 31.1601 4.64531 31.0314 5.07393 30.7832L21.0584 21.7248L16.4772 17.2679ZM27.1146 13.7272L22.6895 11.1785L17.7679 16.0005L22.6966 20.8224L27.1501 18.3012C27.5521 18.0633 27.8844 17.7289 28.115 17.3302C28.3456 16.9315 28.4667 16.4819 28.4667 16.0246C28.4667 15.5673 28.3456 15.1176 28.115 14.7189C27.8844 14.3202 27.5521 13.9858 27.1501 13.7479L27.1146 13.7272Z" fill="#EDEDED"/>
</svg>
