<svg width="768" height="522" viewBox="0 0 768 522" fill="none" xmlns="http://www.w3.org/2000/svg">
<path d="M466.483 13.6748C457.441 6.0154 449.932 3.68333 443.871 6.57329C422.584 16.7233 422.719 90.0706 422.842 161.008C422.953 227.339 423.082 295.923 404.643 303.707C389.338 310.167 362.462 275.08 322.483 196.446C284.813 122.379 260.095 89.3907 246.936 95.5939C230.166 103.497 234.084 171.832 238.233 244.188C242.583 320.055 247.073 398.502 227.418 408.306C212.755 415.622 186.173 384.163 146.153 312.107C109.775 246.617 83.3476 218.229 65.375 225.303C39.5348 235.46 34.5048 316.544 29.1819 402.371C23.2933 497.331 17.197 595.514 -16.9621 609.861C-42.4298 620.563 -80.5625 583.17 -133.538 495.549L-134.145 496.16C-80.9595 584.146 -42.555 621.642 -16.7462 610.807C17.924 596.242 24.0258 497.717 29.9418 402.431C35.2468 316.951 40.2573 236.2 65.5747 226.246C83.2081 219.31 109.37 247.598 145.536 312.708C185.782 385.163 212.655 416.724 227.683 409.228C247.897 399.139 243.384 320.32 239.01 244.09C234.884 172.117 230.99 104.145 247.199 96.5124C259.989 90.4806 284.412 123.367 321.865 197.012C362.062 276.048 389.215 311.25 404.876 304.634C423.864 296.62 423.743 230.726 423.623 160.973C423.496 90.3813 423.364 17.3816 444.126 7.48546C457.917 0.91825 479.578 22.4661 510.36 73.3843L510.969 72.7772C493.26 43.4989 478.508 23.8702 466.483 13.6748Z" fill="#EDEDED" fill-opacity="0.2"/>
<path d="M477.051 17.1925C467.599 9.1762 459.737 6.72926 453.364 9.72962C431.602 19.9714 430.86 92.5809 430.141 162.799C429.479 228.495 428.784 296.411 409.895 304.235C394.308 310.687 367.573 276.546 328.123 199.871C290.942 127.584 266.349 95.4638 252.935 101.686C235.788 109.646 238.946 177.194 242.297 248.71C245.801 323.691 249.431 401.233 229.306 411.152C214.355 418.522 187.85 387.955 148.267 317.706C112.361 253.989 86.0249 226.43 67.7564 233.467C41.2972 243.653 35.2369 324.096 28.8098 409.252C21.7077 503.476 14.362 600.901 -20.6504 615.352C-46.5641 626.037 -84.617 589.832 -137.001 504.639L-137.603 505.249C-85.0113 590.782 -46.6824 627.088 -20.4435 616.257C15.0653 601.61 22.4407 503.842 29.568 409.297C35.9694 324.482 42.0021 244.376 67.9466 234.389C85.8661 227.479 111.936 254.928 147.638 318.283C187.446 388.929 214.24 419.592 229.554 412.037C250.222 401.852 246.574 323.939 243.043 248.602C239.716 177.468 236.57 110.278 253.159 102.573C266.186 96.5258 290.5 128.517 327.468 200.39C367.119 277.474 394.141 311.731 410.091 305.125C429.533 297.079 430.185 231.831 430.896 162.742C431.608 92.8706 432.344 20.6124 453.586 10.6125C467.627 4.00388 489.264 24.8804 519.748 74.4429L520.351 73.8337C503.285 46.0742 488.914 27.2542 477.051 17.1925Z" fill="#EDEDED" fill-opacity="0.2"/>
<path d="M487.732 20.5192C477.855 12.1374 469.63 9.56107 462.921 12.6833C440.661 23.0221 439.046 94.9224 437.494 164.453C436.034 229.538 434.535 296.828 415.173 304.683C399.297 311.125 372.676 277.912 333.775 203.158C297.071 132.621 272.592 101.368 258.921 107.616C241.379 115.625 243.79 182.425 246.331 253.143C248.997 327.264 251.753 403.933 231.161 413.949C215.923 421.379 189.481 391.697 150.322 323.214C114.884 261.231 88.6319 234.504 70.0696 241.499C42.9817 251.704 35.8597 331.546 28.3373 416.071C20.0044 509.598 11.3941 606.307 -24.4934 620.846C-50.8372 631.527 -88.8254 596.467 -140.642 513.68L-141.244 514.303C-89.2241 597.429 -50.966 632.588 -24.2912 621.773C12.0788 607.029 20.7305 509.992 29.0908 416.138C36.5834 331.956 43.6743 252.433 70.262 242.415C88.4794 235.546 114.472 262.175 149.705 323.795C189.08 392.666 215.806 422.444 231.404 414.837C252.536 404.535 249.765 327.524 247.085 253.041C244.551 182.713 242.156 116.269 259.147 108.497C272.429 102.43 296.63 133.558 333.128 203.683C372.226 278.828 399.128 312.154 415.364 305.575C435.265 297.509 436.707 232.856 438.241 164.409C439.797 95.2101 441.39 23.6587 463.153 13.5563C477.453 6.91656 499.06 27.1297 529.235 75.3423L529.838 74.7129C513.372 48.4469 499.406 30.4199 487.732 20.5192Z" fill="#EDEDED" fill-opacity="0.2"/>
<path d="M498.513 23.6544C488.193 14.8966 479.585 12.1945 472.531 15.4221C449.739 25.8591 447.267 97.0828 444.859 165.961C442.502 233.431 440.281 297.157 420.439 305.041C404.284 311.463 377.781 279.166 339.401 206.312C303.167 137.513 278.784 107.108 264.864 113.366C246.92 121.443 248.567 187.512 250.31 257.457C252.136 330.769 254.013 406.587 232.933 416.72C217.407 424.194 191.022 395.393 152.286 328.655C117.306 268.406 91.1405 242.485 72.2848 249.427C44.542 259.649 36.367 338.929 27.7242 422.855C18.1471 515.731 8.25272 611.778 -28.5304 626.415C-55.312 637.075 -93.2433 603.154 -144.491 522.737L-145.088 523.368C-93.6221 604.127 -55.4329 638.142 -28.3283 627.342C8.94522 612.506 18.8709 516.141 28.4792 422.947C37.1003 339.36 45.2381 260.395 72.487 250.354C90.994 243.53 116.906 269.344 151.677 329.242C190.633 396.356 217.301 425.26 233.188 417.612C254.814 407.215 252.906 331.043 251.08 257.367C249.347 187.797 247.71 122.081 265.112 114.252C278.651 108.15 302.751 138.439 338.774 206.848C377.345 280.091 404.124 312.499 420.644 305.942C441.019 297.845 443.256 233.777 445.617 165.942C448.012 97.3987 450.491 26.5105 472.767 16.3033C487.331 9.6306 508.93 29.185 538.807 76.0722L539.401 75.4424C523.543 50.6015 509.98 33.3878 498.513 23.6544Z" fill="#EDEDED" fill-opacity="0.2"/>
<path d="M509.393 26.5832C498.621 17.433 489.604 14.6021 482.198 17.9491C458.882 28.4805 455.521 99.0672 452.255 167.323C449.06 234.222 446.046 297.422 425.711 305.326C409.264 311.719 382.866 280.324 345.015 209.355C309.232 142.254 284.951 112.688 270.786 118.955C252.428 127.085 253.316 192.462 254.245 261.665C255.226 334.21 256.236 409.201 234.653 419.454C218.823 426.97 192.496 399.023 154.166 334.024C119.64 275.466 93.5545 250.36 74.4196 257.247C45.9997 267.48 36.7611 346.23 26.9741 429.612C16.1472 521.889 4.94499 617.32 -32.7618 632.048C-59.9786 642.672 -97.8471 609.892 -148.549 531.791L-149.143 532.42C-98.2351 610.834 -60.105 643.717 -32.5632 632.957C5.62964 618.042 16.865 522.297 27.7349 429.706C37.4779 346.668 46.688 268.22 74.6139 258.168C93.4124 251.392 119.232 276.398 153.562 334.609C192.11 399.99 218.721 428.034 234.909 420.346C257.021 409.852 256.004 334.49 255.021 261.598C254.093 192.763 253.212 127.731 271.028 119.849C284.826 113.747 308.824 143.186 344.397 209.901C382.446 281.262 409.115 312.78 425.917 306.241C446.781 298.125 449.815 234.593 453.032 167.335C456.277 99.4076 459.627 29.1599 482.445 18.8549C497.264 12.1631 518.843 31.0645 548.434 76.6407L549.025 76.007C533.781 52.569 520.636 36.1366 509.393 26.5832Z" fill="#EDEDED" fill-opacity="0.2"/>
<path d="M520.387 29.341C509.149 19.7899 499.715 16.8199 491.929 20.2937C468.077 30.9251 463.818 100.899 459.701 168.565C455.658 234.927 451.85 297.609 430.995 305.552C414.258 311.921 387.975 281.414 350.637 212.287C315.306 146.863 291.115 118.121 276.695 124.408C257.91 132.583 258.016 197.298 258.143 265.813C258.277 337.597 258.409 411.827 236.298 422.186C220.164 429.744 193.89 402.638 155.96 339.345C121.872 282.466 95.8652 258.139 76.4573 264.965C47.3403 275.208 37.0162 353.477 26.0905 436.338C13.9924 528.067 1.47525 622.919 -37.1959 637.748C-64.8385 648.355 -102.657 616.658 -152.814 540.872L-153.397 541.512C-103.041 617.608 -64.9624 649.384 -36.9937 638.675C2.14924 623.661 14.6994 528.495 26.8401 436.473C37.7337 353.895 48.0187 275.938 76.6377 265.877C95.7171 259.17 121.47 283.39 155.352 339.932C193.501 403.601 220.065 430.795 236.541 423.073C259.164 412.466 259.024 337.886 258.9 265.749C258.785 197.602 258.665 133.242 276.912 125.303C290.972 119.184 314.889 147.819 350.006 212.835C387.549 282.329 414.095 312.963 431.187 306.468C452.557 298.336 456.398 235.32 460.451 168.605C464.552 101.255 468.787 31.6057 492.15 21.2069C507.23 14.488 528.799 32.7569 558.111 77.0386L558.696 76.4026C544.118 54.3326 531.386 38.6895 520.387 29.341Z" fill="#EDEDED" fill-opacity="0.2"/>
<path d="M531.928 31.3558C520.201 21.3949 510.346 18.2819 502.163 21.8959C477.74 32.6386 472.559 102.055 467.546 169.188C462.63 235.064 457.98 297.287 436.601 305.259C419.578 311.602 393.398 281.978 356.584 214.694C321.708 150.955 297.603 123.03 282.917 129.322C263.685 137.564 263.005 201.659 262.293 269.529C261.546 340.617 260.771 414.129 238.129 424.62C221.692 432.224 195.463 405.975 157.926 344.371C124.296 289.161 98.3747 265.617 78.6731 272.4C48.8463 282.669 37.3927 360.523 25.2694 442.941C11.8301 534.163 -2.0509 628.524 -41.7172 643.472C-69.7976 654.06 -107.564 623.478 -157.168 549.995L-157.746 550.637C-107.928 624.429 -69.9116 655.099 -41.515 644.399C-1.38094 629.268 12.5432 534.593 26.02 443.045C38.096 360.943 49.5048 283.389 78.856 273.296C98.2272 266.627 123.895 290.065 157.328 344.948C195.077 406.921 221.59 433.268 238.372 425.508C261.528 414.782 262.309 340.919 263.062 269.49C263.775 201.998 264.444 138.242 283.152 130.233C297.478 124.089 321.298 151.913 355.964 215.256C392.985 282.922 419.429 312.662 436.803 306.185C458.703 298.026 463.374 235.475 468.312 169.24C473.302 102.421 478.454 33.3273 502.4 22.8015C517.741 16.0557 539.312 33.6762 568.329 76.6709L568.912 76.0308C554.932 55.321 542.652 40.4684 531.928 31.3558Z" fill="#EDEDED" fill-opacity="0.2"/>
<path d="M543.794 32.8549C531.582 22.4825 521.272 19.2274 512.685 22.9694C487.673 33.8471 481.553 102.744 475.627 169.38C469.82 234.82 464.326 296.629 442.38 304.645C425.057 310.964 398.993 282.212 362.691 216.757C328.262 154.672 304.257 127.562 289.296 133.872C269.598 142.182 268.117 205.704 266.546 272.957C264.894 343.396 263.194 416.237 239.997 426.863C223.254 434.525 197.062 409.125 159.927 349.186C126.745 295.635 100.908 272.883 80.931 279.62C50.3536 289.935 37.7449 367.415 24.4041 449.453C9.61615 540.292 -5.66913 634.236 -46.3617 649.333C-74.8842 659.912 -112.593 630.449 -161.66 559.241L-162.244 559.896C-112.976 631.404 -75.0026 660.963 -46.1778 650.263C-5.02376 634.991 10.3102 540.756 25.1511 449.613C38.4468 367.885 51.009 290.691 81.1068 280.554C100.758 273.919 126.344 296.573 159.332 349.802C196.688 410.086 223.158 435.58 240.249 427.767C263.951 416.911 265.671 343.727 267.32 272.951C268.885 206.069 270.357 142.895 289.524 134.792C304.128 128.633 327.853 155.635 362.075 217.337C398.581 283.156 424.908 312.024 442.576 305.58C465.026 297.384 470.549 235.253 476.392 169.463C482.288 103.135 488.386 34.566 512.922 23.8952C528.529 17.1104 550.084 34.0962 578.833 75.8209L579.415 75.1666C566.054 55.7871 554.228 41.7189 543.794 32.8549Z" fill="#EDEDED" fill-opacity="0.2"/>
<path d="M555.821 34.1605C543.094 23.3555 532.325 19.9704 523.304 23.8396C497.687 34.8396 490.613 103.28 483.774 169.444C477.052 234.478 470.708 295.905 448.193 303.952C430.572 310.24 404.608 282.368 368.816 218.702C334.83 158.255 310.909 131.947 295.689 138.268C275.516 146.649 273.211 209.628 270.788 276.292C268.244 346.12 265.613 418.319 241.842 429.072C224.779 436.794 198.628 412.221 161.876 353.952C129.13 302.035 103.367 280.051 83.1252 286.732C51.7853 297.078 38.0077 374.25 23.412 455.946C7.25846 546.429 -9.45593 639.978 -51.2136 655.237C-80.1643 665.816 -117.831 637.429 -166.356 568.468L-166.932 569.13C-118.197 638.376 -80.2784 666.855 -51.0237 656.169C-8.809 640.747 7.94636 546.891 24.1624 456.124C38.6969 374.736 52.4358 297.866 83.2991 287.662C103.223 281.079 128.737 302.965 161.287 354.57C198.255 413.196 224.684 437.864 242.083 429.986C266.365 419.005 269.014 346.459 271.567 276.308C273.978 209.993 276.266 147.361 295.926 139.194C310.793 133.012 334.443 159.222 368.222 219.288C404.21 283.31 430.435 311.305 448.399 304.887C471.418 296.65 477.799 234.907 484.561 169.531C491.372 103.659 498.416 35.551 523.552 24.7455C539.431 17.9239 560.989 34.2755 589.457 74.7318L590.031 74.0712C577.283 56.03 565.928 42.7487 555.821 34.1605Z" fill="#EDEDED" fill-opacity="0.2"/>
<path d="M567.958 35.2953C554.702 24.0391 543.453 20.4991 533.992 24.5236C507.756 35.6618 499.717 103.634 491.949 169.385C484.314 234.042 477.099 295.127 454 303.212C436.088 309.486 410.223 282.445 374.928 220.555C341.375 161.723 317.533 136.195 302.042 142.533C281.376 150.979 278.26 213.434 274.965 279.553C271.513 348.787 267.949 420.374 243.587 431.268C226.211 439.035 200.082 415.279 163.704 358.639C131.396 308.326 105.719 287.094 85.2034 293.743C53.0762 304.141 38.1132 381.013 22.2634 462.412C4.70873 552.581 -13.445 645.808 -56.3036 661.216C-85.6801 671.779 -123.301 644.466 -171.308 577.72L-171.874 578.392C-123.661 645.425 -85.7942 672.818 -56.1156 662.144C-12.8201 646.573 5.39639 553.053 22.9991 462.612C38.7937 381.524 53.7046 304.925 85.3706 294.691C105.57 288.154 131.002 309.287 163.114 359.287C199.705 416.267 226.108 440.119 243.815 432.208C268.675 421.088 272.268 349.158 275.728 279.596C279.004 213.825 282.105 151.711 302.248 143.468C317.388 137.274 340.966 162.685 374.307 221.147C409.802 283.382 435.929 310.536 454.17 304.144C477.773 295.889 485.027 234.492 492.699 169.499C500.431 104.054 508.427 36.3855 534.198 25.4586C550.344 18.602 571.89 34.3372 600.1 73.544L600.666 72.8772C588.62 56.098 577.736 43.5935 567.958 35.2953Z" fill="#EDEDED" fill-opacity="0.2"/>
<path d="M580.244 36.2262C566.444 24.5163 554.7 20.8331 544.766 24.9979C517.891 36.2695 508.888 103.829 500.191 169.17C491.617 233.497 483.534 294.259 459.821 302.376C441.624 308.603 415.854 282.409 381.047 222.274C347.914 165.029 324.148 140.283 308.389 146.626C287.215 155.145 283.284 217.112 279.121 282.703C274.767 351.381 270.254 422.404 245.284 433.447C227.594 441.256 201.49 418.314 165.477 363.282C133.593 314.565 107.986 294.082 87.2095 300.663C54.2758 311.083 38.1055 387.715 20.9802 468.855C2.0056 558.734 -17.6128 651.682 -61.5952 667.254C-91.3911 677.793 -128.964 651.544 -176.463 586.986L-177.029 587.658C-129.333 652.492 -91.5172 678.828 -61.4194 668.188C-17.0087 652.466 2.67417 559.24 21.7053 469.076C38.7652 388.245 54.8835 311.886 87.3626 301.612C107.833 295.134 133.191 315.519 164.869 363.933C201.097 419.289 227.461 442.329 245.491 434.361C270.958 423.113 275.482 351.751 279.866 282.75C284.006 217.488 287.918 155.853 308.578 147.544C323.995 141.356 347.494 165.987 380.415 222.862C415.424 283.336 441.45 309.641 459.977 303.299C484.177 295.011 492.311 233.941 500.923 169.287C509.585 104.247 518.545 36.9808 544.965 25.9064C561.367 19.0207 582.927 34.1463 610.868 72.1335L611.429 71.4544C600.038 55.944 589.659 44.2151 580.244 36.2262Z" fill="#EDEDED" fill-opacity="0.2"/>
<path d="M592.693 36.9563C578.326 24.7679 566.084 20.9333 555.653 25.2497C528.117 36.6543 518.143 103.839 508.497 168.82C498.992 232.849 490.014 293.315 465.683 301.47C447.189 307.661 421.514 282.28 387.198 223.873C354.477 168.21 330.786 144.225 314.751 150.562C293.054 159.135 288.303 220.647 283.263 285.775C277.984 353.943 272.535 424.43 246.924 435.606C228.909 443.467 202.832 421.31 167.172 367.871C135.707 320.727 110.192 300.978 89.1608 307.493C55.3997 317.955 38.009 394.383 19.5792 475.299C-0.835448 564.951 -21.938 657.663 -67.062 673.393C-97.2737 683.917 -134.804 658.703 -181.794 596.284L-182.353 596.963C-135.153 659.638 -97.3913 684.937 -66.886 674.317C-21.3254 658.434 -0.150551 565.449 20.3121 475.525C38.6628 394.91 56.0054 318.754 89.3182 308.431C110.048 302.006 135.321 321.664 166.593 368.519C202.466 422.277 228.819 444.524 247.153 436.526C273.238 425.139 278.731 354.327 284.025 285.839C289.033 221.06 293.768 159.868 314.961 151.495C330.649 145.29 354.08 169.166 386.593 224.478C421.116 283.222 447.045 308.709 465.862 302.413C490.677 294.097 499.701 233.325 509.258 168.979C518.861 104.292 528.79 37.4167 555.881 26.1894C572.552 19.283 594.121 33.7967 621.804 70.5647L622.365 69.8856C611.578 55.5679 601.715 44.6151 592.693 36.9563Z" fill="#EDEDED" fill-opacity="0.2"/>
<path d="M605.279 37.5147C590.337 24.8416 577.564 20.8406 566.64 25.3169C538.438 36.8624 527.467 103.694 516.87 168.331C506.406 232.088 496.533 292.299 471.557 300.471C452.78 306.609 427.207 282.036 393.346 225.345C361.03 171.227 337.402 148.01 321.109 154.337C298.881 162.978 293.286 224.056 287.362 288.729C281.163 356.398 274.749 426.384 248.506 437.7C230.183 445.594 204.108 424.233 168.804 372.362C137.756 326.756 112.32 307.722 91.0395 314.184C56.4291 324.683 37.7969 400.937 18.0533 481.662C-3.81462 571.134 -26.4327 663.65 -72.7431 679.549C-103.355 690.059 -140.846 665.854 -187.345 605.562L-187.907 606.271C-141.198 666.819 -103.47 691.099 -72.5777 680.493C-25.8392 664.455 -3.15671 571.66 18.7811 481.931C38.4441 401.482 57.0241 325.502 91.1926 315.134C112.175 308.771 137.366 327.705 168.22 373.022C203.741 425.2 230.073 446.651 248.723 438.625C275.447 427.104 281.881 356.806 288.113 288.813C294.005 224.479 299.573 163.706 321.301 155.274C337.261 149.076 360.629 172.195 392.732 225.965C426.786 282.994 452.617 307.671 471.706 301.422C497.167 293.094 507.09 232.572 517.603 168.493C528.156 104.136 539.073 37.6075 566.842 26.2438C583.772 19.3163 605.342 33.2423 632.785 68.8219L633.334 68.1383C623.221 55.0111 613.891 44.8166 605.279 37.5147Z" fill="#EDEDED" fill-opacity="0.2"/>
<path d="M618.035 37.8822C602.494 24.7014 589.17 20.5435 577.718 25.1706C548.812 36.864 536.855 103.383 525.281 167.697C513.863 231.212 503.069 291.199 477.431 299.405C458.387 305.493 432.886 281.718 399.505 226.711C367.592 174.133 344.021 151.647 327.457 157.96C304.668 166.658 298.239 227.348 291.418 291.601C284.281 358.826 276.914 428.338 250.001 439.787C231.356 447.716 205.295 427.115 170.321 376.809C139.681 332.722 114.328 314.411 92.8154 320.792C57.3372 331.331 37.4404 407.446 16.3631 488.045C-6.99588 577.385 -31.1549 669.746 -78.6802 685.816C-109.682 696.294 -147.139 673.103 -193.159 614.899L-193.708 615.603C-147.484 674.061 -109.805 697.328 -78.5227 686.754C-30.5835 670.546 -6.35571 577.893 17.0726 488.317C38.0712 407.999 57.9164 332.137 92.9507 321.725C114.166 315.423 139.287 333.652 169.738 377.449C204.921 428.076 231.242 448.755 250.2 440.685C277.587 429.036 284.991 359.207 292.161 291.679C298.939 227.749 305.345 167.374 327.632 158.87C343.865 152.671 367.164 175.054 398.872 227.299C432.455 282.631 458.195 306.514 477.565 300.323C503.671 291.979 514.52 231.693 526.002 167.865C537.516 103.818 549.43 37.5924 577.897 26.0685C595.084 19.116 616.664 32.4544 643.868 66.8557L644.417 66.152C634.993 54.2379 626.205 44.8121 618.035 37.8822Z" fill="#EDEDED" fill-opacity="0.2"/>
<path d="M630.969 38.0438C614.82 24.349 600.937 20.0178 588.933 24.8173C559.317 36.6623 546.347 102.89 533.803 166.939C521.401 230.254 509.677 290.051 483.364 298.262C464.043 304.3 438.646 281.294 405.702 227.956C374.175 176.892 350.674 155.134 333.838 161.43C310.494 170.187 303.21 230.503 295.49 294.378C287.417 361.186 279.07 430.263 251.479 441.848C232.518 449.815 206.472 429.974 171.827 381.198C141.584 338.619 116.315 320.982 94.5802 327.311C58.2182 337.888 37.0311 413.917 14.5953 494.411C-10.2818 583.645 -35.996 675.928 -84.7748 692.184C-116.166 702.649 -153.571 680.444 -199.127 624.295L-199.668 625.005C-153.913 681.386 -116.277 703.676 -84.6135 693.129C-35.4309 676.736 -9.63101 584.209 15.3099 494.716C37.6734 414.494 58.7906 338.722 94.7229 328.271C116.171 322.03 141.206 339.562 171.262 381.889C206.113 430.968 232.429 450.898 251.707 442.798C279.766 431.01 288.146 361.619 296.264 294.511C303.938 230.966 311.187 170.96 334.052 162.382C350.553 156.202 373.801 177.853 405.123 228.584C438.254 282.239 463.902 305.347 483.539 299.217C510.321 290.847 522.101 230.765 534.563 167.138C547.055 103.363 559.978 37.4101 589.153 25.7506C606.596 18.7689 628.19 31.5482 655.152 64.7771L655.691 64.0631C646.9 53.2394 638.675 44.5768 630.969 38.0438Z" fill="#EDEDED" fill-opacity="0.2"/>
<path d="M644.055 38.031C627.276 23.8074 612.811 19.3043 600.236 24.2695C569.9 36.2701 555.898 102.227 542.359 166.031C528.961 229.177 516.299 288.809 489.284 297.052C469.694 303.026 444.377 280.79 411.896 229.089C380.751 179.52 357.311 158.481 340.217 164.768C316.289 173.577 308.137 233.57 299.512 297.084C290.489 363.498 281.162 432.18 252.868 443.902C233.598 451.903 207.542 432.799 173.222 385.535C143.37 344.428 118.187 327.487 96.2275 333.742C58.9493 344.362 36.4526 420.337 12.633 500.768C-13.78 589.955 -41.0961 682.167 -91.1508 698.613C-122.914 709.057 -160.278 687.81 -205.371 633.701L-205.904 634.417C-160.609 688.776 -123.024 710.084 -90.9854 699.557C-40.5351 682.977 -13.1492 590.508 13.3391 501.087C37.0886 420.923 59.5094 345.202 96.3623 334.695C118.043 328.515 142.992 345.37 172.647 386.216C207.181 433.779 233.488 452.951 253.066 444.831C281.814 432.907 291.192 363.918 300.256 297.206C308.835 234.022 316.94 174.335 340.388 165.704C357.152 159.531 380.345 180.476 411.286 229.726C443.964 281.734 469.528 304.07 489.419 298.006C516.894 289.627 529.619 229.703 543.08 166.264C556.567 102.732 570.509 37.0427 600.42 25.1999C618.11 18.2029 639.722 30.411 666.458 62.4903L666.991 61.774C658.903 52.0569 651.262 44.144 644.055 38.031Z" fill="#EDEDED" fill-opacity="0.2"/>
<path d="M657.331 37.8266C639.905 23.0576 624.837 18.3619 611.677 23.5147C580.596 35.668 565.56 101.414 551.011 164.986C536.599 227.986 522.986 287.502 495.252 295.762C475.408 301.67 450.173 280.202 418.132 230.109C387.356 182.006 363.973 161.679 346.619 167.942C322.084 176.795 313.072 236.48 303.517 299.675C293.536 365.733 283.209 434.043 254.191 445.923C234.61 453.95 208.552 435.589 174.543 389.808C145.085 350.156 119.985 333.889 97.82 340.075C59.6173 350.742 35.7861 426.696 10.5511 507.103C-17.4251 596.281 -46.363 688.485 -97.7171 705.138C-129.84 715.555 -167.169 695.277 -211.816 643.147L-212.339 643.874C-167.494 696.235 -129.949 716.586 -97.5609 706.076C-45.8058 689.287 -16.8005 596.842 11.2569 507.432C36.4099 427.287 60.1554 351.577 97.951 341.02C119.829 334.913 144.699 351.093 173.97 390.493C208.199 436.555 234.5 454.997 254.389 446.852C283.857 434.783 294.226 366.179 304.254 299.825C313.755 236.954 322.731 177.564 346.78 168.888C363.809 162.741 386.947 182.969 417.518 230.758C449.761 281.145 475.228 302.72 495.373 296.717C523.565 288.328 537.246 228.531 551.716 165.24C566.2 101.923 581.178 36.4479 611.849 24.4507C629.79 17.4365 651.404 29.0711 677.928 60.0436L678.452 59.3168C671.056 50.6473 664.019 43.4988 657.331 37.8266Z" fill="#EDEDED" fill-opacity="0.2"/>
<path d="M670.814 37.4149C652.712 22.0694 637.034 17.2092 623.248 22.5342C591.404 34.858 575.311 100.409 559.753 163.793C544.306 226.687 529.721 286.103 501.245 294.374C481.149 300.215 456.006 279.476 424.392 230.997C393.977 184.355 370.647 164.71 353.035 170.953C327.883 179.859 317.977 239.274 307.503 302.174C296.55 367.908 285.216 435.885 255.463 447.908C235.565 455.958 209.502 438.326 175.801 394.02C146.719 355.797 121.712 340.188 99.3564 346.309C60.2069 357.028 35.0138 432.998 8.34404 513.425C-21.2305 602.625 -51.8177 694.86 -104.524 711.743C-136.999 722.14 -174.289 702.805 -218.493 652.635L-219.01 653.364C-174.605 703.769 -137.108 723.171 -104.368 712.681C-51.279 695.675 -20.6147 603.21 9.03731 513.77C35.6149 433.605 60.7264 357.876 99.479 347.268C121.568 341.217 146.343 356.744 175.24 394.719C209.167 439.308 235.466 457.009 255.67 448.843C285.878 436.633 297.256 368.366 308.254 302.353C318.681 239.758 328.533 180.647 353.223 171.902C370.518 165.771 393.603 185.316 423.812 231.645C455.616 280.425 480.997 301.257 501.388 295.334C530.311 286.933 544.963 227.243 560.475 164.059C575.975 100.926 592.006 35.6384 623.45 23.461C641.639 16.4356 663.269 27.5252 689.574 57.3744L690.09 56.6415C683.365 49.0291 676.948 42.613 670.814 37.4149Z" fill="#EDEDED" fill-opacity="0.2"/>
<path d="M684.456 36.8385C665.667 20.9162 649.354 15.8684 634.928 21.3815C602.304 33.8692 585.139 99.2563 568.545 162.48C552.05 225.304 536.479 284.636 507.243 292.933C486.899 298.7 461.852 278.703 430.663 231.789C400.619 186.588 377.329 167.626 359.473 173.839C333.689 182.8 322.894 241.961 311.468 304.602C299.532 370.056 287.185 437.717 256.666 449.903C236.46 457.966 210.397 441.052 176.981 398.192C148.268 361.371 123.36 346.414 100.82 352.47C60.6952 363.255 34.1231 439.269 5.99375 519.738C-25.215 609.011 -57.4786 701.314 -111.552 718.425C-144.368 728.811 -181.615 710.402 -225.389 662.149L-225.897 662.888C-181.916 711.364 -144.464 729.836 -111.396 719.363C-56.9441 702.131 -24.5949 609.584 6.68483 520.089C34.739 439.854 61.2155 364.073 100.948 353.397C123.223 347.404 147.907 362.286 176.435 398.869C210.06 441.996 236.369 458.98 256.867 450.805C287.825 438.45 300.229 370.483 312.215 304.763C323.594 242.427 334.332 183.551 359.658 174.749C377.199 168.653 400.24 187.516 430.084 232.407C461.461 279.607 486.744 299.703 507.389 293.846C537.065 285.434 552.708 225.83 569.272 162.715C585.8 99.7355 602.893 34.6109 635.128 22.2597C653.55 15.2005 675.197 25.7492 701.294 54.52L701.802 53.7808C695.8 47.2067 690.012 41.5437 684.456 36.8385Z" fill="#EDEDED" fill-opacity="0.2"/>
<path d="M698.323 36.0429C678.83 19.5271 661.852 14.2808 646.761 19.9934C613.338 32.6687 595.09 97.9224 577.44 161.005C559.885 223.79 543.303 283.089 513.289 291.394C492.709 297.092 467.749 277.806 436.991 232.44C407.299 188.658 384.062 170.379 365.958 176.538C339.517 185.556 327.819 244.509 315.432 306.916C302.494 372.099 289.123 439.505 257.816 451.838C237.304 459.929 211.233 443.705 178.106 402.28C149.764 366.835 124.947 352.512 102.234 358.516C61.1208 369.371 33.1407 445.463 3.51564 526.036C-29.3487 615.422 -63.3346 707.844 -118.8 725.214C-151.948 735.595 -189.139 718.092 -232.504 671.72L-233.009 672.478C-189.455 719.056 -152.044 736.621 -118.649 726.165C-62.8088 708.685 -28.7397 616.035 4.20748 526.431C33.739 446.096 61.6441 370.228 102.364 359.481C124.819 353.553 149.416 367.788 177.569 403.008C210.9 444.702 237.22 460.979 258.017 452.785C289.755 440.276 303.184 372.585 316.171 307.135C328.504 245.027 340.147 186.353 366.133 177.492C383.936 171.424 406.921 189.621 436.415 233.106C467.371 278.749 492.569 298.138 513.434 292.357C543.88 283.921 560.54 224.362 578.169 161.309C595.756 98.4542 613.928 33.4549 646.967 20.9283C665.633 13.8457 687.29 23.8816 713.182 51.5578L713.686 50.8003C708.385 45.155 703.273 40.2381 698.323 36.0429Z" fill="#EDEDED" fill-opacity="0.2"/>
<path d="M712.397 35.0704C692.173 17.9383 674.523 12.4872 658.737 18.4186C624.489 31.2889 605.139 96.4227 586.421 159.415C567.772 222.181 550.153 281.479 519.341 289.812C498.534 295.441 473.666 276.855 443.317 233.021C413.968 190.639 390.791 173.014 372.441 179.158C345.332 188.227 332.708 246.989 319.355 309.203C305.406 374.149 290.978 441.32 258.881 453.827C238.067 461.934 211.981 446.415 179.14 406.385C151.156 372.287 126.434 358.598 103.561 364.536C61.4422 375.466 32.0223 451.685 0.880835 532.381C-33.6704 621.919 -69.4016 714.486 -126.306 732.133C-159.775 742.499 -196.922 725.907 -239.877 681.371L-240.375 682.135C-197.224 726.869 -159.87 743.524 -126.149 733.071C-68.8856 715.317 -33.0672 622.52 1.56477 532.77C32.6171 452.3 61.9459 376.302 103.69 365.467C126.307 359.598 150.807 373.206 178.605 407.087C211.664 447.359 237.978 462.952 259.075 454.737C291.6 442.067 306.083 374.631 320.092 309.418C333.385 247.501 345.942 189.014 372.613 180.094C390.663 174.055 413.598 191.588 442.741 233.688C473.275 277.804 498.386 296.471 519.475 290.775C550.707 282.327 568.403 222.778 587.131 159.732C605.774 96.9739 625.05 32.0783 658.917 19.3609C677.805 12.2643 699.485 21.7615 725.176 48.3958L725.673 47.6321C721.135 42.901 716.706 38.7225 712.397 35.0704Z" fill="#EDEDED" fill-opacity="0.2"/>
<path d="M726.683 33.8906C705.71 16.1212 687.366 10.485 670.859 16.6325C635.777 29.7016 615.3 94.7573 595.509 157.671C575.75 220.47 557.084 279.783 525.464 288.138C504.446 293.686 479.668 275.81 449.716 233.47C420.717 192.459 397.576 175.479 378.992 181.593C351.189 190.711 337.634 249.324 323.284 311.364C308.308 376.116 292.82 443.083 259.888 455.744C238.781 463.863 212.687 449.034 180.118 410.402C152.487 377.639 127.863 364.556 104.842 370.434C61.6862 381.458 30.8017 457.826 -1.88975 538.69C-38.1669 628.404 -75.6757 721.186 -134.043 739.12C-167.819 749.504 -204.924 733.789 -247.486 691.062L-247.976 691.833C-205.228 734.732 -167.902 750.509 -133.895 740.052C-75.1815 722.002 -37.5722 629.019 -1.2165 539.099C31.3877 458.465 62.1795 382.304 104.956 371.387C127.726 365.567 152.141 378.577 179.583 411.124C212.369 449.999 238.695 464.899 260.078 456.667C293.429 443.836 308.971 376.609 324.005 311.597C338.289 249.831 351.775 191.509 379.138 182.526C397.424 176.521 420.322 193.41 449.132 234.13C479.263 276.736 504.268 294.705 525.569 289.081C557.622 280.619 576.36 221.053 596.207 157.994C615.935 95.3084 636.33 30.4847 671.035 17.5565C690.159 10.4302 711.847 19.4106 737.358 45.0036L737.844 44.2293C734.053 40.4161 730.325 36.9764 726.683 33.8906Z" fill="#EDEDED" fill-opacity="0.2"/>
<path d="M741.202 32.528C719.458 14.1068 700.388 8.25013 683.13 14.6331C647.187 27.9082 625.58 92.912 604.68 155.784C583.786 218.639 564.053 278.005 531.581 286.378C510.346 291.857 485.675 274.659 456.122 233.796C427.454 194.14 404.374 177.814 385.553 183.869C357.041 193.058 342.539 251.519 327.187 313.428C311.173 378.015 294.599 444.801 260.823 457.65C239.417 465.789 213.311 451.628 181.004 414.363C153.722 382.886 129.206 370.421 106.035 376.254C61.8342 387.376 29.4637 463.932 -4.81681 544.988C-42.8498 634.932 -82.184 727.936 -142.039 746.198C-176.108 756.589 -213.178 741.729 -255.358 700.796L-255.837 701.577C-213.471 742.698 -176.196 757.607 -141.896 747.143C-81.6969 728.775 -42.2757 635.566 -4.15826 545.419C30.0271 464.587 62.309 388.236 106.148 377.202C129.061 371.435 153.378 383.828 180.481 415.089C212.993 452.593 239.334 466.809 261.013 458.572C295.197 445.573 311.827 378.523 327.911 313.679C343.197 252.044 357.635 193.842 385.705 184.794C404.232 178.837 427.082 195.075 455.552 234.455C485.292 275.569 510.197 292.873 531.704 287.307C564.592 278.82 584.402 219.224 605.376 156.103C626.203 93.4588 647.739 28.6772 683.311 15.5249C702.649 8.37831 724.368 16.8566 749.683 41.42L750.165 40.6376C747.126 37.7343 744.134 35.0082 741.202 32.528Z" fill="#EDEDED" fill-opacity="0.2"/>
<path d="M755.944 30.9554C733.404 11.8634 713.587 5.80199 695.554 12.4157C658.738 25.9228 635.975 90.9022 613.963 153.749C591.919 216.68 571.091 276.133 537.77 284.533C516.341 289.948 491.754 273.422 462.596 233.999C434.252 195.681 411.221 179.985 392.177 186.009C362.941 195.247 347.468 253.622 331.098 315.431C314.024 379.88 296.365 446.508 261.721 459.547C240.028 467.71 213.907 454.223 181.866 418.288C154.92 388.08 130.494 376.215 107.203 381.994C61.9406 393.232 28.0367 470.014 -7.85205 551.295C-47.6801 641.501 -88.8629 734.778 -150.233 753.392C-184.578 763.807 -221.611 749.816 -263.427 710.601L-263.891 711.395C-221.898 750.776 -184.669 764.82 -150.09 754.336C-88.3811 735.629 -47.1126 642.153 -7.19843 551.758C28.6017 470.682 62.4068 394.105 107.311 382.954C130.354 377.231 154.572 389.034 181.335 419.043C213.593 455.186 239.94 468.741 261.897 460.491C296.94 447.316 314.677 380.417 331.813 315.716C348.114 254.187 363.506 196.075 392.32 186.968C411.07 181.042 433.869 196.656 462.023 234.704C491.368 274.359 516.171 290.973 537.87 285.507C571.602 276.996 592.504 217.315 614.647 154.138C636.588 91.5132 659.269 26.7518 695.728 13.3658C715.283 6.19308 737.014 14.1626 762.159 37.7395L762.629 36.9527C760.37 34.8168 758.142 32.821 755.944 30.9554Z" fill="#EDEDED" fill-opacity="0.2"/>
<path d="M770.918 29.2105C747.553 9.41662 726.977 3.13592 708.127 10.0255C670.423 23.7764 646.488 88.7632 623.328 151.606C600.096 214.658 578.16 274.202 543.955 282.65C522.34 287.987 497.858 272.115 469.084 234.127C441.06 197.139 418.081 182.056 398.824 188.03C368.841 197.331 352.402 255.632 334.976 317.356C316.828 381.691 298.051 448.227 262.514 461.443C240.533 469.62 214.402 456.786 182.606 422.181C155.991 393.218 131.672 381.936 108.267 387.683C61.9277 399.058 26.4699 476.076 -11.0586 557.632C-52.7131 648.14 -95.7875 741.719 -158.706 760.701C-193.334 771.147 -230.319 757.991 -271.78 720.484L-272.236 721.283C-230.586 758.952 -193.409 772.159 -158.564 761.645C-95.314 742.565 -52.1577 648.788 -10.4192 558.096C27.0267 476.748 62.3805 399.913 108.365 388.633C131.532 382.952 155.643 394.172 182.076 422.936C214.069 457.752 240.441 470.664 262.686 462.379C298.615 449.011 317.453 382.232 335.675 317.648C353.018 256.187 369.394 198.145 398.961 188.967C417.935 183.07 440.689 198.074 468.508 234.813C497.463 273.031 522.171 288.992 544.052 283.586C578.653 275.048 600.679 215.258 624.001 151.971C647.076 89.3413 670.938 24.5625 708.295 10.9433C728.065 3.73008 749.796 11.2067 774.786 33.7996L775.245 32.9984C773.808 31.6854 772.352 30.4204 770.918 29.2105Z" fill="#EDEDED" fill-opacity="0.2"/>
<path d="M786.156 27.2394C761.943 6.7348 740.577 0.244073 720.881 7.38266C682.263 21.3947 657.126 86.4083 632.816 149.274C608.384 212.465 585.297 272.147 550.203 280.634C528.419 285.906 504.019 270.683 475.635 234.097C447.93 198.395 424.994 183.93 405.526 189.867C374.779 199.24 357.333 257.497 338.856 319.187C319.606 383.443 299.704 449.884 263.256 463.315C241.004 471.508 214.854 459.31 183.299 426.023C157.001 398.277 132.791 387.561 109.278 393.279C61.8313 404.811 24.7917 482.121 -14.4177 563.972C-57.9377 654.805 -102.936 748.732 -167.423 768.114C-202.317 778.605 -239.275 766.263 -280.369 730.432L-280.818 731.239C-239.516 767.246 -202.387 779.604 -167.28 769.059C-102.47 749.571 -57.3806 655.467 -13.7827 564.448C25.3365 482.789 62.2799 405.668 109.374 394.235C132.655 388.585 156.671 399.227 182.788 426.788C214.54 460.293 240.926 472.551 263.435 464.257C300.271 450.696 320.244 384.002 339.56 319.511C357.957 258.088 375.325 200.081 405.671 190.83C424.863 184.976 447.564 199.362 475.081 234.813C503.649 271.632 528.257 286.938 550.307 281.607C585.797 273.029 608.963 213.111 633.485 149.684C657.716 87.0147 682.776 22.207 721.048 8.33076C741.028 1.08501 762.768 8.06905 787.6 29.7L788.051 28.8925C787.431 28.3196 786.792 27.7804 786.156 27.2394Z" fill="#EDEDED" fill-opacity="0.2"/>
<path d="M801.036 24.5629C776.202 3.71971 754.203 -2.83529 733.798 4.54388C694.259 18.8351 667.906 83.8912 642.427 146.813C616.76 210.175 592.515 270.033 556.505 278.563C534.551 283.77 510.269 269.184 482.243 233.98C454.854 199.555 431.976 185.695 412.303 191.588C380.769 201.034 362.307 259.27 342.758 320.936C322.402 385.139 301.351 451.528 263.963 465.176C241.444 473.395 215.262 461.834 183.944 429.806C157.962 403.242 133.864 393.097 110.24 398.792C61.68 410.489 23.0294 488.125 -17.8922 570.31C-63.3053 661.516 -110.266 755.823 -176.35 775.64C-211.502 786.181 -248.412 774.673 -289.196 740.446L-289.636 741.259C-248.678 775.634 -211.577 787.193 -176.217 776.574C-109.815 756.664 -62.7685 662.177 -17.2635 570.794C23.5698 488.805 62.1239 411.368 110.34 399.747C133.72 394.115 157.636 404.201 183.439 430.584C214.952 462.805 241.344 474.423 264.135 466.113C301.89 452.333 323.01 385.708 343.45 321.267C362.923 259.855 381.315 201.855 412.43 192.535C431.828 186.725 454.484 200.504 481.69 234.695C509.887 270.138 534.395 284.793 556.602 279.529C592.998 270.899 617.324 210.829 643.084 147.229C668.493 84.4995 694.764 19.641 733.97 5.47992C754.148 -1.81878 775.949 4.70432 800.593 25.3866L801.036 24.5629Z" fill="#EDEDED" fill-opacity="0.2"/>
<path d="M814.194 20.0587C789.503 0.144691 767.489 -5.92997 746.887 1.48611C706.407 16.0659 678.815 81.2005 652.124 144.203C625.197 207.779 599.766 267.819 562.814 276.42C540.712 281.565 516.523 267.608 488.869 233.75C461.783 200.574 438.95 187.295 419.093 193.155C386.772 202.678 367.262 260.929 346.608 322.606C325.121 386.787 302.893 453.161 264.57 467.026C241.779 475.271 215.588 464.332 184.495 433.569C158.832 408.161 134.827 398.571 111.127 404.241C61.4326 416.132 21.1344 494.102 -21.5328 576.655C-56.401 644.12 -92.4603 713.878 -136.518 753.867C-186.417 799.174 -239.339 798.08 -298.288 750.524L-298.71 751.353C-267.403 776.603 -237.273 788.966 -209.168 788.098C-183.931 787.315 -160.025 776.375 -136.097 754.652C-91.9155 714.546 -55.8151 644.694 -20.9084 577.152C21.6623 494.798 61.873 416.993 111.234 405.188C134.7 399.571 158.502 409.102 184.013 434.331C215.295 465.286 241.706 476.281 264.754 467.936C303.451 453.932 325.752 387.34 347.314 322.935C367.878 261.514 387.307 203.495 419.242 194.086C438.839 188.308 461.441 201.52 488.343 234.458C516.173 268.548 540.574 282.576 562.928 277.372C600.249 268.685 625.772 208.427 652.797 144.632C679.398 81.8208 706.911 16.8719 747.063 2.41009C767.449 -4.93528 789.26 1.10945 813.765 20.8708L814.194 20.0587Z" fill="#EDEDED" fill-opacity="0.2"/>
<path d="M827.541 15.3308C802.998 -3.666 780.958 -9.27075 760.165 -1.79538C718.726 13.1009 689.878 78.3374 661.974 141.441C633.763 205.245 607.113 265.51 569.207 274.181C546.965 279.272 522.876 265.936 495.583 233.399C468.795 201.453 446.023 188.764 425.967 194.582C392.823 204.198 372.258 262.493 350.483 324.203C327.837 388.386 304.425 454.763 265.123 468.879C242.056 477.163 215.848 466.84 184.977 437.313C159.607 413.039 135.709 403.996 111.936 409.661C61.1065 421.756 19.1192 500.099 -25.3222 583.034C-61.4415 650.454 -98.799 720.158 -143.899 760.628C-194.974 806.457 -248.542 806.495 -307.655 760.729L-308.069 761.564C-248.678 807.55 -194.835 807.493 -143.48 761.408C-98.2609 720.834 -60.8723 651.046 -24.6986 583.561C19.649 500.798 61.5384 422.631 112.049 410.589C135.606 404.985 159.304 413.972 184.515 438.075C215.571 467.796 242.002 478.16 265.304 469.791C304.966 455.542 328.47 388.953 351.186 324.558C372.875 263.092 393.353 205.027 426.112 195.515C445.91 189.773 468.453 202.399 495.056 234.107C522.531 266.864 546.824 280.274 569.321 275.133C607.589 266.374 634.324 205.905 662.636 141.89C690.46 78.978 719.227 13.9189 760.349 -0.865057C780.934 -8.26343 802.771 -2.68865 827.131 16.1738L827.541 15.3308Z" fill="#EDEDED" fill-opacity="0.2"/>
<path d="M841.067 10.4117C816.66 -7.69657 794.599 -12.8433 773.628 -5.30026C731.216 9.92419 701.081 75.3064 671.943 138.531C642.417 202.599 614.527 263.112 575.659 271.867C553.285 276.91 529.306 264.175 502.365 232.928C475.87 202.201 453.149 190.071 432.918 195.855C398.938 205.567 377.29 263.922 354.378 325.714C330.563 389.932 305.93 456.34 265.629 470.717C242.309 479.034 216.076 469.31 185.431 440.997C160.339 417.834 136.553 409.312 112.711 414.978C60.7192 427.336 17.0199 506.077 -29.2377 589.454C-66.639 656.848 -105.301 726.537 -151.452 767.475C-203.727 813.853 -257.964 815.014 -317.251 771.032L-317.657 771.873C-258.085 816.067 -203.588 814.889 -151.038 768.268C-104.768 727.225 -66.0663 657.458 -28.6245 589.991C17.5412 506.79 61.1413 428.2 112.824 415.927C136.464 410.309 160.062 418.769 184.98 441.784C215.823 470.264 242.266 480.045 265.821 471.633C306.475 457.137 331.175 390.519 355.078 326.085C377.907 264.542 399.476 206.403 433.075 196.793C453.058 191.084 475.551 203.131 501.868 233.647C528.995 265.101 553.17 277.905 575.8 272.812C615.03 263.968 643.006 203.256 672.64 138.979C701.698 75.9257 731.743 10.7349 773.856 -4.3808C794.627 -11.8406 816.497 -6.72942 840.715 11.2382L841.067 10.4117Z" fill="#EDEDED" fill-opacity="0.2"/>
<path d="M854.798 5.29059C772.5 -53.1373 726.511 42.7393 682.019 135.454C651.145 199.816 621.983 260.602 582.135 269.454C559.637 274.456 535.759 262.311 509.16 232.335C482.95 202.799 460.292 191.232 439.884 196.989C405.046 206.817 382.303 265.258 358.223 327.13C333.207 391.41 307.343 457.882 266.025 472.533C242.449 480.89 216.205 471.773 185.749 444.647C164.651 425.861 144.509 417.346 124.17 418.618C105.922 419.77 87.8604 428.847 68.9418 446.366C33.699 479.006 1.11688 535.781 -33.3913 595.898C-72.0693 663.298 -112.06 732.988 -159.294 774.43C-212.791 821.372 -267.716 823.675 -327.209 781.431L-327.599 782.286C-267.832 824.715 -212.636 822.405 -158.88 775.223C-111.542 733.678 -71.501 663.92 -32.7869 596.458C1.66878 536.411 34.2189 479.696 69.3602 447.148C108.771 410.655 145.579 410.09 185.286 445.461C215.91 472.743 242.39 481.918 266.19 473.477C307.847 458.708 333.802 392.025 358.892 327.541C382.887 265.893 405.543 207.661 440.007 197.948C460.162 192.259 482.612 203.763 508.631 233.093C535.413 263.269 559.481 275.48 582.22 270.43C622.435 261.487 651.687 200.51 682.658 135.949C726.941 43.6401 772.738 -51.8137 854.392 6.15176L854.798 5.29059Z" fill="#EDEDED" fill-opacity="0.2"/>
</svg>
