<svg width="1066" height="548" viewBox="0 0 1066 548" fill="none" xmlns="http://www.w3.org/2000/svg">
<path d="M556.216 408.383C564.118 386.933 563.379 371.783 554.135 362.711C521.667 330.847 388.839 379.586 260.371 426.711C140.242 470.769 16.0426 516.349 -10.2545 488.081C-32.0804 464.617 13.7333 392.715 129.797 268.276C239.112 151.041 282.548 84.4364 262.607 64.6921C237.197 39.5282 115.953 91.8082 -12.4222 147.168C-147.03 205.212 -286.219 265.215 -316.981 236.079C-339.934 214.345 -300.501 145.375 -196.384 25.2096C-101.758 -84.0125 -67.7876 -150.673 -92.4895 -178.565C-127.981 -218.675 -278.244 -174.18 -437.295 -127.079C-613.27 -74.9656 -795.224 -21.0966 -843.809 -73.5121C-880.04 -112.588 -837.491 -206.414 -713.734 -360.347L-715.243 -361.043C-839.523 -206.488 -882.079 -112.102 -845.38 -72.4959C-796.062 -19.2982 -613.485 -73.3828 -436.901 -125.663C-278.49 -172.566 -128.844 -216.877 -94.0662 -177.58C-69.8384 -150.211 -103.803 -84.0986 -197.881 24.4891C-302.57 145.326 -341.997 214.893 -318.478 237.169C-286.829 267.13 -146.981 206.838 -11.7323 148.51C115.965 93.4465 236.568 41.4497 261.116 65.776C280.504 84.9661 237.055 150.967 128.362 267.53C11.7132 392.629 -34.1249 465.109 -11.7816 489.116C15.2976 518.227 134.626 474.44 260.95 428.103C388.79 381.199 520.989 332.694 552.65 363.776C573.67 384.426 548.943 437.926 477.023 527.372L478.526 528.075C519.875 476.626 545.691 436.915 556.216 408.383Z" fill="#EDEDED" fill-opacity="0.2"/>
<path d="M556.826 429.858C565.103 407.429 564.339 391.564 554.689 382C521.74 349.335 389.67 395.998 261.948 441.122C142.459 483.358 18.9247 527.003 -7.74186 497.947C-29.7403 473.966 14.4537 402.945 127.315 280.759C233.729 165.588 275.675 99.784 255.531 79.5901C229.769 53.7796 109.45 104.163 -17.9341 157.521C-151.495 213.446 -289.613 271.294 -320.892 241.382C-344.135 219.162 -306.266 150.918 -205.136 32.7418C-113.41 -74.4541 -80.8809 -140.4 -105.712 -168.852C-141.666 -210.066 -291.448 -167.861 -450.013 -123.205C-625.458 -73.7765 -806.864 -22.6729 -856.201 -76.5664C-892.696 -116.462 -852.247 -209.357 -732.5 -360.612L-734.002 -361.301C-854.23 -209.443 -894.679 -115.981 -857.703 -75.5933C-807.683 -20.93 -625.636 -72.2062 -449.594 -121.801C-291.664 -166.278 -142.51 -208.31 -107.258 -167.898C-82.8886 -139.993 -115.393 -74.6019 -206.596 31.9843C-308.298 150.832 -346.149 219.66 -322.333 242.416C-290.21 273.135 -151.433 215.011 -17.2445 158.801C109.462 105.739 229.141 55.6147 254.071 80.5816C273.643 100.19 231.746 165.403 125.942 279.916C12.4706 402.736 -31.7417 474.354 -9.22604 498.89C18.2103 528.802 136.88 486.843 262.551 442.452C389.639 397.544 521.069 351.103 553.235 382.985C574.495 404.06 550.969 457.073 481.309 545.085L482.812 545.775C521.833 496.494 546.436 458.009 556.826 429.858Z" fill="#EDEDED" fill-opacity="0.2"/>
<path d="M557.861 451.413C566.52 427.974 565.75 411.364 555.657 401.271C522.203 367.768 390.841 412.381 263.815 455.54C144.905 495.928 21.9743 537.701 -5.06189 507.807C-27.2327 483.296 15.3539 413.095 125.099 293.175C228.656 180.024 269.105 115.002 248.745 94.3587C222.632 67.8646 103.175 116.4 -23.2973 167.763C-155.854 221.601 -292.968 277.286 -324.734 246.592C-348.272 223.892 -311.967 156.351 -213.757 40.1078C-124.864 -65.0928 -93.7883 -130.336 -118.737 -159.349C-155.14 -201.69 -304.534 -161.807 -462.68 -119.553C-637.675 -72.8154 -818.62 -24.477 -868.695 -79.8979C-905.468 -120.575 -867.051 -212.596 -751.288 -361.233L-752.816 -361.911C-869.059 -212.683 -907.476 -120.107 -870.241 -78.9186C-819.476 -22.7587 -637.909 -71.239 -462.304 -118.143C-304.799 -160.224 -156.002 -199.953 -120.27 -158.395C-95.7774 -129.924 -126.847 -65.2159 -215.217 39.375C-313.988 156.264 -350.28 224.384 -326.181 247.62C-293.541 279.103 -155.817 223.165 -22.6138 169.062C103.156 117.971 221.98 69.6998 247.297 95.3501C267.073 115.409 226.666 179.846 123.72 292.35C13.3953 412.886 -29.2095 483.672 -6.55217 508.743C21.2229 539.475 139.338 499.339 264.388 456.864C390.817 413.933 521.532 369.511 554.228 402.268C575.715 423.792 553.372 476.313 485.954 562.871L487.494 563.549C524.205 516.343 547.638 479.115 557.861 451.413Z" fill="#EDEDED" fill-opacity="0.2"/>
<path d="M559.307 473.023C568.354 448.531 567.56 431.145 557.047 420.497C523.064 386.095 392.361 428.706 265.95 469.882C142.126 510.221 25.1751 548.33 -2.23038 517.587C-24.5491 492.558 16.4547 423.176 123.103 305.455C223.82 194.305 262.797 130.016 242.252 108.929C215.752 81.7516 97.1134 128.421 -28.4843 177.825C-160.13 229.606 -296.283 283.136 -328.585 251.635C-352.394 228.442 -317.647 161.585 -222.319 47.2634C-136.265 -55.9602 -106.593 -120.514 -131.64 -150.094C-168.505 -193.61 -317.579 -156.006 -475.38 -116.179C-650.019 -72.1264 -830.612 -26.5529 -881.457 -83.5319C-918.483 -125.016 -882.092 -216.181 -770.246 -362.219L-771.786 -362.884C-884.105 -216.224 -920.496 -124.53 -883.003 -82.5529C-831.474 -24.8164 -650.283 -70.5435 -475.048 -114.75C-317.875 -154.392 -169.398 -191.855 -133.186 -149.114C-108.582 -120.089 -138.23 -56.0648 -223.785 46.5491C-319.649 161.517 -354.395 228.953 -330.032 252.689C-296.893 285.002 -160.117 231.183 -27.813 179.162C97.1134 130.022 215.118 83.6053 240.811 109.964C260.82 130.466 221.867 194.164 121.717 304.673C14.4901 422.997 -26.532 492.952 -3.72692 518.554C24.4177 550.122 141.997 511.816 266.486 471.244C392.281 430.264 522.381 387.887 555.606 421.507C577.327 443.487 556.173 495.558 490.96 580.7L492.493 581.359C527.024 536.198 549.25 500.238 559.307 473.023Z" fill="#EDEDED" fill-opacity="0.2"/>
<path d="M561.193 494.677C570.652 469.107 569.821 450.896 558.858 439.687C524.358 404.399 394.222 444.977 268.372 484.189C145.028 522.631 28.5078 558.954 0.738874 527.33C-21.7214 501.753 17.718 433.159 121.299 317.643C219.239 208.433 256.763 144.883 236.039 123.359C209.169 95.4669 91.2821 140.301 -33.5088 187.74C-164.323 237.483 -299.552 288.895 -332.402 256.562C-356.488 232.846 -323.251 166.66 -230.804 54.223C-147.516 -47.0607 -119.267 -110.931 -144.4 -141.053C-181.733 -185.788 -330.549 -150.463 -488.122 -113.068C-662.501 -71.6765 -842.842 -28.8806 -894.463 -87.4732C-931.71 -129.77 -897.346 -220.067 -789.337 -363.586L-790.87 -364.245C-899.31 -220.147 -933.687 -129.308 -895.978 -86.5125C-843.698 -27.1625 -662.766 -70.1061 -487.789 -111.627C-330.869 -148.874 -182.62 -184.052 -145.94 -140.092C-121.231 -110.506 -149.475 -47.1838 -232.264 53.5148C-325.258 166.598 -358.484 233.363 -333.85 257.616C-300.211 290.749 -164.317 239.078 -32.8745 189.102C91.2513 141.909 208.516 97.3144 234.579 124.387C254.761 145.357 217.28 208.31 119.901 316.886C15.7412 433.018 -23.7414 502.184 -0.782286 528.309C27.7196 560.752 144.855 524.244 268.864 485.606C394.105 446.573 523.619 406.197 557.381 440.734C579.305 463.164 559.32 514.766 496.294 598.523L497.833 599.176C530.227 556.053 551.314 521.368 561.193 494.677Z" fill="#EDEDED" fill-opacity="0.2"/>
<path d="M563.465 516.423C573.344 489.744 572.488 470.683 561.045 458.871C526.009 422.677 396.39 461.224 271.044 498.502C148.113 535.053 32.0062 569.596 3.82457 537.054C-18.7835 510.936 19.1223 443.136 119.704 329.769C214.903 222.487 250.992 159.645 230.065 137.672C202.832 109.034 85.6285 152.015 -38.448 197.545C-168.443 245.249 -302.872 294.567 -336.264 261.348C-360.627 237.108 -328.879 171.574 -239.26 60.9913C-158.725 -38.3894 -131.836 -101.601 -157.037 -132.258C-194.851 -178.25 -343.512 -145.21 -500.894 -110.223C-675.12 -71.4979 -855.282 -31.4672 -907.723 -91.741C-945.222 -134.82 -912.785 -224.31 -808.613 -365.311L-810.159 -365.945C-914.762 -224.378 -947.168 -134.364 -909.268 -90.7618C-856.182 -29.7551 -675.428 -69.9337 -500.642 -108.776C-343.795 -143.633 -195.725 -176.538 -158.571 -131.328C-133.801 -101.188 -160.664 -38.5065 -240.726 60.2768C-330.881 171.507 -362.598 237.625 -337.711 262.376C-303.531 296.359 -168.474 246.795 -37.832 198.875C85.5856 153.61 202.136 110.839 228.587 138.657C248.972 160.089 212.895 222.364 118.294 328.987C17.1823 442.97 -20.779 511.33 2.29094 538.009C31.1561 571.357 147.892 536.654 271.469 499.887C396.23 462.788 525.245 424.414 559.536 459.875C581.682 482.76 562.837 533.926 501.972 616.321L503.512 616.961C533.867 575.952 553.796 542.535 563.465 516.423Z" fill="#EDEDED" fill-opacity="0.2"/>
<path d="M567.445 538.668C577.742 510.832 576.867 490.915 564.907 478.475C529.292 441.32 400.073 477.828 275.104 513.129C152.475 547.777 36.6443 580.491 8.06241 547.019C-14.6874 520.365 21.6853 453.335 119.274 342.136C211.72 236.794 246.386 174.648 225.275 152.194C197.623 122.793 81.023 163.938 -42.4377 207.523C-171.755 253.17 -305.482 300.369 -339.465 266.275C-364.112 241.518 -333.885 176.631 -247.068 67.8772C-169.255 -29.5698 -143.728 -92.1099 -169.045 -123.328C-207.376 -170.588 -356.032 -139.87 -513.401 -107.346C-687.596 -71.3864 -867.771 -34.1517 -921.086 -96.1499C-958.838 -140.036 -928.39 -228.695 -828.024 -367.17L-829.57 -367.792C-930.354 -228.725 -960.796 -139.555 -922.632 -95.1707C-868.676 -32.4457 -687.904 -69.8097 -513.093 -105.917C-356.327 -138.318 -208.245 -168.92 -170.548 -122.404C-145.655 -91.7096 -171.158 -29.699 -248.509 67.1751C-335.856 176.557 -366.07 242.023 -340.912 267.304C-306.166 302.173 -171.798 254.753 -41.8588 208.89C80.9183 165.558 196.896 124.616 223.778 153.223C244.385 175.122 209.712 236.683 117.845 341.385C19.7022 453.212 -16.7072 520.796 6.51673 547.998C35.7822 582.289 152.222 549.397 275.516 514.551C399.901 479.417 528.516 443.069 563.423 479.503C585.791 502.844 568.122 553.584 509.394 634.594L510.94 635.229C539.226 596.202 558.022 564.128 567.445 538.668Z" fill="#EDEDED" fill-opacity="0.2"/>
<path d="M572.574 561.165C583.296 532.177 582.378 511.343 569.919 498.256C533.67 460.122 404.771 494.585 280.097 527.903C157.671 560.648 42.0321 591.558 12.9944 557.088C-9.90924 529.874 24.9604 463.632 119.574 354.57C209.317 251.131 242.573 189.706 221.246 166.765C193.163 136.563 77.0742 175.88 -45.8383 217.499C-174.577 261.077 -307.7 306.158 -342.293 271.147C-367.248 245.872 -338.536 181.613 -254.472 74.6884C-179.368 -20.8494 -155.221 -82.7121 -180.637 -114.459C-219.547 -163.051 -368.288 -134.672 -525.775 -104.606C-700.167 -71.3435 -880.514 -36.9295 -934.777 -100.689C-972.807 -145.382 -944.348 -233.197 -847.749 -369.194L-849.322 -369.819C-946.331 -233.258 -974.79 -144.901 -936.342 -99.7406C-881.457 -35.2605 -700.549 -69.7792 -525.572 -103.146C-368.676 -133.089 -220.483 -161.363 -182.214 -113.523C-157.197 -82.2995 -181.333 -20.9541 -255.981 74.017C-340.525 181.57 -369.224 246.395 -343.765 272.2C-308.421 307.975 -174.663 262.703 -45.3149 218.897C76.9202 177.512 192.375 138.411 219.731 167.787C240.547 190.18 207.303 251.026 118.115 353.837C22.9775 463.509 -11.9293 530.305 11.4302 558.062C41.1267 593.326 157.369 562.256 280.454 529.344C404.549 496.174 532.839 461.89 568.398 499.297C591.012 523.093 574.483 573.384 517.879 653.07L519.45 653.692C545.735 616.666 563.41 585.935 572.574 561.165Z" fill="#EDEDED" fill-opacity="0.2"/>
<path d="M578.159 583.821C589.324 553.613 588.339 531.862 575.363 518.073C538.492 478.923 409.79 511.354 285.369 542.707C163.072 573.524 47.562 602.642 18.0933 567.162C-4.95201 539.387 28.3905 473.909 120.098 366.954C207.167 265.399 239.026 204.657 217.508 181.255C188.981 150.24 73.3295 187.703 -49.078 227.388C-177.299 268.946 -309.875 311.915 -345.077 275.949C-370.352 250.132 -343.112 186.496 -261.819 81.3689C-189.388 -12.2966 -166.583 -73.5189 -192.074 -105.784C-231.544 -155.736 -380.501 -129.679 -538.197 -102.113C-712.848 -71.5603 -893.423 -39.9977 -948.684 -105.58C-986.996 -151.049 -960.459 -238.076 -867.575 -371.606L-869.155 -372.212C-962.417 -238.113 -988.955 -150.569 -950.248 -104.62C-894.39 -38.3165 -713.23 -70.0085 -538.025 -100.635C-380.926 -128.108 -232.542 -154.036 -193.644 -104.854C-168.542 -73.1001 -191.335 -12.3951 -263.328 80.71C-345.126 186.465 -372.353 250.668 -346.574 276.99C-310.62 313.732 -177.404 270.566 -48.5915 228.811C73.1756 189.335 188.187 152.069 215.986 182.296C237.018 205.15 205.16 265.337 118.644 366.264C26.4197 473.811 -6.97204 539.843 16.5351 568.154C46.6813 604.422 162.789 575.162 285.732 544.191C409.605 512.98 537.685 480.715 573.885 519.119C596.746 543.384 581.368 593.262 526.877 671.599L528.453 672.203C552.718 637.173 569.278 607.815 578.159 583.821Z" fill="#EDEDED" fill-opacity="0.2"/>
<path d="M584.127 606.566C595.76 575.101 594.738 552.376 581.189 537.891C543.659 497.713 415.166 528.087 290.881 557.482C168.664 586.396 53.197 613.71 23.2725 577.195C0.0609553 548.885 31.9622 484.133 120.781 379.253C205.209 279.552 235.706 219.469 213.979 195.586C185.009 163.722 69.7698 199.368 -52.2251 237.114C-179.972 276.633 -312.055 317.507 -347.904 280.562C-373.468 254.21 -347.695 191.152 -269.105 87.7808C-199.292 -4.03105 -177.792 -64.6005 -203.406 -97.3826C-243.492 -148.726 -392.689 -125.016 -550.675 -99.9199C-725.682 -72.114 -906.627 -43.372 -962.886 -110.851C-1001.45 -157.102 -976.83 -243.336 -887.616 -374.462L-889.208 -375.044C-978.805 -243.353 -1003.41 -156.622 -964.444 -109.897C-907.6 -41.7337 -726.083 -70.5558 -550.551 -98.4541C-393.163 -123.446 -244.496 -147.07 -205.013 -96.4526C-179.812 -64.1694 -201.293 -4.11116 -270.669 87.1403C-349.733 191.121 -375.501 254.739 -349.456 281.597C-312.868 319.293 -180.145 278.247 -51.8002 238.524C69.5542 200.975 184.165 165.526 212.42 196.578C233.655 219.919 203.195 279.447 119.297 378.52C29.9853 483.992 -1.94682 549.291 21.6959 578.119C52.2608 615.434 168.319 587.985 291.17 558.917C414.877 529.657 542.79 499.407 579.631 538.883C602.732 563.61 588.462 613.057 536.065 690.1L537.648 690.685C560.09 657.762 575.554 629.771 584.127 606.566Z" fill="#EDEDED" fill-opacity="0.2"/>
<path d="M590.563 629.445C602.659 596.694 601.569 572.977 587.453 557.729C549.258 516.479 420.876 544.833 296.72 572.275C174.479 599.268 59.0241 624.795 28.6378 587.191C5.32145 558.332 35.7508 494.314 121.712 391.478C203.541 293.588 232.671 234.158 210.759 209.795C181.321 177.056 66.4267 210.903 -55.1863 246.727C-182.521 284.245 -314.209 323.026 -350.73 285.077C-376.577 258.182 -352.263 195.71 -276.346 94.0629C-209.144 4.07401 -188.957 -55.8735 -214.619 -89.1728C-255.278 -141.964 -404.839 -120.6 -563.2 -97.9857C-738.62 -72.945 -920.027 -47.0421 -977.326 -116.449C-1016.13 -163.476 -993.399 -248.919 -907.816 -377.678L-909.408 -378.261C-995.362 -248.96 -1018.08 -163.02 -978.903 -115.513C-921.049 -45.4286 -739.095 -71.3992 -563.12 -96.5261C-405.362 -119.054 -256.331 -140.332 -216.239 -88.2674C-190.964 -55.4546 -211.14 3.97549 -277.929 93.3916C-354.289 195.642 -378.609 258.65 -352.251 286.056C-315.028 324.769 -182.718 285.785 -54.7799 248.107C66.2235 212.461 180.502 178.798 209.219 210.743C230.626 234.589 201.527 293.459 120.228 390.721C33.7864 494.148 3.32598 558.702 27.0673 588.084C58.088 626.458 174.134 600.82 296.991 573.679C420.581 546.372 548.402 518.135 585.938 558.689C609.261 583.859 596.106 632.931 545.741 708.681L547.343 709.248C567.918 678.35 582.311 651.788 590.563 629.445Z" fill="#EDEDED" fill-opacity="0.2"/>
<path d="M597.474 652.491C610.062 618.397 608.916 593.677 594.197 577.627C555.325 535.269 426.98 561.615 302.848 587.099C180.533 612.208 65.023 635.918 34.1563 597.218C10.7107 567.798 39.7297 504.488 122.883 403.685C202.119 307.587 229.918 248.797 207.834 223.929C177.953 190.278 63.3416 222.34 -58.0128 256.267C-185.033 291.771 -316.371 328.501 -353.556 289.481C-379.711 262.032 -356.802 200.126 -283.539 100.173C-218.911 11.9819 -199.992 -47.3127 -225.704 -81.1171C-266.985 -135.38 -416.983 -116.362 -575.8 -96.2609C-751.762 -73.9792 -933.723 -50.9217 -992.063 -122.293C-1031.11 -170.084 -1010.23 -254.765 -928.188 -381.188L-929.787 -381.753C-1012.16 -254.78 -1033.04 -169.622 -993.621 -121.363C-934.715 -49.302 -752.212 -72.4089 -575.726 -94.7829C-417.507 -114.829 -268.032 -133.754 -227.299 -80.2118C-201.951 -46.894 -220.864 11.9019 -285.097 99.5505C-358.797 200.101 -381.688 262.567 -355.071 290.503C-317.19 330.244 -185.236 293.379 -57.6249 257.69C63.0768 223.935 177.096 192.058 206.282 224.926C227.898 249.253 200.123 307.5 121.386 402.989C37.759 504.39 8.71529 568.229 32.5674 598.166C64.0438 637.636 180.139 613.809 303.064 588.583C426.635 563.216 554.388 536.993 592.645 578.662C616.183 604.306 604.143 652.99 555.817 727.465L557.418 728.032C576.233 699.019 589.56 673.904 597.474 652.491Z" fill="#EDEDED" fill-opacity="0.2"/>
<path d="M604.783 675.664C617.87 640.209 616.675 614.417 601.34 597.579C561.771 554.106 433.408 578.414 309.27 601.946C186.814 625.139 71.1742 647.057 39.8518 607.199C16.3139 577.232 43.9349 514.642 124.279 415.797C200.984 321.454 227.435 263.287 205.197 237.944C174.841 203.376 60.4583 233.621 -60.656 265.645C-187.381 299.154 -318.447 333.802 -356.304 293.728C-382.724 265.744 -361.255 204.368 -290.598 106.096C-228.483 19.6786 -210.808 -39.0002 -236.588 -73.291C-278.497 -129.069 -428.999 -112.416 -588.34 -94.8214C-764.937 -75.2926 -947.544 -55.111 -1006.97 -128.521C-1046.26 -177.046 -1027.18 -260.99 -948.67 -385.116L-950.327 -385.665C-1029.17 -260.989 -1048.22 -176.566 -1008.58 -127.597C-948.61 -53.5035 -765.454 -73.753 -588.346 -93.3249C-429.56 -110.883 -279.587 -127.449 -238.207 -72.3857C-212.803 -38.5691 -230.46 19.5986 -292.181 105.474C-363.251 204.343 -384.713 266.243 -357.837 294.732C-319.291 335.545 -187.645 300.725 -60.3111 267.062C60.1689 235.204 173.979 205.113 203.626 238.911C225.409 263.736 198.964 321.368 122.752 415.095C41.9209 514.513 14.2814 577.638 38.2259 608.098C70.1519 648.732 186.389 626.697 309.461 603.381C433.064 579.954 560.841 555.75 599.794 598.559C623.542 624.659 612.567 672.954 566.236 746.21L567.837 746.752C584.94 719.747 597.245 696.098 604.783 675.664Z" fill="#EDEDED" fill-opacity="0.2"/>
<path d="M612.549 699.025C626.159 662.147 624.884 635.253 608.927 617.559C568.626 572.91 440.177 595.222 315.977 616.771C193.329 638.073 77.4866 658.175 45.6654 617.14C22.0411 586.655 48.2643 524.725 125.874 427.863C200.054 335.269 225.218 277.686 202.826 251.845C171.996 216.298 57.7668 244.775 -63.1812 274.897C-189.721 306.41 -320.56 339.02 -359.1 297.819C-385.797 269.274 -365.696 208.427 -297.656 111.787C-238.023 27.1131 -221.604 -30.9374 -247.39 -65.7024C-289.946 -123.026 -441.033 -108.757 -601.027 -93.6623C-778.369 -76.9234 -961.715 -59.6363 -1022.26 -135.134C-1061.75 -184.387 -1044.49 -267.598 -969.437 -389.476L-971.076 -390.005C-1046.45 -267.59 -1063.7 -183.926 -1023.86 -134.229C-962.787 -58.0719 -778.867 -75.4269 -601.051 -92.1966C-441.618 -107.248 -291.023 -121.444 -248.991 -64.8403C-223.544 -30.5617 -239.969 27.0146 -299.202 111.153C-367.685 208.384 -387.756 269.754 -360.597 298.774C-321.379 340.701 -189.943 307.95 -62.8301 276.295C57.502 246.309 171.146 217.998 201.292 252.763C223.26 278.081 198.102 335.103 124.39 427.106C46.3242 524.546 20.0642 586.982 44.0887 617.99C76.4704 659.782 192.892 639.582 316.149 618.187C439.826 596.706 567.714 574.511 607.418 618.477C631.381 645.026 621.478 692.952 577.124 764.995L578.763 765.525C594.122 740.57 605.392 718.412 612.549 699.025Z" fill="#EDEDED" fill-opacity="0.2"/>
<path d="M620.807 722.568C634.947 684.25 633.617 656.229 616.983 637.648C575.936 591.81 447.345 612.096 322.985 631.711C200.048 651.098 83.9346 669.389 51.6576 627.135C27.9411 596.115 52.8401 534.88 127.716 439.915C199.408 349.021 223.297 292.048 200.756 265.702C169.452 229.188 55.3343 255.866 -65.5212 284.11C-191.926 313.652 -322.623 344.199 -361.859 301.859C-388.833 272.766 -370.099 212.449 -304.615 117.416C-247.451 34.4601 -232.197 -22.993 -258.038 -58.1954C-301.246 -117.096 -453.03 -105.222 -613.732 -92.6586C-791.887 -78.7403 -976.12 -64.3231 -1037.83 -141.97C-1077.55 -191.938 -1062.04 -274.401 -990.411 -394.08L-992.055 -394.591C-1063.97 -274.399 -1079.48 -191.458 -1039.44 -141.053C-977.21 -62.7651 -792.478 -77.1883 -613.812 -91.1621C-453.652 -103.676 -302.379 -115.507 -259.682 -57.3024C-234.192 -22.5619 -249.41 34.3986 -306.241 116.849C-372.138 212.455 -390.853 273.32 -363.429 302.9C-323.516 345.954 -192.228 315.26 -65.2505 285.6C54.977 257.492 168.51 230.955 199.174 266.718C221.283 292.535 197.419 348.978 126.195 439.281C50.8694 534.794 25.9518 596.552 50.044 628.084C82.9184 671.083 199.586 652.706 323.127 633.22C446.957 613.691 575.018 593.503 615.437 638.664C639.622 665.657 630.741 713.238 588.352 784.068L590.002 784.573C603.803 761.484 614.063 740.853 620.807 722.568Z" fill="#EDEDED" fill-opacity="0.2"/>
<path d="M629.485 746.273C644.167 706.464 642.763 677.273 625.451 657.769C583.647 610.729 454.865 628.965 330.29 646.615C207.001 664.087 90.5677 680.568 57.7672 637.063C33.989 605.513 57.5455 544.931 129.761 451.888C198.995 362.675 221.622 306.287 198.928 279.467C167.143 241.93 53.0374 266.823 -67.7627 293.188C-194.081 320.747 -324.71 349.255 -364.661 305.733C-391.9 276.104 -374.508 216.255 -311.549 122.811C-256.794 41.5367 -242.746 -15.3007 -268.6 -50.9587C-312.492 -111.491 -465.045 -102.025 -626.547 -92.0117C-805.632 -80.9078 -990.796 -69.4405 -1053.69 -149.274C-1093.62 -199.929 -1079.82 -281.687 -1011.58 -399.177L-1013.23 -399.67C-1081.79 -281.648 -1095.55 -199.449 -1055.29 -148.35C-991.892 -67.8885 -806.217 -79.3989 -626.658 -90.5213C-465.686 -100.486 -313.643 -109.921 -270.238 -50.0842C-244.704 -14.8818 -258.752 41.4751 -313.163 122.22C-376.522 216.249 -393.871 276.597 -366.213 306.706C-325.597 350.918 -194.377 322.299 -67.4918 294.617C52.6802 268.387 166.201 243.611 197.345 280.397C219.614 306.694 196.994 362.57 128.203 451.204C55.5624 544.808 31.9875 605.901 56.1291 637.938C89.4777 682.187 206.484 665.627 330.345 648.075C454.391 630.511 582.649 612.343 623.887 658.717C648.262 686.147 640.429 733.383 599.973 803.043L601.624 803.535C613.885 782.455 623.172 763.375 629.485 746.273Z" fill="#EDEDED" fill-opacity="0.2"/>
<path d="M638.631 770.199C653.873 728.857 652.42 698.446 634.381 678.006C591.807 629.716 462.724 645.938 337.902 661.606C214.207 677.143 97.3549 691.826 64.0494 647.028C40.2219 614.973 62.4422 555.05 132.034 463.866C198.854 376.292 220.231 320.477 197.407 293.17C165.142 254.562 51.024 277.693 -69.8131 302.161C-196.119 327.75 -326.736 354.201 -367.45 309.471C-394.942 279.294 -378.899 219.932 -318.422 128.034C-266.043 48.4345 -253.16 -7.80553 -279.025 -43.8824C-323.613 -106.059 -477.011 -99.0261 -639.406 -91.5927C-819.507 -83.3279 -1005.73 -74.8044 -1069.86 -156.856C-1109.98 -208.181 -1097.91 -289.233 -1032.96 -404.607L-1034.63 -405.076C-1099.86 -289.188 -1111.92 -207.696 -1071.46 -155.953C-1006.81 -73.2648 -820.111 -81.8251 -639.535 -90.0961C-477.67 -97.5048 -324.771 -104.532 -280.651 -43.0201C-255.118 -7.41135 -267.996 48.3545 -320.042 127.449C-380.882 219.932 -396.913 279.787 -369.002 310.444C-327.647 355.864 -196.47 329.296 -69.5975 303.596C50.6176 279.245 164.175 256.243 195.8 294.087C218.198 320.883 196.84 376.187 130.451 463.183C60.4591 554.927 38.2019 615.342 62.3988 647.878C96.2402 693.421 213.647 678.677 337.908 663.053C462.225 647.435 590.779 631.287 632.799 678.936C657.371 706.809 650.578 753.67 611.989 822.214L613.652 822.683C624.472 803.548 632.774 786.07 638.631 770.199Z" fill="#EDEDED" fill-opacity="0.2"/>
<path d="M648.292 794.358C664.132 751.408 662.574 719.784 643.809 698.321C600.422 648.763 470.993 662.94 345.845 676.655C221.658 690.247 104.344 703.1 70.5269 656.966C46.6563 624.412 67.6139 565.136 134.564 475.794C198.976 389.839 219.152 334.572 196.192 306.785C163.423 267.093 49.206 288.426 -71.705 311.034C-198.066 334.646 -328.745 359.052 -370.204 313.085C-397.949 282.347 -383.23 223.459 -325.222 133.095C-275.184 55.1212 -263.433 -0.515408 -289.305 -36.9803C-334.614 -100.838 -488.941 -96.2625 -652.322 -91.4157C-833.519 -86.0332 -1020.89 -80.4781 -1086.33 -164.828C-1126.64 -216.804 -1116.26 -297.162 -1054.57 -410.437L-1056.23 -410.894C-1118.22 -297.097 -1128.58 -216.319 -1087.93 -163.924C-1022.01 -78.9631 -834.172 -84.5305 -652.488 -89.9315C-489.643 -94.7721 -335.809 -99.3357 -290.962 -36.1242C-265.392 -0.0966427 -277.148 55.0657 -326.86 132.54C-385.231 223.502 -399.919 282.865 -371.763 314.076C-329.663 360.746 -198.43 336.229 -71.5326 312.512C48.7933 290.021 162.425 268.792 194.597 307.752C217.144 335.04 196.987 389.796 133.006 475.172C65.637 565.056 44.6672 624.825 68.8826 657.859C103.229 704.72 221.085 691.806 345.839 678.14C470.495 664.486 599.406 650.371 642.263 699.3C667.02 727.617 661.225 774.145 624.526 841.551L626.195 842C635.544 824.781 642.928 808.911 648.292 794.358Z" fill="#EDEDED" fill-opacity="0.2"/>
<path d="M658.357 818.698C674.788 774.122 673.15 741.223 653.621 718.726C609.421 667.862 479.58 679.988 354.038 691.721C229.284 703.366 111.471 714.378 77.1058 666.883C53.2044 633.83 72.8811 575.219 137.275 487.681C199.322 403.352 218.285 348.609 195.221 320.359C161.934 279.559 47.5879 299.112 -73.4833 319.824C-199.986 341.471 -330.763 363.833 -373.023 316.584C-400.995 285.299 -387.576 226.885 -332.001 137.992C-284.26 61.6136 -273.624 6.58686 -299.502 -30.2537C-345.575 -95.8362 -500.893 -93.7301 -665.315 -91.5007C-847.725 -89.0311 -1036.33 -86.4691 -1103.09 -173.146C-1143.6 -225.747 -1134.87 -305.414 -1076.37 -416.644L-1078.05 -417.076C-1136.81 -305.324 -1145.52 -225.242 -1104.68 -172.242C-1037.45 -84.9602 -848.353 -87.5284 -665.493 -90.0164C-501.546 -92.2274 -346.714 -94.352 -301.098 -29.41C-275.509 6.9933 -286.157 61.5642 -333.59 137.45C-389.51 226.897 -402.892 285.804 -374.526 317.545C-331.669 365.477 -200.3 343.017 -73.28 321.283C47.2061 300.689 160.998 281.222 193.694 321.296C216.339 349.052 197.389 403.278 135.772 487.041C70.9842 575.108 51.2829 634.212 75.5478 667.752C110.411 715.967 228.767 704.906 354.093 693.192C479.149 681.504 608.467 669.42 652.162 719.668C677.134 748.385 672.331 794.587 637.449 860.902L639.124 861.333C647.069 846.11 653.504 831.877 658.357 818.698Z" fill="#EDEDED" fill-opacity="0.2"/>
<path d="M668.967 843.301C686.008 797.057 684.29 762.821 663.96 739.252C618.892 687.065 488.577 697.14 362.591 706.865C237.209 716.564 118.786 725.722 83.8918 676.823C59.9597 643.296 78.4044 585.313 140.28 499.58C199.987 416.827 217.748 362.632 194.617 333.896C160.794 291.944 46.226 309.724 -75.0546 328.538C-201.73 348.19 -332.723 368.526 -375.771 319.947C-403.996 288.126 -391.832 230.155 -338.666 142.734C-293.172 67.9387 -283.627 13.4969 -309.523 -23.6946C-356.378 -91.02 -512.768 -91.4143 -678.366 -91.8269C-862.076 -92.2826 -1052.03 -92.763 -1120.18 -181.79C-1160.91 -234.996 -1153.78 -313.964 -1098.42 -423.209L-1100.13 -423.623C-1155.74 -313.9 -1162.83 -234.492 -1121.8 -180.888C-1053.21 -91.2541 -862.784 -90.7738 -678.624 -90.3118C-513.519 -89.9116 -357.585 -89.5051 -311.186 -22.8203C-285.597 13.9525 -295.131 67.9387 -340.341 142.242C-393.859 230.211 -405.954 288.667 -377.354 320.938C-333.702 370.182 -202.155 349.761 -74.9623 330.022C45.7394 311.306 159.765 293.613 193.003 334.844C215.771 363.094 197.991 416.778 138.69 498.976C76.4459 585.251 57.9703 643.733 82.2412 677.722C117.659 727.317 236.605 718.129 362.523 708.386C488.053 698.698 617.857 688.654 662.402 740.244C687.578 769.386 683.711 815.268 650.676 880.487L652.382 880.899C659.107 867.56 664.638 855.046 668.967 843.301Z" fill="#EDEDED" fill-opacity="0.2"/>
<path d="M680.034 868.163C697.709 820.188 695.917 784.597 674.731 759.914C628.764 706.359 497.938 714.359 371.41 722.088C245.338 729.792 126.232 737.072 90.7583 686.744C66.8014 652.761 84.0391 595.406 143.408 511.428C200.805 430.221 217.421 376.568 194.154 347.376C159.796 304.248 44.9632 320.223 -76.6068 337.159C-203.522 354.822 -334.786 373.088 -378.672 323.192C-407.125 290.835 -396.248 233.301 -345.422 147.322C-302.133 74.0657 -293.671 20.2151 -319.556 -17.309C-367.211 -86.4081 -524.784 -89.3272 -691.607 -92.4065C-876.709 -95.8183 -1068.08 -99.3656 -1137.68 -190.817C-1178.59 -244.615 -1173.09 -322.902 -1120.78 -430.189L-1122.5 -430.585C-1175.03 -322.812 -1180.52 -244.11 -1139.28 -189.914C-1069.24 -97.8814 -877.398 -94.328 -691.859 -90.91C-525.504 -87.843 -368.393 -84.9424 -321.157 -16.4591C-295.568 20.6462 -304.03 74.041 -347.048 146.817C-398.17 233.351 -409.028 291.346 -380.193 324.146C-335.728 374.708 -203.947 356.368 -76.5083 338.637C44.4828 321.788 158.773 305.874 192.572 348.306C215.451 377.024 198.841 430.178 141.819 510.825C82.0623 595.326 64.8369 653.174 89.1016 687.625C125.061 738.636 244.673 731.332 371.305 723.584C497.359 715.874 627.705 707.898 673.142 760.862C698.491 790.398 695.615 835.966 664.336 900.132L666.048 900.526C671.622 889.176 676.265 878.386 680.034 868.163Z" fill="#EDEDED" fill-opacity="0.2"/>
<path d="M691.618 893.271C709.953 843.516 708.037 806.546 685.983 780.698C639.104 725.764 507.674 731.67 380.58 737.403C253.714 743.119 133.887 748.508 97.8409 696.733C73.8903 662.312 89.9025 605.592 146.826 523.32C201.97 443.653 217.44 390.492 194.074 360.857C159.168 316.503 43.9904 330.692 -77.9245 345.707C-205.167 361.38 -336.763 377.59 -381.48 326.283C-410.148 293.402 -400.528 236.312 -352.054 151.749C-310.952 80.0142 -303.525 26.7427 -329.397 -11.0894C-377.908 -82.0052 -536.719 -87.4801 -704.872 -93.2569C-891.433 -99.6802 -1084.37 -106.307 -1155.46 -200.221C-1196.61 -254.561 -1192.66 -332.192 -1143.38 -437.572L-1145.1 -437.949C-1194.57 -332.12 -1198.48 -254.048 -1157.05 -199.336C-1085.52 -104.872 -892.154 -98.1961 -705.168 -91.7665C-537.489 -85.9959 -379.115 -80.5518 -331.047 -10.2519C-305.446 27.1614 -312.88 80.0081 -353.717 151.256C-402.487 236.374 -412.082 293.932 -383.026 327.237C-337.723 379.191 -205.622 362.908 -77.8692 347.166C43.5037 332.213 158.109 318.092 192.479 361.737C215.451 390.904 199.987 443.566 145.243 522.698C87.9563 605.469 71.9256 662.663 96.2026 697.545C132.729 750.035 253.061 744.609 380.457 738.882C507.096 733.185 638.051 727.285 684.425 781.628C709.983 811.571 708.049 856.812 678.538 919.962L680.262 920.331C684.666 910.94 688.435 901.911 691.618 893.271Z" fill="#EDEDED" fill-opacity="0.2"/>
<path d="M703.689 918.681C722.695 867.097 720.7 828.668 697.722 801.613C649.901 745.256 517.818 749.08 390.065 752.776C262.349 756.471 141.721 759.962 105.077 706.654C81.1082 671.797 95.9625 615.717 150.472 535.144C203.38 456.974 217.705 404.355 194.29 374.252C158.786 328.66 43.2577 341.033 -79.0821 354.144C-206.712 367.828 -338.696 381.95 -384.313 329.239C-413.215 295.829 -404.815 239.158 -358.644 155.974C-319.642 85.7233 -313.261 33.0552 -339.152 -5.07857C-388.531 -77.8235 -548.666 -85.8666 -718.218 -94.3962C-906.356 -103.85 -1100.9 -113.637 -1173.57 -210.029C-1214.93 -264.897 -1212.51 -341.898 -1166.22 -445.399L-1167.95 -445.752C-1214.45 -341.79 -1216.83 -264.385 -1175.19 -209.145C-1102.1 -112.2 -907.125 -102.39 -718.562 -92.9181C-549.479 -84.4131 -389.775 -76.3947 -340.796 -4.24716C-315.195 33.4617 -321.576 85.7232 -360.307 155.506C-406.773 239.219 -415.118 296.352 -385.859 330.194C-339.7 383.545 -207.199 369.35 -79.0575 355.622C42.7404 342.572 157.758 330.255 192.714 375.139C215.759 404.774 201.44 456.918 148.902 534.547C94.0596 615.624 79.1682 672.197 103.476 707.491C140.6 761.477 261.696 757.973 389.948 754.247C517.239 750.571 648.872 746.765 696.225 802.53C721.962 832.849 720.958 877.813 693.183 939.928L694.92 940.285C698.172 932.858 701.134 925.634 703.689 918.681Z" fill="#EDEDED" fill-opacity="0.2"/>
<path d="M716.284 944.356C735.979 890.887 733.86 850.967 709.953 822.663C661.134 764.877 528.33 766.589 399.887 768.252C271.272 769.914 149.764 771.479 112.511 716.649C88.5292 681.398 102.22 625.915 154.383 547.012C205.08 470.313 218.296 418.199 194.789 387.671C158.718 340.798 42.7034 351.354 -80.1291 362.557C-208.209 374.227 -340.624 386.279 -387.158 332.121C-416.294 298.206 -409.126 241.954 -365.19 160.131C-328.264 91.3274 -322.912 39.2199 -348.784 0.833547C-399.075 -73.7589 -560.632 -84.4317 -731.656 -95.7265C-921.456 -108.259 -1117.72 -121.217 -1192.02 -220.121C-1233.61 -275.474 -1232.74 -351.835 -1189.32 -453.54L-1191.07 -453.855C-1234.67 -351.72 -1235.5 -274.968 -1193.64 -219.238C-1118.94 -119.781 -922.263 -106.8 -732.062 -94.2361C-561.47 -82.966 -400.35 -72.3365 -350.453 1.6648C-324.846 39.6385 -330.222 91.3274 -366.909 159.669C-411.078 242.021 -418.222 298.729 -388.753 333.063C-341.708 387.856 -208.751 375.767 -80.1722 364.041C42.106 352.9 157.591 342.369 193.145 388.564C216.282 418.624 203.06 470.264 152.726 546.439C100.267 625.835 86.5584 681.767 110.811 717.474C148.538 772.975 270.508 771.393 399.635 769.748C527.628 768.104 659.982 766.386 708.345 823.605C734.273 854.299 734.199 898.949 708.099 960.103L709.836 960.436C712.213 954.93 714.356 949.572 716.284 944.356Z" fill="#EDEDED" fill-opacity="0.2"/>
<path d="M729.346 970.34C749.768 914.913 747.545 873.472 722.596 843.868C672.749 784.635 539.157 784.228 409.963 783.809C280.344 783.397 157.936 783.015 120.012 726.615C96.0489 690.975 108.625 636.115 158.441 558.856C206.94 483.617 219.078 432.002 195.522 401.055C158.841 352.87 42.3216 361.628 -81.0529 370.859C-209.637 380.51 -342.625 390.475 -390.071 334.813C-419.423 300.387 -413.443 244.547 -371.755 164.049C-336.867 96.668 -332.501 45.1394 -358.391 6.5252C-409.643 -69.9272 -572.654 -83.2605 -745.26 -97.3451C-936.816 -112.988 -1134.88 -129.173 -1210.87 -230.642C-1252.7 -286.485 -1253.31 -362.208 -1212.75 -462.14L-1214.51 -462.437C-1255.23 -362.055 -1254.58 -285.954 -1212.49 -229.759C-1136.09 -127.756 -937.623 -111.553 -745.679 -95.8793C-573.504 -81.807 -410.893 -68.5415 -360.048 7.33202C-334.435 45.5582 -338.826 96.668 -373.474 163.587C-415.413 244.584 -421.375 300.911 -391.654 335.743C-343.672 392.014 -210.204 382 -81.1207 372.319C41.7241 363.112 157.733 354.41 193.914 401.923C217.145 432.408 205 483.561 156.815 558.264C106.703 636.004 94.115 691.332 118.38 727.409C156.729 784.468 279.642 784.85 409.747 785.269C538.498 785.675 671.665 786.088 721.044 844.779C747.187 875.837 748.006 920.16 723.588 980.384L725.343 980.686C726.772 977.213 728.102 973.739 729.346 970.34Z" fill="#EDEDED" fill-opacity="0.2"/>
<path d="M742.994 996.649C764.142 939.214 761.778 896.203 735.819 865.232C684.894 804.514 550.459 801.946 420.464 799.458C289.798 796.964 166.38 794.587 127.797 736.604C103.84 700.613 115.295 646.332 162.827 570.704C209.207 496.894 220.255 445.766 196.625 414.413C159.31 364.892 42.2051 371.795 -81.8036 379.099C-210.973 386.699 -344.534 394.563 -392.971 337.393C-422.532 302.487 -417.716 247.035 -378.258 167.842C-345.365 101.841 -341.954 50.8849 -367.863 12.0551C-420.131 -66.3002 -584.718 -82.3064 -758.968 -99.2424C-952.347 -118.051 -1152.31 -137.493 -1230.07 -241.538C-1272.15 -297.834 -1274.22 -372.97 -1236.46 -471.129L-1238.22 -471.408C-1276.16 -372.755 -1274.01 -297.302 -1231.69 -240.655C-1153.52 -136.094 -953.179 -116.603 -759.412 -97.7766C-585.568 -80.8775 -421.387 -64.9207 -369.532 12.8619C-343.9 51.316 -347.305 101.872 -379.983 167.423C-419.705 247.115 -424.472 303.035 -394.56 338.342C-345.63 396.128 -211.565 388.226 -81.927 380.59C41.546 373.316 158.146 366.437 194.974 415.312C218.272 446.221 207.211 496.87 161.164 570.175C113.33 646.289 101.863 701.001 126.103 737.435C165.112 796.077 289.009 798.442 420.162 800.942C549.751 803.418 683.761 805.98 734.212 866.161C760.552 897.576 762.27 941.591 739.49 1000.89L741.251 1001.18C741.879 999.673 742.434 998.158 742.994 996.649Z" fill="#EDEDED" fill-opacity="0.2"/>
<path d="M757.681 1021.84C779.033 963.06 776.367 918.86 749.503 886.761C697.463 824.56 562.147 819.818 431.278 815.248C299.484 810.629 174.983 806.269 135.716 746.654C111.765 710.312 122.143 656.665 167.408 582.602C211.682 510.209 221.671 459.585 197.985 427.832C160.018 376.931 42.2785 381.981 -82.3954 387.327C-212.199 392.888 -346.425 398.634 -395.878 339.906C-425.661 304.531 -422.022 249.443 -384.689 171.512C-353.729 106.866 -351.278 56.4888 -377.218 17.4435C-430.52 -62.821 -596.765 -81.5306 -772.752 -101.349C-968.058 -123.341 -1170.01 -146.088 -1249.61 -252.74C-1291.95 -309.471 -1295.5 -383.967 -1260.45 -480.504L-1262.21 -480.764C-1297.42 -383.814 -1293.84 -308.939 -1251.22 -251.882C-1171.23 -144.715 -968.902 -121.931 -773.214 -99.8894C-597.639 -80.1019 -431.82 -61.4354 -378.881 18.2565C-353.218 56.9014 -355.682 106.909 -386.431 171.112C-423.986 249.523 -427.589 305.03 -397.461 340.836C-347.528 400.143 -212.828 394.366 -82.5372 388.798C41.6255 383.484 158.891 378.464 196.353 428.688C219.707 459.998 209.717 510.165 165.745 582.073C120.159 656.604 109.807 710.707 134.029 747.467C173.733 807.716 298.672 812.083 430.958 816.714C561.433 821.284 696.336 826.007 747.92 887.691C774.488 919.433 777.081 963.251 755.896 1021.58L757.681 1021.84Z" fill="#EDEDED" fill-opacity="0.2"/>
<path d="M774.544 1042.71C794.306 984.8 790.759 940.889 763.698 908.458C710.513 844.742 574.236 837.807 442.418 831.094C309.406 824.332 183.79 817.946 143.771 756.668C119.833 720.019 129.132 666.956 172.206 594.458C214.416 523.437 223.383 473.282 199.636 441.171C161.009 388.897 42.5493 392.057 -82.8759 395.407C-213.388 398.905 -348.365 402.508 -398.828 342.228C-428.839 306.379 -426.333 251.685 -391.143 174.998C-362.068 111.694 -360.559 61.8531 -386.505 22.6538C-440.91 -59.5383 -608.848 -81.0132 -786.658 -103.751C-931.969 -122.331 -1082.22 -141.554 -1183.82 -194.954C-1298.91 -255.423 -1331.92 -352.048 -1284.72 -490.317L-1286.5 -490.534C-1311.56 -417.104 -1314.04 -354.33 -1293.88 -303.973C-1275.78 -258.759 -1240.15 -222.671 -1184.96 -193.672C-1083.07 -140.125 -932.622 -120.89 -787.144 -102.291C-609.759 -79.5967 -442.179 -58.171 -388.149 23.473C-362.456 62.2842 -363.989 111.719 -392.842 174.629C-428.254 251.783 -430.718 306.914 -400.356 343.164C-349.394 404.029 -213.973 400.414 -83.0051 396.903C41.8967 393.559 159.882 390.406 198.047 442.058C221.474 473.75 212.476 523.443 170.574 593.971C127.199 666.944 117.912 720.437 142.121 757.506C182.54 819.393 308.611 825.804 442.086 832.597C573.497 839.273 709.386 846.189 762.14 909.388C788.93 941.474 792.397 984.997 772.788 1042.47L774.544 1042.71Z" fill="#EDEDED" fill-opacity="0.2"/>
<path d="M791.935 1063.77C810.134 1006.74 805.718 963.092 778.423 930.353C724.031 865.109 586.738 855.963 453.935 847.12C319.66 838.184 192.83 829.734 152.055 766.775C128.122 729.836 136.363 677.365 177.28 606.394C217.459 536.728 225.397 487.072 201.594 454.573C162.253 400.871 43.0176 402.145 -83.2084 403.488C-214.49 404.886 -350.256 406.346 -401.821 344.458C-432.085 308.135 -430.705 253.816 -397.609 178.349C-370.394 116.327 -369.809 67.0398 -395.792 27.705C-451.318 -56.4086 -621.048 -80.6981 -800.724 -106.398C-946.78 -127.275 -1097.79 -148.886 -1200.95 -203.858C-1317.77 -266.113 -1353.26 -363.16 -1309.4 -500.542L-1311.19 -500.741C-1355.26 -362.71 -1319.55 -265.175 -1202.09 -202.581C-1098.66 -147.464 -947.476 -125.853 -801.266 -104.92C-621.965 -79.2753 -452.617 -55.0476 -397.4 28.524C-371.669 67.5077 -372.285 116.394 -399.297 178.017C-432.621 253.946 -433.926 308.695 -403.355 345.388C-351.309 407.842 -215.1 406.407 -83.3869 404.997C42.3401 403.66 161.102 402.379 199.999 455.454C223.494 487.534 215.519 536.735 175.648 605.908C134.453 677.353 126.213 730.243 150.404 767.613C191.58 831.169 318.835 839.637 453.559 848.616C585.962 857.441 722.879 866.556 776.859 931.301C803.877 963.714 808.212 1006.97 790.137 1063.59L791.935 1063.77Z" fill="#EDEDED" fill-opacity="0.2"/>
<path d="M809.795 1085.03C826.472 1028.83 821.213 985.446 793.678 952.43C738.048 885.64 599.64 874.259 465.802 863.26C330.178 852.113 202.08 841.582 160.516 776.935C136.584 739.725 143.808 687.852 182.619 618.371C220.784 550.042 227.743 500.847 203.885 468.01C163.817 412.854 43.7561 412.207 -83.369 411.542C-215.489 410.846 -352.116 410.113 -404.815 346.588C-435.306 309.827 -435.029 255.86 -403.984 181.606C-378.598 120.821 -378.881 72.082 -404.914 32.6241C-461.683 -53.4233 -633.267 -80.5518 -814.944 -109.251C-961.801 -132.468 -1113.65 -156.454 -1218.35 -213.019C-1336.96 -277.086 -1374.92 -374.603 -1334.42 -511.121L-1336.21 -511.301C-1376.91 -374.127 -1338.74 -276.148 -1219.51 -211.744C-1114.55 -155.033 -962.528 -131.027 -815.511 -107.785C-634.215 -79.1353 -462.97 -52.0869 -406.558 33.4555C-380.747 72.5808 -380.476 120.938 -405.708 181.31C-436.926 256.032 -437.166 310.418 -406.349 347.542C-353.2 411.628 -216.148 412.342 -83.5783 413.057C43.0417 413.734 162.659 414.381 202.29 468.915C225.846 501.352 218.887 550.079 180.987 617.946C141.923 687.901 134.706 740.175 158.896 777.816C200.861 843.06 329.378 853.616 465.451 864.818C598.926 875.786 736.927 887.13 792.163 953.452C819.414 986.16 824.612 1029.17 808.064 1084.94L809.795 1085.03Z" fill="#EDEDED" fill-opacity="0.2"/>
<path d="M828.154 1106.53C879.621 918.762 675.471 898.814 478.04 879.488C340.993 866.093 211.559 853.438 169.169 787.079C145.231 749.617 151.451 698.316 188.187 630.294C224.381 563.271 230.361 514.563 206.435 481.387C165.591 424.752 44.6494 422.178 -83.3932 419.45C-216.418 416.617 -353.976 413.698 -407.845 348.509C-438.576 311.312 -439.408 257.726 -410.388 184.599C-390.293 133.945 -388.181 91.8144 -403.934 55.7992C-418.087 23.4913 -446.477 -3.23677 -490.733 -25.9372C-573.184 -68.2219 -697.611 -89.7276 -829.368 -112.514C-977.081 -138.041 -1129.81 -164.434 -1236.14 -222.629C-1356.58 -288.537 -1397.06 -386.547 -1359.85 -522.288L-1361.65 -522.43C-1399.03 -386.069 -1358.35 -287.573 -1237.3 -221.353C-1130.72 -163.039 -977.832 -136.6 -829.983 -111.049C-698.387 -88.3112 -574.089 -66.8239 -491.872 -24.6624C-399.685 22.6292 -374.324 88.957 -412.168 184.298C-441.36 257.831 -440.479 311.884 -409.446 349.433C-355.14 415.157 -217.139 418.101 -83.695 420.934C43.8857 423.656 164.39 426.212 204.778 482.243C228.415 515.006 222.41 563.295 186.463 629.839C149.487 698.322 143.273 750.011 167.457 787.88C210.253 854.842 340.094 867.535 477.565 880.973C674.122 900.187 877.379 920.067 826.325 1106.36L828.154 1106.53Z" fill="#EDEDED" fill-opacity="0.2"/>
</svg>
