<svg width="1920" height="938" viewBox="0 0 1920 938" fill="none" xmlns="http://www.w3.org/2000/svg">
<mask id="mask0_307_2794" style="mask-type:alpha" maskUnits="userSpaceOnUse" x="0" y="0" width="1920" height="938">
<rect width="1920" height="938" fill="#D9D9D9"/>
</mask>
<g mask="url(#mask0_307_2794)">
<path d="M482.468 30.2688C475.302 15.0011 466.489 6.63412 456.223 5.08148C420.099 -0.352764 370.513 79.1769 322.477 156.119C277.637 228.058 231.248 302.412 200.644 296.633C175.27 291.803 162.196 233.061 160.646 117.044C159.193 7.75547 147.669 -47.1045 125.394 -50.5548C97.0179 -54.954 55.9548 22.0743 12.5674 103.674C-32.9506 189.242 -80.0182 277.656 -113.721 273.085C-138.804 269.721 -154.009 215.119 -160.014 106.176C-165.534 7.15165 -182.579 -43.9992 -212.02 -50.2098C-254.439 -59.1806 -316.324 24.8345 -381.89 113.68C-454.525 212.014 -529.581 313.626 -586.237 302.844C-628.462 294.735 -655.482 224.866 -668.75 89.0103L-670.009 89.1829C-656.741 225.557 -629.43 295.857 -586.624 303.965C-529.097 315.006 -453.75 212.963 -381.018 114.37C-315.647 25.8696 -253.955 -57.8005 -212.408 -49.0022C-183.451 -42.8779 -166.793 7.92799 -161.273 106.348C-155.171 215.896 -139.676 270.842 -114.011 274.292C-79.4371 278.95 -32.079 190.105 13.6328 104.192C56.8264 23.0231 97.5989 -53.5739 125.103 -49.3472C146.797 -45.9832 157.935 8.44553 159.387 117.13C160.937 233.751 174.302 292.838 200.353 297.841C231.829 303.792 276.475 232.371 323.639 156.723C371.385 80.1258 420.777 0.941101 456.029 6.28909C479.466 9.82566 494.574 49.8493 502.225 128.775L503.484 128.603C498.932 83.2311 492.056 50.5393 482.468 30.2688Z" fill="url(#paint0_linear_307_2794)" fill-opacity="0.2"/>
<path d="M493.606 41.6547C486.052 25.697 476.948 16.985 466.101 15.2598C429.203 9.56682 378.842 87.7164 330.225 163.278C284.707 234.01 237.543 307.07 206.261 300.946C180.5 295.943 166.941 238.236 164.811 124.721C162.874 17.6751 150.865 -36.1498 128.203 -39.7727C99.2454 -44.3443 57.6981 31.3038 13.6328 111.351C-32.4663 195.366 -80.2119 282.228 -114.592 277.397C-140.16 273.861 -155.752 220.295 -162.435 113.594C-168.439 16.8125 -185.969 -33.3896 -215.797 -39.8589C-259.088 -49.261 -322.038 33.2877 -388.766 120.581C-462.563 217.189 -538.878 317.162 -596.793 305.776C-639.696 297.323 -667.394 228.748 -681.437 95.9972L-682.696 96.1697C-668.556 229.524 -640.568 298.444 -597.18 306.898C-538.394 318.456 -461.885 218.138 -387.797 121.184C-321.36 34.1503 -258.604 -47.9671 -216.185 -38.8238C-186.84 -32.4407 -169.698 17.4163 -163.694 113.594C-157.011 220.898 -141.032 274.81 -114.883 278.432C-79.5339 283.349 -31.5947 196.056 14.6981 111.696C58.4728 31.9938 99.8265 -43.223 127.815 -38.8238C149.799 -35.2872 161.518 18.1064 163.455 124.549C165.585 238.668 179.435 296.719 205.777 301.808C237.93 308.105 283.158 237.891 331.097 163.537C379.52 88.3202 429.687 10.6019 465.617 16.1224C489.441 19.8315 504.937 59.1651 513.169 136.366L514.428 136.193C509.973 93.2369 503 61.7528 493.606 41.6547Z" fill="url(#paint1_linear_307_2794)" fill-opacity="0.2"/>
<path d="M505.034 52.9547C497.189 36.2206 487.601 27.0773 476.27 25.2659C438.597 19.3141 387.558 95.9973 338.07 170.265C291.777 239.703 243.935 311.556 211.975 305.173C185.73 299.911 171.784 243.326 169.169 132.226C166.651 27.4223 154.254 -25.3675 131.205 -29.1628C101.667 -33.9933 59.5381 40.2747 14.8917 118.942C-31.8853 201.404 -80.2119 286.713 -115.367 281.624C-141.322 277.915 -157.496 225.298 -164.759 120.84C-171.345 26.301 -189.261 -22.9523 -219.478 -29.7666C-263.64 -39.5138 -327.752 41.5686 -395.545 127.481C-470.601 222.451 -548.273 320.699 -607.446 308.795C-650.93 300.083 -679.306 232.716 -694.221 102.898L-695.48 103.07C-680.469 233.406 -651.802 301.032 -607.833 309.917C-547.788 321.993 -469.924 223.4 -394.577 128.085C-326.978 42.5174 -263.156 -38.2199 -219.865 -28.559C-190.133 -21.9171 -172.507 26.991 -166.018 121.012C-158.755 226.074 -142.291 279.036 -115.658 282.832C-79.6307 288.007 -31.0136 202.267 15.9572 119.459C60.313 41.2236 102.248 -32.6994 130.817 -28.0415C153.189 -24.3324 165.295 28.0261 167.813 132.312C170.428 244.016 184.761 300.86 211.588 306.294C244.419 312.936 290.421 243.929 339.038 170.869C388.236 97.0324 439.081 20.608 475.883 26.4735C500.094 30.3551 515.977 68.9123 524.693 144.474L525.953 144.302C521.207 103.07 514.331 72.7077 505.034 52.9547Z" fill="url(#paint2_linear_307_2794)" fill-opacity="0.2"/>
<path d="M516.752 64.1682C508.52 46.6579 498.545 37.0833 486.633 35.1856C448.185 28.8888 396.275 104.278 346.108 177.252C296.91 248.674 250.52 316.127 217.883 309.313C191.25 303.792 176.82 248.329 173.624 139.644C170.621 36.997 157.741 -14.844 134.401 -18.7256C104.184 -23.8148 61.475 49.1593 16.2476 126.446C-31.1106 207.442 -80.2119 291.199 -116.045 285.937C-142.484 282.055 -159.142 230.473 -166.987 128.085C-174.056 35.7031 -192.457 -12.6013 -223.061 -19.6744C-268.192 -30.0253 -333.37 49.7631 -402.421 134.123C-478.834 227.541 -557.861 324.149 -618.39 311.642C-662.455 302.499 -691.606 236.425 -707.295 109.626L-708.554 109.885C-692.768 237.288 -663.327 303.62 -618.777 312.85C-557.376 325.529 -478.156 228.576 -401.453 134.813C-332.692 50.712 -267.707 -28.6452 -223.448 -18.5531C-193.329 -11.6524 -175.315 36.3069 -168.246 128.172C-160.304 231.077 -143.356 283.004 -116.336 286.972C-79.534 292.406 -30.239 208.219 17.3128 126.878C62.2498 50.0219 104.766 -22.5209 134.013 -17.6042C156.772 -13.8089 169.362 37.687 172.268 139.73C175.464 249.019 190.281 304.828 217.398 310.434C250.908 317.335 297.588 249.536 347.076 177.77C397.049 105.227 448.669 30.1826 486.245 36.3069C510.844 40.2748 527.212 78.2282 536.412 152.151L537.671 151.892C532.829 112.731 525.856 83.5762 516.752 64.1682Z" fill="url(#paint3_linear_307_2794)" fill-opacity="0.2"/>
<path d="M528.761 75.209C520.142 56.9224 509.682 46.9165 497.189 44.8463C457.966 38.2907 405.184 112.386 354.243 183.98C304.27 254.194 257.009 320.44 223.694 313.367C196.673 307.588 181.759 253.159 178.079 146.889C174.592 46.3989 161.324 -4.40695 137.5 -8.54733C106.703 -13.8953 63.3152 57.7849 17.5066 133.692C-30.5294 213.222 -80.3088 295.425 -116.917 289.905C-143.84 285.851 -160.982 235.217 -169.505 134.986C-177.156 44.76 -195.944 -2.59554 -226.935 -9.92746C-273.034 -20.7097 -339.374 57.6124 -409.685 140.679C-487.453 232.543 -567.933 327.599 -629.818 314.488C-674.464 305 -704.293 240.22 -720.854 116.268L-722.113 116.527C-705.455 240.997 -675.433 306.121 -630.205 315.696C-567.448 328.98 -486.775 233.665 -408.716 141.455C-338.696 58.82 -272.647 -19.3296 -227.322 -8.63359C-196.815 -1.47419 -178.318 45.6226 -170.764 135.331C-162.241 236.08 -144.712 287.058 -117.207 291.199C-79.6307 296.892 -29.6578 214.257 18.6687 134.296C64.2836 58.82 107.38 -12.5152 137.306 -7.25346C160.453 -3.19934 173.43 47.2615 176.917 147.148C180.694 254.022 195.898 308.795 223.5 314.661C257.784 321.906 305.239 255.315 355.502 184.756C406.25 113.508 458.741 39.7571 497.189 46.2264C522.176 50.3668 538.93 87.5439 548.615 159.914L549.874 159.655C544.644 122.306 537.768 94.272 528.761 75.209Z" fill="url(#paint4_linear_307_2794)" fill-opacity="0.2"/>
<path d="M541.158 86.25C532.248 67.187 521.207 56.6636 508.133 54.5072C468.038 47.6928 414.482 120.408 362.669 190.795C311.824 259.801 263.885 324.925 229.698 317.507C202.29 311.556 186.892 258.076 182.631 154.135C178.563 55.801 164.908 5.85776 140.793 1.63112C109.317 -3.97563 65.3491 66.4108 18.8625 140.938C-29.9482 219.087 -80.3087 299.824 -117.885 294.045C-145.293 289.819 -162.919 240.134 -172.023 142.059C-180.158 53.9896 -199.43 7.49666 -230.809 -0.0940317C-277.876 -11.3938 -345.475 65.6344 -417.045 147.321C-496.169 237.546 -578.005 330.964 -641.439 317.249C-686.764 307.415 -717.174 243.843 -734.606 122.823L-735.865 123.082C-718.433 244.619 -687.635 308.536 -641.827 318.456C-577.714 332.344 -495.491 238.581 -416.077 148.011C-344.701 66.5833 -277.295 -10.1862 -231.099 0.941046C-200.302 8.35922 -181.32 54.5934 -173.282 142.145C-164.178 240.738 -146.164 290.767 -118.176 295.08C-79.8244 301.032 -29.1735 219.863 19.9279 141.369C66.2206 67.1871 109.995 -2.76804 140.502 2.6662C164.036 6.89284 177.401 56.4048 181.468 154.135C185.73 258.593 201.419 312.418 229.408 318.542C264.369 326.219 312.599 260.663 363.734 191.312C415.354 121.271 468.619 48.9004 507.939 55.6285C533.313 59.9414 550.552 96.4285 560.721 167.16L561.98 166.901C556.847 131.708 549.971 104.882 541.158 86.25Z" fill="url(#paint5_linear_307_2794)" fill-opacity="0.2"/>
<path d="M554.038 96.7736C544.741 76.9343 533.216 65.8933 519.561 63.5643C478.595 56.4049 424.167 127.826 371.482 196.919C319.766 264.718 270.955 328.721 236.09 320.871C208.295 314.661 192.509 262.216 187.667 160.777C183.115 64.5995 168.975 15.6912 144.473 11.2058C112.417 5.3403 67.7702 74.4328 20.509 147.666C-28.9798 224.349 -80.2117 303.62 -118.563 297.582C-146.358 293.183 -164.565 244.447 -174.25 148.528C-182.869 62.6155 -202.529 16.9851 -234.295 9.22191C-282.331 -2.59542 -351.189 73.139 -424.115 153.359C-504.885 241.946 -588.367 333.724 -653.158 319.405C-699.063 309.227 -730.151 246.862 -748.358 128.775L-749.617 129.034C-731.313 247.639 -699.935 310.262 -653.545 320.613C-587.98 335.104 -504.207 242.981 -423.243 153.876C-350.608 74.0016 -282.041 -1.47406 -234.779 10.1708C-203.595 17.8477 -184.225 63.1331 -175.606 148.528C-165.921 244.965 -147.327 294.045 -118.951 298.617C-79.7275 304.828 -28.3018 225.212 21.4774 148.097C68.4482 75.2954 112.901 6.54792 144.086 12.2409C168.007 16.6401 181.856 65.2033 186.311 160.777C191.153 262.82 207.23 315.61 235.606 321.907C271.342 329.929 320.444 265.58 372.354 197.437C424.748 128.689 478.982 57.6126 519.173 64.5995C544.935 69.0849 562.561 104.882 573.214 173.974L574.473 173.716C569.34 140.593 562.561 114.974 554.038 96.7736Z" fill="url(#paint6_linear_307_2794)" fill-opacity="0.2"/>
<path d="M567.209 107.038C557.428 86.3361 545.516 74.8639 531.086 72.2761C489.248 64.7717 433.851 134.899 380.295 202.698C327.707 269.289 278.025 332.171 242.385 323.976C214.203 317.507 197.932 266.097 192.606 167.073C187.57 73.0524 172.946 25.0931 148.056 20.4352C115.322 14.2246 69.9977 82.1095 21.9617 153.962C-28.3018 229.179 -80.3085 306.984 -119.435 300.687C-147.714 296.115 -166.405 248.328 -176.671 154.566C-185.872 70.8097 -205.919 26.1282 -237.975 18.02C-287.077 5.59883 -357.291 80.0393 -431.475 158.879C-513.698 246.172 -598.827 336.398 -665.07 321.389C-711.556 310.865 -743.322 249.795 -762.401 134.554L-763.66 134.813C-744.581 250.485 -712.428 311.9 -665.457 322.51C-598.439 337.691 -513.117 247.121 -430.507 159.569C-356.516 81.0744 -286.592 6.89268 -238.266 19.1413C-206.694 27.077 -186.937 71.4135 -177.833 154.739C-167.471 249.018 -148.489 297.15 -119.628 301.808C-79.6306 308.278 -27.3334 230.128 23.1238 154.566C70.8693 83.1446 115.903 15.6047 147.863 21.6428C172.171 26.2144 186.408 73.8288 191.444 167.246C196.867 266.874 213.428 318.542 242.095 325.184C278.606 333.637 328.579 270.41 381.36 203.388C434.723 135.848 489.829 66.1518 530.892 73.4837C557.041 78.1416 575.054 113.249 586.192 180.702L587.451 180.443C582.221 149.132 575.538 124.721 567.209 107.038Z" fill="url(#paint7_linear_307_2794)" fill-opacity="0.2"/>
<path d="M580.768 117.217C570.599 95.6521 558.106 83.6623 543.095 80.902C500.385 73.0526 444.02 141.886 389.495 208.477C335.939 273.947 285.385 335.708 248.874 327.082C220.304 320.354 203.646 269.979 197.739 173.284C192.122 81.4196 177.207 34.4091 151.93 29.4924C118.421 23.023 72.4189 89.6141 23.6081 160.173C-27.4302 234.01 -80.2117 310.348 -120.306 303.706C-149.07 298.962 -168.245 252.038 -179.189 160.432C-188.874 78.8318 -209.309 35.0129 -241.752 26.6459C-291.919 13.7072 -363.489 86.8538 -439.126 164.313C-522.996 250.054 -609.673 338.727 -677.563 323.114C-724.631 312.246 -757.074 252.383 -776.928 140.075L-778.187 140.334C-758.333 253.159 -725.502 313.281 -678.047 324.235C-609.286 340.107 -522.318 251.175 -438.158 165.09C-362.714 87.9752 -291.435 15.0873 -242.043 27.7672C-210.18 35.9617 -189.939 79.4356 -180.351 160.604C-169.408 252.814 -149.845 299.997 -120.597 304.827C-79.7274 311.642 -26.6553 234.872 24.6735 160.691C73.1937 90.5629 119.002 24.3169 151.543 30.6137C176.239 35.3579 190.863 82.1096 196.48 173.37C202.387 270.669 219.433 321.303 248.487 328.203C285.773 337.001 336.617 274.896 390.464 209.167C444.698 142.921 500.772 74.3464 542.707 82.0234C569.243 86.8538 587.741 121.271 599.363 187.172L600.622 186.913C595.392 157.499 588.806 134.296 580.768 117.217Z" fill="url(#paint8_linear_307_2794)" fill-opacity="0.2"/>
<path d="M594.714 127.309C584.158 104.882 571.083 92.3743 555.297 89.4416C511.619 81.2471 454.286 148.873 398.89 214.257C344.365 278.519 292.842 339.244 255.556 330.187C226.696 323.2 209.457 273.861 203.065 179.495C196.964 89.7866 181.565 43.6386 155.901 38.5494C121.714 31.7351 74.9369 97.1185 25.3513 166.384C-26.5586 238.84 -80.2117 313.798 -121.081 306.811C-150.232 301.808 -169.989 255.919 -181.514 166.297C-191.682 86.7676 -212.601 43.8974 -245.336 35.2716C-296.568 21.7292 -369.493 93.6682 -446.777 169.748C-532.293 254.108 -620.714 341.228 -690.153 324.925C-737.802 313.712 -770.923 255.057 -791.455 145.595L-792.714 145.854C-771.989 255.833 -738.577 314.747 -690.541 326.133C-620.423 342.608 -531.615 255.229 -445.905 170.61C-369.009 94.7895 -296.277 23.1093 -245.82 36.4792C-213.57 44.9325 -192.941 87.5439 -182.869 166.556C-171.345 256.609 -151.297 302.93 -121.469 308.019C-79.7275 315.092 -25.7838 239.875 26.3198 166.987C75.6148 98.1536 122.198 33.1152 155.513 39.6708C180.597 44.5875 195.705 90.3904 201.709 179.581C208.198 274.551 225.63 324.149 255.072 331.309C293.133 340.538 344.946 279.554 399.761 214.86C454.964 149.822 512.007 82.5409 554.91 90.5629C581.833 95.5659 600.718 129.293 612.824 193.641L614.083 193.382C608.95 165.78 602.462 143.784 594.714 127.309Z" fill="url(#paint9_linear_307_2794)" fill-opacity="0.2"/>
<path d="M608.951 137.228C597.91 113.853 584.255 100.828 567.791 97.6361C523.144 89.0965 464.842 155.515 408.381 219.691C352.791 282.832 300.3 342.522 262.239 333.034C232.991 325.788 215.365 277.397 208.392 185.36C201.806 97.7223 185.923 52.5232 159.969 47.1752C125.007 40.1021 77.455 104.278 27.0947 172.249C-25.59 243.412 -80.2116 316.99 -122.049 309.744C-151.685 304.569 -171.926 259.542 -184.031 171.99C-194.685 94.5308 -215.991 52.5232 -249.016 43.6387C-301.41 29.5786 -375.788 100.224 -454.525 175.096C-541.784 257.989 -632.045 343.73 -703.131 326.651C-751.264 315.092 -785.063 257.644 -806.466 150.943L-807.725 151.202C-786.225 258.334 -752.135 316.127 -703.518 327.772C-631.754 345.024 -541.203 259.024 -453.75 175.872C-375.304 101.345 -301.119 30.8725 -249.5 44.8463C-216.959 53.6446 -195.944 95.3071 -185.291 172.249C-173.185 260.232 -152.556 305.604 -122.34 310.865C-79.6306 318.284 -24.9121 244.361 28.16 172.853C78.2298 105.227 125.588 41.396 159.678 48.2966C185.052 53.4721 200.644 98.3261 207.23 185.447C214.203 278.087 232.119 326.737 261.851 334.155C300.784 343.816 353.469 283.867 409.349 220.381C465.52 156.464 523.628 90.3904 567.5 98.7574C594.714 103.933 614.083 136.97 626.674 199.765L627.932 199.42C622.799 173.888 616.505 153.186 608.951 137.228Z" fill="url(#paint10_linear_307_2794)" fill-opacity="0.2"/>
<path d="M623.671 147.148C612.243 122.823 598.007 109.194 580.671 105.83C535.056 96.9459 475.689 162.157 418.162 225.211C361.506 287.317 308.047 345.972 269.115 336.053C239.479 328.462 221.466 281.193 214.009 191.312C206.842 105.658 190.669 61.4077 164.326 55.8872C128.687 48.469 80.2633 111.523 29.0313 178.287C-24.6218 248.156 -80.0182 320.44 -122.825 312.763C-152.944 307.415 -173.766 263.251 -186.356 177.769C-197.59 102.38 -219.187 61.2351 -252.503 52.0918C-306.059 37.3417 -381.89 106.866 -462.273 180.443C-551.275 261.957 -643.376 346.231 -716.108 328.462C-764.822 316.558 -799.3 260.232 -821.381 156.291L-822.64 156.636C-800.365 261.008 -765.694 317.68 -716.496 329.669C-643.086 347.611 -550.694 263.078 -461.401 181.306C-381.309 107.987 -305.671 38.8081 -252.89 53.2994C-220.059 62.3565 -198.656 103.156 -187.518 178.114C-174.734 264.114 -153.622 308.623 -123.018 314.057C-79.4371 321.82 -23.6534 249.277 30.1934 179.063C81.1349 112.645 129.268 49.9354 164.133 57.181C189.894 62.529 205.874 106.521 212.943 191.657C220.497 282.055 238.802 329.67 268.921 337.346C308.725 347.439 362.475 288.525 419.324 226.074C476.561 163.364 535.637 98.4123 580.574 107.211C608.175 112.559 627.932 144.992 641.006 206.235L642.266 205.89C636.939 181.91 630.838 162.416 623.671 147.148Z" fill="url(#paint11_linear_307_2794)" fill-opacity="0.2"/>
<path d="M638.682 156.981C626.77 131.708 611.953 117.475 593.842 113.939C547.259 104.709 486.73 168.712 428.137 230.646C370.417 291.716 315.892 349.423 275.991 338.985C245.969 331.136 227.568 284.729 219.529 197.178C211.878 113.507 195.221 70.1198 168.491 64.4268C132.077 56.6636 82.8784 118.51 30.7748 184.153C-23.7499 252.728 -80.2116 323.718 -123.89 315.696C-154.493 310.089 -175.799 266.788 -189.068 183.29C-200.689 109.885 -222.77 69.6022 -256.376 60.2001C-311.095 44.8462 -388.572 113.162 -470.601 185.446C-561.54 265.58 -655.482 348.474 -729.957 329.928C-779.155 317.68 -814.214 262.475 -837.167 161.208L-838.426 161.553C-815.279 263.251 -779.93 318.715 -730.248 331.05C-655.095 349.768 -560.863 266.615 -469.633 186.223C-387.894 114.198 -310.707 46.1401 -256.667 61.2352C-223.545 70.5511 -201.754 110.488 -190.133 183.463C-176.768 267.478 -155.171 311.038 -124.083 316.731C-79.5338 324.839 -22.8783 253.59 31.937 184.67C83.7501 119.459 132.755 57.8712 168.394 65.4619C194.543 71.0686 210.91 114.198 218.561 197.264C226.599 285.419 245.291 332.085 275.797 340.021C316.473 350.63 371.288 292.665 429.3 231.336C487.601 169.661 547.84 106.003 593.746 115.06C621.734 120.581 641.878 152.324 655.437 212.1L656.696 211.755C651.466 189.759 645.559 171.559 638.682 156.981Z" fill="url(#paint12_linear_307_2794)" fill-opacity="0.2"/>
<path d="M654.081 166.729C641.685 140.42 626.189 125.67 607.304 121.874C559.656 112.214 497.964 175.096 438.403 235.907C379.52 295.943 323.93 352.614 283.158 341.746C252.845 333.637 233.96 288.18 225.437 202.784C217.302 121.184 200.257 78.573 173.14 72.6212C135.951 64.4267 85.7838 125.325 32.8086 189.673C-22.6846 257.04 -80.0179 326.737 -124.858 318.37C-155.849 312.591 -177.64 270.152 -191.586 188.552C-203.691 117.13 -226.16 77.7104 -260.056 67.9633C-315.937 52.0919 -394.964 119.2 -478.736 190.363C-571.613 269.203 -667.588 350.716 -743.806 331.395C-793.489 318.801 -829.225 264.804 -852.953 166.125L-854.212 166.47C-830.387 265.494 -794.457 319.836 -744.29 332.516C-667.394 351.924 -571.128 270.238 -478.058 191.14C-394.48 120.322 -315.646 53.3857 -260.444 69.1709C-227.031 78.7455 -204.854 117.907 -192.845 188.897C-178.899 270.928 -156.818 313.712 -125.245 319.577C-79.7274 328.117 -22.1036 258.076 33.6802 190.449C86.4617 126.36 136.241 65.8931 172.656 73.8288C199.192 79.6081 215.946 121.874 224.081 203.043C232.604 288.956 251.779 334.673 282.577 342.953C324.124 354.081 380.005 297.064 439.178 236.77C498.545 176.217 559.946 113.594 606.917 123.082C635.293 128.775 655.824 159.914 669.867 218.224L671.126 217.879C666.284 197.523 660.667 180.53 654.081 166.729Z" fill="url(#paint13_linear_307_2794)" fill-opacity="0.2"/>
<path d="M669.964 176.39C657.083 149.046 640.91 133.692 621.153 129.638C572.439 119.632 509.586 181.392 448.863 241.083C388.818 300.17 332.065 355.892 290.324 344.506C259.721 336.139 240.448 291.63 231.344 208.391C222.725 128.689 205.196 86.9402 177.788 80.8159C139.728 72.2763 88.786 132.053 34.7455 195.28C-21.7162 261.44 -80.1148 329.928 -125.923 321.13C-157.399 315.092 -179.673 273.516 -194.2 193.9C-206.791 124.376 -229.55 85.8188 -263.736 75.8992C-320.876 59.3377 -401.646 125.325 -487.162 195.28C-581.878 272.74 -679.887 352.959 -757.946 332.861C-808.209 320.009 -844.527 267.047 -868.932 171.042L-870.191 171.387C-845.592 267.823 -809.081 321.044 -758.43 334.069C-679.694 354.253 -581.394 273.861 -486.29 196.143C-401.065 126.446 -320.586 60.6315 -264.124 77.0205C-230.421 86.7677 -207.953 125.152 -195.363 194.245C-180.836 274.378 -158.173 316.3 -126.214 322.338C-79.6306 331.222 -20.9414 262.475 35.8109 195.97C89.5609 133.002 140.309 73.5702 177.498 81.9372C204.421 87.9753 221.563 129.379 230.182 208.564C239.286 292.32 258.752 337.174 289.937 345.627C332.453 357.272 389.399 301.205 449.831 241.859C510.36 182.341 572.923 120.839 620.959 130.759C649.626 136.625 670.642 167.16 685.169 224.004L686.428 223.659C681.489 205.113 676.065 189.414 669.964 176.39Z" fill="url(#paint14_linear_307_2794)" fill-opacity="0.2"/>
<path d="M686.137 185.964C672.772 157.585 655.921 141.541 635.293 137.228C585.513 126.791 521.401 187.517 459.516 246.172C398.212 304.224 340.297 359.084 297.588 347.18C266.597 338.554 246.937 294.908 237.446 213.825C228.342 136.107 210.425 95.1346 182.63 88.7515C143.795 79.7807 91.7881 138.522 36.7791 200.714C-20.7479 265.753 -80.2119 332.947 -127.086 323.804C-158.948 317.594 -181.804 276.794 -196.816 199.075C-209.89 131.449 -232.939 93.6682 -267.417 83.4898C-325.815 66.2382 -408.329 131.19 -495.685 199.938C-592.532 276.19 -692.671 355.029 -772.667 334.241C-823.415 321.044 -860.313 269.203 -885.493 175.699L-886.752 176.044C-861.475 269.893 -824.286 321.993 -773.151 335.363C-692.575 356.323 -592.144 277.311 -495.007 200.8C-407.942 132.225 -325.719 67.5321 -267.901 84.6111C-233.908 94.617 -211.149 132.139 -198.075 199.334C-182.966 277.57 -159.82 318.629 -127.376 324.925C-79.8245 334.155 -20.0699 266.701 37.7476 201.404C92.4661 139.557 144.182 81.1608 182.243 89.8729C209.457 96.0834 227.083 136.711 236.187 213.998C245.775 295.598 265.725 339.503 297.103 348.301C340.491 360.464 398.696 305.345 460.29 246.948C521.982 188.552 585.707 128.085 634.905 138.35C663.959 144.388 685.362 174.319 700.277 229.697L701.536 229.352C697.081 212.618 691.948 198.213 686.137 185.964Z" fill="url(#paint15_linear_307_2794)" fill-opacity="0.2"/>
<path d="M702.892 195.539C688.946 166.125 671.514 149.391 649.917 144.819C598.975 133.951 533.7 193.641 470.556 251.261C407.993 308.364 348.82 362.362 305.142 349.94C273.86 341.056 253.813 298.272 243.838 219.26C234.25 143.353 215.946 103.329 187.86 96.6874C148.153 87.3716 95.2747 145.078 39.2004 206.149C-19.392 269.979 -79.9212 336.053 -127.86 326.565C-160.207 320.095 -183.547 280.158 -199.14 204.251C-212.698 138.522 -236.135 101.518 -270.71 91.1669C-330.464 73.2253 -414.721 137.142 -504.014 204.768C-602.991 279.813 -705.358 357.359 -787.194 335.708C-838.426 322.165 -875.906 271.446 -901.86 180.444L-903.12 180.789C-877.068 272.136 -839.297 323.2 -787.678 336.829C-705.165 358.566 -602.604 280.848 -503.336 205.631C-414.333 138.177 -330.367 74.5191 -271.194 92.2883C-237.007 102.553 -213.86 139.299 -200.399 204.596C-184.71 280.934 -161.079 321.217 -128.248 327.772C-79.5339 337.433 -18.7141 271.101 40.0719 207.011C95.8557 146.199 148.444 88.8379 187.376 97.9813C214.977 104.451 232.991 144.215 242.482 219.605C252.554 299.048 272.892 342.091 304.658 351.148C349.11 363.828 408.477 309.572 471.331 252.21C534.185 194.763 599.266 135.417 649.529 146.113C678.971 152.324 700.761 181.651 716.16 235.649L717.419 235.304C712.964 220.036 708.218 206.839 702.892 195.539Z" fill="url(#paint16_linear_307_2794)" fill-opacity="0.2"/>
<path d="M719.937 205.027C705.506 174.406 687.299 157.068 664.734 152.151C612.63 140.938 546 199.507 481.597 256.178C417.678 312.418 357.342 365.467 312.599 352.442C281.027 343.298 260.592 301.377 250.036 224.435C239.964 150.426 221.272 111.092 192.799 104.278C152.221 94.5308 98.2769 151.202 41.1373 211.238C-18.5204 273.947 -80.2119 338.899 -129.313 328.893C-162.144 322.251 -185.969 283.004 -202.142 208.995C-216.088 145.164 -239.912 108.936 -274.777 98.3261C-335.791 79.6944 -421.984 142.576 -513.214 209.081C-614.419 282.918 -719.014 359.17 -802.883 336.743C-854.502 322.942 -892.66 273.171 -919.293 184.756L-920.455 185.188C-893.725 274.033 -855.374 324.063 -803.27 337.95C-718.82 360.55 -613.935 284.039 -512.439 210.03C-421.5 143.698 -335.597 81.0746 -275.164 99.4475C-240.687 109.971 -217.25 145.854 -203.304 209.34C-187.034 283.867 -162.919 323.287 -129.604 330.101C-79.8245 340.193 -17.8425 275.068 42.1057 212.014C98.9548 152.237 152.608 95.8246 192.412 105.399C220.304 112.127 238.705 151.116 248.777 224.608C259.333 301.981 280.058 344.161 312.115 353.477C357.536 366.674 418.162 313.367 482.371 256.868C546.484 200.455 612.824 142.059 664.347 153.186C694.079 159.655 716.257 188.293 732.14 240.997L733.302 240.565C729.331 227.282 724.876 215.378 719.937 205.027Z" fill="url(#paint17_linear_307_2794)" fill-opacity="0.2"/>
<path d="M737.466 214.429C722.455 182.686 703.473 164.572 679.939 159.483C626.673 147.838 558.687 205.372 493.025 261.095C427.75 316.386 366.059 368.658 320.25 355.029C288.387 345.541 267.565 304.569 256.622 229.697C246.065 157.585 226.986 119.028 198.223 111.955C156.772 101.776 101.764 157.499 43.5585 216.499C-17.2613 278.174 -80.1149 341.918 -130.282 331.567C-163.5 324.667 -187.809 286.282 -204.563 213.998C-219.187 151.979 -243.205 116.613 -278.264 105.744C-340.73 86.4226 -428.764 148.269 -522.027 213.739C-625.46 286.282 -732.475 361.326 -818.282 338.123C-870.385 324.063 -909.027 275.327 -936.435 189.242L-937.597 189.673C-910.092 276.104 -871.257 325.098 -818.669 339.244C-732.282 362.706 -624.975 287.403 -521.349 214.602C-428.376 149.391 -340.536 87.7164 -278.748 106.866C-244.077 117.562 -220.252 152.755 -205.919 214.429C-189.068 287.058 -164.469 325.788 -130.766 332.775C-79.8243 343.298 -16.6803 279.295 44.3333 217.362C102.248 158.62 156.966 103.157 197.739 113.162C225.921 120.063 244.806 158.275 255.363 229.956C266.403 305.259 287.516 346.576 319.766 356.151C366.252 369.952 428.137 317.507 493.8 261.871C559.268 206.407 626.964 149.046 679.552 160.604C709.671 167.16 732.236 195.28 748.507 246.603L749.669 246.172C745.989 234.441 741.921 223.831 737.466 214.429Z" fill="url(#paint18_linear_307_2794)" fill-opacity="0.2"/>
<path d="M755.383 223.831C739.79 190.881 720.033 172.077 695.434 166.643C640.91 154.566 571.567 211.152 504.549 265.839C437.822 320.268 374.871 371.677 327.997 357.531C295.844 347.784 274.732 307.674 263.207 234.786C252.166 164.486 232.603 126.705 203.646 119.373C161.227 108.764 105.153 163.537 45.7858 221.589C-16.1962 282.228 -80.3088 344.851 -131.638 334.069C-165.34 326.996 -190.036 289.301 -207.469 218.828C-222.286 158.534 -246.692 123.859 -281.944 112.818C-345.766 92.8058 -435.833 153.618 -531.228 218.052C-636.984 289.474 -746.421 363.31 -834.358 339.331C-886.946 325.012 -926.072 277.311 -954.158 193.641L-955.32 194.072C-927.138 278.174 -887.721 326.047 -834.746 340.538C-746.228 364.69 -636.597 290.681 -530.55 219.087C-435.349 154.825 -345.572 94.1859 -282.428 114.025C-247.563 124.98 -223.448 159.311 -208.728 219.26C-191.295 290.164 -166.212 328.117 -132.025 335.277C-79.9214 346.231 -15.6151 283.263 46.6574 222.451C105.734 164.745 161.518 110.144 203.259 120.667C231.828 127.826 251.004 165.262 262.045 235.131C273.57 308.45 294.973 348.905 327.61 358.739C375.162 373.144 438.403 321.475 505.421 266.788C572.245 212.273 641.297 155.947 695.144 167.85C725.554 174.578 748.506 202.181 765.261 252.124L766.423 251.693C763.033 241.514 759.353 232.198 755.383 223.831Z" fill="url(#paint19_linear_307_2794)" fill-opacity="0.2"/>
<path d="M773.88 233.233C757.707 199.075 737.176 179.581 711.511 173.802C655.727 161.294 585.029 216.844 516.558 270.669C448.378 324.235 383.975 374.869 335.939 360.119C303.592 350.113 281.995 310.865 270.083 239.961C258.558 171.387 238.705 134.382 209.36 126.877C165.973 115.75 108.736 169.661 48.207 226.678C-15.034 286.196 -80.4056 347.87 -132.993 336.57C-167.084 329.325 -192.361 292.32 -210.277 223.659C-225.579 165.09 -250.178 131.19 -285.624 119.977C-350.899 99.275 -443 159.138 -540.525 222.451C-648.703 292.665 -760.561 365.294 -850.629 340.452C-903.604 325.874 -943.311 279.209 -972.075 197.781L-973.237 198.213C-944.376 279.985 -904.379 326.823 -851.016 341.573C-760.367 366.588 -648.219 293.7 -539.75 223.314C-442.516 160.173 -350.705 100.483 -286.011 121.012C-251.05 132.139 -226.644 165.78 -211.439 223.918C-193.426 293.096 -167.858 330.273 -133.284 337.605C-80.0182 348.991 -14.3561 287.145 49.0786 227.368C109.317 170.61 166.263 116.958 208.973 127.913C237.833 135.331 257.493 171.99 268.921 240.134C280.93 311.469 302.721 351.062 335.552 361.24C384.169 376.249 448.862 325.357 517.333 271.532C585.513 217.966 656.018 162.588 711.124 174.923C741.921 181.824 765.164 208.822 782.403 257.558L783.565 257.127C780.563 248.415 777.27 240.479 773.88 233.233Z" fill="url(#paint20_linear_307_2794)" fill-opacity="0.2"/>
<path d="M792.766 242.549C776.011 207.097 754.705 186.827 727.878 180.788C670.835 167.85 598.588 222.451 528.761 275.327C459.031 328.031 393.175 377.888 344.074 362.534C311.437 352.269 289.549 313.798 277.153 244.878C265.144 178.115 244.903 141.8 215.268 134.123C170.912 122.564 112.513 175.527 50.725 231.594C-13.7751 290.163 -80.5026 350.716 -134.253 338.985C-168.73 331.481 -194.491 295.253 -212.989 228.317C-228.678 171.473 -253.665 138.35 -289.207 126.877C-355.935 105.485 -450.167 164.313 -549.919 226.678C-660.615 295.77 -775.088 367.278 -867.383 341.659C-920.843 326.823 -961.034 281.193 -990.475 202.008L-991.638 202.439C-962.099 281.883 -921.52 327.772 -867.77 342.694C-774.894 368.486 -660.228 296.805 -549.241 227.54C-449.779 165.435 -355.838 106.693 -289.692 127.912C-254.439 139.212 -229.743 172.163 -214.151 228.575C-195.556 295.943 -169.505 332.43 -134.543 340.02C-80.0182 351.838 -13.0972 291.112 51.6934 232.284C113.191 176.476 171.299 123.686 214.977 135.072C244.128 142.663 264.175 178.632 276.088 244.964C288.581 314.402 310.662 353.132 343.784 363.483C393.563 379.095 459.709 329.066 529.729 276.103C599.362 223.486 671.32 169.057 727.781 181.824C758.869 188.897 782.5 215.378 800.223 262.733L801.385 262.302C798.479 255.229 795.671 248.673 792.766 242.549Z" fill="url(#paint21_linear_307_2794)" fill-opacity="0.2"/>
<path d="M812.135 251.779C794.799 215.033 772.525 193.986 744.536 187.603C686.137 174.233 612.437 227.885 541.061 279.899C469.781 331.826 402.376 380.821 352.113 364.863C319.281 354.426 297.007 316.731 284.223 249.709C271.73 184.67 251.198 149.132 221.176 141.196C175.851 129.12 116.194 181.22 53.1462 236.425C-12.6127 293.959 -80.696 353.477 -135.802 341.315C-170.667 333.638 -196.912 298.099 -215.991 232.802C-232.068 177.683 -257.248 145.25 -293.081 133.692C-361.261 111.61 -457.721 169.489 -559.701 230.818C-672.818 298.617 -790.002 369.003 -884.525 342.522C-938.372 327.427 -979.144 282.745 -1009.26 205.89L-1010.43 206.321C-980.21 283.522 -939.146 328.462 -884.912 343.644C-789.809 370.211 -672.43 299.738 -559.023 231.595C-457.237 170.438 -361.165 112.731 -293.469 134.641C-258.119 146.113 -233.133 178.287 -217.153 233.061C-197.978 298.789 -171.441 334.5 -136.092 342.35C-80.3086 354.685 -12.0316 294.908 54.0179 237.115C116.775 182.169 176.142 130.328 220.788 142.231C250.23 150.081 270.568 185.274 282.964 249.967C295.844 317.421 318.313 355.375 351.628 365.984C402.473 382.201 470.169 332.948 541.739 280.848C612.824 229.093 686.331 175.613 744.052 188.811C775.43 195.97 799.545 221.934 817.558 268.082L818.721 267.564C816.784 262.044 814.459 256.782 812.135 251.779Z" fill="url(#paint22_linear_307_2794)" fill-opacity="0.2"/>
<path d="M831.988 261.009C813.975 222.969 790.925 201.059 761.678 194.331C702.02 180.53 626.673 233.32 553.844 284.384C480.919 335.535 411.964 383.753 360.538 367.106C327.416 356.41 304.948 319.578 291.583 254.367C278.703 190.967 257.687 156.205 227.47 148.011C181.081 135.417 120.261 186.654 55.8579 240.997C-11.257 297.582 -80.6962 356.065 -137.158 343.471C-172.507 335.535 -199.14 300.773 -218.8 237.115C-235.264 183.635 -260.734 151.892 -296.665 140.161C-366.394 117.389 -465.081 174.319 -569.482 234.614C-685.311 301.55 -805.111 370.729 -901.957 343.471C-956.192 328.203 -997.545 284.471 -1028.34 209.771L-1029.5 210.289C-998.61 285.333 -956.966 329.325 -902.442 344.679C-805.014 372.022 -685.02 302.671 -568.901 235.649C-464.694 175.527 -366.394 118.683 -297.149 141.283C-261.606 152.841 -236.426 184.325 -219.962 237.546C-200.205 301.55 -173.282 336.57 -137.448 344.592C-80.4055 357.359 -10.6759 298.617 56.7295 241.859C120.842 187.862 181.371 136.797 227.18 149.218C256.912 157.24 277.637 191.744 290.518 254.712C303.883 320.268 326.642 357.445 360.151 368.313C412.254 385.134 481.403 336.657 554.619 285.333C627.254 234.441 702.311 181.91 761.387 195.539C793.056 202.871 817.558 228.317 836.056 273.257L837.218 272.74C835.475 268.599 833.732 264.718 831.988 261.009Z" fill="url(#paint23_linear_307_2794)" fill-opacity="0.2"/>
<path d="M852.326 270.238C833.635 230.732 809.714 208.046 779.11 200.973C718 186.74 641.104 238.581 566.628 288.783C491.959 339.072 421.455 386.6 368.77 369.348C335.455 358.393 312.599 322.338 298.944 259.024C285.579 197.35 264.272 163.278 233.766 154.911C186.311 141.8 124.232 192.261 58.3761 245.654C-10.1915 301.291 -81.0834 358.825 -138.804 345.714C-174.541 337.605 -201.658 303.533 -221.899 241.514C-238.75 189.587 -264.511 158.62 -300.538 146.803C-371.818 123.341 -472.732 179.322 -579.651 238.668C-698.191 304.482 -820.8 372.54 -920.068 344.506C-974.689 329.066 -1016.53 286.282 -1048 213.653L-1049.16 214.17C-1017.5 287.144 -975.464 330.101 -920.552 345.627C-820.606 373.661 -697.707 305.517 -578.973 239.53C-472.441 180.357 -371.721 124.462 -300.926 147.752C-265.286 159.483 -239.815 190.277 -222.964 241.773C-202.626 304.137 -175.219 338.468 -139.095 346.749C-80.696 360.032 -9.51355 302.24 59.2477 246.431C124.716 193.296 186.601 143.094 233.378 155.946C263.401 164.227 284.514 198.04 297.781 259.283C311.631 323.028 334.68 359.342 368.383 370.383C421.649 387.894 492.444 340.107 567.403 289.646C641.588 239.703 718.29 187.948 778.82 202.094C810.876 209.599 835.572 234.441 854.554 278.174L855.716 277.656C854.651 275.155 853.489 272.653 852.326 270.238Z" fill="url(#paint24_linear_307_2794)" fill-opacity="0.2"/>
<path d="M873.245 279.468C853.973 238.581 828.986 215.033 797.124 207.615C734.658 192.951 656.018 243.929 579.993 293.183C503.581 342.695 431.43 389.533 377.486 371.591C343.977 360.464 320.831 325.184 306.691 263.596C292.842 203.561 271.245 170.179 240.448 161.553C191.928 147.924 128.396 197.523 61.1846 250.054C-8.83569 304.741 -81.1803 361.326 -140.354 347.698C-176.478 339.417 -204.079 305.949 -224.804 245.568C-242.043 195.194 -267.998 164.917 -304.219 152.927C-377.144 128.775 -480.48 183.894 -589.82 242.204C-711.169 306.898 -836.683 373.834 -938.275 345.024C-993.187 329.67 -1035.61 287.748 -1067.66 217.189L-1068.82 217.707C-1036.57 288.611 -993.962 330.705 -938.662 346.317C-836.489 375.3 -710.782 308.278 -589.142 243.412C-480.092 185.188 -377.047 130.242 -304.606 154.221C-268.773 166.125 -243.108 196.143 -225.966 246.172C-205.144 306.984 -177.252 340.624 -140.644 348.991C-80.8898 362.706 -8.25452 305.949 62.0563 251.089C128.977 198.817 192.121 149.391 240.061 162.847C270.374 171.3 291.777 204.423 305.529 264.028C319.766 325.961 343.203 361.499 377.099 372.799C431.624 390.913 504.065 343.902 580.768 294.218C656.502 245.051 734.851 194.245 796.833 208.823C829.18 216.413 854.263 240.738 873.73 283.349L874.892 282.832C874.214 281.624 873.73 280.589 873.245 279.468Z" fill="url(#paint25_linear_307_2794)" fill-opacity="0.2"/>
<path d="M894.164 287.662C874.214 245.913 848.453 221.847 815.428 214.084C751.509 198.989 671.126 249.105 593.552 297.582C515.299 346.317 441.502 392.465 386.299 373.834C352.597 362.534 329.16 327.944 314.633 268.254C300.396 209.857 278.412 177.166 247.421 168.367C197.739 154.221 132.851 203.043 64.1866 254.711C-7.28625 308.536 -81.2772 364.086 -141.806 350.026C-178.318 341.573 -206.403 308.795 -227.613 249.967C-245.239 201.145 -271.484 171.559 -307.705 159.483C-382.277 134.641 -488.034 188.81 -599.892 246.258C-724.34 309.744 -852.759 375.645 -956.869 346.059C-1012.27 330.273 -1055.17 289.387 -1087.9 220.812L-1089.07 221.33C-1056.14 290.163 -1013.04 331.308 -957.354 347.094C-852.662 376.766 -724.05 310.865 -599.601 247.035C-487.937 189.759 -382.471 135.762 -308.383 160.432C-272.453 172.422 -246.498 201.749 -228.969 250.226C-207.565 309.485 -179.189 342.436 -142.291 350.975C-81.0834 365.208 -6.8988 309.399 64.8647 255.402C133.239 203.992 197.835 155.342 246.84 169.316C277.443 178.028 299.137 210.461 313.277 268.426C327.901 328.548 351.628 363.396 385.718 374.782C441.502 393.5 515.687 347.266 594.133 298.358C671.513 250.054 751.605 200.11 815.04 215.119C847.678 222.796 873.148 246.69 893.002 288.093L894.164 287.662Z" fill="url(#paint26_linear_307_2794)" fill-opacity="0.2"/>
<path d="M914.018 292.493C893.68 251.865 867.531 228.317 834.216 220.381C768.748 204.941 686.718 254.108 607.304 301.722C527.212 349.768 451.574 395.139 395.016 375.904C361.216 364.432 337.489 330.619 322.477 272.653C307.757 215.809 285.482 183.808 254.2 174.837C203.356 160.173 137.113 208.219 66.8986 259.025C-6.12402 311.901 -81.6646 366.588 -143.647 352.011C-180.545 343.299 -209.018 311.297 -230.906 253.935C-248.919 206.58 -275.358 177.683 -311.773 165.521C-388.088 139.989 -496.266 193.296 -610.836 249.709C-704.487 295.857 -801.237 343.471 -888.883 352.787C-987.957 363.31 -1059.82 321.303 -1108.53 224.263L-1109.69 224.866C-1083.84 276.362 -1050.91 313.022 -1011.68 333.81C-976.529 352.442 -936.241 359.084 -888.689 353.994C-800.849 344.679 -703.906 296.978 -610.158 250.744C-495.879 194.504 -387.894 141.283 -312.16 166.642C-276.133 178.719 -249.888 207.356 -232.068 254.367C-210.083 312.073 -181.32 344.334 -144.034 353.132C-81.374 367.882 -5.63977 312.936 67.6732 259.887C137.597 209.254 203.549 161.467 253.813 175.958C284.61 184.843 306.691 216.586 321.315 272.998C336.423 331.395 360.344 365.381 394.628 377.025C451.768 396.433 527.696 350.889 607.982 302.671C687.106 255.229 768.941 206.149 833.829 221.502C866.757 229.266 892.615 252.728 912.856 293.01L914.018 292.493Z" fill="url(#paint27_linear_307_2794)" fill-opacity="0.2"/>
<path d="M934.259 297.237C913.437 257.73 886.997 234.613 853.392 226.678C786.374 210.806 702.601 259.197 621.443 305.949C539.414 353.218 461.937 397.899 404.119 378.06C370.126 366.415 346.108 333.379 330.709 277.052C315.601 221.761 292.939 190.449 261.464 181.306C209.457 166.125 141.664 213.308 69.9008 263.337C-4.76819 315.351 -81.8583 369.089 -145.39 354.08C-182.676 345.282 -211.633 313.798 -234.005 257.989C-252.405 212.1 -279.038 183.894 -315.55 171.645C-393.511 145.509 -504.304 197.868 -621.586 253.331C-716.883 298.444 -815.473 345.023 -904.766 353.994C-1005.87 364.173 -1079.48 322.855 -1129.55 227.713L-1130.71 228.317C-1080.35 323.976 -1006.45 365.466 -904.669 355.202C-815.086 346.231 -716.399 299.479 -621.005 254.366C-504.014 198.989 -393.511 146.717 -315.937 172.68C-279.813 184.843 -253.374 212.79 -235.07 258.421C-212.601 314.574 -183.354 346.231 -145.68 355.116C-81.5676 370.297 -4.18701 316.386 70.6755 264.2C142.149 214.429 209.651 167.332 261.076 182.341C292.164 191.398 314.536 222.451 329.547 277.311C345.043 333.982 369.254 367.278 403.635 379.095C462.13 399.193 539.802 354.339 622.121 306.897C702.988 260.232 786.567 212.1 853.101 227.799C886.416 235.648 912.565 258.593 933.193 297.84L934.259 297.237Z" fill="url(#paint28_linear_307_2794)" fill-opacity="0.2"/>
<path d="M954.887 301.981C933.678 263.51 906.851 240.91 872.955 232.888C804.387 216.586 718.678 264.114 635.777 310.089C551.811 356.668 472.493 400.66 413.223 380.131C379.133 368.313 354.824 336.053 339.038 281.365C323.543 227.627 300.59 197.005 268.824 187.603C215.559 171.904 146.313 218.311 72.9031 267.564C-3.31543 318.715 -82.2455 371.591 -147.23 355.978C-184.903 347.008 -214.345 316.214 -237.201 261.871C-255.892 217.448 -282.815 189.846 -319.327 177.597C-399.129 150.857 -512.439 202.353 -632.529 256.868C-729.57 300.946 -829.903 346.576 -921.036 355.202C-1024.18 365.035 -1099.43 324.408 -1150.95 230.991L-1152.11 231.595C-1100.3 325.443 -1024.76 366.243 -920.939 356.323C-829.613 347.611 -729.183 301.981 -631.948 257.817C-512.149 203.388 -399.032 151.979 -319.714 178.632C-283.493 190.795 -256.764 218.138 -238.169 262.302C-215.119 316.99 -185.484 347.956 -147.424 357.013C-81.7614 372.712 -2.73425 319.664 73.7748 268.34C146.894 219.346 215.849 173.025 268.534 188.638C299.815 197.868 322.574 228.317 337.973 281.624C353.856 336.657 378.358 369.176 412.932 381.079C472.784 401.781 552.392 357.703 636.649 310.952C719.259 265.149 804.775 217.793 872.858 233.923C906.464 241.859 933 264.286 954.016 302.498L954.887 301.981Z" fill="url(#paint29_linear_307_2794)" fill-opacity="0.2"/>
<path d="M976 306.639C902.687 179.84 774.462 248.156 650.595 314.143C564.595 359.946 483.34 403.248 422.617 382.114C388.333 370.125 363.831 338.554 347.658 285.592C331.678 233.406 308.435 203.388 276.572 193.814C222.047 177.597 151.252 223.228 76.196 271.618C-1.76575 321.906 -82.3423 373.834 -148.973 357.876C-187.034 348.733 -216.863 318.629 -240.299 265.666C-256.473 229.007 -278.36 204.251 -307.124 189.932C-332.982 177.08 -363.876 172.939 -401.743 177.338C-472.248 185.447 -555.536 221.761 -643.667 260.232C-742.45 303.361 -844.624 347.87 -937.597 356.323C-1042.87 365.812 -1119.86 325.874 -1172.84 234.182L-1174 234.786C-1120.73 326.823 -1043.45 367.019 -937.597 357.445C-844.43 348.991 -742.16 304.396 -643.279 261.267C-555.245 222.882 -472.151 186.568 -401.84 178.546C-323.007 169.489 -272.065 197.264 -241.558 266.184C-218.025 319.405 -187.905 349.768 -149.554 358.997C-82.3423 375.214 -1.47522 323.028 76.6802 272.567C151.446 224.349 222.047 178.805 275.894 194.935C307.369 204.337 330.419 234.096 346.205 285.937C362.475 339.244 387.268 371.073 421.842 383.15C483.146 404.541 564.595 361.068 650.885 315.092C774.268 249.364 901.912 181.392 974.644 307.156L976 306.639Z" fill="url(#paint30_linear_307_2794)" fill-opacity="0.2"/>
</g>
<defs>
<linearGradient id="paint0_linear_307_2794" x1="-698.201" y1="-50.8691" x2="587.355" y2="125.954" gradientUnits="userSpaceOnUse">
<stop stop-color="#BE8143"/>
<stop offset="0.556227" stop-color="#8F664E"/>
<stop offset="1" stop-color="#BB7F44"/>
</linearGradient>
<linearGradient id="paint1_linear_307_2794" x1="-711.456" y1="-40.592" x2="597.934" y2="146.962" gradientUnits="userSpaceOnUse">
<stop stop-color="#BE8143"/>
<stop offset="0.556227" stop-color="#8F664E"/>
<stop offset="1" stop-color="#BB7F44"/>
</linearGradient>
<linearGradient id="paint2_linear_307_2794" x1="-724.824" y1="-30.5649" x2="608.912" y2="168.301" gradientUnits="userSpaceOnUse">
<stop stop-color="#BE8143"/>
<stop offset="0.556227" stop-color="#8F664E"/>
<stop offset="1" stop-color="#BB7F44"/>
</linearGradient>
<linearGradient id="paint3_linear_307_2794" x1="-738.494" y1="-20.5828" x2="619.815" y2="190.341" gradientUnits="userSpaceOnUse">
<stop stop-color="#BE8143"/>
<stop offset="0.556227" stop-color="#8F664E"/>
<stop offset="1" stop-color="#BB7F44"/>
</linearGradient>
<linearGradient id="paint4_linear_307_2794" x1="-752.671" y1="-10.9255" x2="630.957" y2="212.845" gradientUnits="userSpaceOnUse">
<stop stop-color="#BE8143"/>
<stop offset="0.556227" stop-color="#8F664E"/>
<stop offset="1" stop-color="#BB7F44"/>
</linearGradient>
<linearGradient id="paint5_linear_307_2794" x1="-767.044" y1="-1.20117" x2="641.628" y2="236.2" gradientUnits="userSpaceOnUse">
<stop stop-color="#BE8143"/>
<stop offset="0.556227" stop-color="#8F664E"/>
<stop offset="1" stop-color="#BB7F44"/>
</linearGradient>
<linearGradient id="paint6_linear_307_2794" x1="-781.427" y1="7.99878" x2="652.408" y2="259.578" gradientUnits="userSpaceOnUse">
<stop stop-color="#BE8143"/>
<stop offset="0.556227" stop-color="#8F664E"/>
<stop offset="1" stop-color="#BB7F44"/>
</linearGradient>
<linearGradient id="paint7_linear_307_2794" x1="-796.119" y1="16.656" x2="663.61" y2="282.48" gradientUnits="userSpaceOnUse">
<stop stop-color="#BE8143"/>
<stop offset="0.556227" stop-color="#8F664E"/>
<stop offset="1" stop-color="#BB7F44"/>
</linearGradient>
<linearGradient id="paint8_linear_307_2794" x1="-811.312" y1="25.1506" x2="674.585" y2="306.196" gradientUnits="userSpaceOnUse">
<stop stop-color="#BE8143"/>
<stop offset="0.556227" stop-color="#8F664E"/>
<stop offset="1" stop-color="#BB7F44"/>
</linearGradient>
<linearGradient id="paint9_linear_307_2794" x1="-826.511" y1="33.6196" x2="685.471" y2="330.553" gradientUnits="userSpaceOnUse">
<stop stop-color="#BE8143"/>
<stop offset="0.556227" stop-color="#8F664E"/>
<stop offset="1" stop-color="#BB7F44"/>
</linearGradient>
<linearGradient id="paint10_linear_307_2794" x1="-842.215" y1="41.8394" x2="696.258" y2="355.717" gradientUnits="userSpaceOnUse">
<stop stop-color="#BE8143"/>
<stop offset="0.556227" stop-color="#8F664E"/>
<stop offset="1" stop-color="#BB7F44"/>
</linearGradient>
<linearGradient id="paint11_linear_307_2794" x1="-857.833" y1="50.0981" x2="707.149" y2="381.495" gradientUnits="userSpaceOnUse">
<stop stop-color="#BE8143"/>
<stop offset="0.556227" stop-color="#8F664E"/>
<stop offset="1" stop-color="#BB7F44"/>
</linearGradient>
<linearGradient id="paint12_linear_307_2794" x1="-874.344" y1="58.021" x2="717.475" y2="408.272" gradientUnits="userSpaceOnUse">
<stop stop-color="#BE8143"/>
<stop offset="0.556227" stop-color="#8F664E"/>
<stop offset="1" stop-color="#BB7F44"/>
</linearGradient>
<linearGradient id="paint13_linear_307_2794" x1="-890.856" y1="65.6123" x2="727.538" y2="434.8" gradientUnits="userSpaceOnUse">
<stop stop-color="#BE8143"/>
<stop offset="0.556227" stop-color="#8F664E"/>
<stop offset="1" stop-color="#BB7F44"/>
</linearGradient>
<linearGradient id="paint14_linear_307_2794" x1="-907.588" y1="73.3215" x2="737.571" y2="463.15" gradientUnits="userSpaceOnUse">
<stop stop-color="#BE8143"/>
<stop offset="0.556227" stop-color="#8F664E"/>
<stop offset="1" stop-color="#BB7F44"/>
</linearGradient>
<linearGradient id="paint15_linear_307_2794" x1="-924.91" y1="80.6763" x2="746.929" y2="491.68" gradientUnits="userSpaceOnUse">
<stop stop-color="#BE8143"/>
<stop offset="0.556227" stop-color="#8F664E"/>
<stop offset="1" stop-color="#BB7F44"/>
</linearGradient>
<linearGradient id="paint16_linear_307_2794" x1="-942.051" y1="88.1057" x2="756.371" y2="521.235" gradientUnits="userSpaceOnUse">
<stop stop-color="#BE8143"/>
<stop offset="0.556227" stop-color="#8F664E"/>
<stop offset="1" stop-color="#BB7F44"/>
</linearGradient>
<linearGradient id="paint17_linear_307_2794" x1="-960.185" y1="95.0051" x2="764.952" y2="551.548" gradientUnits="userSpaceOnUse">
<stop stop-color="#BE8143"/>
<stop offset="0.556227" stop-color="#8F664E"/>
<stop offset="1" stop-color="#BB7F44"/>
</linearGradient>
<linearGradient id="paint18_linear_307_2794" x1="-978.132" y1="102.151" x2="773.259" y2="582.913" gradientUnits="userSpaceOnUse">
<stop stop-color="#BE8143"/>
<stop offset="0.556227" stop-color="#8F664E"/>
<stop offset="1" stop-color="#BB7F44"/>
</linearGradient>
<linearGradient id="paint19_linear_307_2794" x1="-996.683" y1="108.94" x2="781.215" y2="614.828" gradientUnits="userSpaceOnUse">
<stop stop-color="#BE8143"/>
<stop offset="0.556227" stop-color="#8F664E"/>
<stop offset="1" stop-color="#BB7F44"/>
</linearGradient>
<linearGradient id="paint20_linear_307_2794" x1="-1015.44" y1="115.806" x2="788.362" y2="648.265" gradientUnits="userSpaceOnUse">
<stop stop-color="#BE8143"/>
<stop offset="0.556227" stop-color="#8F664E"/>
<stop offset="1" stop-color="#BB7F44"/>
</linearGradient>
<linearGradient id="paint21_linear_307_2794" x1="-1034.71" y1="122.397" x2="794.977" y2="682.924" gradientUnits="userSpaceOnUse">
<stop stop-color="#BE8143"/>
<stop offset="0.556227" stop-color="#8F664E"/>
<stop offset="1" stop-color="#BB7F44"/>
</linearGradient>
<linearGradient id="paint22_linear_307_2794" x1="-1054.37" y1="128.894" x2="800.493" y2="717.634" gradientUnits="userSpaceOnUse">
<stop stop-color="#BE8143"/>
<stop offset="0.556227" stop-color="#8F664E"/>
<stop offset="1" stop-color="#BB7F44"/>
</linearGradient>
<linearGradient id="paint23_linear_307_2794" x1="-1074.35" y1="135.032" x2="806.046" y2="753.29" gradientUnits="userSpaceOnUse">
<stop stop-color="#BE8143"/>
<stop offset="0.556227" stop-color="#8F664E"/>
<stop offset="1" stop-color="#BB7F44"/>
</linearGradient>
<linearGradient id="paint24_linear_307_2794" x1="-1094.93" y1="141.331" x2="809.633" y2="791.14" gradientUnits="userSpaceOnUse">
<stop stop-color="#BE8143"/>
<stop offset="0.556227" stop-color="#8F664E"/>
<stop offset="1" stop-color="#BB7F44"/>
</linearGradient>
<linearGradient id="paint25_linear_307_2794" x1="-1115.52" y1="147.105" x2="813.923" y2="827.839" gradientUnits="userSpaceOnUse">
<stop stop-color="#BE8143"/>
<stop offset="0.556227" stop-color="#8F664E"/>
<stop offset="1" stop-color="#BB7F44"/>
</linearGradient>
<linearGradient id="paint26_linear_307_2794" x1="-1136.71" y1="153.291" x2="815.213" y2="868.141" gradientUnits="userSpaceOnUse">
<stop stop-color="#BE8143"/>
<stop offset="0.556227" stop-color="#8F664E"/>
<stop offset="1" stop-color="#BB7F44"/>
</linearGradient>
<linearGradient id="paint27_linear_307_2794" x1="-1158.31" y1="158.953" x2="817.022" y2="907.389" gradientUnits="userSpaceOnUse">
<stop stop-color="#BE8143"/>
<stop offset="0.556227" stop-color="#8F664E"/>
<stop offset="1" stop-color="#BB7F44"/>
</linearGradient>
<linearGradient id="paint28_linear_307_2794" x1="-1180.32" y1="164.72" x2="816.91" y2="948.691" gradientUnits="userSpaceOnUse">
<stop stop-color="#BE8143"/>
<stop offset="0.556227" stop-color="#8F664E"/>
<stop offset="1" stop-color="#BB7F44"/>
</linearGradient>
<linearGradient id="paint29_linear_307_2794" x1="-1202.73" y1="170.312" x2="815.478" y2="990.927" gradientUnits="userSpaceOnUse">
<stop stop-color="#BE8143"/>
<stop offset="0.556227" stop-color="#8F664E"/>
<stop offset="1" stop-color="#BB7F44"/>
</linearGradient>
<linearGradient id="paint30_linear_307_2794" x1="-1225.65" y1="175.642" x2="813.565" y2="1033.23" gradientUnits="userSpaceOnUse">
<stop stop-color="#BE8143"/>
<stop offset="0.556227" stop-color="#8F664E"/>
<stop offset="1" stop-color="#BB7F44"/>
</linearGradient>
</defs>
</svg>
