<svg width="29" height="28" viewBox="0 0 29 28" fill="none" xmlns="http://www.w3.org/2000/svg">
<path d="M9.05801 7.62931C8.45895 9.36677 8.21932 11.3359 8.09953 13.4209H14.0899V7.62931H9.05801ZM6.90149 14.5792H0.911133C1.03092 16.6641 1.62997 18.6333 2.58845 20.3707H7.74011C7.26091 18.6333 7.02127 16.6641 6.90149 14.5792ZM9.41743 6.47102H14.0899V1.37444C12.1729 1.72193 10.4957 3.69108 9.41743 6.47102ZM15.2879 1.37444V6.47102H19.9604C18.8821 3.69108 17.2048 1.72193 15.2879 1.37444ZM20.3198 7.62931H15.2879V13.4209H21.2783C21.1584 11.3359 20.9189 9.36677 20.3198 7.62931ZM22.4763 14.5792C22.4763 16.6641 22.1169 18.6333 21.6377 20.3707H26.7894C27.7478 18.6333 28.3468 16.6641 28.4667 14.5792H22.4763ZM8.09953 14.5792C8.21932 16.6641 8.45895 18.6333 9.05801 20.3707H14.0899V14.5792H8.09953ZM2.58845 7.62931C1.62997 9.36677 1.03092 11.3359 0.911133 13.4209H6.90149C7.02127 11.3359 7.26091 9.36677 7.74011 7.62931H2.58845ZM9.41743 21.529C10.4957 24.309 12.173 26.2781 14.0899 26.6256V21.529H9.41743ZM8.09953 21.529H3.30729C5.34402 24.309 8.33917 26.3939 11.9334 27.0889C10.3758 26.0464 9.05801 24.0773 8.09953 21.529ZM21.1584 21.529C20.3198 24.0773 19.0019 26.0464 17.3246 27.0889C20.9188 26.3939 24.0338 24.4248 25.9507 21.529H21.1584ZM17.4445 0.911133C19.0019 1.95361 20.3198 3.92276 21.2783 6.47102H26.0705C24.0338 3.69108 21.0387 1.60612 17.4445 0.911133ZM3.42707 6.47102H8.21932C9.05795 3.92276 10.3758 1.95361 12.0532 0.911133C8.45895 1.60612 5.34396 3.57521 3.42707 6.47102ZM15.2879 21.529V26.6256C17.2048 26.2781 18.8821 24.309 19.9604 21.529H15.2879ZM15.2879 14.5792V20.3707H20.3198C20.9189 18.6333 21.1584 16.6641 21.2783 14.5792H15.2879ZM26.7894 7.62931H21.6377C22.1169 9.36677 22.3565 11.3359 22.4763 13.4209H28.4667C28.3468 11.3359 27.7478 9.36677 26.7894 7.62931Z" fill="#EDEDED"/>
</svg>
