<svg width="1920" height="473" viewBox="0 0 1920 473" fill="none" xmlns="http://www.w3.org/2000/svg">
<path d="M1698.76 87.4837C1688.69 71.082 1676.31 62.0935 1661.89 60.4255C1611.15 54.5876 1541.5 140.025 1474.03 222.682C1411.04 299.965 1345.88 379.842 1302.9 373.633C1267.25 368.444 1248.89 305.339 1246.71 180.705C1244.67 63.2981 1228.48 4.36316 1197.2 0.656561C1157.34 -4.06936 1099.66 78.6805 1038.71 166.342C974.776 258.265 908.663 353.247 861.322 348.336C826.089 344.722 804.731 286.065 796.297 169.029C788.543 62.6495 764.601 7.69911 723.246 1.02723C663.662 -8.60993 576.735 81.6458 484.638 177.091C382.611 282.729 277.183 391.888 197.602 380.305C138.291 371.595 100.337 296.536 81.6996 150.589L79.9312 150.774C98.5681 297.277 136.93 372.799 197.058 381.51C277.864 393.371 383.7 283.748 485.863 177.832C577.687 82.7578 664.342 -7.1273 722.701 2.32453C763.376 8.90375 786.774 63.4835 794.529 169.214C803.099 286.899 824.864 345.927 860.914 349.633C909.479 354.637 976.001 259.192 1040.21 166.898C1100.88 79.6999 1158.15 -2.58671 1196.79 1.95388C1227.26 5.56782 1242.9 64.0395 1244.94 180.797C1247.12 306.081 1265.89 369.556 1302.49 374.931C1346.7 381.325 1409.41 304.598 1475.66 223.331C1542.73 141.044 1612.1 55.9776 1661.62 61.7228C1694.54 65.5221 1715.76 108.519 1726.51 193.307L1728.28 193.122C1721.89 144.38 1712.23 109.26 1698.76 87.4837Z" fill="url(#paint0_linear_702_38242)" fill-opacity="0.2"/>
<path d="M1714.4 99.7155C1703.79 82.5725 1691.01 73.2133 1675.77 71.36C1623.94 65.2441 1553.2 149.199 1484.91 230.373C1420.97 306.359 1354.73 384.846 1310.79 378.267C1274.6 372.892 1255.55 310.899 1252.56 188.952C1249.84 73.9547 1232.97 16.1317 1201.14 12.2397C1160.47 7.3285 1102.11 88.5957 1040.21 174.589C975.457 264.845 908.391 358.158 860.098 352.969C824.185 349.17 802.283 291.625 792.896 176.998C784.462 73.028 759.84 19.097 717.941 12.1471C657.133 2.0466 568.709 90.727 474.98 184.504C371.321 288.289 264.124 395.688 182.775 383.456C122.511 374.375 83.6046 300.706 63.8793 158.095L62.1108 158.28C81.9721 301.54 121.287 375.579 182.231 384.661C264.805 397.078 372.273 289.308 476.341 185.153C569.661 91.6537 657.813 3.43657 717.396 13.2591C758.615 20.1163 782.694 73.6767 791.128 176.998C800.514 292.273 822.96 350.189 859.69 354.081C909.343 359.363 976.681 265.586 1041.71 174.96C1103.19 89.337 1161.28 8.53315 1200.6 13.2591C1231.48 17.0583 1247.94 74.418 1250.66 188.767C1253.65 311.362 1273.1 373.726 1310.11 379.193C1355.27 385.958 1418.8 310.528 1486.14 230.651C1554.15 149.847 1624.62 66.3561 1675.09 72.2867C1708.55 76.2713 1730.32 118.527 1741.88 201.462L1743.65 201.276C1737.39 155.129 1727.6 121.306 1714.4 99.7155Z" fill="url(#paint1_linear_702_38242)" fill-opacity="0.2"/>
<path d="M1730.46 111.855C1719.44 93.8776 1705.97 84.0551 1690.05 82.1091C1637.14 75.7152 1565.44 158.094 1495.93 237.879C1430.91 312.474 1363.7 389.664 1318.81 382.807C1281.95 377.155 1262.36 316.366 1258.68 197.014C1255.15 84.4257 1237.73 27.7147 1205.36 23.6374C1163.87 18.4482 1104.69 98.2328 1041.98 182.743C976.273 271.331 908.391 362.977 859.01 357.51C822.552 353.525 799.834 296.999 789.631 184.782C780.381 83.2211 755.214 30.3093 712.771 22.9888C650.739 12.5176 560.683 99.6228 465.457 191.917C360.03 293.941 250.929 399.487 167.811 386.699C106.73 377.34 66.8718 304.969 45.9223 165.508L44.1538 165.693C65.2394 305.71 105.506 378.359 167.266 387.904C251.609 400.877 360.982 294.961 466.818 192.566C561.771 100.642 651.419 13.9076 712.227 24.2861C753.99 31.4213 778.748 83.9624 787.863 184.967C798.066 297.833 821.192 354.73 858.602 358.807C909.207 364.367 977.497 272.258 1043.47 183.299C1105.78 99.2521 1164.68 19.8382 1204.81 24.8421C1236.24 28.8267 1253.24 85.0744 1256.78 197.106C1260.45 317.108 1280.59 378.174 1318.27 384.012C1364.38 391.147 1429 317.015 1497.29 238.528C1566.4 159.206 1637.82 77.1052 1689.51 83.4064C1723.52 87.5763 1745.83 128.998 1758.07 210.172L1759.84 209.987C1753.17 165.693 1743.52 133.075 1730.46 111.855Z" fill="url(#paint2_linear_702_38242)" fill-opacity="0.2"/>
<path d="M1746.92 123.901C1735.35 105.09 1721.34 94.8042 1704.61 92.7656C1650.6 86.001 1577.69 166.99 1507.22 245.385C1438.12 322.112 1372.95 394.576 1327.11 387.255C1289.7 381.325 1269.43 321.741 1264.94 204.983C1260.72 94.7115 1242.63 39.0198 1209.85 34.8499C1167.4 29.3827 1107.41 107.777 1043.88 190.805C977.361 277.818 908.391 367.795 858.058 362.143C820.92 357.973 797.522 302.559 786.503 192.566C776.572 93.3215 750.725 41.4291 707.738 33.8306C644.345 22.7108 552.793 108.426 455.799 199.052C348.467 299.409 237.461 403.193 152.439 389.757C90.5422 379.935 49.5954 308.953 27.5575 172.735L25.7891 173.014C47.9629 309.88 89.3179 381.139 151.894 391.054C238.141 404.676 349.419 300.521 457.159 199.794C553.745 109.445 645.025 24.1934 707.194 35.0352C749.501 42.4484 774.803 93.9702 784.734 192.658C795.889 303.208 819.695 358.992 857.649 363.255C909.343 369.093 978.585 278.652 1045.38 191.268C1108.5 108.704 1168.22 30.7726 1209.3 36.0545C1241.27 40.1318 1258.96 95.4528 1263.04 205.076C1267.53 322.482 1288.34 382.436 1326.43 388.46C1373.5 395.873 1439.07 323.038 1508.58 245.941C1578.78 168.01 1651.28 87.391 1704.07 93.9702C1738.62 98.2328 1761.61 139.005 1774.53 218.419L1776.3 218.141C1769.5 176.071 1759.7 144.751 1746.92 123.901Z" fill="url(#paint3_linear_702_38242)" fill-opacity="0.2"/>
<path d="M1763.79 135.762C1751.68 116.117 1736.99 105.368 1719.44 103.144C1664.34 96.1018 1590.2 175.701 1518.65 252.613C1448.45 328.042 1382.07 399.209 1335.27 391.611C1297.32 385.402 1276.37 326.93 1271.2 212.767C1266.3 104.812 1247.66 50.2326 1214.2 45.7847C1170.94 40.0394 1110 117.044 1045.65 198.589C978.177 284.027 908.255 372.336 856.833 366.406C819.015 362.051 794.937 307.656 782.966 199.979C772.219 103.052 745.828 52.1785 702.296 44.302C637.543 32.7189 544.359 116.859 445.596 206.095C336.359 304.783 223.313 406.9 136.386 392.815C73.6739 382.622 31.7748 313.031 8.51259 179.871L6.74414 180.149C30.1423 313.865 72.3135 383.827 135.842 394.113C223.994 408.383 337.312 305.988 446.957 206.929C545.311 118.156 638.087 34.2015 701.752 45.692C744.604 53.3832 770.586 103.978 781.197 200.35C793.168 308.583 817.791 363.348 856.425 367.796C909.207 373.912 979.402 285.138 1047.28 199.238C1111.36 118.156 1171.89 41.5221 1213.93 47.1746C1246.44 51.5299 1264.67 105.739 1269.57 213.045C1274.87 327.857 1296.23 386.699 1335 393.001C1383.16 400.784 1449.81 329.247 1520.42 253.447C1591.7 176.906 1665.43 97.6771 1719.44 104.627C1754.54 109.075 1778.07 149.014 1791.67 226.76L1793.44 226.482C1786.1 186.358 1776.44 156.241 1763.79 135.762Z" fill="url(#paint4_linear_702_38242)" fill-opacity="0.2"/>
<path d="M1781.2 147.623C1768.68 127.144 1753.17 115.839 1734.81 113.523C1678.49 106.202 1603.26 184.319 1530.48 259.933C1459.06 334.065 1391.73 404.028 1343.71 396.058C1305.21 389.665 1283.58 332.212 1277.59 220.551C1271.88 114.913 1252.7 61.2596 1218.82 56.719C1174.61 50.6958 1112.85 126.31 1047.56 206.373C978.993 290.328 908.255 377.062 855.473 370.854C816.974 366.313 792.216 312.938 779.428 207.578C768.001 112.967 740.93 63.0202 696.855 54.8657C630.741 42.7266 535.788 125.476 435.257 213.23C324.116 310.158 209.165 410.514 120.062 395.78C56.397 385.217 13.6817 316.922 -10.8048 186.913L-12.5732 187.191C11.9132 317.756 55.1727 386.421 119.518 397.078C209.574 411.997 325.068 311.27 436.618 213.972C536.876 126.496 631.557 44.0239 696.447 55.9777C739.706 63.9469 766.369 113.615 777.66 207.67C790.447 313.587 815.75 367.332 855.065 371.966C908.935 378.359 980.082 291.162 1049.05 206.836C1114.08 127.144 1175.57 51.9931 1218.42 57.831C1251.47 62.3716 1270.25 115.561 1275.96 220.551C1281.95 332.768 1303.98 390.591 1343.3 397.17C1392.41 405.418 1460.15 334.992 1531.98 260.489C1604.49 185.245 1679.31 107.499 1734.54 114.727C1770.18 119.361 1794.39 158.558 1808.68 234.543L1810.45 234.265C1803.24 196.458 1793.58 167.639 1781.2 147.623Z" fill="url(#paint5_linear_702_38242)" fill-opacity="0.2"/>
<path d="M1799.29 158.928C1786.23 137.615 1770.04 125.754 1750.86 123.252C1693.32 115.561 1616.87 192.288 1542.86 266.512C1470.22 339.347 1401.66 408.105 1352.68 399.672C1313.64 393 1291.47 336.66 1284.67 227.686C1278.27 124.364 1258.41 71.8232 1223.99 67.0047C1178.97 60.7034 1116.25 134.928 1049.87 213.601C980.354 295.98 908.391 381.139 854.521 374.653C815.478 369.927 789.904 317.571 776.3 214.527C764.193 122.233 736.578 73.2132 691.958 64.8734C624.484 52.1783 527.762 133.538 425.327 219.717C311.873 314.884 194.61 413.479 103.602 398.097C39.1207 387.162 -4.54687 320.166 -30.1216 193.307L-31.8901 193.585C-6.17932 321 37.8964 388.274 103.058 399.394C195.154 414.962 312.825 315.996 426.551 220.273C528.578 134.465 624.892 53.3829 691.278 65.8927C735.081 74.1399 762.288 122.789 774.396 214.527C787.999 318.127 814.118 370.853 853.977 375.765C909.071 382.436 981.306 296.907 1051.23 214.064C1117.21 135.855 1179.65 62.0008 1223.45 68.1166C1257.05 72.8426 1276.5 125.013 1282.76 227.686C1289.56 337.309 1312.15 394.02 1352 400.784C1402.2 409.402 1471.17 340.274 1544.09 267.069C1617.68 193.214 1693.86 116.858 1750.32 124.364C1786.5 129.183 1811.26 167.639 1826.23 241.864L1827.99 241.586C1820.78 206.002 1811.26 178.481 1799.29 158.928Z" fill="url(#paint6_linear_702_38242)" fill-opacity="0.2"/>
<path d="M1817.79 169.956C1804.05 147.716 1787.32 135.392 1767.05 132.612C1708.28 124.55 1630.47 199.886 1555.24 272.721C1481.37 344.258 1411.59 411.811 1361.53 403.008C1321.94 396.058 1299.09 340.83 1291.6 234.45C1284.53 133.446 1263.99 81.9238 1229.03 76.9199C1183.05 70.248 1119.38 143.175 1051.91 220.365C981.306 301.169 908.255 384.753 853.297 377.989C813.574 373.077 787.319 321.741 772.899 221.014C759.976 131.036 731.816 83.0358 686.788 74.3252C617.818 60.9815 519.192 140.951 414.988 225.647C299.494 319.424 179.918 416.352 86.8694 400.228C21.5721 388.923 -23.0476 323.316 -49.8467 199.516L-51.6152 199.794C-24.8161 324.058 20.3479 390.035 86.3253 401.433C180.462 417.742 300.31 320.444 416.349 226.389C520.28 142.063 618.498 62.3714 686.38 75.5299C730.728 84.0551 758.479 131.685 771.267 221.199C785.823 322.482 812.486 374.189 853.024 379.193C909.207 386.143 982.667 302.189 1053.54 221.014C1120.61 144.287 1183.86 71.7306 1228.76 78.2172C1262.9 83.1284 1282.9 134.28 1289.97 234.636C1297.59 341.664 1320.85 397.17 1361.12 404.305C1412.4 413.387 1482.6 345.463 1556.74 273.462C1631.69 200.906 1709.1 126.032 1766.78 133.909C1803.51 138.913 1828.81 176.627 1844.46 249.091L1846.22 248.814C1838.88 215.176 1829.49 188.952 1817.79 169.956Z" fill="url(#paint7_linear_702_38242)" fill-opacity="0.2"/>
<path d="M1836.84 180.89C1822.55 157.724 1805 144.843 1783.92 141.878C1723.93 133.446 1644.75 207.392 1568.17 278.93C1492.94 349.262 1421.93 415.611 1370.64 406.344C1330.51 399.116 1307.11 345 1298.81 241.122C1290.92 142.434 1269.97 91.9317 1234.47 86.6498C1187.4 79.6999 1122.78 151.237 1054.22 227.037C982.531 306.359 908.391 388.367 852.072 381.232C811.67 376.135 784.735 325.726 769.362 227.315C755.759 139.654 727.055 92.5803 681.483 83.5918C611.016 69.6921 510.486 148.272 404.242 231.485C286.435 323.594 164.682 418.854 69.321 402.082C3.20746 390.406 -42.3646 326.096 -70.252 205.446L-72.0205 205.724C-44.1331 326.93 1.98313 391.518 68.6408 403.286C165.226 420.337 287.387 324.799 405.602 232.319C511.574 149.477 611.697 71.1747 681.075 84.7965C725.831 93.5996 754.262 140.303 767.73 227.501C783.102 326.56 810.581 377.247 851.664 382.437C909.071 389.757 983.619 307.285 1055.72 227.593C1123.87 152.257 1188.22 81.0898 1233.93 87.8544C1268.61 92.951 1289.16 143.175 1297.05 241.215C1305.34 345.741 1329.29 400.136 1370.1 407.549C1422.47 417.001 1493.89 350.282 1569.53 279.671C1645.71 208.504 1724.47 134.836 1783.37 143.083C1820.65 148.272 1846.63 185.245 1862.96 256.041L1864.72 255.763C1857.38 224.165 1848.13 199.238 1836.84 180.89Z" fill="url(#paint8_linear_702_38242)" fill-opacity="0.2"/>
<path d="M1856.43 191.732C1841.6 167.639 1823.23 154.202 1801.06 151.052C1739.71 142.249 1659.17 214.898 1581.36 285.138C1504.77 354.174 1432.4 419.41 1380.03 409.68C1339.49 402.174 1315.27 349.17 1306.3 247.794C1297.73 151.423 1276.1 101.847 1240.05 96.3795C1192.03 89.0589 1126.32 159.299 1056.67 233.709C983.755 311.548 908.391 392.074 850.984 384.568C810.037 379.193 782.286 329.895 766.097 233.616C751.813 148.179 722.43 102.125 676.449 92.8582C604.486 78.3098 502.051 155.592 393.494 237.323C273.375 327.949 149.174 421.541 51.6359 404.027C-15.2938 391.981 -61.8181 328.969 -90.6578 211.377L-92.4263 211.655C-63.3146 329.803 -16.3821 393.093 51.0918 405.325C149.582 423.024 274.327 329.154 394.719 238.25C502.731 156.797 604.894 79.7924 675.769 94.1555C721.069 103.237 750.045 149.013 764.193 233.894C780.381 330.637 808.54 380.398 850.44 385.865C909.071 393.464 984.843 312.66 1058.03 234.358C1127.27 160.411 1192.71 90.5416 1239.5 97.5841C1274.74 102.866 1295.96 152.071 1304.39 247.887C1313.51 349.911 1337.99 403.193 1379.35 410.885C1432.81 420.8 1505.59 355.286 1582.59 285.787C1660.13 215.917 1740.25 143.639 1800.52 152.256C1838.33 157.631 1864.86 193.863 1881.86 262.991L1883.63 262.713C1876.42 233.06 1867.31 209.431 1856.43 191.732Z" fill="url(#paint9_linear_702_38242)" fill-opacity="0.2"/>
<path d="M1876.42 202.388C1860.92 177.276 1841.73 163.284 1818.61 159.855C1755.9 150.681 1674 222.033 1594.69 290.976C1516.61 358.807 1442.88 422.931 1389.41 412.738C1348.33 404.954 1323.57 352.969 1313.78 254.095C1304.53 159.948 1282.22 111.391 1245.76 105.646C1196.65 98.0475 1129.86 166.99 1059.12 240.01C985.115 316.459 908.391 395.502 849.623 387.718C807.996 382.159 779.565 333.787 762.56 239.732C747.596 156.519 717.668 111.391 671.28 101.847C597.685 86.7424 493.209 162.635 382.612 243.068C260.043 332.119 133.258 424.228 33.4072 405.881C-34.2027 393.464 -81.6793 331.749 -111.743 217.122L-113.512 217.4C-83.3117 332.49 -35.427 394.576 32.8631 407.085C133.666 425.618 260.859 333.231 383.7 243.902C493.889 163.84 598.093 88.1323 670.6 103.144C716.308 112.596 745.828 157.353 760.792 240.01C777.796 334.529 806.772 383.271 849.215 388.923C909.207 396.892 986.068 317.478 1060.62 240.659C1130.95 168.01 1197.47 99.4375 1245.35 106.851C1280.99 112.411 1302.9 160.596 1312.15 254.188C1321.94 353.71 1347.11 405.973 1388.87 413.943C1443.56 424.321 1517.56 359.919 1596.05 291.717C1674.95 223.053 1756.58 152.071 1818.2 161.06C1856.43 166.62 1883.63 202.11 1901.32 269.571L1903.09 269.2C1895.88 241.771 1887.03 219.531 1876.42 202.388Z" fill="url(#paint10_linear_702_38242)" fill-opacity="0.2"/>
<path d="M1897.1 213.045C1881.05 186.913 1861.05 172.272 1836.7 168.658C1772.63 159.114 1689.24 229.169 1608.43 296.907C1528.85 363.626 1453.76 426.638 1399.07 415.981C1357.45 407.827 1332.14 357.046 1321.67 260.489C1311.6 168.473 1288.88 120.936 1251.88 115.005C1201.82 107.036 1133.8 174.774 1061.84 246.497C986.475 321.556 908.663 399.209 848.535 390.962C806.228 385.217 776.98 337.772 759.295 245.941C743.515 164.952 713.179 120.751 666.383 110.928C591.155 95.0823 484.639 169.77 371.729 248.814C246.712 336.382 117.341 426.916 15.1782 407.827C-53.2479 395.039 -101.677 334.529 -132.693 222.867L-134.461 223.238C-103.173 335.363 -54.4722 396.244 14.6341 409.124C117.749 428.399 247.528 337.587 372.953 249.74C485.455 170.975 591.699 96.6576 665.839 112.225C711.955 121.955 742.019 165.786 757.663 246.312C775.62 338.699 805.275 386.514 848.263 392.352C909.479 400.692 987.836 322.76 1063.47 247.331C1135.03 175.979 1202.64 108.611 1251.61 116.395C1287.8 122.141 1310.24 169.4 1320.17 260.86C1330.78 357.973 1356.49 409.124 1398.8 417.371C1454.71 428.213 1530.21 364.923 1610.06 297.833C1690.46 230.466 1773.44 160.689 1836.56 170.141C1875.33 175.886 1903.09 210.728 1921.45 276.521L1923.22 276.15C1915.74 250.389 1907.17 229.447 1897.1 213.045Z" fill="url(#paint11_linear_702_38242)" fill-opacity="0.2"/>
<path d="M1918.19 223.609C1901.45 196.458 1880.64 181.168 1855.2 177.369C1789.77 167.454 1704.75 236.211 1622.44 302.745C1541.37 368.352 1464.78 430.344 1408.73 419.132C1366.56 410.699 1340.71 360.846 1329.42 266.791C1318.68 176.906 1295.28 130.295 1257.73 124.179C1206.58 115.839 1137.48 182.28 1064.29 252.798C987.7 326.467 908.391 402.73 847.039 394.112C804.052 388.089 774.124 341.571 755.487 251.872C739.163 173.014 708.146 129.739 660.942 119.639C584.081 103.144 475.253 176.535 360.03 254.188C232.292 340.274 100.337 429.325 -4.2744 409.402C-73.3807 396.244 -122.626 336.938 -154.866 228.149L-156.635 228.52C-124.122 337.772 -74.469 397.356 -4.68254 410.607C100.881 430.715 233.245 341.386 361.391 255.022C476.205 177.647 584.626 104.534 660.534 120.751C707.058 130.758 737.666 173.662 753.99 252.057C772.763 342.313 803.099 389.108 846.767 395.224C909.344 403.935 988.925 327.394 1065.92 253.354C1138.7 183.299 1207.53 117.137 1257.6 125.291C1294.33 131.314 1317.32 177.647 1328.06 266.883C1339.35 361.587 1365.61 411.719 1408.46 420.244C1465.59 431.642 1542.59 369.371 1624.08 303.486C1705.97 237.23 1790.59 168.844 1855.07 178.574C1894.38 184.504 1922.68 218.605 1941.72 282.822L1943.49 282.451C1936.14 258.821 1927.85 239.269 1918.19 223.609Z" fill="url(#paint12_linear_702_38242)" fill-opacity="0.2"/>
<path d="M1939.82 234.08C1922.4 205.817 1900.64 189.971 1874.11 185.894C1807.18 175.515 1720.53 243.068 1636.86 308.397C1554.15 372.892 1476.07 433.773 1418.8 422.097C1376.22 413.387 1349.69 364.552 1337.72 272.814C1326.29 185.153 1302.35 139.376 1264.26 132.982C1212.02 124.179 1141.56 189.6 1067.14 258.729C989.196 331.1 908.663 405.973 845.678 396.985C802.147 390.776 771.539 345.185 751.95 257.524C734.945 180.797 703.385 138.449 655.772 127.978C577.279 110.928 466.274 183.021 348.603 259.47C218.144 344.166 83.3324 431.734 -23.728 410.977C-93.5145 397.448 -143.712 339.44 -177.041 233.431L-178.809 233.802C-145.344 340.181 -94.8748 398.56 -24.4082 412.182C83.6044 433.031 218.824 345.278 349.555 260.304C466.954 184.226 577.687 112.318 655.228 129.276C702.16 139.561 733.313 181.631 750.181 257.895C769.77 346.019 800.786 391.981 845.134 398.282C909.071 407.456 990.013 332.212 1068.37 259.563C1142.51 190.712 1212.43 125.754 1263.58 134.279C1300.85 140.488 1324.39 185.894 1335.82 273.092C1347.79 365.386 1374.72 414.499 1417.98 423.394C1476.34 435.348 1554.83 374.097 1637.95 309.324C1721.34 244.273 1807.59 176.998 1873.57 187.191C1913.43 193.307 1942.26 226.759 1961.99 289.401L1963.76 289.03C1956.96 267.161 1949.07 248.906 1939.82 234.08Z" fill="url(#paint13_linear_702_38242)" fill-opacity="0.2"/>
<path d="M1962.13 244.458C1944.03 215.083 1921.32 198.589 1893.56 194.234C1825.14 183.485 1736.85 249.833 1651.56 313.957C1567.21 377.433 1487.5 437.294 1428.86 425.062C1385.88 416.074 1358.81 368.259 1346.02 278.837C1333.91 193.215 1309.29 148.365 1270.79 141.785C1217.33 132.612 1145.77 196.828 1069.87 264.752C990.557 335.826 908.527 409.402 844.182 399.95C799.97 393.464 768.682 348.799 748.277 263.269C730.592 188.581 698.624 147.16 650.603 136.504C570.342 118.712 456.887 189.601 336.768 264.752C203.724 347.965 66.056 434.144 -43.5891 412.553C-114.192 398.746 -165.205 341.849 -199.486 238.713L-201.255 239.084C-166.702 342.683 -115.416 399.858 -44.2693 413.85C66.328 435.534 204.405 349.17 337.992 265.679C457.704 190.805 570.75 120.102 650.059 137.708C697.399 148.179 728.96 189.415 746.644 263.64C767.05 349.726 798.882 394.761 843.774 401.248C909.207 410.792 991.645 336.938 1071.36 265.493C1146.86 197.848 1218.15 134.002 1270.38 142.99C1308.2 149.477 1332.28 193.956 1344.39 279.022C1357.17 369 1384.52 417.186 1428.32 426.267C1488.04 438.777 1568.03 378.545 1652.92 314.791C1737.94 250.852 1825.82 184.782 1893.29 195.439C1933.56 201.74 1963.08 234.543 1983.48 295.609L1985.25 295.239C1978.31 275.316 1970.7 258.451 1962.13 244.458Z" fill="url(#paint14_linear_702_38242)" fill-opacity="0.2"/>
<path d="M1984.84 254.744C1966.07 224.257 1942.4 207.022 1913.43 202.388C1843.5 191.176 1753.45 256.412 1666.52 319.424C1580.41 381.788 1499.06 440.723 1439.07 427.935C1395.54 418.668 1367.92 371.78 1354.59 284.675C1341.8 201.184 1316.63 157.168 1277.59 150.311C1223.04 140.673 1149.99 203.778 1072.72 270.59C991.917 340.459 908.391 412.645 842.549 402.823C797.793 396.151 765.689 352.32 744.603 268.829C726.238 196.18 693.862 155.592 645.433 144.658C563.403 126.125 447.5 195.902 324.796 269.756C188.76 351.672 48.0986 436.367 -64.2671 414.035C-135.55 399.857 -187.38 344.166 -222.749 243.717L-224.518 244.088C-189.012 344.907 -136.774 400.877 -64.9473 415.24C48.2346 437.757 189.304 352.876 325.748 270.682C448.045 197.014 563.539 127.515 644.753 145.863C692.501 156.612 724.47 196.921 742.835 269.107C764.056 353.154 796.569 397.263 842.141 404.027C908.935 413.943 992.869 341.478 1074.08 271.331C1150.94 204.89 1223.59 142.156 1277.05 151.515C1315.27 158.187 1340.03 201.832 1352.82 284.86C1366.29 372.521 1394.31 419.688 1438.39 429.14C1499.33 442.205 1581.09 382.992 1667.61 320.258C1754.26 257.524 1843.77 192.566 1912.88 203.593C1953.69 210.079 1983.76 242.234 2004.7 301.725L2006.47 301.355C2000.22 283.378 1993.01 267.902 1984.84 254.744Z" fill="url(#paint15_linear_702_38242)" fill-opacity="0.2"/>
<path d="M2008.38 265.03C1988.79 233.431 1964.3 215.454 1933.97 210.543C1862.41 198.867 1770.72 262.991 1682.03 324.892C1594.15 386.236 1511.03 444.244 1449.68 430.9C1405.74 421.356 1377.58 375.394 1363.57 290.513C1350.1 208.968 1324.39 165.971 1284.94 158.836C1229.16 148.828 1154.89 210.821 1076.12 276.428C993.822 345 908.799 415.981 841.461 405.788C796.025 398.838 763.24 355.934 741.339 274.389C722.294 203.778 689.373 164.025 640.808 152.905C556.874 133.631 438.522 202.296 313.097 274.945C174.068 355.564 30.2783 438.87 -84.6722 415.611C-156.635 401.062 -209.281 346.575 -245.739 248.814L-247.507 249.184C-210.914 347.317 -157.86 402.174 -85.3524 416.815C30.5504 440.167 174.612 356.676 314.049 275.872C439.067 203.408 557.01 135.021 640.128 154.11C688.149 165.137 720.661 204.612 739.57 274.76C761.608 356.768 794.801 400.043 840.917 407.086C909.343 417.464 994.774 346.205 1077.35 277.355C1155.7 212.026 1229.57 150.403 1284.26 160.226C1323.03 167.176 1348.33 209.894 1361.66 290.884C1375.81 376.228 1404.38 422.468 1449 432.198C1511.44 445.82 1594.83 387.533 1683.12 325.911C1771.4 264.196 1862.82 200.443 1933.42 211.933C1974.78 218.605 2005.39 250.111 2027.02 308.119L2028.78 307.749C2022.53 291.347 2015.86 277.169 2008.38 265.03Z" fill="url(#paint16_linear_702_38242)" fill-opacity="0.2"/>
<path d="M2032.32 275.223C2012.05 242.327 1986.48 223.701 1954.78 218.42C1881.59 206.373 1788 269.293 1697.54 330.174C1607.75 390.591 1523 447.58 1460.15 433.588C1415.81 423.765 1387.1 378.73 1372.27 296.073C1358.13 216.566 1331.87 174.311 1291.88 166.99C1234.88 156.519 1159.11 217.4 1078.84 281.895C995.046 349.263 908.391 419.039 839.421 408.29C793.304 401.155 759.839 358.992 737.121 279.486C717.532 210.914 684.067 171.994 635.094 160.597C549.392 140.581 428.32 208.134 300.174 279.578C158.016 358.9 11.097 440.816 -106.71 416.723C-179.217 401.896 -232.816 348.429 -270.225 253.447L-271.858 253.91C-234.312 349.355 -180.442 403.101 -107.254 418.02C11.3691 442.298 158.696 360.104 301.262 280.598C429 209.338 549.664 142.064 634.55 161.801C682.979 173.106 715.9 211.655 735.489 279.856C758.343 359.919 792.216 402.267 839.012 409.588C908.935 420.429 995.998 350.467 1080.2 282.729C1160.06 218.512 1235.42 157.909 1291.33 168.195C1330.51 175.423 1356.36 217.308 1370.51 296.258C1385.33 379.379 1414.44 424.692 1459.47 434.7C1523.27 448.878 1608.43 391.611 1698.62 330.915C1788.68 270.312 1881.86 207.578 1954.24 219.532C1996 226.481 2027.15 257.246 2049.46 313.865L2051.09 313.401C2045.52 299.131 2039.26 286.343 2032.32 275.223Z" fill="url(#paint17_linear_702_38242)" fill-opacity="0.2"/>
<path d="M2056.94 285.324C2035.86 251.223 2009.19 231.763 1976.14 226.296C1901.32 213.786 1805.82 275.594 1713.59 335.455C1621.9 394.854 1535.24 451.009 1470.9 436.368C1426.14 426.175 1396.9 382.159 1381.52 301.725C1366.7 224.257 1339.9 182.836 1299.49 175.238C1241.27 164.303 1164 224.165 1082.24 287.548C996.814 353.803 908.527 422.283 838.06 411.163C791.4 403.75 757.254 362.514 733.72 284.86C713.179 218.234 679.442 180.241 630.197 168.566C542.454 147.809 418.797 214.25 287.794 284.582C142.508 362.514 -7.81219 443.132 -128.34 418.205C-201.528 403.101 -255.806 350.745 -294.304 258.265L-295.937 258.729C-257.302 351.579 -202.752 404.213 -128.884 419.41C-7.54013 444.615 143.188 363.718 288.746 285.509C419.341 215.454 542.726 149.199 629.517 169.77C678.218 181.261 711.682 219.068 731.816 285.324C755.486 363.348 790.039 404.954 837.38 412.46C908.935 423.765 997.63 355.008 1083.33 288.474C1164.68 225.369 1241.54 165.786 1298.81 176.535C1338.4 183.948 1364.93 224.999 1379.76 302.003C1395.26 382.9 1424.92 427.286 1470.22 437.572C1535.52 452.399 1622.44 396.058 1714.68 336.289C1806.64 276.706 1901.73 215.084 1975.59 227.501C2017.9 234.543 2049.6 264.752 2072.45 319.888L2074.08 319.424C2068.91 306.822 2063.2 295.424 2056.94 285.324Z" fill="url(#paint18_linear_702_38242)" fill-opacity="0.2"/>
<path d="M2082.11 295.424C2060.21 260.026 2032.46 239.825 1997.9 233.987C1921.31 221.014 1823.91 281.802 1729.78 340.552C1636.05 399.024 1547.62 454.252 1481.78 439.055C1436.62 428.584 1406.96 385.495 1390.77 307.193C1375.27 231.671 1347.79 191.083 1307.11 183.207C1247.53 171.809 1168.76 230.651 1085.37 293.015C998.31 358.158 908.255 425.433 836.155 413.85C788.815 406.252 754.126 365.757 729.639 290.05C708.826 225.277 674.545 188.025 625.028 176.164C535.38 154.666 408.866 219.995 274.871 289.216C126.319 365.942 -27.4013 445.264 -150.922 419.503C-224.79 404.12 -279.748 352.877 -319.199 262.991L-320.831 263.455C-281.245 353.803 -225.878 405.232 -151.466 420.8C-27.1292 446.746 126.864 367.24 275.823 290.328C409.546 221.292 535.652 156.149 624.347 177.462C673.32 189.23 707.193 226.111 727.871 290.513C752.357 366.684 787.591 407.456 835.611 415.147C908.799 426.916 999.127 359.27 1086.6 293.942C1169.58 231.949 1247.94 173.292 1306.57 184.597C1346.7 192.288 1373.63 232.505 1389.14 307.563C1405.33 386.329 1435.39 429.789 1481.24 440.352C1548.03 455.827 1636.86 400.321 1731 341.571C1824.87 283.007 1921.86 222.497 1997.5 235.285C2040.21 242.512 2072.45 272.165 2095.99 325.818L2097.62 325.355C2092.86 314.421 2087.69 304.413 2082.11 295.424Z" fill="url(#paint19_linear_702_38242)" fill-opacity="0.2"/>
<path d="M2108.09 305.525C2085.37 268.829 2056.54 247.887 2020.49 241.678C1942.13 228.242 1842.82 287.918 1746.65 345.741C1650.88 403.286 1560.41 457.681 1492.94 441.835C1447.5 431.086 1417.17 388.923 1400.43 312.753C1384.24 239.084 1356.36 199.331 1315.14 191.269C1254.19 179.315 1173.8 237.231 1088.77 298.482C999.943 362.421 908.119 428.677 834.251 416.537C786.366 408.754 750.861 369 725.694 295.239C704.201 232.319 669.648 195.902 619.858 183.855C528.17 161.616 398.8 225.925 261.812 293.942C109.859 369.371 -47.2624 447.395 -173.776 420.707C-248.188 405.047 -303.962 354.915 -344.365 267.439L-345.998 267.903C-305.459 355.749 -249.276 406.066 -174.32 421.912C-46.9903 448.785 110.539 370.483 262.9 294.868C399.48 227.037 528.442 162.913 619.314 184.967C668.423 196.921 702.704 233.061 724.062 295.517C749.365 369.834 785.278 409.773 833.843 417.649C908.663 429.881 1000.9 363.44 1090 299.223C1174.61 238.25 1254.6 180.612 1314.59 192.381C1355.13 200.35 1382.75 239.733 1398.8 312.938C1415.67 389.572 1446.28 432.105 1492.39 443.04C1560.68 459.163 1651.56 404.491 1747.73 346.668C1843.5 289.123 1942.54 229.632 2019.94 242.883C2063.2 250.296 2095.85 279.301 2120.06 331.656L2121.7 331.193C2117.48 321.834 2112.85 313.309 2108.09 305.525Z" fill="url(#paint20_linear_702_38242)" fill-opacity="0.2"/>
<path d="M2134.62 315.532C2111.09 277.447 2081.16 255.671 2043.48 249.184C1963.35 235.284 1861.87 293.941 1763.79 350.745C1665.84 407.363 1573.33 460.924 1504.36 444.429C1458.52 433.402 1427.78 392.074 1410.36 318.034C1393.5 246.312 1365.06 207.3 1323.44 199.052C1261.13 186.635 1179.1 243.532 1092.31 303.764C1001.71 366.683 907.983 431.734 832.483 419.132C784.054 411.07 747.868 372.151 721.885 300.243C699.848 239.176 664.75 203.593 614.825 191.268C521.096 168.288 388.733 231.485 248.616 298.482C93.1269 372.707 -67.6677 449.526 -197.31 422.004C-272.402 406.066 -328.857 357.046 -370.212 271.98L-371.844 272.443C-330.353 357.788 -273.354 407.085 -197.854 423.116C-67.3956 450.823 93.6711 373.819 249.568 299.409C389.277 232.69 521.232 169.585 614.145 192.38C663.662 204.52 698.351 239.918 720.253 300.521C746.372 372.892 782.966 412.089 832.075 420.244C908.663 432.939 1002.66 367.703 1093.67 304.505C1180.05 244.551 1261.68 187.84 1323.03 200.072C1363.98 208.226 1392.13 246.867 1408.87 318.127C1426.42 392.722 1457.43 434.329 1503.96 445.449C1573.88 462.221 1666.79 408.475 1765.15 351.579C1862.96 295.053 1964.03 236.582 2043.34 250.296C2087.01 257.895 2120.2 286.343 2145.09 337.216L2146.73 336.753C2142.65 329.154 2138.7 322.112 2134.62 315.532Z" fill="url(#paint21_linear_702_38242)" fill-opacity="0.2"/>
<path d="M2161.83 325.448C2137.48 285.972 2106.19 263.362 2066.87 256.505C1984.84 242.142 1881.32 299.779 1781.06 355.656C1680.94 411.441 1586.26 464.075 1515.66 446.932C1469.54 435.719 1438.25 395.224 1420.29 323.224C1402.75 253.354 1373.91 215.176 1331.73 206.651C1268.07 193.678 1184.27 249.648 1095.71 308.953C1003.34 370.761 907.711 434.7 830.306 421.634C781.333 413.387 744.467 375.209 717.668 305.061C695.086 245.848 659.717 211.006 609.384 198.589C513.614 174.867 378.122 237.045 234.876 302.93C75.9863 375.765 -88.6173 451.379 -221.389 422.931C-297.025 406.715 -354.296 358.714 -396.603 276.15L-398.235 276.613C-355.792 359.548 -298.113 407.827 -221.933 424.136C-88.3452 452.677 76.5304 376.969 235.829 303.764C378.802 238.065 513.75 176.072 608.839 199.609C658.493 211.933 693.59 246.497 716.036 305.339C742.971 375.95 780.245 414.313 829.898 422.746C908.255 435.997 1004.16 371.78 1096.94 309.695C1185.09 250.667 1268.48 194.975 1331.19 207.763C1372.55 216.196 1401.11 254.003 1418.53 323.502C1436.62 395.966 1468.18 436.738 1514.98 448.136C1586.39 465.557 1681.48 412.645 1782.01 356.676C1881.86 301.077 1985.12 243.624 2066.19 257.802C2110.27 265.493 2144.14 293.386 2169.44 342.961L2171.08 342.405C2168.36 336.475 2165.09 330.822 2161.83 325.448Z" fill="url(#paint22_linear_702_38242)" fill-opacity="0.2"/>
<path d="M2189.71 335.363C2164.41 294.497 2132.04 270.961 2090.95 263.733C2007.15 248.906 1901.32 305.617 1799.02 360.475C1696.58 415.425 1599.73 467.225 1527.49 449.341C1480.97 437.85 1449.41 398.282 1430.63 328.228C1412.54 260.119 1383.02 222.775 1340.58 213.972C1275.42 200.442 1189.99 255.485 1099.52 313.864C1005.25 374.653 907.711 437.48 828.402 423.951C778.749 415.425 741.339 378.081 713.724 309.695C690.597 252.242 654.82 218.141 604.351 205.539C506.405 181.075 367.784 242.234 221.137 307.007C58.4379 378.915 -109.839 453.233 -245.875 423.951C-322.055 407.549 -380.142 360.568 -423.402 280.32L-425.034 280.876C-381.639 361.494 -323.143 408.753 -246.555 425.248C-109.703 454.623 58.8461 380.12 221.953 308.119C368.328 243.532 506.405 182.465 603.67 206.744C653.596 219.161 688.965 252.984 712.091 310.158C739.842 378.915 777.661 416.537 827.994 425.155C908.119 438.87 1006.06 375.765 1100.75 314.791C1190.8 256.783 1275.82 201.925 1340.17 215.269C1381.93 223.887 1411.04 260.953 1429.14 328.598C1447.91 399.024 1479.88 438.962 1526.95 450.638C1600.13 468.708 1697.26 416.63 1800.11 361.494C1902.13 306.822 2007.56 250.389 2090.54 265.03C2135.03 272.907 2169.45 300.243 2195.43 348.521L2197.06 347.965C2194.61 343.517 2192.16 339.347 2189.71 335.363Z" fill="url(#paint23_linear_702_38242)" fill-opacity="0.2"/>
<path d="M2218.28 345.278C2192.03 302.837 2158.43 278.466 2115.44 270.868C2029.6 255.578 1921.59 311.27 1816.98 365.201C1712.09 419.225 1613.06 470.283 1539.05 451.75C1492.26 439.982 1460.15 401.248 1440.97 333.231C1422.2 266.976 1392.27 230.373 1349.42 221.385C1282.76 207.3 1195.56 261.509 1103.06 318.868C1006.74 378.637 907.166 440.445 826.089 426.36C775.892 417.649 737.802 381.047 709.37 314.42C685.7 258.636 649.514 225.369 598.909 212.674C498.786 187.469 357.037 247.609 206.853 311.363C40.3447 382.066 -131.877 455.179 -271.314 425.063C-348.038 408.475 -406.806 362.514 -451.017 284.49L-452.65 285.046C-408.166 363.44 -349.126 409.587 -271.994 426.267C-131.605 456.383 41.0249 383.178 207.805 312.289C357.445 248.721 498.922 188.674 598.365 213.694C648.426 226.296 684.203 259.377 707.874 314.698C736.441 381.695 774.939 418.576 825.681 427.472C907.71 441.742 1007.7 379.657 1104.28 319.702C1196.24 262.621 1283.17 208.69 1348.88 222.497C1391.05 231.393 1420.7 267.717 1439.34 333.509C1458.79 401.989 1491.17 441.001 1538.51 452.862C1613.33 471.673 1712.77 420.337 1818.06 366.128C1922.27 312.474 2030.01 256.875 2115.03 272.073C2160.06 280.134 2194.75 306.822 2221.41 353.803L2223.04 353.247C2221.55 350.56 2219.91 347.873 2218.28 345.278Z" fill="url(#paint24_linear_702_38242)" fill-opacity="0.2"/>
<path d="M2247.67 355.193C2220.59 311.27 2185.5 285.972 2140.74 278.003C2053 262.25 1942.54 317.015 1835.75 369.927C1728.42 423.117 1627.07 473.434 1551.3 454.159C1504.23 442.205 1471.72 404.306 1451.85 338.143C1432.4 273.648 1402.07 237.786 1358.81 228.52C1290.65 213.879 1201.41 267.161 1107 323.594C1008.65 382.344 907.03 443.132 823.912 428.491C773.171 419.595 734.401 383.641 705.289 318.776C681.074 264.659 644.617 232.134 593.739 219.253C491.304 193.307 346.154 252.52 192.569 315.162C22.1159 384.66 -154.187 456.569 -296.889 425.618C-374.021 409.124 -433.605 364.089 -478.633 288.289L-480.265 288.845C-434.965 365.016 -375.109 410.236 -297.433 427.008C-153.915 458.144 22.66 386.143 193.521 316.459C346.698 253.91 491.44 194.883 593.195 220.643C643.528 233.431 679.578 265.679 703.656 319.424C732.904 384.753 772.083 420.893 823.504 429.881C907.438 444.615 1009.47 383.641 1108.23 324.706C1202.23 268.551 1290.92 215.454 1358.26 229.91C1400.84 238.991 1430.91 274.574 1450.22 338.606C1470.22 405.14 1503.14 443.317 1550.75 455.457C1627.34 474.916 1729.1 424.414 1836.84 371.039C1943.22 318.22 2053.27 263.64 2140.33 279.3C2185.77 287.455 2221 313.586 2248.35 359.363L2249.98 358.807C2249.03 357.51 2248.35 356.398 2247.67 355.193Z" fill="url(#paint25_linear_702_38242)" fill-opacity="0.2"/>
<path d="M2277.05 363.996C2249.03 319.146 2212.84 293.293 2166.45 284.953C2076.67 268.736 1963.76 322.575 1854.79 374.653C1744.88 427.008 1641.22 476.584 1563.68 456.569C1516.34 444.429 1483.42 407.271 1463.01 343.147C1443.01 280.412 1412.13 245.292 1368.6 235.84C1298.81 220.643 1207.67 273.092 1111.22 328.598C1010.83 386.421 906.895 446.097 821.872 430.993C770.587 421.912 731.136 386.699 701.344 323.502C676.586 271.053 639.72 239.269 588.842 226.296C484.095 199.608 335.543 257.802 178.422 319.517C3.61542 387.718 -176.768 458.515 -323.007 426.73C-400.82 409.773 -461.084 365.849 -507.064 292.181L-508.696 292.737C-462.444 366.683 -401.908 410.885 -323.687 427.842C-176.632 459.719 4.0235 388.923 178.83 320.351C335.679 258.821 483.823 200.813 587.89 227.315C638.359 240.196 674.817 271.702 699.44 323.78C729.504 387.44 769.362 422.838 821.192 432.012C907.167 447.302 1011.37 387.348 1112.17 329.339C1208.21 274.111 1298.95 221.848 1367.78 236.86C1410.77 246.219 1441.24 281.061 1461.11 343.332C1481.65 407.919 1514.98 445.356 1562.86 457.588C1641.22 477.696 1745.42 428.028 1855.61 375.487C1964.3 323.594 2076.8 269.941 2165.91 286.065C2211.75 294.312 2247.53 319.98 2275.42 364.459L2277.05 363.996Z" fill="url(#paint26_linear_702_38242)" fill-opacity="0.2"/>
<path d="M2304.94 369.186C2276.37 325.54 2239.64 300.243 2192.84 291.718C2100.88 275.131 1985.66 327.95 1874.11 379.101C1761.61 430.715 1655.36 479.457 1575.92 458.793C1528.44 446.468 1495.11 410.144 1474.03 347.873C1453.35 286.806 1422.06 252.428 1378.12 242.791C1306.7 227.038 1213.66 278.652 1115.03 333.232C1012.46 390.035 906.351 448.785 819.288 433.125C767.458 423.765 727.463 389.387 696.719 327.764C671.417 276.891 634.279 245.849 583.129 232.783C475.933 205.354 323.98 262.621 163.05 323.224C31.5029 372.8 -104.397 423.951 -227.51 433.959C-366.675 445.264 -467.613 400.136 -536.039 295.888L-537.672 296.536C-501.35 351.857 -455.098 391.24 -400.003 413.572C-350.622 433.588 -294.031 440.723 -227.238 435.256C-103.853 425.248 32.3191 374.004 164.002 324.336C324.525 263.918 476.205 206.744 582.585 233.987C633.19 246.96 670.056 277.725 695.087 328.228C725.967 390.221 766.37 424.877 818.743 434.329C906.759 450.175 1013.14 391.147 1116.12 334.158C1214.34 279.764 1306.98 228.427 1377.58 243.995C1420.84 253.54 1451.86 287.64 1472.4 348.243C1493.62 410.978 1527.22 447.488 1575.38 459.997C1655.64 480.847 1762.29 431.92 1875.06 380.12C1986.2 329.154 2101.16 276.428 2192.3 292.922C2238.55 301.262 2274.87 326.467 2303.3 369.742L2304.94 369.186Z" fill="url(#paint27_linear_702_38242)" fill-opacity="0.2"/>
<path d="M2333.37 374.282C2304.12 331.841 2266.98 307.007 2219.78 298.482C2125.64 281.431 2007.97 333.417 1893.97 383.641C1778.75 434.421 1669.92 482.422 1588.71 461.109C1540.96 448.599 1507.22 413.109 1485.59 352.598C1464.37 293.2 1432.54 259.563 1388.33 249.74C1315.27 233.431 1220.05 284.119 1119.25 337.864C1014.36 393.741 906.078 451.472 816.839 435.348C764.465 425.896 723.79 392.074 692.366 332.119C666.519 282.821 629.109 252.52 577.823 239.362C468.314 211.284 312.689 267.532 147.95 327.115C14.0901 375.579 -124.395 425.618 -249.82 435.255C-391.841 446.19 -495.229 401.803 -565.559 299.594L-567.192 300.242C-496.453 403.008 -392.658 447.58 -249.684 436.553C-123.85 426.916 14.7702 376.691 148.766 328.227C313.097 268.736 468.314 212.581 577.279 240.474C628.021 253.539 665.158 283.563 690.869 332.583C722.43 392.908 763.513 426.916 816.431 436.46C906.486 452.769 1015.18 394.853 1120.33 338.791C1220.73 285.323 1315.55 234.728 1387.78 250.852C1431.45 260.582 1462.87 293.941 1483.96 352.876C1505.73 413.757 1539.73 449.526 1588.03 462.221C1670.19 483.812 1779.29 435.626 1894.92 384.66C2008.51 334.529 2125.91 282.821 2219.37 299.687C2266.17 308.119 2302.9 332.768 2331.87 374.93L2333.37 374.282Z" fill="url(#paint28_linear_702_38242)" fill-opacity="0.2"/>
<path d="M2362.34 379.379C2332.55 338.05 2294.87 313.772 2247.26 305.154C2150.94 287.64 2030.55 338.699 1914.11 388.089C1796.16 438.128 1684.75 485.387 1601.49 463.333C1553.61 450.638 1519.47 415.981 1497.29 357.232C1475.53 299.501 1443.28 266.605 1398.67 256.505C1323.85 239.64 1226.58 289.494 1123.46 342.405C1016.4 397.356 905.534 454.159 814.254 437.387C761.336 427.75 719.981 394.668 687.877 336.289C661.622 288.567 623.804 258.914 572.518 245.756C460.424 217.029 301.262 272.35 132.578 330.915C-3.73059 378.267 -144.664 427.286 -272.674 436.553C-417.552 447.117 -523.252 403.471 -595.623 303.115L-597.256 303.764C-524.477 404.583 -418.368 448.414 -272.538 437.758C-144.256 428.398 -3.18652 379.379 133.394 331.934C301.67 273.462 460.56 218.234 571.974 246.868C622.851 259.933 660.397 289.308 686.516 336.753C718.893 395.502 760.52 428.769 813.982 438.499C906.214 455.364 1017.22 398.375 1124.69 343.239C1227.4 290.606 1324.25 240.844 1398.26 257.617C1442.2 267.532 1474.17 300.243 1495.79 357.51C1518.1 416.63 1552.52 451.565 1601.09 464.352C1685.16 486.592 1796.98 439.24 1915.33 389.016C2031.37 339.811 2151.49 288.938 2247.12 306.266C2294.33 314.791 2331.6 338.884 2361.12 379.935L2362.34 379.379Z" fill="url(#paint29_linear_702_38242)" fill-opacity="0.2"/>
<path d="M2392 384.383C2289.02 248.165 2108.91 321.556 1934.92 392.445C1814.12 441.65 1699.98 488.168 1614.69 465.465C1566.53 452.584 1532.12 418.669 1509.4 361.772C1486.95 305.71 1454.3 273.463 1409.55 263.177C1332.96 245.756 1233.52 294.776 1128.09 346.761C1018.58 400.784 905.398 456.569 811.805 439.426C758.343 429.603 716.444 397.263 683.523 340.367C660.805 300.984 630.061 274.389 589.659 259.007C553.337 245.2 509.942 240.752 456.751 245.478C357.717 254.188 240.726 293.2 116.933 334.529C-21.8234 380.861 -165.341 428.677 -295.936 437.758C-443.807 447.951 -551.956 405.047 -626.368 306.544L-628 307.193C-553.18 406.066 -444.623 449.248 -295.936 438.962C-165.069 429.881 -21.4153 381.973 117.477 335.641C241.134 294.405 357.853 255.393 456.615 246.775C567.349 237.045 638.904 266.883 681.755 340.923C714.812 398.097 757.119 430.715 810.989 440.63C905.398 458.051 1018.99 401.989 1128.77 347.78C1233.79 295.98 1332.96 247.053 1408.6 264.381C1452.81 274.482 1485.18 306.451 1507.36 362.143C1530.21 419.41 1565.04 453.603 1613.6 466.577C1699.71 489.557 1814.12 442.854 1935.33 393.464C2108.64 322.853 2287.93 249.833 2390.1 384.939L2392 384.383Z" fill="url(#paint30_linear_702_38242)" fill-opacity="0.2"/>
<defs>
<linearGradient id="paint0_linear_702_38242" x1="40.3312" y1="0.318913" x2="1822.61" y2="320.852" gradientUnits="userSpaceOnUse">
<stop stop-color="#BE8143"/>
<stop offset="0.556227" stop-color="#8F664E"/>
<stop offset="1" stop-color="#BB7F44"/>
</linearGradient>
<linearGradient id="paint1_linear_702_38242" x1="21.7134" y1="11.3595" x2="1835.08" y2="350.979" gradientUnits="userSpaceOnUse">
<stop stop-color="#BE8143"/>
<stop offset="0.556227" stop-color="#8F664E"/>
<stop offset="1" stop-color="#BB7F44"/>
</linearGradient>
<linearGradient id="paint2_linear_702_38242" x1="2.93612" y1="22.1312" x2="1847.9" y2="381.821" gradientUnits="userSpaceOnUse">
<stop stop-color="#BE8143"/>
<stop offset="0.556227" stop-color="#8F664E"/>
<stop offset="1" stop-color="#BB7F44"/>
</linearGradient>
<linearGradient id="paint3_linear_702_38242" x1="-16.2653" y1="32.8547" x2="1860.33" y2="413.876" gradientUnits="userSpaceOnUse">
<stop stop-color="#BE8143"/>
<stop offset="0.556227" stop-color="#8F664E"/>
<stop offset="1" stop-color="#BB7F44"/>
</linearGradient>
<linearGradient id="paint4_linear_702_38242" x1="-36.1795" y1="43.2298" x2="1872.81" y2="446.909" gradientUnits="userSpaceOnUse">
<stop stop-color="#BE8143"/>
<stop offset="0.556227" stop-color="#8F664E"/>
<stop offset="1" stop-color="#BB7F44"/>
</linearGradient>
<linearGradient id="paint5_linear_702_38242" x1="-56.3695" y1="53.6763" x2="1884.29" y2="481.311" gradientUnits="userSpaceOnUse">
<stop stop-color="#BE8143"/>
<stop offset="0.556227" stop-color="#8F664E"/>
<stop offset="1" stop-color="#BB7F44"/>
</linearGradient>
<linearGradient id="paint6_linear_702_38242" x1="-76.5721" y1="63.5594" x2="1895.67" y2="516.025" gradientUnits="userSpaceOnUse">
<stop stop-color="#BE8143"/>
<stop offset="0.556227" stop-color="#8F664E"/>
<stop offset="1" stop-color="#BB7F44"/>
</linearGradient>
<linearGradient id="paint7_linear_702_38242" x1="-97.209" y1="72.86" x2="1907.54" y2="550.206" gradientUnits="userSpaceOnUse">
<stop stop-color="#BE8143"/>
<stop offset="0.556227" stop-color="#8F664E"/>
<stop offset="1" stop-color="#BB7F44"/>
</linearGradient>
<linearGradient id="paint8_linear_702_38242" x1="-118.549" y1="81.9855" x2="1918.68" y2="585.811" gradientUnits="userSpaceOnUse">
<stop stop-color="#BE8143"/>
<stop offset="0.556227" stop-color="#8F664E"/>
<stop offset="1" stop-color="#BB7F44"/>
</linearGradient>
<linearGradient id="paint9_linear_702_38242" x1="-139.899" y1="91.0835" x2="1929.38" y2="622.436" gradientUnits="userSpaceOnUse">
<stop stop-color="#BE8143"/>
<stop offset="0.556227" stop-color="#8F664E"/>
<stop offset="1" stop-color="#BB7F44"/>
</linearGradient>
<linearGradient id="paint10_linear_702_38242" x1="-161.959" y1="99.9138" x2="1939.47" y2="660.492" gradientUnits="userSpaceOnUse">
<stop stop-color="#BE8143"/>
<stop offset="0.556227" stop-color="#8F664E"/>
<stop offset="1" stop-color="#BB7F44"/>
</linearGradient>
<linearGradient id="paint11_linear_702_38242" x1="-183.895" y1="108.786" x2="1949.39" y2="699.448" gradientUnits="userSpaceOnUse">
<stop stop-color="#BE8143"/>
<stop offset="0.556227" stop-color="#8F664E"/>
<stop offset="1" stop-color="#BB7F44"/>
</linearGradient>
<linearGradient id="paint12_linear_702_38242" x1="-207.088" y1="117.298" x2="1957.92" y2="740.164" gradientUnits="userSpaceOnUse">
<stop stop-color="#BE8143"/>
<stop offset="0.556227" stop-color="#8F664E"/>
<stop offset="1" stop-color="#BB7F44"/>
</linearGradient>
<linearGradient id="paint13_linear_702_38242" x1="-230.282" y1="125.453" x2="1965.91" y2="780.517" gradientUnits="userSpaceOnUse">
<stop stop-color="#BE8143"/>
<stop offset="0.556227" stop-color="#8F664E"/>
<stop offset="1" stop-color="#BB7F44"/>
</linearGradient>
<linearGradient id="paint14_linear_702_38242" x1="-253.784" y1="133.734" x2="1973.08" y2="823.673" gradientUnits="userSpaceOnUse">
<stop stop-color="#BE8143"/>
<stop offset="0.556227" stop-color="#8F664E"/>
<stop offset="1" stop-color="#BB7F44"/>
</linearGradient>
<linearGradient id="paint15_linear_702_38242" x1="-278.115" y1="141.635" x2="1978.95" y2="867.151" gradientUnits="userSpaceOnUse">
<stop stop-color="#BE8143"/>
<stop offset="0.556227" stop-color="#8F664E"/>
<stop offset="1" stop-color="#BB7F44"/>
</linearGradient>
<linearGradient id="paint16_linear_702_38242" x1="-302.193" y1="149.617" x2="1984.41" y2="912.072" gradientUnits="userSpaceOnUse">
<stop stop-color="#BE8143"/>
<stop offset="0.556227" stop-color="#8F664E"/>
<stop offset="1" stop-color="#BB7F44"/>
</linearGradient>
<linearGradient id="paint17_linear_702_38242" x1="-327.665" y1="157.029" x2="1988" y2="958.308" gradientUnits="userSpaceOnUse">
<stop stop-color="#BE8143"/>
<stop offset="0.556227" stop-color="#8F664E"/>
<stop offset="1" stop-color="#BB7F44"/>
</linearGradient>
<linearGradient id="paint18_linear_702_38242" x1="-352.874" y1="164.706" x2="1990.69" y2="1005.86" gradientUnits="userSpaceOnUse">
<stop stop-color="#BE8143"/>
<stop offset="0.556227" stop-color="#8F664E"/>
<stop offset="1" stop-color="#BB7F44"/>
</linearGradient>
<linearGradient id="paint19_linear_702_38242" x1="-378.932" y1="171.999" x2="1992.36" y2="1054.23" gradientUnits="userSpaceOnUse">
<stop stop-color="#BE8143"/>
<stop offset="0.556227" stop-color="#8F664E"/>
<stop offset="1" stop-color="#BB7F44"/>
</linearGradient>
<linearGradient id="paint20_linear_702_38242" x1="-405.281" y1="179.375" x2="1992.08" y2="1104.67" gradientUnits="userSpaceOnUse">
<stop stop-color="#BE8143"/>
<stop offset="0.556227" stop-color="#8F664E"/>
<stop offset="1" stop-color="#BB7F44"/>
</linearGradient>
<linearGradient id="paint21_linear_702_38242" x1="-432.35" y1="186.456" x2="1990.23" y2="1156.85" gradientUnits="userSpaceOnUse">
<stop stop-color="#BE8143"/>
<stop offset="0.556227" stop-color="#8F664E"/>
<stop offset="1" stop-color="#BB7F44"/>
</linearGradient>
<linearGradient id="paint22_linear_702_38242" x1="-459.961" y1="193.435" x2="1986.57" y2="1208.78" gradientUnits="userSpaceOnUse">
<stop stop-color="#BE8143"/>
<stop offset="0.556227" stop-color="#8F664E"/>
<stop offset="1" stop-color="#BB7F44"/>
</linearGradient>
<linearGradient id="paint23_linear_702_38242" x1="-488.027" y1="200.029" x2="1982.26" y2="1262.01" gradientUnits="userSpaceOnUse">
<stop stop-color="#BE8143"/>
<stop offset="0.556227" stop-color="#8F664E"/>
<stop offset="1" stop-color="#BB7F44"/>
</linearGradient>
<linearGradient id="paint24_linear_702_38242" x1="-516.931" y1="206.796" x2="1974" y2="1318.03" gradientUnits="userSpaceOnUse">
<stop stop-color="#BE8143"/>
<stop offset="0.556227" stop-color="#8F664E"/>
<stop offset="1" stop-color="#BB7F44"/>
</linearGradient>
<linearGradient id="paint25_linear_702_38242" x1="-545.857" y1="212.998" x2="1966.95" y2="1372.19" gradientUnits="userSpaceOnUse">
<stop stop-color="#BE8143"/>
<stop offset="0.556227" stop-color="#8F664E"/>
<stop offset="1" stop-color="#BB7F44"/>
</linearGradient>
<linearGradient id="paint26_linear_702_38242" x1="-575.621" y1="219.644" x2="1953.87" y2="1430.9" gradientUnits="userSpaceOnUse">
<stop stop-color="#BE8143"/>
<stop offset="0.556227" stop-color="#8F664E"/>
<stop offset="1" stop-color="#BB7F44"/>
</linearGradient>
<linearGradient id="paint27_linear_702_38242" x1="-605.963" y1="225.727" x2="1941.73" y2="1487.88" gradientUnits="userSpaceOnUse">
<stop stop-color="#BE8143"/>
<stop offset="0.556227" stop-color="#8F664E"/>
<stop offset="1" stop-color="#BB7F44"/>
</linearGradient>
<linearGradient id="paint28_linear_702_38242" x1="-636.875" y1="231.922" x2="1925.75" y2="1547.17" gradientUnits="userSpaceOnUse">
<stop stop-color="#BE8143"/>
<stop offset="0.556227" stop-color="#8F664E"/>
<stop offset="1" stop-color="#BB7F44"/>
</linearGradient>
<linearGradient id="paint29_linear_702_38242" x1="-668.357" y1="237.929" x2="1907.22" y2="1607.23" gradientUnits="userSpaceOnUse">
<stop stop-color="#BE8143"/>
<stop offset="0.556227" stop-color="#8F664E"/>
<stop offset="1" stop-color="#BB7F44"/>
</linearGradient>
<linearGradient id="paint30_linear_702_38242" x1="-700.553" y1="243.655" x2="1887.8" y2="1666.94" gradientUnits="userSpaceOnUse">
<stop stop-color="#BE8143"/>
<stop offset="0.556227" stop-color="#8F664E"/>
<stop offset="1" stop-color="#BB7F44"/>
</linearGradient>
</defs>
</svg>
