<svg width="170" height="58" fill="none" xmlns="http://www.w3.org/2000/svg"><path d="M90.968 25V2.6h5.184v18.176h11.232V25H90.968zm29.817.384c-1.771 0-3.413-.288-4.928-.864-1.493-.576-2.795-1.387-3.904-2.432a11.424 11.424 0 01-2.56-3.68c-.597-1.408-.896-2.944-.896-4.608 0-1.664.299-3.2.896-4.608a11.196 11.196 0 012.592-3.68c1.109-1.045 2.411-1.856 3.904-2.432 1.493-.576 3.115-.864 4.864-.864 1.771 0 3.392.288 4.864.864 1.493.576 2.784 1.387 3.872 2.432a11.196 11.196 0 012.592 3.68c.619 1.387.928 2.923.928 4.608 0 1.664-.309 3.21-.928 4.64a11.195 11.195 0 01-2.592 3.68c-1.088 1.024-2.379 1.824-3.872 2.4-1.472.576-3.083.864-4.832.864zm-.032-4.416c1.003 0 1.92-.17 2.752-.512a6.601 6.601 0 002.24-1.472 6.524 6.524 0 001.472-2.272c.363-.875.544-1.845.544-2.912s-.181-2.037-.544-2.912a6.524 6.524 0 00-1.472-2.272 6.275 6.275 0 00-2.208-1.472c-.853-.341-1.781-.512-2.784-.512s-1.931.17-2.784.512a6.679 6.679 0 00-2.208 1.472 6.93 6.93 0 00-1.504 2.272c-.341.875-.512 1.845-.512 2.912a8.12 8.12 0 00.512 2.912 7.196 7.196 0 001.472 2.272c.64.64 1.387 1.13 2.24 1.472a7.432 7.432 0 002.784.512zM97.362 54.485c-1.992 0-3.828-.312-5.508-.936a13.404 13.404 0 01-4.356-2.736 12.846 12.846 0 01-2.88-4.14c-.672-1.584-1.008-3.324-1.008-5.22s.336-3.636 1.008-5.22a12.584 12.584 0 012.916-4.14c1.248-1.176 2.712-2.076 4.392-2.7 1.68-.648 3.528-.972 5.544-.972 2.232 0 4.236.372 6.012 1.116 1.8.744 3.312 1.824 4.536 3.24l-3.744 3.456c-.912-.96-1.908-1.668-2.988-2.124-1.08-.48-2.256-.72-3.528-.72-1.224 0-2.34.192-3.348.576a7.646 7.646 0 00-2.628 1.656 7.792 7.792 0 00-1.692 2.556c-.384.984-.576 2.076-.576 3.276 0 1.176.192 2.256.576 3.24a8.211 8.211 0 001.692 2.592 7.725 7.725 0 002.592 1.656c1.008.384 2.112.576 3.312.576 1.152 0 2.268-.18 3.348-.54 1.104-.384 2.172-1.02 3.204-1.908l3.312 4.212c-1.368 1.032-2.964 1.824-4.788 2.376-1.8.552-3.6.828-5.4.828zm4.86-3.96v-9.468h5.328v10.224l-5.328-.756zm22.986 3.96c-1.992 0-3.84-.324-5.544-.972-1.68-.648-3.144-1.56-4.392-2.736a12.846 12.846 0 01-2.88-4.14c-.672-1.584-1.008-3.312-1.008-5.184 0-1.872.336-3.6 1.008-5.184a12.584 12.584 0 012.916-4.14c1.248-1.176 2.712-2.088 4.392-2.736 1.68-.648 3.504-.972 5.472-.972 1.992 0 3.816.324 5.472.972 1.68.648 3.132 1.56 4.356 2.736a12.584 12.584 0 012.916 4.14c.696 1.56 1.044 3.288 1.044 5.184 0 1.872-.348 3.612-1.044 5.22a12.584 12.584 0 01-2.916 4.14c-1.224 1.152-2.676 2.052-4.356 2.7-1.656.648-3.468.972-5.436.972zm-.036-4.968c1.128 0 2.16-.192 3.096-.576.96-.384 1.8-.936 2.52-1.656a7.345 7.345 0 001.656-2.556c.408-.984.612-2.076.612-3.276 0-1.2-.204-2.292-.612-3.276a7.345 7.345 0 00-1.656-2.556 7.053 7.053 0 00-2.484-1.656c-.96-.384-2.004-.576-3.132-.576-1.128 0-2.172.192-3.132.576a7.513 7.513 0 00-2.484 1.656 7.792 7.792 0 00-1.692 2.556c-.384.984-.576 2.076-.576 3.276 0 1.176.192 2.268.576 3.276.408.984.96 1.836 1.656 2.556.72.72 1.56 1.272 2.52 1.656.96.384 2.004.576 3.132.576z" fill="#EDEDED"/><circle cx="52.533" cy="29.154" r="24.533" fill="url(#paint0_linear_205_31)"/><defs><linearGradient id="paint0_linear_205_31" x1="44.647" y1="53.687" x2="77.979" y2="20.415" gradientUnits="userSpaceOnUse"><stop stop-color="#986621"/><stop offset=".159" stop-color="#F0E193"/><stop offset=".782" stop-color="#916026"/><stop offset="1" stop-color="#EBDA8D"/></linearGradient></defs></svg>